%TF.GenerationSoftware,KiCad,Pcbnew,9.0.0*%
%TF.CreationDate,2025-03-11T18:34:40+03:00*%
%TF.ProjectId,Shield_Emergent_4,53686965-6c64-45f4-956d-657267656e74,rev?*%
%TF.SameCoordinates,Original*%
%TF.FileFunction,Copper,L2,Inr*%
%TF.FilePolarity,Positive*%
%FSLAX46Y46*%
G04 Gerber Fmt 4.6, Leading zero omitted, Abs format (unit mm)*
G04 Created by KiCad (PCBNEW 9.0.0) date 2025-03-11 18:34:40*
%MOMM*%
%LPD*%
G01*
G04 APERTURE LIST*
G04 Aperture macros list*
%AMRotRect*
0 Rectangle, with rotation*
0 The origin of the aperture is its center*
0 $1 length*
0 $2 width*
0 $3 Rotation angle, in degrees counterclockwise*
0 Add horizontal line*
21,1,$1,$2,0,0,$3*%
G04 Aperture macros list end*
%TA.AperFunction,ComponentPad*%
%ADD10R,1.000000X1.000000*%
%TD*%
%TA.AperFunction,ComponentPad*%
%ADD11O,1.000000X1.000000*%
%TD*%
%TA.AperFunction,ComponentPad*%
%ADD12C,0.900000*%
%TD*%
%TA.AperFunction,ComponentPad*%
%ADD13O,1.100000X2.220000*%
%TD*%
%TA.AperFunction,ComponentPad*%
%ADD14C,1.524000*%
%TD*%
%TA.AperFunction,ComponentPad*%
%ADD15R,1.700000X1.700000*%
%TD*%
%TA.AperFunction,ComponentPad*%
%ADD16O,1.700000X1.700000*%
%TD*%
%TA.AperFunction,ComponentPad*%
%ADD17RotRect,1.600000X1.600000X315.000000*%
%TD*%
%TA.AperFunction,ComponentPad*%
%ADD18C,1.600000*%
%TD*%
%TA.AperFunction,ComponentPad*%
%ADD19R,1.600000X1.600000*%
%TD*%
%TA.AperFunction,ViaPad*%
%ADD20C,0.600000*%
%TD*%
G04 APERTURE END LIST*
D10*
%TO.N,K1*%
%TO.C,J4*%
X8750000Y-34350000D03*
D11*
%TO.N,K3*%
X7479999Y-34350000D03*
%TO.N,K5*%
X6210000Y-34350000D03*
%TO.N,K7*%
X4940000Y-34350000D03*
%TO.N,K9*%
X3670001Y-34350000D03*
%TD*%
D12*
%TO.N,*%
%TO.C,X1*%
X12200000Y-23500000D03*
X12200000Y-12500000D03*
D13*
%TO.N,Shield*%
X12030000Y-22100000D03*
X14970000Y-22100000D03*
X12030000Y-13900000D03*
X14970000Y-13900000D03*
%TD*%
D14*
%TO.N,K2*%
%TO.C,J8*%
X13950000Y-25880000D03*
%TO.N,K1*%
X12950000Y-27880000D03*
%TO.N,K4*%
X11949999Y-25880000D03*
%TO.N,K3*%
X10950000Y-27880000D03*
%TO.N,K6*%
X9950000Y-25880000D03*
%TO.N,K5*%
X8950001Y-27880000D03*
%TO.N,K8*%
X7950000Y-25880000D03*
%TO.N,K7*%
X6950000Y-27880000D03*
%TO.N,GND*%
X5950000Y-25880000D03*
%TO.N,K9*%
X4950000Y-27880001D03*
%TD*%
D15*
%TO.N,GND*%
%TO.C,J2*%
X1830000Y-25190000D03*
D16*
%TO.N,D+*%
X1830000Y-22650000D03*
%TO.N,D-*%
X1830000Y-20110001D03*
%TO.N,VBUS*%
X1830000Y-17570000D03*
%TD*%
D10*
%TO.N,EN2*%
%TO.C,J6*%
X12400000Y-34380000D03*
D11*
%TO.N,nFLT2*%
X11129999Y-34380000D03*
%TD*%
D17*
%TO.N,VOUT2*%
%TO.C,C4*%
X20640000Y-32500000D03*
D18*
%TO.N,GND*%
X22054214Y-33914214D03*
%TD*%
D10*
%TO.N,EN1*%
%TO.C,J5*%
X2530000Y-14200000D03*
D11*
%TO.N,nFLT1*%
X1259999Y-14200000D03*
%TD*%
D10*
%TO.N,K2*%
%TO.C,J7*%
X5510000Y-17355000D03*
D11*
%TO.N,K4*%
X5510000Y-18625001D03*
%TO.N,K6*%
X5510000Y-19895000D03*
%TO.N,K8*%
X5510000Y-21165000D03*
%TO.N,GND*%
X5510000Y-22434999D03*
%TD*%
D19*
%TO.N,VOUT1*%
%TO.C,C1*%
X3805113Y-4550000D03*
D18*
%TO.N,GND*%
X1805113Y-4550000D03*
%TD*%
D20*
%TO.N,VOUT1*%
X18120000Y-3420000D03*
X18120000Y-4030000D03*
X18120000Y-4670000D03*
%TO.N,GND*%
X20730000Y-14910000D03*
X20170000Y-5990000D03*
X13770000Y-23330000D03*
X22600000Y-19200000D03*
X7180000Y-24820000D03*
X17830000Y-13770000D03*
X16690000Y-8490000D03*
X4600000Y-5800000D03*
X4620000Y-7220000D03*
X20009988Y-19833079D03*
X23510000Y-1250000D03*
X9750000Y-5870000D03*
X8000000Y-4490000D03*
X24240000Y-22480000D03*
X12920000Y-3100000D03*
X1930000Y-35140000D03*
X22400000Y-16400000D03*
X20000000Y-10360000D03*
X25830000Y-34270000D03*
X10870000Y-33100000D03*
X3050000Y-23890000D03*
X25930000Y-3640000D03*
X4340000Y-33570000D03*
X4380000Y-11180000D03*
X8960000Y-8580000D03*
X8190000Y-3240000D03*
X21730000Y-9330000D03*
X20000000Y-22150000D03*
X10750000Y-5860000D03*
X22030000Y-6640000D03*
X670000Y-23750000D03*
X26030000Y-24750000D03*
X21510000Y-27000000D03*
X15900000Y-31900000D03*
X910000Y-21340000D03*
X3830000Y-9640000D03*
X2200000Y-5800000D03*
X3890000Y-23260000D03*
X10770000Y-3310000D03*
X22760000Y-34690000D03*
X2310000Y-11940000D03*
X15950000Y-3140000D03*
X18650000Y-16170000D03*
X16110000Y-34600000D03*
X19850000Y-20480000D03*
X17100000Y-14000000D03*
X25070000Y-6160000D03*
X1320000Y-6070000D03*
X19340000Y-31200000D03*
X13140000Y-23030000D03*
X4450000Y-22050000D03*
X13820000Y-3190000D03*
X12750000Y-5810000D03*
X3610000Y-17980000D03*
X17770000Y-12080000D03*
X15190000Y-10680000D03*
X13800000Y-20800000D03*
X930000Y-980000D03*
X19080000Y-4140000D03*
X21610000Y-28470000D03*
X25910000Y-15680000D03*
X9510000Y-31030000D03*
X21300000Y-12830000D03*
X13360000Y-33100000D03*
X22400000Y-20200000D03*
X4170000Y-29900000D03*
X1220000Y-2580000D03*
X24290000Y-18800000D03*
X12200000Y-11400000D03*
X22550000Y-28650000D03*
X8500000Y-31000000D03*
X14690000Y-29970000D03*
X8430000Y-1120000D03*
X20010000Y-2770000D03*
X6950000Y-26630000D03*
X20310000Y-35150000D03*
X12390000Y-1480000D03*
X10400000Y-11400000D03*
X5670000Y-11950000D03*
X22400000Y-23200000D03*
X4720000Y-26490000D03*
X23220000Y-33000000D03*
X25450000Y-8050000D03*
X18980000Y-30240000D03*
X22450000Y-29930000D03*
X18480000Y-24080000D03*
X6060000Y-6020000D03*
X25980000Y-6630000D03*
X720000Y-6820000D03*
X12370000Y-30300000D03*
X16110000Y-33840000D03*
X16590000Y-15370000D03*
X13000000Y-20800000D03*
X10390000Y-12350000D03*
X10000000Y-35000000D03*
X11310000Y-11970000D03*
X10340000Y-20810000D03*
X10200000Y-15200000D03*
X890000Y-18820000D03*
X10500000Y-21410000D03*
X22400000Y-18200000D03*
X22600000Y-22200000D03*
X14800000Y-3120000D03*
X3610000Y-19660000D03*
X13860000Y-12060000D03*
X7510000Y-14560000D03*
X17710000Y-10360000D03*
X4730000Y-14260000D03*
X5520000Y-1720000D03*
X17850000Y-17890000D03*
X15960000Y-32990000D03*
X7420000Y-15350000D03*
X4940000Y-25000000D03*
X13460000Y-6050000D03*
X19750000Y-24750000D03*
X22050000Y-11250000D03*
X8530000Y-5810000D03*
X23050000Y-7930000D03*
X14430000Y-23690000D03*
X22400000Y-17200000D03*
X3370000Y-22220000D03*
X7270000Y-12720000D03*
X5300000Y-30000000D03*
X11030000Y-23140000D03*
X7250000Y-13750000D03*
X10400000Y-14400000D03*
X18730000Y-19160000D03*
X26360000Y-20030000D03*
X15460000Y-30220000D03*
X22210000Y-13100000D03*
X18740000Y-35350000D03*
X16950000Y-27810000D03*
X14900000Y-5920000D03*
X21670000Y-7220000D03*
X19500000Y-16760000D03*
X3560000Y-2790000D03*
X16030000Y-5640000D03*
X21030000Y-2580000D03*
X18130000Y-26220000D03*
X740000Y-26770000D03*
X17070000Y-23920000D03*
X14890000Y-28190000D03*
X19050000Y-28590000D03*
X2190000Y-26860000D03*
X2120000Y-2870000D03*
X26190000Y-750000D03*
X20670000Y-34510000D03*
X22050000Y-3450000D03*
X20610000Y-8480000D03*
X22500000Y-26750000D03*
X10000000Y-33000000D03*
X11780000Y-5770000D03*
X17400000Y-15400000D03*
X11480000Y-8670000D03*
X13480000Y-8710000D03*
X1000000Y-33500000D03*
X19820000Y-18150000D03*
X7540000Y-21390000D03*
X19820000Y-25660000D03*
X22400000Y-21200000D03*
%TO.N,VBUS*%
X16313481Y-18991601D03*
X6800000Y-17446926D03*
X7415000Y-19035000D03*
X10150000Y-19948632D03*
X10600000Y-16800000D03*
X16550000Y-16700000D03*
X7210554Y-18270000D03*
%TO.N,D+*%
X10189000Y-18363500D03*
X16313477Y-17527000D03*
%TO.N,D-*%
X10189000Y-17636500D03*
X10124302Y-19087618D03*
X16314920Y-18254003D03*
%TO.N,nFLT1*%
X8740000Y-16060000D03*
%TO.N,EN1*%
X4800000Y-15170000D03*
%TD*%
%TA.AperFunction,Conductor*%
%TO.N,GND*%
G36*
X26742471Y-257529D02*
G01*
X26749500Y-274500D01*
X26749500Y-28871443D01*
X26742471Y-28888414D01*
X26725500Y-28895443D01*
X26708529Y-28888414D01*
X26706084Y-28885550D01*
X26689261Y-28862396D01*
X26689259Y-28862394D01*
X26689257Y-28862391D01*
X26537609Y-28710743D01*
X26537605Y-28710740D01*
X26537604Y-28710739D01*
X26364112Y-28584689D01*
X26364105Y-28584685D01*
X26173020Y-28487323D01*
X26173014Y-28487320D01*
X25969058Y-28421050D01*
X25969054Y-28421049D01*
X25969053Y-28421049D01*
X25757231Y-28387500D01*
X25542769Y-28387500D01*
X25330947Y-28421049D01*
X25330945Y-28421049D01*
X25330942Y-28421050D01*
X25330940Y-28421050D01*
X25126985Y-28487320D01*
X25126979Y-28487323D01*
X24935894Y-28584685D01*
X24935887Y-28584689D01*
X24762395Y-28710739D01*
X24610739Y-28862395D01*
X24484689Y-29035887D01*
X24484685Y-29035894D01*
X24387323Y-29226979D01*
X24387320Y-29226985D01*
X24321050Y-29430940D01*
X24321050Y-29430942D01*
X24287500Y-29642771D01*
X24287500Y-29857228D01*
X24321050Y-30069057D01*
X24321050Y-30069059D01*
X24387320Y-30273014D01*
X24387323Y-30273020D01*
X24484685Y-30464105D01*
X24484689Y-30464112D01*
X24610739Y-30637604D01*
X24610743Y-30637609D01*
X24762391Y-30789257D01*
X24762394Y-30789259D01*
X24762395Y-30789260D01*
X24935887Y-30915310D01*
X24935894Y-30915314D01*
X25126982Y-31012678D01*
X25330947Y-31078951D01*
X25542769Y-31112500D01*
X25542772Y-31112500D01*
X25757228Y-31112500D01*
X25757231Y-31112500D01*
X25969053Y-31078951D01*
X26173018Y-31012678D01*
X26364106Y-30915314D01*
X26411395Y-30880957D01*
X26449501Y-30853271D01*
X26537609Y-30789257D01*
X26689257Y-30637609D01*
X26706084Y-30614448D01*
X26721745Y-30604851D01*
X26739606Y-30609138D01*
X26749204Y-30624800D01*
X26749500Y-30628555D01*
X26749500Y-35725500D01*
X26742471Y-35742471D01*
X26725500Y-35749500D01*
X274500Y-35749500D01*
X257529Y-35742471D01*
X250500Y-35725500D01*
X250500Y-34288192D01*
X3042501Y-34288192D01*
X3042501Y-34411807D01*
X3066614Y-34533030D01*
X3066617Y-34533037D01*
X3113915Y-34647229D01*
X3133963Y-34677233D01*
X3182590Y-34750008D01*
X3269993Y-34837411D01*
X3352526Y-34892558D01*
X3372771Y-34906085D01*
X3429867Y-34929734D01*
X3486966Y-34953385D01*
X3486969Y-34953385D01*
X3486970Y-34953386D01*
X3571006Y-34970102D01*
X3608198Y-34977500D01*
X3608202Y-34977500D01*
X3731800Y-34977500D01*
X3731804Y-34977500D01*
X3853036Y-34953385D01*
X3941360Y-34916800D01*
X3967230Y-34906085D01*
X3967231Y-34906084D01*
X3967234Y-34906083D01*
X4070009Y-34837411D01*
X4157412Y-34750008D01*
X4226084Y-34647233D01*
X4273386Y-34533035D01*
X4281461Y-34492437D01*
X4291666Y-34477165D01*
X4309682Y-34473581D01*
X4324955Y-34483786D01*
X4328539Y-34492437D01*
X4336614Y-34533032D01*
X4336616Y-34533037D01*
X4383914Y-34647229D01*
X4403962Y-34677233D01*
X4452589Y-34750008D01*
X4539992Y-34837411D01*
X4622525Y-34892558D01*
X4642770Y-34906085D01*
X4699866Y-34929734D01*
X4756965Y-34953385D01*
X4756968Y-34953385D01*
X4756969Y-34953386D01*
X4841005Y-34970102D01*
X4878197Y-34977500D01*
X4878201Y-34977500D01*
X5001799Y-34977500D01*
X5001803Y-34977500D01*
X5123035Y-34953385D01*
X5211359Y-34916800D01*
X5237229Y-34906085D01*
X5237230Y-34906084D01*
X5237233Y-34906083D01*
X5340008Y-34837411D01*
X5427411Y-34750008D01*
X5496083Y-34647233D01*
X5543385Y-34533035D01*
X5551461Y-34492435D01*
X5561666Y-34477162D01*
X5579682Y-34473578D01*
X5594955Y-34483783D01*
X5598539Y-34492435D01*
X5606613Y-34533030D01*
X5606616Y-34533037D01*
X5653914Y-34647229D01*
X5673962Y-34677233D01*
X5722589Y-34750008D01*
X5809992Y-34837411D01*
X5892525Y-34892558D01*
X5912770Y-34906085D01*
X5969866Y-34929734D01*
X6026965Y-34953385D01*
X6026968Y-34953385D01*
X6026969Y-34953386D01*
X6111005Y-34970102D01*
X6148197Y-34977500D01*
X6148201Y-34977500D01*
X6271799Y-34977500D01*
X6271803Y-34977500D01*
X6393035Y-34953385D01*
X6481359Y-34916800D01*
X6507229Y-34906085D01*
X6507230Y-34906084D01*
X6507233Y-34906083D01*
X6610008Y-34837411D01*
X6697411Y-34750008D01*
X6766083Y-34647233D01*
X6813385Y-34533035D01*
X6821460Y-34492437D01*
X6831665Y-34477165D01*
X6849681Y-34473581D01*
X6864954Y-34483786D01*
X6868538Y-34492437D01*
X6876613Y-34533032D01*
X6876615Y-34533037D01*
X6923913Y-34647229D01*
X6943961Y-34677233D01*
X6992588Y-34750008D01*
X7079991Y-34837411D01*
X7162524Y-34892558D01*
X7182769Y-34906085D01*
X7239865Y-34929734D01*
X7296964Y-34953385D01*
X7296967Y-34953385D01*
X7296968Y-34953386D01*
X7381004Y-34970102D01*
X7418196Y-34977500D01*
X7418200Y-34977500D01*
X7541798Y-34977500D01*
X7541802Y-34977500D01*
X7663034Y-34953385D01*
X7751358Y-34916800D01*
X7777228Y-34906085D01*
X7777229Y-34906084D01*
X7777232Y-34906083D01*
X7880007Y-34837411D01*
X7967410Y-34750008D01*
X8036082Y-34647233D01*
X8041455Y-34634263D01*
X8076327Y-34550072D01*
X8089315Y-34537083D01*
X8107684Y-34537083D01*
X8120673Y-34550071D01*
X8122500Y-34559256D01*
X8122500Y-34862562D01*
X8129897Y-34899746D01*
X8129897Y-34899747D01*
X8129898Y-34899748D01*
X8158078Y-34941922D01*
X8200252Y-34970102D01*
X8237442Y-34977500D01*
X8237446Y-34977500D01*
X9262554Y-34977500D01*
X9262558Y-34977500D01*
X9299748Y-34970102D01*
X9341922Y-34941922D01*
X9370102Y-34899748D01*
X9377500Y-34862558D01*
X9377500Y-34318192D01*
X10502499Y-34318192D01*
X10502499Y-34441807D01*
X10526612Y-34563030D01*
X10526615Y-34563037D01*
X10573913Y-34677229D01*
X10573916Y-34677233D01*
X10642588Y-34780008D01*
X10729991Y-34867411D01*
X10767626Y-34892558D01*
X10832769Y-34936085D01*
X10874532Y-34953383D01*
X10946964Y-34983385D01*
X10946967Y-34983385D01*
X10946968Y-34983386D01*
X11031004Y-35000102D01*
X11068196Y-35007500D01*
X11068200Y-35007500D01*
X11191798Y-35007500D01*
X11191802Y-35007500D01*
X11313034Y-34983385D01*
X11413133Y-34941923D01*
X11427228Y-34936085D01*
X11427229Y-34936084D01*
X11427232Y-34936083D01*
X11530007Y-34867411D01*
X11617410Y-34780008D01*
X11686082Y-34677233D01*
X11698509Y-34647233D01*
X11726327Y-34580072D01*
X11739315Y-34567083D01*
X11757684Y-34567083D01*
X11770673Y-34580071D01*
X11772500Y-34589256D01*
X11772500Y-34892562D01*
X11779897Y-34929746D01*
X11779897Y-34929747D01*
X11779898Y-34929748D01*
X11808078Y-34971922D01*
X11850252Y-35000102D01*
X11887442Y-35007500D01*
X11887446Y-35007500D01*
X12912554Y-35007500D01*
X12912558Y-35007500D01*
X12949748Y-35000102D01*
X12991922Y-34971922D01*
X13020102Y-34929748D01*
X13027500Y-34892558D01*
X13027500Y-33867442D01*
X13020102Y-33830252D01*
X13009386Y-33814214D01*
X21128944Y-33814214D01*
X21666898Y-33814214D01*
X21654214Y-33861553D01*
X21654214Y-33966875D01*
X21666898Y-34014214D01*
X21128944Y-34014214D01*
X21162836Y-34184605D01*
X21162838Y-34184612D01*
X21232715Y-34353309D01*
X21334164Y-34505139D01*
X21463288Y-34634263D01*
X21615118Y-34735712D01*
X21783813Y-34805588D01*
X21783822Y-34805590D01*
X21954214Y-34839482D01*
X21954214Y-34301529D01*
X22001553Y-34314214D01*
X22106875Y-34314214D01*
X22154214Y-34301529D01*
X22154214Y-34839482D01*
X22324605Y-34805590D01*
X22324614Y-34805588D01*
X22493309Y-34735712D01*
X22645139Y-34634263D01*
X22774263Y-34505139D01*
X22875712Y-34353309D01*
X22945589Y-34184612D01*
X22945591Y-34184605D01*
X22979484Y-34014214D01*
X22441530Y-34014214D01*
X22454214Y-33966875D01*
X22454214Y-33861553D01*
X22441530Y-33814214D01*
X22979483Y-33814214D01*
X22945591Y-33643822D01*
X22945589Y-33643815D01*
X22875712Y-33475118D01*
X22774263Y-33323288D01*
X22645139Y-33194164D01*
X22493309Y-33092715D01*
X22324612Y-33022838D01*
X22324605Y-33022836D01*
X22154214Y-32988944D01*
X22154214Y-33526898D01*
X22106875Y-33514214D01*
X22001553Y-33514214D01*
X21954214Y-33526898D01*
X21954214Y-32988944D01*
X21783822Y-33022836D01*
X21783815Y-33022838D01*
X21615118Y-33092715D01*
X21463288Y-33194164D01*
X21334164Y-33323288D01*
X21232715Y-33475118D01*
X21162838Y-33643815D01*
X21162836Y-33643822D01*
X21128944Y-33814214D01*
X13009386Y-33814214D01*
X12991922Y-33788078D01*
X12949748Y-33759898D01*
X12949747Y-33759897D01*
X12949746Y-33759897D01*
X12912562Y-33752500D01*
X12912558Y-33752500D01*
X11887442Y-33752500D01*
X11887437Y-33752500D01*
X11850253Y-33759897D01*
X11808080Y-33788076D01*
X11808076Y-33788080D01*
X11779897Y-33830253D01*
X11772500Y-33867437D01*
X11772500Y-34170743D01*
X11765471Y-34187714D01*
X11748500Y-34194743D01*
X11731529Y-34187714D01*
X11726327Y-34179927D01*
X11686084Y-34082770D01*
X11617411Y-33979994D01*
X11617410Y-33979992D01*
X11530007Y-33892589D01*
X11492372Y-33867442D01*
X11427228Y-33823914D01*
X11313036Y-33776616D01*
X11313029Y-33776613D01*
X11191806Y-33752500D01*
X11191802Y-33752500D01*
X11068196Y-33752500D01*
X11068191Y-33752500D01*
X10946968Y-33776613D01*
X10946961Y-33776616D01*
X10832769Y-33823914D01*
X10729993Y-33892587D01*
X10642586Y-33979994D01*
X10573913Y-34082770D01*
X10526615Y-34196962D01*
X10526612Y-34196969D01*
X10502499Y-34318192D01*
X9377500Y-34318192D01*
X9377500Y-33837442D01*
X9370102Y-33800252D01*
X9341922Y-33758078D01*
X9299748Y-33729898D01*
X9299747Y-33729897D01*
X9299746Y-33729897D01*
X9262562Y-33722500D01*
X9262558Y-33722500D01*
X8237442Y-33722500D01*
X8237437Y-33722500D01*
X8200253Y-33729897D01*
X8158080Y-33758076D01*
X8158076Y-33758080D01*
X8129897Y-33800253D01*
X8122500Y-33837437D01*
X8122500Y-34140743D01*
X8115471Y-34157714D01*
X8098500Y-34164743D01*
X8081529Y-34157714D01*
X8076327Y-34149927D01*
X8036084Y-34052770D01*
X8010322Y-34014214D01*
X7967410Y-33949992D01*
X7880007Y-33862589D01*
X7842372Y-33837442D01*
X7777228Y-33793914D01*
X7663036Y-33746616D01*
X7663029Y-33746613D01*
X7541806Y-33722500D01*
X7541802Y-33722500D01*
X7418196Y-33722500D01*
X7418191Y-33722500D01*
X7296968Y-33746613D01*
X7296961Y-33746616D01*
X7182769Y-33793914D01*
X7079993Y-33862587D01*
X6992586Y-33949994D01*
X6923913Y-34052770D01*
X6876615Y-34166962D01*
X6876613Y-34166967D01*
X6868538Y-34207562D01*
X6858332Y-34222835D01*
X6840316Y-34226418D01*
X6825043Y-34216212D01*
X6821460Y-34207561D01*
X6813386Y-34166969D01*
X6813385Y-34166967D01*
X6813385Y-34166965D01*
X6778511Y-34082770D01*
X6766085Y-34052770D01*
X6740323Y-34014214D01*
X6697411Y-33949992D01*
X6610008Y-33862589D01*
X6572373Y-33837442D01*
X6507229Y-33793914D01*
X6393037Y-33746616D01*
X6393030Y-33746613D01*
X6271807Y-33722500D01*
X6271803Y-33722500D01*
X6148197Y-33722500D01*
X6148192Y-33722500D01*
X6026969Y-33746613D01*
X6026962Y-33746616D01*
X5912770Y-33793914D01*
X5809994Y-33862587D01*
X5722587Y-33949994D01*
X5653914Y-34052770D01*
X5606616Y-34166962D01*
X5606613Y-34166969D01*
X5598539Y-34207564D01*
X5588334Y-34222837D01*
X5570318Y-34226421D01*
X5555045Y-34216216D01*
X5551461Y-34207564D01*
X5543386Y-34166969D01*
X5543385Y-34166967D01*
X5543385Y-34166965D01*
X5508511Y-34082770D01*
X5496085Y-34052770D01*
X5470323Y-34014214D01*
X5427411Y-33949992D01*
X5340008Y-33862589D01*
X5302373Y-33837442D01*
X5237229Y-33793914D01*
X5123037Y-33746616D01*
X5123030Y-33746613D01*
X5001807Y-33722500D01*
X5001803Y-33722500D01*
X4878197Y-33722500D01*
X4878192Y-33722500D01*
X4756969Y-33746613D01*
X4756962Y-33746616D01*
X4642770Y-33793914D01*
X4539994Y-33862587D01*
X4452587Y-33949994D01*
X4383914Y-34052770D01*
X4336616Y-34166962D01*
X4336614Y-34166967D01*
X4328539Y-34207562D01*
X4318333Y-34222835D01*
X4300317Y-34226418D01*
X4285044Y-34216212D01*
X4281461Y-34207561D01*
X4273387Y-34166969D01*
X4273386Y-34166967D01*
X4273386Y-34166965D01*
X4238512Y-34082770D01*
X4226086Y-34052770D01*
X4200324Y-34014214D01*
X4157412Y-33949992D01*
X4070009Y-33862589D01*
X4032374Y-33837442D01*
X3967230Y-33793914D01*
X3853038Y-33746616D01*
X3853031Y-33746613D01*
X3731808Y-33722500D01*
X3731804Y-33722500D01*
X3608198Y-33722500D01*
X3608193Y-33722500D01*
X3486970Y-33746613D01*
X3486963Y-33746616D01*
X3372771Y-33793914D01*
X3269995Y-33862587D01*
X3182588Y-33949994D01*
X3113915Y-34052770D01*
X3066617Y-34166962D01*
X3066614Y-34166969D01*
X3042501Y-34288192D01*
X250500Y-34288192D01*
X250500Y-32500000D01*
X19378632Y-32500000D01*
X19388526Y-32549747D01*
X19388527Y-32549749D01*
X19409449Y-32581061D01*
X19409593Y-32581276D01*
X20558724Y-33730407D01*
X20574488Y-33740940D01*
X20590250Y-33751472D01*
X20590252Y-33751473D01*
X20640000Y-33761368D01*
X20689748Y-33751473D01*
X20721276Y-33730407D01*
X21870407Y-32581276D01*
X21891473Y-32549748D01*
X21901368Y-32500000D01*
X21891473Y-32450252D01*
X21870407Y-32418724D01*
X20721276Y-31269593D01*
X20721061Y-31269449D01*
X20689749Y-31248527D01*
X20689747Y-31248526D01*
X20640000Y-31238632D01*
X20590252Y-31248526D01*
X20590250Y-31248527D01*
X20558726Y-31269591D01*
X19409591Y-32418726D01*
X19388527Y-32450250D01*
X19388526Y-32450252D01*
X19378632Y-32500000D01*
X250500Y-32500000D01*
X250500Y-30900373D01*
X257529Y-30883402D01*
X274500Y-30876373D01*
X288605Y-30880956D01*
X335894Y-30915314D01*
X526982Y-31012678D01*
X730947Y-31078951D01*
X942769Y-31112500D01*
X942772Y-31112500D01*
X1157228Y-31112500D01*
X1157231Y-31112500D01*
X1369053Y-31078951D01*
X1573018Y-31012678D01*
X1764106Y-30915314D01*
X1811395Y-30880957D01*
X1849501Y-30853271D01*
X1937609Y-30789257D01*
X2089257Y-30637609D01*
X2215314Y-30464106D01*
X2312678Y-30273018D01*
X2378951Y-30069053D01*
X2412500Y-29857231D01*
X2412500Y-29642769D01*
X2378951Y-29430947D01*
X2312678Y-29226982D01*
X2215314Y-29035894D01*
X2215310Y-29035887D01*
X2089260Y-28862395D01*
X2089259Y-28862394D01*
X2089257Y-28862391D01*
X1937609Y-28710743D01*
X1937605Y-28710740D01*
X1937604Y-28710739D01*
X1764112Y-28584689D01*
X1764105Y-28584685D01*
X1573020Y-28487323D01*
X1573014Y-28487320D01*
X1369058Y-28421050D01*
X1369054Y-28421049D01*
X1369053Y-28421049D01*
X1157231Y-28387500D01*
X942769Y-28387500D01*
X730947Y-28421049D01*
X730945Y-28421049D01*
X730942Y-28421050D01*
X730940Y-28421050D01*
X526985Y-28487320D01*
X526979Y-28487323D01*
X335894Y-28584685D01*
X335887Y-28584689D01*
X288607Y-28619041D01*
X270745Y-28623330D01*
X255084Y-28613732D01*
X250500Y-28599625D01*
X250500Y-27792388D01*
X4060500Y-27792388D01*
X4060500Y-27967613D01*
X4094681Y-28139454D01*
X4094682Y-28139458D01*
X4094683Y-28139459D01*
X4094683Y-28139460D01*
X4094684Y-28139461D01*
X4161732Y-28301333D01*
X4161735Y-28301337D01*
X4259080Y-28447024D01*
X4382977Y-28570921D01*
X4425936Y-28599625D01*
X4528667Y-28668268D01*
X4609603Y-28701792D01*
X4690542Y-28735318D01*
X4690545Y-28735318D01*
X4690546Y-28735319D01*
X4857930Y-28768613D01*
X4862392Y-28769501D01*
X4862396Y-28769501D01*
X5037604Y-28769501D01*
X5037608Y-28769501D01*
X5209458Y-28735318D01*
X5334661Y-28683457D01*
X5371332Y-28668268D01*
X5371333Y-28668267D01*
X5371336Y-28668266D01*
X5517023Y-28570921D01*
X5640920Y-28447024D01*
X5738265Y-28301337D01*
X5805317Y-28139459D01*
X5839500Y-27967609D01*
X5839500Y-27792393D01*
X5839499Y-27792387D01*
X6060500Y-27792387D01*
X6060500Y-27967612D01*
X6094681Y-28139453D01*
X6094682Y-28139457D01*
X6094683Y-28139458D01*
X6094683Y-28139459D01*
X6094684Y-28139460D01*
X6161732Y-28301332D01*
X6219308Y-28387500D01*
X6259080Y-28447023D01*
X6382977Y-28570920D01*
X6403584Y-28584689D01*
X6528667Y-28668267D01*
X6609603Y-28701791D01*
X6690542Y-28735317D01*
X6690545Y-28735317D01*
X6690546Y-28735318D01*
X6857930Y-28768612D01*
X6862392Y-28769500D01*
X6862396Y-28769500D01*
X7037604Y-28769500D01*
X7037608Y-28769500D01*
X7209458Y-28735317D01*
X7334661Y-28683456D01*
X7371332Y-28668267D01*
X7371333Y-28668266D01*
X7371336Y-28668265D01*
X7517023Y-28570920D01*
X7640920Y-28447023D01*
X7738265Y-28301336D01*
X7805317Y-28139458D01*
X7839500Y-27967608D01*
X7839500Y-27792392D01*
X7839499Y-27792387D01*
X8060501Y-27792387D01*
X8060501Y-27967612D01*
X8094682Y-28139453D01*
X8094683Y-28139457D01*
X8094684Y-28139458D01*
X8094684Y-28139459D01*
X8094685Y-28139460D01*
X8161733Y-28301332D01*
X8219309Y-28387500D01*
X8259081Y-28447023D01*
X8382978Y-28570920D01*
X8403585Y-28584689D01*
X8528668Y-28668267D01*
X8609604Y-28701791D01*
X8690543Y-28735317D01*
X8690546Y-28735317D01*
X8690547Y-28735318D01*
X8857931Y-28768612D01*
X8862393Y-28769500D01*
X8862397Y-28769500D01*
X9037605Y-28769500D01*
X9037609Y-28769500D01*
X9209459Y-28735317D01*
X9334662Y-28683456D01*
X9371333Y-28668267D01*
X9371334Y-28668266D01*
X9371337Y-28668265D01*
X9517024Y-28570920D01*
X9640921Y-28447023D01*
X9738266Y-28301336D01*
X9805318Y-28139458D01*
X9839501Y-27967608D01*
X9839501Y-27792392D01*
X9839500Y-27792387D01*
X10060500Y-27792387D01*
X10060500Y-27967612D01*
X10094681Y-28139453D01*
X10094682Y-28139457D01*
X10094683Y-28139458D01*
X10094683Y-28139459D01*
X10094684Y-28139460D01*
X10161732Y-28301332D01*
X10219308Y-28387500D01*
X10259080Y-28447023D01*
X10382977Y-28570920D01*
X10403584Y-28584689D01*
X10528667Y-28668267D01*
X10609603Y-28701791D01*
X10690542Y-28735317D01*
X10690545Y-28735317D01*
X10690546Y-28735318D01*
X10857930Y-28768612D01*
X10862392Y-28769500D01*
X10862396Y-28769500D01*
X11037604Y-28769500D01*
X11037608Y-28769500D01*
X11209458Y-28735317D01*
X11334661Y-28683456D01*
X11371332Y-28668267D01*
X11371333Y-28668266D01*
X11371336Y-28668265D01*
X11517023Y-28570920D01*
X11640920Y-28447023D01*
X11738265Y-28301336D01*
X11805317Y-28139458D01*
X11839500Y-27967608D01*
X11839500Y-27792392D01*
X11839499Y-27792387D01*
X12060500Y-27792387D01*
X12060500Y-27967612D01*
X12094681Y-28139453D01*
X12094682Y-28139457D01*
X12094683Y-28139458D01*
X12094683Y-28139459D01*
X12094684Y-28139460D01*
X12161732Y-28301332D01*
X12219308Y-28387500D01*
X12259080Y-28447023D01*
X12382977Y-28570920D01*
X12403584Y-28584689D01*
X12528667Y-28668267D01*
X12609603Y-28701791D01*
X12690542Y-28735317D01*
X12690545Y-28735317D01*
X12690546Y-28735318D01*
X12857930Y-28768612D01*
X12862392Y-28769500D01*
X12862396Y-28769500D01*
X13037604Y-28769500D01*
X13037608Y-28769500D01*
X13209458Y-28735317D01*
X13334661Y-28683456D01*
X13371332Y-28668267D01*
X13371333Y-28668266D01*
X13371336Y-28668265D01*
X13517023Y-28570920D01*
X13640920Y-28447023D01*
X13738265Y-28301336D01*
X13805317Y-28139458D01*
X13839500Y-27967608D01*
X13839500Y-27792392D01*
X13805317Y-27620542D01*
X13738267Y-27458668D01*
X13738267Y-27458667D01*
X13640921Y-27312979D01*
X13640920Y-27312977D01*
X13517023Y-27189080D01*
X13515027Y-27187746D01*
X13371332Y-27091732D01*
X13227795Y-27032278D01*
X13209458Y-27024683D01*
X13209457Y-27024682D01*
X13209453Y-27024681D01*
X13037612Y-26990500D01*
X13037608Y-26990500D01*
X12862392Y-26990500D01*
X12862387Y-26990500D01*
X12690546Y-27024681D01*
X12690539Y-27024684D01*
X12528667Y-27091732D01*
X12382979Y-27189078D01*
X12259078Y-27312979D01*
X12161732Y-27458667D01*
X12094684Y-27620539D01*
X12094681Y-27620546D01*
X12060500Y-27792387D01*
X11839499Y-27792387D01*
X11805317Y-27620542D01*
X11738267Y-27458668D01*
X11738267Y-27458667D01*
X11640921Y-27312979D01*
X11640920Y-27312977D01*
X11517023Y-27189080D01*
X11515027Y-27187746D01*
X11371332Y-27091732D01*
X11227795Y-27032278D01*
X11209458Y-27024683D01*
X11209457Y-27024682D01*
X11209453Y-27024681D01*
X11037612Y-26990500D01*
X11037608Y-26990500D01*
X10862392Y-26990500D01*
X10862387Y-26990500D01*
X10690546Y-27024681D01*
X10690539Y-27024684D01*
X10528667Y-27091732D01*
X10382979Y-27189078D01*
X10259078Y-27312979D01*
X10161732Y-27458667D01*
X10094684Y-27620539D01*
X10094681Y-27620546D01*
X10060500Y-27792387D01*
X9839500Y-27792387D01*
X9805318Y-27620542D01*
X9738268Y-27458668D01*
X9738268Y-27458667D01*
X9640922Y-27312979D01*
X9640921Y-27312977D01*
X9517024Y-27189080D01*
X9515028Y-27187746D01*
X9371333Y-27091732D01*
X9227796Y-27032278D01*
X9209459Y-27024683D01*
X9209458Y-27024682D01*
X9209454Y-27024681D01*
X9037613Y-26990500D01*
X9037609Y-26990500D01*
X8862393Y-26990500D01*
X8862388Y-26990500D01*
X8690547Y-27024681D01*
X8690540Y-27024684D01*
X8528668Y-27091732D01*
X8382980Y-27189078D01*
X8259079Y-27312979D01*
X8161733Y-27458667D01*
X8094685Y-27620539D01*
X8094682Y-27620546D01*
X8060501Y-27792387D01*
X7839499Y-27792387D01*
X7805317Y-27620542D01*
X7738267Y-27458668D01*
X7738267Y-27458667D01*
X7640921Y-27312979D01*
X7640920Y-27312977D01*
X7517023Y-27189080D01*
X7515027Y-27187746D01*
X7371332Y-27091732D01*
X7227795Y-27032278D01*
X7209458Y-27024683D01*
X7209457Y-27024682D01*
X7209453Y-27024681D01*
X7037612Y-26990500D01*
X7037608Y-26990500D01*
X6862392Y-26990500D01*
X6862387Y-26990500D01*
X6690546Y-27024681D01*
X6690539Y-27024684D01*
X6528667Y-27091732D01*
X6382979Y-27189078D01*
X6259078Y-27312979D01*
X6161732Y-27458667D01*
X6094684Y-27620539D01*
X6094681Y-27620546D01*
X6060500Y-27792387D01*
X5839499Y-27792387D01*
X5805317Y-27620543D01*
X5771791Y-27539604D01*
X5738267Y-27458668D01*
X5640921Y-27312980D01*
X5640920Y-27312978D01*
X5517023Y-27189081D01*
X5371336Y-27091736D01*
X5371337Y-27091736D01*
X5371332Y-27091733D01*
X5209460Y-27024685D01*
X5209453Y-27024682D01*
X5037612Y-26990501D01*
X5037608Y-26990501D01*
X4862392Y-26990501D01*
X4862387Y-26990501D01*
X4690546Y-27024682D01*
X4690539Y-27024685D01*
X4528667Y-27091733D01*
X4382979Y-27189079D01*
X4259078Y-27312980D01*
X4161732Y-27458668D01*
X4094684Y-27620540D01*
X4094681Y-27620547D01*
X4060500Y-27792388D01*
X250500Y-27792388D01*
X250500Y-24327487D01*
X853000Y-24327487D01*
X853000Y-25089999D01*
X853001Y-25090000D01*
X1339157Y-25090000D01*
X1330000Y-25124174D01*
X1330000Y-25255826D01*
X1339157Y-25290000D01*
X853001Y-25290000D01*
X853000Y-25290001D01*
X853000Y-26052512D01*
X860368Y-26089553D01*
X888436Y-26131559D01*
X888440Y-26131563D01*
X930446Y-26159631D01*
X967487Y-26166999D01*
X967496Y-26167000D01*
X1729999Y-26167000D01*
X1730000Y-26166999D01*
X1730000Y-25680842D01*
X1764174Y-25690000D01*
X1895826Y-25690000D01*
X1930000Y-25680842D01*
X1930000Y-26166999D01*
X1930001Y-26167000D01*
X2692504Y-26167000D01*
X2692512Y-26166999D01*
X2729553Y-26159631D01*
X2771559Y-26131563D01*
X2771563Y-26131559D01*
X2799631Y-26089553D01*
X2806999Y-26052512D01*
X2807000Y-26052504D01*
X2807000Y-25792436D01*
X5061000Y-25792436D01*
X5061000Y-25967563D01*
X5095162Y-26139307D01*
X5095164Y-26139314D01*
X5162176Y-26301095D01*
X5252420Y-26436155D01*
X5619323Y-26069251D01*
X5645124Y-26113940D01*
X5716060Y-26184876D01*
X5760745Y-26210675D01*
X5393843Y-26577578D01*
X5528904Y-26667823D01*
X5690685Y-26734835D01*
X5690692Y-26734837D01*
X5862436Y-26768999D01*
X5862445Y-26769000D01*
X6037555Y-26769000D01*
X6037563Y-26768999D01*
X6209307Y-26734837D01*
X6209314Y-26734835D01*
X6371095Y-26667823D01*
X6506155Y-26577578D01*
X6139253Y-26210676D01*
X6183940Y-26184876D01*
X6254876Y-26113940D01*
X6280676Y-26069253D01*
X6647578Y-26436155D01*
X6737823Y-26301095D01*
X6804835Y-26139314D01*
X6804837Y-26139307D01*
X6838999Y-25967563D01*
X6839000Y-25967555D01*
X6839000Y-25792443D01*
X6838999Y-25792437D01*
X6838989Y-25792387D01*
X7060500Y-25792387D01*
X7060500Y-25967612D01*
X7094681Y-26139453D01*
X7094684Y-26139460D01*
X7161732Y-26301332D01*
X7161735Y-26301336D01*
X7259080Y-26447023D01*
X7382977Y-26570920D01*
X7528003Y-26667823D01*
X7528667Y-26668267D01*
X7609603Y-26701791D01*
X7690542Y-26735317D01*
X7690545Y-26735317D01*
X7690546Y-26735318D01*
X7857930Y-26768612D01*
X7862392Y-26769500D01*
X7862396Y-26769500D01*
X8037604Y-26769500D01*
X8037608Y-26769500D01*
X8209458Y-26735317D01*
X8334661Y-26683456D01*
X8371332Y-26668267D01*
X8371333Y-26668266D01*
X8371336Y-26668265D01*
X8517023Y-26570920D01*
X8640920Y-26447023D01*
X8738265Y-26301336D01*
X8805317Y-26139458D01*
X8839500Y-25967608D01*
X8839500Y-25792392D01*
X8839499Y-25792387D01*
X9060500Y-25792387D01*
X9060500Y-25967612D01*
X9094681Y-26139453D01*
X9094684Y-26139460D01*
X9161732Y-26301332D01*
X9161735Y-26301336D01*
X9259080Y-26447023D01*
X9382977Y-26570920D01*
X9528003Y-26667823D01*
X9528667Y-26668267D01*
X9609603Y-26701791D01*
X9690542Y-26735317D01*
X9690545Y-26735317D01*
X9690546Y-26735318D01*
X9857930Y-26768612D01*
X9862392Y-26769500D01*
X9862396Y-26769500D01*
X10037604Y-26769500D01*
X10037608Y-26769500D01*
X10209458Y-26735317D01*
X10334661Y-26683456D01*
X10371332Y-26668267D01*
X10371333Y-26668266D01*
X10371336Y-26668265D01*
X10517023Y-26570920D01*
X10640920Y-26447023D01*
X10738265Y-26301336D01*
X10805317Y-26139458D01*
X10839500Y-25967608D01*
X10839500Y-25792392D01*
X10839499Y-25792387D01*
X11060499Y-25792387D01*
X11060499Y-25967612D01*
X11094680Y-26139453D01*
X11094683Y-26139460D01*
X11161731Y-26301332D01*
X11161734Y-26301336D01*
X11259079Y-26447023D01*
X11382976Y-26570920D01*
X11528002Y-26667823D01*
X11528666Y-26668267D01*
X11609602Y-26701791D01*
X11690541Y-26735317D01*
X11690544Y-26735317D01*
X11690545Y-26735318D01*
X11857929Y-26768612D01*
X11862391Y-26769500D01*
X11862395Y-26769500D01*
X12037603Y-26769500D01*
X12037607Y-26769500D01*
X12209457Y-26735317D01*
X12334660Y-26683456D01*
X12371331Y-26668267D01*
X12371332Y-26668266D01*
X12371335Y-26668265D01*
X12517022Y-26570920D01*
X12640919Y-26447023D01*
X12738264Y-26301336D01*
X12805316Y-26139458D01*
X12839499Y-25967608D01*
X12839499Y-25792392D01*
X12839498Y-25792387D01*
X13060500Y-25792387D01*
X13060500Y-25967612D01*
X13094681Y-26139453D01*
X13094684Y-26139460D01*
X13161732Y-26301332D01*
X13161735Y-26301336D01*
X13259080Y-26447023D01*
X13382977Y-26570920D01*
X13528003Y-26667823D01*
X13528667Y-26668267D01*
X13609603Y-26701791D01*
X13690542Y-26735317D01*
X13690545Y-26735317D01*
X13690546Y-26735318D01*
X13857930Y-26768612D01*
X13862392Y-26769500D01*
X13862396Y-26769500D01*
X14037604Y-26769500D01*
X14037608Y-26769500D01*
X14209458Y-26735317D01*
X14334661Y-26683456D01*
X14371332Y-26668267D01*
X14371333Y-26668266D01*
X14371336Y-26668265D01*
X14517023Y-26570920D01*
X14640920Y-26447023D01*
X14738265Y-26301336D01*
X14805317Y-26139458D01*
X14839500Y-25967608D01*
X14839500Y-25792392D01*
X14805347Y-25620692D01*
X14805318Y-25620546D01*
X14805317Y-25620545D01*
X14805317Y-25620542D01*
X14754973Y-25499000D01*
X14738267Y-25458667D01*
X14640921Y-25312979D01*
X14640920Y-25312977D01*
X14517023Y-25189080D01*
X14507056Y-25182420D01*
X14371332Y-25091732D01*
X14209460Y-25024684D01*
X14209453Y-25024681D01*
X14037612Y-24990500D01*
X14037608Y-24990500D01*
X13862392Y-24990500D01*
X13862387Y-24990500D01*
X13690546Y-25024681D01*
X13690539Y-25024684D01*
X13528667Y-25091732D01*
X13382979Y-25189078D01*
X13259078Y-25312979D01*
X13161732Y-25458667D01*
X13094684Y-25620539D01*
X13094681Y-25620546D01*
X13060500Y-25792387D01*
X12839498Y-25792387D01*
X12805346Y-25620692D01*
X12805317Y-25620546D01*
X12805316Y-25620545D01*
X12805316Y-25620542D01*
X12754972Y-25499000D01*
X12738266Y-25458667D01*
X12640920Y-25312979D01*
X12640919Y-25312977D01*
X12517022Y-25189080D01*
X12507055Y-25182420D01*
X12371331Y-25091732D01*
X12209459Y-25024684D01*
X12209452Y-25024681D01*
X12037611Y-24990500D01*
X12037607Y-24990500D01*
X11862391Y-24990500D01*
X11862386Y-24990500D01*
X11690545Y-25024681D01*
X11690538Y-25024684D01*
X11528666Y-25091732D01*
X11382978Y-25189078D01*
X11259077Y-25312979D01*
X11161731Y-25458667D01*
X11094683Y-25620539D01*
X11094680Y-25620546D01*
X11060499Y-25792387D01*
X10839499Y-25792387D01*
X10805347Y-25620692D01*
X10805318Y-25620546D01*
X10805317Y-25620545D01*
X10805317Y-25620542D01*
X10754973Y-25499000D01*
X10738267Y-25458667D01*
X10640921Y-25312979D01*
X10640920Y-25312977D01*
X10517023Y-25189080D01*
X10507056Y-25182420D01*
X10371332Y-25091732D01*
X10209460Y-25024684D01*
X10209453Y-25024681D01*
X10037612Y-24990500D01*
X10037608Y-24990500D01*
X9862392Y-24990500D01*
X9862387Y-24990500D01*
X9690546Y-25024681D01*
X9690539Y-25024684D01*
X9528667Y-25091732D01*
X9382979Y-25189078D01*
X9259078Y-25312979D01*
X9161732Y-25458667D01*
X9094684Y-25620539D01*
X9094681Y-25620546D01*
X9060500Y-25792387D01*
X8839499Y-25792387D01*
X8805347Y-25620692D01*
X8805318Y-25620546D01*
X8805317Y-25620545D01*
X8805317Y-25620542D01*
X8754973Y-25499000D01*
X8738267Y-25458667D01*
X8640921Y-25312979D01*
X8640920Y-25312977D01*
X8517023Y-25189080D01*
X8507056Y-25182420D01*
X8371332Y-25091732D01*
X8209460Y-25024684D01*
X8209453Y-25024681D01*
X8037612Y-24990500D01*
X8037608Y-24990500D01*
X7862392Y-24990500D01*
X7862387Y-24990500D01*
X7690546Y-25024681D01*
X7690539Y-25024684D01*
X7528667Y-25091732D01*
X7382979Y-25189078D01*
X7259078Y-25312979D01*
X7161732Y-25458667D01*
X7094684Y-25620539D01*
X7094681Y-25620546D01*
X7060500Y-25792387D01*
X6838989Y-25792387D01*
X6804837Y-25620692D01*
X6804835Y-25620685D01*
X6737823Y-25458904D01*
X6647578Y-25323843D01*
X6280675Y-25690745D01*
X6254876Y-25646060D01*
X6183940Y-25575124D01*
X6139251Y-25549323D01*
X6506155Y-25182420D01*
X6371095Y-25092176D01*
X6209314Y-25025164D01*
X6209307Y-25025162D01*
X6037563Y-24991000D01*
X5862436Y-24991000D01*
X5690692Y-25025162D01*
X5690685Y-25025164D01*
X5528904Y-25092176D01*
X5393843Y-25182420D01*
X5760746Y-25549323D01*
X5716060Y-25575124D01*
X5645124Y-25646060D01*
X5619323Y-25690746D01*
X5252420Y-25323843D01*
X5162176Y-25458904D01*
X5095164Y-25620685D01*
X5095162Y-25620692D01*
X5061000Y-25792436D01*
X2807000Y-25792436D01*
X2807000Y-25290001D01*
X2806999Y-25290000D01*
X2320843Y-25290000D01*
X2330000Y-25255826D01*
X2330000Y-25124174D01*
X2320843Y-25090000D01*
X2806999Y-25090000D01*
X2807000Y-25089999D01*
X2807000Y-24327495D01*
X2806999Y-24327487D01*
X2799631Y-24290446D01*
X2771563Y-24248440D01*
X2771559Y-24248436D01*
X2729553Y-24220368D01*
X2692512Y-24213000D01*
X1930001Y-24213000D01*
X1930000Y-24213001D01*
X1930000Y-24699157D01*
X1895826Y-24690000D01*
X1764174Y-24690000D01*
X1730000Y-24699157D01*
X1730000Y-24213001D01*
X1729999Y-24213000D01*
X967487Y-24213000D01*
X930446Y-24220368D01*
X888440Y-24248436D01*
X888436Y-24248440D01*
X860368Y-24290446D01*
X853000Y-24327487D01*
X250500Y-24327487D01*
X250500Y-22553720D01*
X852500Y-22553720D01*
X852500Y-22746279D01*
X890063Y-22935121D01*
X890065Y-22935130D01*
X963747Y-23113016D01*
X963750Y-23113020D01*
X1070726Y-23273120D01*
X1206880Y-23409274D01*
X1228877Y-23423972D01*
X1366983Y-23516252D01*
X1511299Y-23576029D01*
X1544874Y-23589936D01*
X1733725Y-23627500D01*
X1733729Y-23627500D01*
X1926271Y-23627500D01*
X1926275Y-23627500D01*
X2115126Y-23589936D01*
X2204073Y-23553093D01*
X2293016Y-23516252D01*
X2293017Y-23516251D01*
X2293020Y-23516250D01*
X2453120Y-23409274D01*
X2589274Y-23273120D01*
X2696250Y-23113020D01*
X2705008Y-23091878D01*
X2769934Y-22935130D01*
X2769936Y-22935126D01*
X2807500Y-22746275D01*
X2807500Y-22553725D01*
X2769936Y-22364874D01*
X2769934Y-22364869D01*
X2696252Y-22186983D01*
X2659612Y-22132148D01*
X2589274Y-22026880D01*
X2453120Y-21890726D01*
X2365369Y-21832092D01*
X2293016Y-21783747D01*
X2115130Y-21710065D01*
X2115121Y-21710063D01*
X1926279Y-21672500D01*
X1926275Y-21672500D01*
X1733725Y-21672500D01*
X1733720Y-21672500D01*
X1544878Y-21710063D01*
X1544869Y-21710065D01*
X1366983Y-21783747D01*
X1206882Y-21890724D01*
X1070724Y-22026882D01*
X963747Y-22186983D01*
X890065Y-22364869D01*
X890063Y-22364878D01*
X852500Y-22553720D01*
X250500Y-22553720D01*
X250500Y-20013721D01*
X852500Y-20013721D01*
X852500Y-20206280D01*
X890063Y-20395122D01*
X890065Y-20395131D01*
X963747Y-20573017D01*
X963750Y-20573021D01*
X1070726Y-20733121D01*
X1206880Y-20869275D01*
X1312134Y-20939604D01*
X1366983Y-20976253D01*
X1544869Y-21049935D01*
X1544874Y-21049937D01*
X1733725Y-21087501D01*
X1733729Y-21087501D01*
X1926271Y-21087501D01*
X1926275Y-21087501D01*
X2115126Y-21049937D01*
X2279216Y-20981969D01*
X2293016Y-20976253D01*
X2293017Y-20976252D01*
X2293020Y-20976251D01*
X2453120Y-20869275D01*
X2589274Y-20733121D01*
X2696250Y-20573021D01*
X2700976Y-20561613D01*
X2769934Y-20395131D01*
X2769936Y-20395127D01*
X2807500Y-20206276D01*
X2807500Y-20013726D01*
X2769936Y-19824875D01*
X2723169Y-19711969D01*
X2696252Y-19646984D01*
X2623340Y-19537864D01*
X2589274Y-19486881D01*
X2453120Y-19350727D01*
X2435441Y-19338914D01*
X2293016Y-19243748D01*
X2115130Y-19170066D01*
X2115121Y-19170064D01*
X1926279Y-19132501D01*
X1926275Y-19132501D01*
X1733725Y-19132501D01*
X1733720Y-19132501D01*
X1544878Y-19170064D01*
X1544869Y-19170066D01*
X1366983Y-19243748D01*
X1206882Y-19350725D01*
X1070724Y-19486883D01*
X963747Y-19646984D01*
X890065Y-19824870D01*
X890063Y-19824879D01*
X852500Y-20013721D01*
X250500Y-20013721D01*
X250500Y-17473720D01*
X852500Y-17473720D01*
X852500Y-17666279D01*
X890063Y-17855121D01*
X890065Y-17855130D01*
X963747Y-18033016D01*
X963750Y-18033020D01*
X1070726Y-18193120D01*
X1206880Y-18329274D01*
X1341177Y-18419009D01*
X1366983Y-18436252D01*
X1544869Y-18509934D01*
X1544874Y-18509936D01*
X1733725Y-18547500D01*
X1733729Y-18547500D01*
X1926271Y-18547500D01*
X1926275Y-18547500D01*
X2115126Y-18509936D01*
X2279211Y-18441970D01*
X2293016Y-18436252D01*
X2293017Y-18436251D01*
X2293020Y-18436250D01*
X2453120Y-18329274D01*
X2589274Y-18193120D01*
X2696250Y-18033020D01*
X2700206Y-18023471D01*
X2749383Y-17904746D01*
X2769936Y-17855126D01*
X2807500Y-17666275D01*
X2807500Y-17473725D01*
X2769936Y-17284874D01*
X2761501Y-17264509D01*
X2696252Y-17106983D01*
X2666523Y-17062491D01*
X2589274Y-16946880D01*
X2484831Y-16842437D01*
X4882500Y-16842437D01*
X4882500Y-17867562D01*
X4889897Y-17904746D01*
X4889897Y-17904747D01*
X4889898Y-17904748D01*
X4918078Y-17946922D01*
X4960252Y-17975102D01*
X4997442Y-17982500D01*
X4997446Y-17982500D01*
X5300744Y-17982500D01*
X5317715Y-17989529D01*
X5324744Y-18006500D01*
X5317715Y-18023471D01*
X5309928Y-18028673D01*
X5212770Y-18068915D01*
X5109994Y-18137588D01*
X5022587Y-18224995D01*
X4953914Y-18327771D01*
X4906616Y-18441963D01*
X4906613Y-18441970D01*
X4882500Y-18563193D01*
X4882500Y-18686808D01*
X4906613Y-18808031D01*
X4906616Y-18808038D01*
X4953914Y-18922230D01*
X4991659Y-18978719D01*
X5022589Y-19025009D01*
X5109992Y-19112412D01*
X5157114Y-19143898D01*
X5212770Y-19181086D01*
X5258449Y-19200006D01*
X5326965Y-19228386D01*
X5326968Y-19228386D01*
X5326969Y-19228387D01*
X5347527Y-19232476D01*
X5367561Y-19236461D01*
X5382834Y-19246666D01*
X5386418Y-19264682D01*
X5376213Y-19279955D01*
X5367562Y-19283539D01*
X5326967Y-19291614D01*
X5326962Y-19291616D01*
X5212770Y-19338914D01*
X5109994Y-19407587D01*
X5022587Y-19494994D01*
X4953914Y-19597770D01*
X4906616Y-19711962D01*
X4906613Y-19711969D01*
X4882500Y-19833192D01*
X4882500Y-19956807D01*
X4906613Y-20078030D01*
X4906616Y-20078037D01*
X4953914Y-20192229D01*
X4963300Y-20206276D01*
X5022589Y-20295008D01*
X5109992Y-20382411D01*
X5129023Y-20395127D01*
X5212770Y-20451085D01*
X5269866Y-20474734D01*
X5326965Y-20498385D01*
X5326968Y-20498385D01*
X5326969Y-20498386D01*
X5367564Y-20506461D01*
X5382837Y-20516666D01*
X5386421Y-20534682D01*
X5376216Y-20549955D01*
X5367564Y-20553539D01*
X5326969Y-20561613D01*
X5326962Y-20561616D01*
X5212770Y-20608914D01*
X5109994Y-20677587D01*
X5022587Y-20764994D01*
X4953914Y-20867770D01*
X4906616Y-20981962D01*
X4906613Y-20981969D01*
X4882500Y-21103192D01*
X4882500Y-21226807D01*
X4906613Y-21348030D01*
X4906616Y-21348037D01*
X4953914Y-21462229D01*
X4961293Y-21473272D01*
X5022589Y-21565008D01*
X5109992Y-21652411D01*
X5196274Y-21710063D01*
X5212770Y-21721085D01*
X5269866Y-21744734D01*
X5326965Y-21768385D01*
X5326968Y-21768385D01*
X5326969Y-21768386D01*
X5368842Y-21776715D01*
X5384115Y-21786920D01*
X5387699Y-21804936D01*
X5377494Y-21820209D01*
X5368842Y-21823793D01*
X5327115Y-21832092D01*
X5327108Y-21832094D01*
X5213007Y-21879356D01*
X5110313Y-21947974D01*
X5022975Y-22035312D01*
X4954357Y-22138006D01*
X4907096Y-22252105D01*
X4907094Y-22252114D01*
X4890608Y-22334999D01*
X5200331Y-22334999D01*
X5185000Y-22392212D01*
X5185000Y-22477786D01*
X5200331Y-22534999D01*
X4890608Y-22534999D01*
X4907094Y-22617883D01*
X4907096Y-22617892D01*
X4954357Y-22731991D01*
X5022975Y-22834685D01*
X5110313Y-22922023D01*
X5213007Y-22990641D01*
X5327106Y-23037902D01*
X5327115Y-23037904D01*
X5410000Y-23054390D01*
X5410000Y-22744668D01*
X5467213Y-22759999D01*
X5552787Y-22759999D01*
X5610000Y-22744668D01*
X5610000Y-23054390D01*
X5692884Y-23037904D01*
X5692893Y-23037902D01*
X5806992Y-22990641D01*
X5909686Y-22922023D01*
X5997024Y-22834685D01*
X6065642Y-22731991D01*
X6112903Y-22617892D01*
X6112905Y-22617883D01*
X6129392Y-22534999D01*
X5819669Y-22534999D01*
X5835000Y-22477786D01*
X5835000Y-22392212D01*
X5819669Y-22334999D01*
X6129391Y-22334999D01*
X6112905Y-22252114D01*
X6112903Y-22252105D01*
X6065642Y-22138006D01*
X5997024Y-22035312D01*
X5909686Y-21947974D01*
X5806992Y-21879356D01*
X5692891Y-21832094D01*
X5692884Y-21832092D01*
X5651157Y-21823793D01*
X5635884Y-21813588D01*
X5632300Y-21795572D01*
X5642505Y-21780299D01*
X5651156Y-21776715D01*
X5693035Y-21768385D01*
X5781359Y-21731800D01*
X5807229Y-21721085D01*
X5807230Y-21721084D01*
X5807233Y-21721083D01*
X5910008Y-21652411D01*
X5997411Y-21565008D01*
X6058710Y-21473267D01*
X11352500Y-21473267D01*
X11352500Y-22726732D01*
X11378534Y-22857614D01*
X11378537Y-22857621D01*
X11429604Y-22980913D01*
X11471843Y-23044127D01*
X11503751Y-23091881D01*
X11598119Y-23186249D01*
X11631967Y-23208865D01*
X11663270Y-23229782D01*
X11673475Y-23245055D01*
X11670722Y-23261735D01*
X11661856Y-23277093D01*
X11622500Y-23423971D01*
X11622500Y-23576029D01*
X11661856Y-23722907D01*
X11737885Y-23854593D01*
X11845407Y-23962115D01*
X11977093Y-24038144D01*
X12123971Y-24077500D01*
X12123972Y-24077500D01*
X12276028Y-24077500D01*
X12276029Y-24077500D01*
X12422907Y-24038144D01*
X12554593Y-23962115D01*
X12662115Y-23854593D01*
X12738144Y-23722907D01*
X12777500Y-23576029D01*
X12777500Y-23423971D01*
X12738144Y-23277093D01*
X12662115Y-23145407D01*
X12629724Y-23113016D01*
X12591140Y-23074431D01*
X12584111Y-23057461D01*
X12588155Y-23044128D01*
X12630393Y-22980917D01*
X12681464Y-22857619D01*
X12707500Y-22726728D01*
X12707500Y-21473272D01*
X12707499Y-21473267D01*
X14292500Y-21473267D01*
X14292500Y-22726732D01*
X14318534Y-22857614D01*
X14318537Y-22857621D01*
X14369604Y-22980913D01*
X14411843Y-23044127D01*
X14443751Y-23091881D01*
X14538119Y-23186249D01*
X14603271Y-23229782D01*
X14649086Y-23260395D01*
X14710732Y-23285928D01*
X14772381Y-23311464D01*
X14772384Y-23311464D01*
X14772385Y-23311465D01*
X14899877Y-23336824D01*
X14903272Y-23337500D01*
X14903276Y-23337500D01*
X15036724Y-23337500D01*
X15036728Y-23337500D01*
X15167619Y-23311464D01*
X15262981Y-23271964D01*
X15290913Y-23260395D01*
X15290914Y-23260394D01*
X15290917Y-23260393D01*
X15401881Y-23186249D01*
X15496249Y-23091881D01*
X15570393Y-22980917D01*
X15621464Y-22857619D01*
X15647500Y-22726728D01*
X15647500Y-21473272D01*
X15621464Y-21342381D01*
X15595928Y-21280732D01*
X15570395Y-21219086D01*
X15496250Y-21108121D01*
X15496249Y-21108119D01*
X15401881Y-21013751D01*
X15354306Y-20981962D01*
X15290913Y-20939604D01*
X15167621Y-20888537D01*
X15167614Y-20888534D01*
X15036732Y-20862500D01*
X15036728Y-20862500D01*
X14903272Y-20862500D01*
X14903267Y-20862500D01*
X14772385Y-20888534D01*
X14772378Y-20888537D01*
X14649086Y-20939604D01*
X14538121Y-21013749D01*
X14443749Y-21108121D01*
X14369604Y-21219086D01*
X14318537Y-21342378D01*
X14318534Y-21342385D01*
X14292500Y-21473267D01*
X12707499Y-21473267D01*
X12681464Y-21342381D01*
X12655928Y-21280732D01*
X12630395Y-21219086D01*
X12556250Y-21108121D01*
X12556249Y-21108119D01*
X12461881Y-21013751D01*
X12414306Y-20981962D01*
X12350913Y-20939604D01*
X12227621Y-20888537D01*
X12227614Y-20888534D01*
X12096732Y-20862500D01*
X12096728Y-20862500D01*
X11963272Y-20862500D01*
X11963267Y-20862500D01*
X11832385Y-20888534D01*
X11832378Y-20888537D01*
X11709086Y-20939604D01*
X11598121Y-21013749D01*
X11503749Y-21108121D01*
X11429604Y-21219086D01*
X11378537Y-21342378D01*
X11378534Y-21342385D01*
X11352500Y-21473267D01*
X6058710Y-21473267D01*
X6066083Y-21462233D01*
X6113385Y-21348035D01*
X6137500Y-21226803D01*
X6137500Y-21103197D01*
X6113385Y-20981965D01*
X6089734Y-20924866D01*
X6066085Y-20867770D01*
X5997412Y-20764994D01*
X5997411Y-20764992D01*
X5910008Y-20677589D01*
X5807233Y-20608917D01*
X5807234Y-20608917D01*
X5807229Y-20608914D01*
X5693037Y-20561616D01*
X5693030Y-20561613D01*
X5652435Y-20553539D01*
X5637162Y-20543334D01*
X5633578Y-20525318D01*
X5643783Y-20510045D01*
X5652435Y-20506461D01*
X5693030Y-20498386D01*
X5693030Y-20498385D01*
X5693035Y-20498385D01*
X5781359Y-20461800D01*
X5807229Y-20451085D01*
X5807230Y-20451084D01*
X5807233Y-20451083D01*
X5910008Y-20382411D01*
X5997411Y-20295008D01*
X6066083Y-20192233D01*
X6113385Y-20078035D01*
X6137500Y-19956803D01*
X6137500Y-19833197D01*
X6113385Y-19711965D01*
X6069720Y-19606547D01*
X6066085Y-19597770D01*
X6034343Y-19550265D01*
X5997411Y-19494992D01*
X5910008Y-19407589D01*
X5883636Y-19389968D01*
X5807229Y-19338914D01*
X5693037Y-19291616D01*
X5693032Y-19291614D01*
X5652437Y-19283539D01*
X5637165Y-19273333D01*
X5633581Y-19255317D01*
X5643787Y-19240045D01*
X5652436Y-19236461D01*
X5693035Y-19228386D01*
X5781359Y-19191801D01*
X5807229Y-19181086D01*
X5807230Y-19181085D01*
X5807233Y-19181084D01*
X5910008Y-19112412D01*
X5997411Y-19025009D01*
X6066083Y-18922234D01*
X6113385Y-18808036D01*
X6137500Y-18686804D01*
X6137500Y-18563198D01*
X6113385Y-18441966D01*
X6089734Y-18384867D01*
X6066085Y-18327771D01*
X5997736Y-18225480D01*
X5997411Y-18224993D01*
X5986137Y-18213719D01*
X6783054Y-18213719D01*
X6783054Y-18326281D01*
X6812187Y-18435009D01*
X6868469Y-18532491D01*
X6948063Y-18612085D01*
X7045545Y-18668367D01*
X7108040Y-18685112D01*
X7109111Y-18685399D01*
X7123684Y-18696581D01*
X7126082Y-18714792D01*
X7119871Y-18725551D01*
X7072916Y-18772507D01*
X7016632Y-18869993D01*
X6987500Y-18978719D01*
X6987500Y-19091280D01*
X7005004Y-19156610D01*
X7016633Y-19200009D01*
X7072915Y-19297491D01*
X7152509Y-19377085D01*
X7249991Y-19433367D01*
X7358719Y-19462500D01*
X7471281Y-19462500D01*
X7580009Y-19433367D01*
X7677491Y-19377085D01*
X7757085Y-19297491D01*
X7813367Y-19200009D01*
X7842500Y-19091281D01*
X7842500Y-19031337D01*
X9696802Y-19031337D01*
X9696802Y-19143899D01*
X9725935Y-19252627D01*
X9782217Y-19350109D01*
X9861811Y-19429703D01*
X9959293Y-19485985D01*
X10005573Y-19498385D01*
X10020146Y-19509567D01*
X10022544Y-19527778D01*
X10011362Y-19542351D01*
X10005574Y-19544749D01*
X9984992Y-19550264D01*
X9887509Y-19606547D01*
X9807915Y-19686141D01*
X9751632Y-19783625D01*
X9738351Y-19833192D01*
X9722500Y-19892351D01*
X9722500Y-20004913D01*
X9751633Y-20113641D01*
X9807915Y-20211123D01*
X9887509Y-20290717D01*
X9984991Y-20346999D01*
X10093719Y-20376132D01*
X10206281Y-20376132D01*
X10315009Y-20346999D01*
X10412491Y-20290717D01*
X10492085Y-20211123D01*
X10548367Y-20113641D01*
X10577500Y-20004913D01*
X10577500Y-19892351D01*
X10548367Y-19783623D01*
X10492085Y-19686141D01*
X10412491Y-19606547D01*
X10315009Y-19550265D01*
X10315008Y-19550264D01*
X10315007Y-19550264D01*
X10268727Y-19537864D01*
X10254154Y-19526682D01*
X10251757Y-19508470D01*
X10262939Y-19493897D01*
X10268728Y-19491500D01*
X10289311Y-19485985D01*
X10386793Y-19429703D01*
X10466387Y-19350109D01*
X10522669Y-19252627D01*
X10551802Y-19143899D01*
X10551802Y-19031337D01*
X10522669Y-18922609D01*
X10466387Y-18825127D01*
X10407262Y-18766002D01*
X10400234Y-18749033D01*
X10407263Y-18732062D01*
X10412229Y-18728252D01*
X10451491Y-18705585D01*
X10531085Y-18625991D01*
X10587367Y-18528509D01*
X10616500Y-18419781D01*
X10616500Y-18307219D01*
X10587367Y-18198491D01*
X10531085Y-18101009D01*
X10451491Y-18021415D01*
X10450400Y-18020785D01*
X10439217Y-18006214D01*
X10441612Y-17988003D01*
X10450400Y-17979214D01*
X10451491Y-17978585D01*
X10531085Y-17898991D01*
X10587367Y-17801509D01*
X10616500Y-17692781D01*
X10616500Y-17580219D01*
X10587367Y-17471491D01*
X10586921Y-17470719D01*
X15885977Y-17470719D01*
X15885977Y-17583281D01*
X15915110Y-17692009D01*
X15971392Y-17789491D01*
X16050986Y-17869085D01*
X16052803Y-17870134D01*
X16063984Y-17884707D01*
X16061586Y-17902919D01*
X16053619Y-17910886D01*
X16053676Y-17910961D01*
X16053113Y-17911392D01*
X16052805Y-17911701D01*
X16052431Y-17911916D01*
X15972835Y-17991512D01*
X15916552Y-18088996D01*
X15903532Y-18137590D01*
X15887420Y-18197722D01*
X15887420Y-18310284D01*
X15916553Y-18419012D01*
X15972835Y-18516494D01*
X16052429Y-18596088D01*
X16061980Y-18601602D01*
X16073161Y-18616174D01*
X16070764Y-18634386D01*
X16061980Y-18643170D01*
X16050994Y-18649513D01*
X16050992Y-18649514D01*
X16050990Y-18649516D01*
X15971396Y-18729110D01*
X15925828Y-18808036D01*
X15915113Y-18826594D01*
X15903485Y-18869993D01*
X15885981Y-18935320D01*
X15885981Y-19047882D01*
X15915114Y-19156610D01*
X15971396Y-19254092D01*
X16050990Y-19333686D01*
X16148472Y-19389968D01*
X16257200Y-19419101D01*
X16369762Y-19419101D01*
X16478490Y-19389968D01*
X16575972Y-19333686D01*
X16655566Y-19254092D01*
X16711848Y-19156610D01*
X16740981Y-19047882D01*
X16740981Y-18935320D01*
X16711848Y-18826592D01*
X16655566Y-18729110D01*
X16575972Y-18649516D01*
X16566420Y-18644001D01*
X16555239Y-18629428D01*
X16557637Y-18611216D01*
X16566420Y-18602433D01*
X16577411Y-18596088D01*
X16657005Y-18516494D01*
X16713287Y-18419012D01*
X16742420Y-18310284D01*
X16742420Y-18197722D01*
X16713287Y-18088994D01*
X16657005Y-17991512D01*
X16577411Y-17911918D01*
X16577408Y-17911916D01*
X16577406Y-17911914D01*
X16575592Y-17910867D01*
X16564412Y-17896292D01*
X16566812Y-17878081D01*
X16574779Y-17870117D01*
X16574721Y-17870042D01*
X16575296Y-17869600D01*
X16575598Y-17869298D01*
X16575968Y-17869085D01*
X16655562Y-17789491D01*
X16711844Y-17692009D01*
X16740977Y-17583281D01*
X16740977Y-17470719D01*
X16711844Y-17361991D01*
X16655562Y-17264509D01*
X16575968Y-17184915D01*
X16554089Y-17172283D01*
X16542909Y-17157712D01*
X16545306Y-17139500D01*
X16559879Y-17128318D01*
X16566091Y-17127500D01*
X16606281Y-17127500D01*
X16715009Y-17098367D01*
X16812491Y-17042085D01*
X16892085Y-16962491D01*
X16948367Y-16865009D01*
X16977500Y-16756281D01*
X16977500Y-16643719D01*
X16948367Y-16534991D01*
X16892085Y-16437509D01*
X16812491Y-16357915D01*
X16715009Y-16301633D01*
X16715006Y-16301632D01*
X16606281Y-16272500D01*
X16493719Y-16272500D01*
X16384993Y-16301632D01*
X16384991Y-16301632D01*
X16384991Y-16301633D01*
X16287509Y-16357915D01*
X16207915Y-16437509D01*
X16195873Y-16458367D01*
X16151632Y-16534993D01*
X16124839Y-16634991D01*
X16122500Y-16643719D01*
X16122500Y-16756281D01*
X16151633Y-16865009D01*
X16207915Y-16962491D01*
X16287509Y-17042085D01*
X16309387Y-17054716D01*
X16320568Y-17069288D01*
X16318171Y-17087500D01*
X16303598Y-17098682D01*
X16297386Y-17099500D01*
X16257196Y-17099500D01*
X16148470Y-17128632D01*
X16148468Y-17128632D01*
X16148468Y-17128633D01*
X16125169Y-17142085D01*
X16050986Y-17184915D01*
X15971392Y-17264509D01*
X15915109Y-17361993D01*
X15907432Y-17390645D01*
X15885977Y-17470719D01*
X10586921Y-17470719D01*
X10531085Y-17374009D01*
X10451491Y-17294415D01*
X10354009Y-17238133D01*
X10354006Y-17238132D01*
X10245281Y-17209000D01*
X10132719Y-17209000D01*
X10023993Y-17238132D01*
X9926509Y-17294415D01*
X9846915Y-17374009D01*
X9790632Y-17471493D01*
X9761500Y-17580219D01*
X9761500Y-17692780D01*
X9787412Y-17789490D01*
X9790633Y-17801509D01*
X9846915Y-17898991D01*
X9926509Y-17978585D01*
X9927602Y-17979216D01*
X9938784Y-17993790D01*
X9936385Y-18012001D01*
X9927602Y-18020783D01*
X9927531Y-18020824D01*
X9926511Y-18021413D01*
X9846915Y-18101009D01*
X9790632Y-18198493D01*
X9783532Y-18224993D01*
X9761500Y-18307219D01*
X9761500Y-18419781D01*
X9790633Y-18528509D01*
X9846915Y-18625991D01*
X9906037Y-18685113D01*
X9913066Y-18702083D01*
X9906037Y-18719054D01*
X9901067Y-18722867D01*
X9861812Y-18745532D01*
X9782217Y-18825127D01*
X9725934Y-18922611D01*
X9698498Y-19025006D01*
X9696802Y-19031337D01*
X7842500Y-19031337D01*
X7842500Y-18978719D01*
X7813367Y-18869991D01*
X7757085Y-18772509D01*
X7677491Y-18692915D01*
X7580009Y-18636633D01*
X7580008Y-18636632D01*
X7580007Y-18636632D01*
X7516440Y-18619599D01*
X7501867Y-18608417D01*
X7499470Y-18590205D01*
X7505680Y-18579449D01*
X7552639Y-18532491D01*
X7608921Y-18435009D01*
X7638054Y-18326281D01*
X7638054Y-18213719D01*
X7608921Y-18104991D01*
X7552639Y-18007509D01*
X7473045Y-17927915D01*
X7375563Y-17871633D01*
X7375560Y-17871632D01*
X7266835Y-17842500D01*
X7154273Y-17842500D01*
X7045547Y-17871632D01*
X7045545Y-17871632D01*
X7045545Y-17871633D01*
X6948063Y-17927915D01*
X6868469Y-18007509D01*
X6812187Y-18104991D01*
X6783054Y-18213719D01*
X5986137Y-18213719D01*
X5910008Y-18137590D01*
X5807233Y-18068918D01*
X5807234Y-18068918D01*
X5807229Y-18068915D01*
X5710072Y-18028673D01*
X5697083Y-18015685D01*
X5697083Y-17997316D01*
X5710071Y-17984327D01*
X5719256Y-17982500D01*
X6022554Y-17982500D01*
X6022558Y-17982500D01*
X6059748Y-17975102D01*
X6101922Y-17946922D01*
X6130102Y-17904748D01*
X6137500Y-17867558D01*
X6137500Y-17390645D01*
X6372500Y-17390645D01*
X6372500Y-17503207D01*
X6401633Y-17611935D01*
X6457915Y-17709417D01*
X6537509Y-17789011D01*
X6634991Y-17845293D01*
X6743719Y-17874426D01*
X6856281Y-17874426D01*
X6965009Y-17845293D01*
X7062491Y-17789011D01*
X7142085Y-17709417D01*
X7198367Y-17611935D01*
X7227500Y-17503207D01*
X7227500Y-17390645D01*
X7198367Y-17281917D01*
X7142085Y-17184435D01*
X7062491Y-17104841D01*
X6965009Y-17048559D01*
X6965006Y-17048558D01*
X6856281Y-17019426D01*
X6743719Y-17019426D01*
X6634993Y-17048558D01*
X6634991Y-17048558D01*
X6634991Y-17048559D01*
X6599088Y-17069288D01*
X6537509Y-17104841D01*
X6457915Y-17184435D01*
X6401632Y-17281919D01*
X6372500Y-17390645D01*
X6137500Y-17390645D01*
X6137500Y-16842442D01*
X6130102Y-16805252D01*
X6101922Y-16763078D01*
X6072949Y-16743719D01*
X10172500Y-16743719D01*
X10172500Y-16856281D01*
X10201633Y-16965009D01*
X10257915Y-17062491D01*
X10337509Y-17142085D01*
X10434991Y-17198367D01*
X10543719Y-17227500D01*
X10656281Y-17227500D01*
X10765009Y-17198367D01*
X10862491Y-17142085D01*
X10942085Y-17062491D01*
X10998367Y-16965009D01*
X11027500Y-16856281D01*
X11027500Y-16743719D01*
X10998367Y-16634991D01*
X10942085Y-16537509D01*
X10862491Y-16457915D01*
X10765009Y-16401633D01*
X10765006Y-16401632D01*
X10656281Y-16372500D01*
X10543719Y-16372500D01*
X10434993Y-16401632D01*
X10337509Y-16457915D01*
X10257915Y-16537509D01*
X10201632Y-16634993D01*
X10172500Y-16743719D01*
X6072949Y-16743719D01*
X6059748Y-16734898D01*
X6059747Y-16734897D01*
X6059746Y-16734897D01*
X6022562Y-16727500D01*
X6022558Y-16727500D01*
X4997442Y-16727500D01*
X4997437Y-16727500D01*
X4960253Y-16734897D01*
X4918080Y-16763076D01*
X4918076Y-16763080D01*
X4889897Y-16805253D01*
X4882500Y-16842437D01*
X2484831Y-16842437D01*
X2453120Y-16810726D01*
X2371638Y-16756281D01*
X2293016Y-16703747D01*
X2115130Y-16630065D01*
X2115121Y-16630063D01*
X1926279Y-16592500D01*
X1926275Y-16592500D01*
X1733725Y-16592500D01*
X1733720Y-16592500D01*
X1544878Y-16630063D01*
X1544869Y-16630065D01*
X1366983Y-16703747D01*
X1206882Y-16810724D01*
X1070724Y-16946882D01*
X963747Y-17106983D01*
X890065Y-17284869D01*
X890063Y-17284878D01*
X852500Y-17473720D01*
X250500Y-17473720D01*
X250500Y-16003719D01*
X8312500Y-16003719D01*
X8312500Y-16116281D01*
X8341633Y-16225009D01*
X8397915Y-16322491D01*
X8477509Y-16402085D01*
X8574991Y-16458367D01*
X8683719Y-16487500D01*
X8796281Y-16487500D01*
X8905009Y-16458367D01*
X9002491Y-16402085D01*
X9082085Y-16322491D01*
X9138367Y-16225009D01*
X9167500Y-16116281D01*
X9167500Y-16003719D01*
X9138367Y-15894991D01*
X9082085Y-15797509D01*
X9002491Y-15717915D01*
X8905009Y-15661633D01*
X8905006Y-15661632D01*
X8796281Y-15632500D01*
X8683719Y-15632500D01*
X8574993Y-15661632D01*
X8574991Y-15661632D01*
X8574991Y-15661633D01*
X8477509Y-15717915D01*
X8397915Y-15797509D01*
X8341633Y-15894991D01*
X8312500Y-16003719D01*
X250500Y-16003719D01*
X250500Y-15113719D01*
X4372500Y-15113719D01*
X4372500Y-15226281D01*
X4401633Y-15335009D01*
X4457915Y-15432491D01*
X4537509Y-15512085D01*
X4634991Y-15568367D01*
X4743719Y-15597500D01*
X4856281Y-15597500D01*
X4965009Y-15568367D01*
X5062491Y-15512085D01*
X5142085Y-15432491D01*
X5198367Y-15335009D01*
X5227500Y-15226281D01*
X5227500Y-15113719D01*
X5198367Y-15004991D01*
X5142085Y-14907509D01*
X5062491Y-14827915D01*
X4965009Y-14771633D01*
X4965006Y-14771632D01*
X4856281Y-14742500D01*
X4743719Y-14742500D01*
X4634993Y-14771632D01*
X4634991Y-14771632D01*
X4634991Y-14771633D01*
X4537509Y-14827915D01*
X4457915Y-14907509D01*
X4401633Y-15004991D01*
X4372500Y-15113719D01*
X250500Y-15113719D01*
X250500Y-14138192D01*
X632499Y-14138192D01*
X632499Y-14261807D01*
X656612Y-14383030D01*
X656615Y-14383037D01*
X703913Y-14497229D01*
X771647Y-14598600D01*
X772588Y-14600008D01*
X859991Y-14687411D01*
X897626Y-14712558D01*
X962769Y-14756085D01*
X1000307Y-14771633D01*
X1076964Y-14803385D01*
X1076967Y-14803385D01*
X1076968Y-14803386D01*
X1161004Y-14820102D01*
X1198196Y-14827500D01*
X1198200Y-14827500D01*
X1321798Y-14827500D01*
X1321802Y-14827500D01*
X1443034Y-14803385D01*
X1531358Y-14766800D01*
X1557228Y-14756085D01*
X1557229Y-14756084D01*
X1557232Y-14756083D01*
X1660007Y-14687411D01*
X1747410Y-14600008D01*
X1816082Y-14497233D01*
X1856327Y-14400071D01*
X1869315Y-14387083D01*
X1887684Y-14387083D01*
X1900673Y-14400071D01*
X1902500Y-14409256D01*
X1902500Y-14712562D01*
X1909897Y-14749746D01*
X1909897Y-14749747D01*
X1909898Y-14749748D01*
X1938078Y-14791922D01*
X1980252Y-14820102D01*
X2017442Y-14827500D01*
X2017446Y-14827500D01*
X3042554Y-14827500D01*
X3042558Y-14827500D01*
X3079748Y-14820102D01*
X3121922Y-14791922D01*
X3150102Y-14749748D01*
X3157500Y-14712558D01*
X3157500Y-13687442D01*
X3150102Y-13650252D01*
X3121922Y-13608078D01*
X3079748Y-13579898D01*
X3079747Y-13579897D01*
X3079746Y-13579897D01*
X3042562Y-13572500D01*
X3042558Y-13572500D01*
X2017442Y-13572500D01*
X2017437Y-13572500D01*
X1980253Y-13579897D01*
X1938080Y-13608076D01*
X1938076Y-13608080D01*
X1909897Y-13650253D01*
X1902500Y-13687437D01*
X1902500Y-13990743D01*
X1895471Y-14007714D01*
X1878500Y-14014743D01*
X1861529Y-14007714D01*
X1856327Y-13999927D01*
X1816084Y-13902770D01*
X1747411Y-13799994D01*
X1747410Y-13799992D01*
X1660007Y-13712589D01*
X1622372Y-13687442D01*
X1557228Y-13643914D01*
X1443036Y-13596616D01*
X1443029Y-13596613D01*
X1321806Y-13572500D01*
X1321802Y-13572500D01*
X1198196Y-13572500D01*
X1198191Y-13572500D01*
X1076968Y-13596613D01*
X1076961Y-13596616D01*
X962769Y-13643914D01*
X859993Y-13712587D01*
X772586Y-13799994D01*
X703913Y-13902770D01*
X656615Y-14016962D01*
X656612Y-14016969D01*
X632499Y-14138192D01*
X250500Y-14138192D01*
X250500Y-13273267D01*
X11352500Y-13273267D01*
X11352500Y-14526732D01*
X11378534Y-14657614D01*
X11378537Y-14657621D01*
X11429604Y-14780913D01*
X11460732Y-14827499D01*
X11503751Y-14891881D01*
X11598119Y-14986249D01*
X11709083Y-15060393D01*
X11709086Y-15060395D01*
X11770732Y-15085928D01*
X11832381Y-15111464D01*
X11832384Y-15111464D01*
X11832385Y-15111465D01*
X11959877Y-15136824D01*
X11963272Y-15137500D01*
X11963276Y-15137500D01*
X12096724Y-15137500D01*
X12096728Y-15137500D01*
X12227619Y-15111464D01*
X12322981Y-15071964D01*
X12350913Y-15060395D01*
X12350914Y-15060394D01*
X12350917Y-15060393D01*
X12461881Y-14986249D01*
X12556249Y-14891881D01*
X12630393Y-14780917D01*
X12681464Y-14657619D01*
X12707500Y-14526728D01*
X12707500Y-13273272D01*
X12707499Y-13273267D01*
X14292500Y-13273267D01*
X14292500Y-14526732D01*
X14318534Y-14657614D01*
X14318537Y-14657621D01*
X14369604Y-14780913D01*
X14400732Y-14827499D01*
X14443751Y-14891881D01*
X14538119Y-14986249D01*
X14649083Y-15060393D01*
X14649086Y-15060395D01*
X14710732Y-15085928D01*
X14772381Y-15111464D01*
X14772384Y-15111464D01*
X14772385Y-15111465D01*
X14899877Y-15136824D01*
X14903272Y-15137500D01*
X14903276Y-15137500D01*
X15036724Y-15137500D01*
X15036728Y-15137500D01*
X15167619Y-15111464D01*
X15262981Y-15071964D01*
X15290913Y-15060395D01*
X15290914Y-15060394D01*
X15290917Y-15060393D01*
X15401881Y-14986249D01*
X15496249Y-14891881D01*
X15570393Y-14780917D01*
X15621464Y-14657619D01*
X15647500Y-14526728D01*
X15647500Y-13273272D01*
X15621464Y-13142381D01*
X15595928Y-13080732D01*
X15570395Y-13019086D01*
X15516118Y-12937855D01*
X15496249Y-12908119D01*
X15401881Y-12813751D01*
X15336728Y-12770217D01*
X15290913Y-12739604D01*
X15167621Y-12688537D01*
X15167614Y-12688534D01*
X15036732Y-12662500D01*
X15036728Y-12662500D01*
X14903272Y-12662500D01*
X14903267Y-12662500D01*
X14772385Y-12688534D01*
X14772378Y-12688537D01*
X14649086Y-12739604D01*
X14538121Y-12813749D01*
X14443749Y-12908121D01*
X14369604Y-13019086D01*
X14318537Y-13142378D01*
X14318534Y-13142385D01*
X14292500Y-13273267D01*
X12707499Y-13273267D01*
X12681464Y-13142381D01*
X12655928Y-13080732D01*
X12630395Y-13019086D01*
X12630393Y-13019083D01*
X12588154Y-12955869D01*
X12584571Y-12937855D01*
X12591138Y-12925568D01*
X12662115Y-12854593D01*
X12738144Y-12722907D01*
X12777500Y-12576029D01*
X12777500Y-12423971D01*
X12738144Y-12277093D01*
X12662115Y-12145407D01*
X12554593Y-12037885D01*
X12422907Y-11961856D01*
X12422906Y-11961855D01*
X12422905Y-11961855D01*
X12329789Y-11936905D01*
X12276029Y-11922500D01*
X12123971Y-11922500D01*
X12084616Y-11933045D01*
X11977094Y-11961855D01*
X11845407Y-12037885D01*
X11737885Y-12145407D01*
X11661855Y-12277094D01*
X11633045Y-12384616D01*
X11622500Y-12423971D01*
X11622500Y-12576029D01*
X11645670Y-12662500D01*
X11661856Y-12722907D01*
X11670721Y-12738263D01*
X11673118Y-12756474D01*
X11663270Y-12770217D01*
X11598121Y-12813749D01*
X11503749Y-12908121D01*
X11429604Y-13019086D01*
X11378537Y-13142378D01*
X11378534Y-13142385D01*
X11352500Y-13273267D01*
X250500Y-13273267D01*
X250500Y-10550717D01*
X257529Y-10533746D01*
X274500Y-10526717D01*
X291471Y-10533746D01*
X295882Y-10539818D01*
X338927Y-10624299D01*
X384685Y-10714105D01*
X384689Y-10714112D01*
X510739Y-10887604D01*
X510743Y-10887609D01*
X662391Y-11039257D01*
X662394Y-11039259D01*
X662395Y-11039260D01*
X835887Y-11165310D01*
X835894Y-11165314D01*
X1026982Y-11262678D01*
X1230947Y-11328951D01*
X1442769Y-11362500D01*
X1442772Y-11362500D01*
X1657228Y-11362500D01*
X1657231Y-11362500D01*
X1869053Y-11328951D01*
X2073018Y-11262678D01*
X2264106Y-11165314D01*
X2437609Y-11039257D01*
X2589257Y-10887609D01*
X2715314Y-10714106D01*
X2812678Y-10523018D01*
X2878951Y-10319053D01*
X2912500Y-10107231D01*
X2912500Y-9892771D01*
X23787500Y-9892771D01*
X23787500Y-10107228D01*
X23821050Y-10319057D01*
X23821050Y-10319059D01*
X23887320Y-10523014D01*
X23887323Y-10523020D01*
X23984685Y-10714105D01*
X23984689Y-10714112D01*
X24110739Y-10887604D01*
X24110743Y-10887609D01*
X24262391Y-11039257D01*
X24262394Y-11039259D01*
X24262395Y-11039260D01*
X24435887Y-11165310D01*
X24435894Y-11165314D01*
X24626982Y-11262678D01*
X24830947Y-11328951D01*
X25042769Y-11362500D01*
X25042772Y-11362500D01*
X25257228Y-11362500D01*
X25257231Y-11362500D01*
X25469053Y-11328951D01*
X25673018Y-11262678D01*
X25864106Y-11165314D01*
X26037609Y-11039257D01*
X26189257Y-10887609D01*
X26315314Y-10714106D01*
X26412678Y-10523018D01*
X26478951Y-10319053D01*
X26512500Y-10107231D01*
X26512500Y-9892769D01*
X26478951Y-9680947D01*
X26412678Y-9476982D01*
X26315314Y-9285894D01*
X26315310Y-9285887D01*
X26189260Y-9112395D01*
X26189259Y-9112394D01*
X26189257Y-9112391D01*
X26037609Y-8960743D01*
X26037605Y-8960740D01*
X26037604Y-8960739D01*
X25864112Y-8834689D01*
X25864105Y-8834685D01*
X25673020Y-8737323D01*
X25673014Y-8737320D01*
X25469058Y-8671050D01*
X25469054Y-8671049D01*
X25469053Y-8671049D01*
X25257231Y-8637500D01*
X25042769Y-8637500D01*
X24830947Y-8671049D01*
X24830945Y-8671049D01*
X24830942Y-8671050D01*
X24830940Y-8671050D01*
X24626985Y-8737320D01*
X24626979Y-8737323D01*
X24435894Y-8834685D01*
X24435887Y-8834689D01*
X24262395Y-8960739D01*
X24110739Y-9112395D01*
X23984689Y-9285887D01*
X23984685Y-9285894D01*
X23887323Y-9476979D01*
X23887320Y-9476985D01*
X23821050Y-9680940D01*
X23821050Y-9680942D01*
X23787500Y-9892771D01*
X2912500Y-9892771D01*
X2912500Y-9892769D01*
X2878951Y-9680947D01*
X2812678Y-9476982D01*
X2715314Y-9285894D01*
X2715310Y-9285887D01*
X2589260Y-9112395D01*
X2589259Y-9112394D01*
X2589257Y-9112391D01*
X2437609Y-8960743D01*
X2437605Y-8960740D01*
X2437604Y-8960739D01*
X2264112Y-8834689D01*
X2264105Y-8834685D01*
X2073020Y-8737323D01*
X2073014Y-8737320D01*
X1869058Y-8671050D01*
X1869054Y-8671049D01*
X1869053Y-8671049D01*
X1657231Y-8637500D01*
X1442769Y-8637500D01*
X1230947Y-8671049D01*
X1230945Y-8671049D01*
X1230942Y-8671050D01*
X1230940Y-8671050D01*
X1026985Y-8737320D01*
X1026979Y-8737323D01*
X835894Y-8834685D01*
X835887Y-8834689D01*
X662395Y-8960739D01*
X510739Y-9112395D01*
X384689Y-9285887D01*
X384685Y-9285894D01*
X295884Y-9460178D01*
X281916Y-9472107D01*
X263604Y-9470666D01*
X251675Y-9456698D01*
X250500Y-9449282D01*
X250500Y-4458694D01*
X878113Y-4458694D01*
X878113Y-4641305D01*
X913735Y-4820391D01*
X913737Y-4820398D01*
X983615Y-4989095D01*
X983617Y-4989100D01*
X1080136Y-5133553D01*
X1460527Y-4753161D01*
X1485033Y-4795606D01*
X1559507Y-4870080D01*
X1601949Y-4894583D01*
X1221558Y-5274975D01*
X1366012Y-5371495D01*
X1366017Y-5371497D01*
X1534714Y-5441375D01*
X1534721Y-5441377D01*
X1713807Y-5476999D01*
X1713816Y-5477000D01*
X1896410Y-5477000D01*
X1896418Y-5476999D01*
X2075504Y-5441377D01*
X2075511Y-5441375D01*
X2244208Y-5371498D01*
X2388666Y-5274975D01*
X2008275Y-4894584D01*
X2050719Y-4870080D01*
X2125193Y-4795606D01*
X2149697Y-4753162D01*
X2530088Y-5133553D01*
X2626611Y-4989095D01*
X2696488Y-4820398D01*
X2696490Y-4820391D01*
X2732112Y-4641305D01*
X2732113Y-4641297D01*
X2732113Y-4458702D01*
X2732112Y-4458694D01*
X2696490Y-4279608D01*
X2696488Y-4279601D01*
X2626610Y-4110904D01*
X2626608Y-4110899D01*
X2530088Y-3966445D01*
X2149696Y-4346836D01*
X2125193Y-4304394D01*
X2050719Y-4229920D01*
X2008274Y-4205414D01*
X2388666Y-3825023D01*
X2285690Y-3756218D01*
X2285689Y-3756218D01*
X2257582Y-3737437D01*
X2877613Y-3737437D01*
X2877613Y-5362562D01*
X2885010Y-5399746D01*
X2885010Y-5399747D01*
X2885011Y-5399748D01*
X2913191Y-5441922D01*
X2955365Y-5470102D01*
X2992555Y-5477500D01*
X2992559Y-5477500D01*
X4617667Y-5477500D01*
X4617671Y-5477500D01*
X4654861Y-5470102D01*
X4697035Y-5441922D01*
X4725215Y-5399748D01*
X4732613Y-5362558D01*
X4732613Y-3737442D01*
X4725215Y-3700252D01*
X4697035Y-3658078D01*
X4654861Y-3629898D01*
X4654860Y-3629897D01*
X4654859Y-3629897D01*
X4617675Y-3622500D01*
X4617671Y-3622500D01*
X2992555Y-3622500D01*
X2992550Y-3622500D01*
X2955366Y-3629897D01*
X2913193Y-3658076D01*
X2913189Y-3658080D01*
X2885010Y-3700253D01*
X2877613Y-3737437D01*
X2257582Y-3737437D01*
X2244208Y-3728501D01*
X2075511Y-3658624D01*
X2075504Y-3658622D01*
X1896418Y-3623000D01*
X1713807Y-3623000D01*
X1534721Y-3658622D01*
X1534714Y-3658624D01*
X1366017Y-3728502D01*
X1366012Y-3728504D01*
X1221558Y-3825023D01*
X1601950Y-4205415D01*
X1559507Y-4229920D01*
X1485033Y-4304394D01*
X1460528Y-4346837D01*
X1080136Y-3966445D01*
X983617Y-4110899D01*
X983615Y-4110904D01*
X913737Y-4279601D01*
X913735Y-4279608D01*
X878113Y-4458694D01*
X250500Y-4458694D01*
X250500Y-3363719D01*
X17692500Y-3363719D01*
X17692500Y-3476281D01*
X17721633Y-3585009D01*
X17777915Y-3682491D01*
X17777916Y-3682492D01*
X17803453Y-3708030D01*
X17810482Y-3725000D01*
X17803453Y-3741970D01*
X17777916Y-3767507D01*
X17777915Y-3767509D01*
X17721633Y-3864991D01*
X17692500Y-3973719D01*
X17692500Y-4086281D01*
X17721633Y-4195009D01*
X17777915Y-4292491D01*
X17777916Y-4292492D01*
X17818453Y-4333030D01*
X17825482Y-4350000D01*
X17818453Y-4366970D01*
X17777916Y-4407507D01*
X17777915Y-4407509D01*
X17721633Y-4504991D01*
X17692500Y-4613719D01*
X17692500Y-4726281D01*
X17721633Y-4835009D01*
X17777915Y-4932491D01*
X17857509Y-5012085D01*
X17954991Y-5068367D01*
X18063719Y-5097500D01*
X18176281Y-5097500D01*
X18285009Y-5068367D01*
X18382491Y-5012085D01*
X18462085Y-4932491D01*
X18518367Y-4835009D01*
X18547500Y-4726281D01*
X18547500Y-4613719D01*
X18518367Y-4504991D01*
X18462085Y-4407509D01*
X18421545Y-4366969D01*
X18414517Y-4350000D01*
X18421545Y-4333030D01*
X18462085Y-4292491D01*
X18518367Y-4195009D01*
X18547500Y-4086281D01*
X18547500Y-3973719D01*
X18518367Y-3864991D01*
X18462085Y-3767509D01*
X18436545Y-3741969D01*
X18429517Y-3725000D01*
X18436545Y-3708030D01*
X18462085Y-3682491D01*
X18518367Y-3585009D01*
X18547500Y-3476281D01*
X18547500Y-3363719D01*
X18518367Y-3254991D01*
X18462085Y-3157509D01*
X18382491Y-3077915D01*
X18285009Y-3021633D01*
X18285006Y-3021632D01*
X18176281Y-2992500D01*
X18063719Y-2992500D01*
X17954993Y-3021632D01*
X17954991Y-3021632D01*
X17954991Y-3021633D01*
X17857509Y-3077915D01*
X17777915Y-3157509D01*
X17721633Y-3254991D01*
X17692500Y-3363719D01*
X250500Y-3363719D01*
X250500Y-274500D01*
X257529Y-257529D01*
X274500Y-250500D01*
X26725500Y-250500D01*
X26742471Y-257529D01*
G37*
%TD.AperFunction*%
%TD*%
M02*
