M48
; DRILL file {KiCad 9.0.0} date 2025-03-11T18:34:24+0300
; FORMAT={-:-/ absolute / metric / decimal}
; #@! TF.CreationDate,2025-03-11T18:34:24+03:00
; #@! TF.GenerationSoftware,Kicad,Pcbnew,9.0.0
; #@! TF.FileFunction,Plated,1,4,PTH
FMAT,2
METRIC
; #@! TA.AperFunction,Plated,PTH,ViaDrill
T1C0.300
; #@! TA.AperFunction,Plated,PTH,ComponentDrill
T2C0.600
; #@! TA.AperFunction,Plated,PTH,ComponentDrill
T3C0.650
; #@! TA.AperFunction,Plated,PTH,ComponentDrill
T4C0.762
; #@! TA.AperFunction,Plated,PTH,ComponentDrill
T5C0.800
; #@! TA.AperFunction,Plated,PTH,ComponentDrill
T6C1.000
%
G90
G05
T1
X0.67Y-23.75
X0.72Y-6.82
X0.74Y-26.77
X0.89Y-18.82
X0.91Y-21.34
X0.93Y-0.98
X1.0Y-33.5
X1.22Y-2.58
X1.32Y-6.07
X1.93Y-35.14
X2.12Y-2.87
X2.19Y-26.86
X2.2Y-5.8
X2.31Y-11.94
X3.05Y-23.89
X3.37Y-22.22
X3.56Y-2.79
X3.61Y-17.98
X3.61Y-19.66
X3.83Y-9.64
X3.89Y-23.26
X4.17Y-29.9
X4.34Y-33.57
X4.38Y-11.18
X4.45Y-22.05
X4.6Y-5.8
X4.62Y-7.22
X4.72Y-26.49
X4.73Y-14.26
X4.8Y-15.17
X4.94Y-25.0
X5.3Y-30.0
X5.52Y-1.72
X5.67Y-11.95
X6.06Y-6.02
X6.8Y-17.447
X6.95Y-26.63
X7.18Y-24.82
X7.211Y-18.27
X7.25Y-13.75
X7.27Y-12.72
X7.415Y-19.035
X7.42Y-15.35
X7.51Y-14.56
X7.54Y-21.39
X8.0Y-4.49
X8.19Y-3.24
X8.43Y-1.12
X8.5Y-31.0
X8.53Y-5.81
X8.74Y-16.06
X8.96Y-8.58
X9.51Y-31.03
X9.75Y-5.87
X10.0Y-33.0
X10.0Y-35.0
X10.124Y-19.088
X10.15Y-19.949
X10.189Y-17.636
X10.189Y-18.363
X10.2Y-15.2
X10.34Y-20.81
X10.39Y-12.35
X10.4Y-11.4
X10.4Y-14.4
X10.5Y-21.41
X10.6Y-16.8
X10.75Y-5.86
X10.77Y-3.31
X10.87Y-33.1
X11.03Y-23.14
X11.31Y-11.97
X11.48Y-8.67
X11.78Y-5.77
X12.2Y-11.4
X12.37Y-30.3
X12.39Y-1.48
X12.75Y-5.81
X12.92Y-3.1
X13.0Y-20.8
X13.14Y-23.03
X13.36Y-33.1
X13.46Y-6.05
X13.48Y-8.71
X13.77Y-23.33
X13.8Y-20.8
X13.82Y-3.19
X13.86Y-12.06
X14.43Y-23.69
X14.69Y-29.97
X14.8Y-3.12
X14.89Y-28.19
X14.9Y-5.92
X15.19Y-10.68
X15.46Y-30.22
X15.9Y-31.9
X15.95Y-3.14
X15.96Y-32.99
X16.03Y-5.64
X16.11Y-33.84
X16.11Y-34.6
X16.313Y-17.527
X16.313Y-18.992
X16.315Y-18.254
X16.55Y-16.7
X16.59Y-15.37
X16.69Y-8.49
X16.95Y-27.81
X17.07Y-23.92
X17.1Y-14.0
X17.4Y-15.4
X17.71Y-10.36
X17.77Y-12.08
X17.83Y-13.77
X17.85Y-17.89
X18.12Y-3.42
X18.12Y-4.03
X18.12Y-4.67
X18.13Y-26.22
X18.48Y-24.08
X18.65Y-16.17
X18.73Y-19.16
X18.74Y-35.35
X18.98Y-30.24
X19.05Y-28.59
X19.08Y-4.14
X19.34Y-31.2
X19.5Y-16.76
X19.75Y-24.75
X19.82Y-18.15
X19.82Y-25.66
X19.85Y-20.48
X20.0Y-10.36
X20.0Y-22.15
X20.01Y-19.833
X20.01Y-2.77
X20.17Y-5.99
X20.31Y-35.15
X20.61Y-8.48
X20.67Y-34.51
X20.73Y-14.91
X21.03Y-2.58
X21.3Y-12.83
X21.51Y-27.0
X21.61Y-28.47
X21.67Y-7.22
X21.73Y-9.33
X22.03Y-6.64
X22.05Y-3.45
X22.05Y-11.25
X22.21Y-13.1
X22.4Y-16.4
X22.4Y-17.2
X22.4Y-18.2
X22.4Y-20.2
X22.4Y-21.2
X22.4Y-23.2
X22.45Y-29.93
X22.5Y-26.75
X22.55Y-28.65
X22.6Y-19.2
X22.6Y-22.2
X22.76Y-34.69
X23.05Y-7.93
X23.22Y-33.0
X23.51Y-1.25
X24.24Y-22.48
X24.29Y-18.8
X25.07Y-6.16
X25.45Y-8.05
X25.83Y-34.27
X25.91Y-15.68
X25.93Y-3.64
X25.98Y-6.63
X26.03Y-24.75
X26.19Y-0.75
X26.36Y-20.03
T2
X12.2Y-12.5
X12.2Y-23.5
T3
X1.26Y-14.2
X2.53Y-14.2
X3.67Y-34.35
X4.94Y-34.35
X5.51Y-17.355
X5.51Y-18.625
X5.51Y-19.895
X5.51Y-21.165
X5.51Y-22.435
X6.21Y-34.35
X7.48Y-34.35
X8.75Y-34.35
X11.13Y-34.38
X12.4Y-34.38
T4
X4.95Y-27.88
X5.95Y-25.88
X6.95Y-27.88
X7.95Y-25.88
X8.95Y-27.88
X9.95Y-25.88
X10.95Y-27.88
X11.95Y-25.88
X12.95Y-27.88
X13.95Y-25.88
T5
X1.805Y-4.55
X3.805Y-4.55
X20.64Y-32.5
X22.054Y-33.914
T6
X1.83Y-17.57
X1.83Y-20.11
X1.83Y-22.65
X1.83Y-25.19
T5
G00X12.03Y-14.46
M15
G01X12.03Y-13.34
M16
G05
G00X12.03Y-22.66
M15
G01X12.03Y-21.54
M16
G05
G00X14.97Y-14.46
M15
G01X14.97Y-13.34
M16
G05
G00X14.97Y-22.66
M15
G01X14.97Y-21.54
M16
G05
M30
