%TF.GenerationSoftware,KiCad,Pcbnew,9.0.0*%
%TF.CreationDate,2025-03-11T18:34:40+03:00*%
%TF.ProjectId,Shield_Emergent_4,53686965-6c64-45f4-956d-657267656e74,rev?*%
%TF.SameCoordinates,Original*%
%TF.FileFunction,Copper,L1,Top*%
%TF.FilePolarity,Positive*%
%FSLAX46Y46*%
G04 Gerber Fmt 4.6, Leading zero omitted, Abs format (unit mm)*
G04 Created by KiCad (PCBNEW 9.0.0) date 2025-03-11 18:34:40*
%MOMM*%
%LPD*%
G01*
G04 APERTURE LIST*
G04 Aperture macros list*
%AMRoundRect*
0 Rectangle with rounded corners*
0 $1 Rounding radius*
0 $2 $3 $4 $5 $6 $7 $8 $9 X,Y pos of 4 corners*
0 Add a 4 corners polygon primitive as box body*
4,1,4,$2,$3,$4,$5,$6,$7,$8,$9,$2,$3,0*
0 Add four circle primitives for the rounded corners*
1,1,$1+$1,$2,$3*
1,1,$1+$1,$4,$5*
1,1,$1+$1,$6,$7*
1,1,$1+$1,$8,$9*
0 Add four rect primitives between the rounded corners*
20,1,$1+$1,$2,$3,$4,$5,0*
20,1,$1+$1,$4,$5,$6,$7,0*
20,1,$1+$1,$6,$7,$8,$9,0*
20,1,$1+$1,$8,$9,$2,$3,0*%
%AMRotRect*
0 Rectangle, with rotation*
0 The origin of the aperture is its center*
0 $1 length*
0 $2 width*
0 $3 Rotation angle, in degrees counterclockwise*
0 Add horizontal line*
21,1,$1,$2,0,0,$3*%
G04 Aperture macros list end*
%TA.AperFunction,ComponentPad*%
%ADD10R,1.000000X1.000000*%
%TD*%
%TA.AperFunction,ComponentPad*%
%ADD11O,1.000000X1.000000*%
%TD*%
%TA.AperFunction,SMDPad,CuDef*%
%ADD12RoundRect,0.075000X-0.075000X0.350000X-0.075000X-0.350000X0.075000X-0.350000X0.075000X0.350000X0*%
%TD*%
%TA.AperFunction,SMDPad,CuDef*%
%ADD13RoundRect,0.160000X-0.160000X0.197500X-0.160000X-0.197500X0.160000X-0.197500X0.160000X0.197500X0*%
%TD*%
%TA.AperFunction,ComponentPad*%
%ADD14C,0.900000*%
%TD*%
%TA.AperFunction,SMDPad,CuDef*%
%ADD15R,1.300000X0.270000*%
%TD*%
%TA.AperFunction,ComponentPad*%
%ADD16O,1.100000X2.220000*%
%TD*%
%TA.AperFunction,SMDPad,CuDef*%
%ADD17RoundRect,0.162500X-0.617500X-0.162500X0.617500X-0.162500X0.617500X0.162500X-0.617500X0.162500X0*%
%TD*%
%TA.AperFunction,SMDPad,CuDef*%
%ADD18RoundRect,0.150000X0.150000X0.200000X-0.150000X0.200000X-0.150000X-0.200000X0.150000X-0.200000X0*%
%TD*%
%TA.AperFunction,SMDPad,CuDef*%
%ADD19RoundRect,0.100000X0.100000X-0.217500X0.100000X0.217500X-0.100000X0.217500X-0.100000X-0.217500X0*%
%TD*%
%TA.AperFunction,SMDPad,CuDef*%
%ADD20RoundRect,0.160000X-0.197500X-0.160000X0.197500X-0.160000X0.197500X0.160000X-0.197500X0.160000X0*%
%TD*%
%TA.AperFunction,SMDPad,CuDef*%
%ADD21RoundRect,0.075000X0.350000X0.075000X-0.350000X0.075000X-0.350000X-0.075000X0.350000X-0.075000X0*%
%TD*%
%TA.AperFunction,ComponentPad*%
%ADD22C,1.524000*%
%TD*%
%TA.AperFunction,ComponentPad*%
%ADD23R,1.700000X1.700000*%
%TD*%
%TA.AperFunction,ComponentPad*%
%ADD24O,1.700000X1.700000*%
%TD*%
%TA.AperFunction,ComponentPad*%
%ADD25RotRect,1.600000X1.600000X315.000000*%
%TD*%
%TA.AperFunction,ComponentPad*%
%ADD26C,1.600000*%
%TD*%
%TA.AperFunction,SMDPad,CuDef*%
%ADD27R,1.300000X0.300000*%
%TD*%
%TA.AperFunction,SMDPad,CuDef*%
%ADD28R,2.200000X1.900000*%
%TD*%
%TA.AperFunction,SMDPad,CuDef*%
%ADD29RoundRect,0.100000X0.217500X0.100000X-0.217500X0.100000X-0.217500X-0.100000X0.217500X-0.100000X0*%
%TD*%
%TA.AperFunction,SMDPad,CuDef*%
%ADD30RoundRect,0.155000X-0.212500X-0.155000X0.212500X-0.155000X0.212500X0.155000X-0.212500X0.155000X0*%
%TD*%
%TA.AperFunction,SMDPad,CuDef*%
%ADD31R,0.300000X1.300000*%
%TD*%
%TA.AperFunction,SMDPad,CuDef*%
%ADD32R,1.900000X2.200000*%
%TD*%
%TA.AperFunction,SMDPad,CuDef*%
%ADD33RoundRect,0.160000X0.197500X0.160000X-0.197500X0.160000X-0.197500X-0.160000X0.197500X-0.160000X0*%
%TD*%
%TA.AperFunction,ComponentPad*%
%ADD34R,1.600000X1.600000*%
%TD*%
%TA.AperFunction,SMDPad,CuDef*%
%ADD35RoundRect,0.155000X0.155000X-0.212500X0.155000X0.212500X-0.155000X0.212500X-0.155000X-0.212500X0*%
%TD*%
%TA.AperFunction,SMDPad,CuDef*%
%ADD36RoundRect,0.150000X-0.150000X-0.200000X0.150000X-0.200000X0.150000X0.200000X-0.150000X0.200000X0*%
%TD*%
%TA.AperFunction,ViaPad*%
%ADD37C,0.600000*%
%TD*%
%TA.AperFunction,Conductor*%
%ADD38C,0.800000*%
%TD*%
%TA.AperFunction,Conductor*%
%ADD39C,0.600000*%
%TD*%
%TA.AperFunction,Conductor*%
%ADD40C,0.400000*%
%TD*%
%TA.AperFunction,Conductor*%
%ADD41C,0.250000*%
%TD*%
%TA.AperFunction,Conductor*%
%ADD42C,0.500000*%
%TD*%
%TA.AperFunction,Conductor*%
%ADD43C,0.112000*%
%TD*%
%TA.AperFunction,Conductor*%
%ADD44C,0.200000*%
%TD*%
G04 APERTURE END LIST*
D10*
%TO.P,J4,1,Pin_1*%
%TO.N,K1*%
X8750000Y-34350000D03*
D11*
%TO.P,J4,2,Pin_2*%
%TO.N,K3*%
X7479999Y-34350000D03*
%TO.P,J4,3,Pin_3*%
%TO.N,K5*%
X6210000Y-34350000D03*
%TO.P,J4,4,Pin_4*%
%TO.N,K7*%
X4940000Y-34350000D03*
%TO.P,J4,5,Pin_5*%
%TO.N,K9*%
X3670001Y-34350000D03*
%TD*%
D12*
%TO.P,U3,1,1*%
%TO.N,RX1-*%
X24050000Y-4395000D03*
%TO.P,U3,2,2*%
%TO.N,RX1+*%
X23550000Y-4395000D03*
%TO.P,U3,3,3*%
%TO.N,TX1+*%
X23050000Y-4395000D03*
%TO.P,U3,4,4*%
%TO.N,TX1-*%
X22550000Y-4395000D03*
%TO.P,U3,5,5*%
%TO.N,GND*%
X22050000Y-4395000D03*
%TO.P,U3,6,6*%
%TO.N,1_D-*%
X21550000Y-4395000D03*
%TO.P,U3,7,7*%
%TO.N,1_D+*%
X21050000Y-4395000D03*
%TO.P,U3,8,8*%
X21050000Y-5645000D03*
%TO.P,U3,9,9*%
%TO.N,1_D-*%
X21550000Y-5645000D03*
%TO.P,U3,10,10*%
%TO.N,GND*%
X22050000Y-5645000D03*
%TO.P,U3,11,11*%
%TO.N,TX1-*%
X22550000Y-5645000D03*
%TO.P,U3,12,12*%
%TO.N,TX1+*%
X23050000Y-5645000D03*
%TO.P,U3,13,13*%
%TO.N,RX1+*%
X23550000Y-5645000D03*
%TO.P,U3,14,14*%
%TO.N,RX1-*%
X24050000Y-5645000D03*
%TD*%
D13*
%TO.P,R6,1*%
%TO.N,nFLT1*%
X8020000Y-16622500D03*
%TO.P,R6,2*%
%TO.N,VBUS*%
X8020000Y-17817500D03*
%TD*%
D14*
%TO.P,X1,*%
%TO.N,*%
X12200000Y-23500000D03*
X12200000Y-12500000D03*
D15*
%TO.P,X1,A1,GND*%
%TO.N,GND*%
X11750000Y-20750000D03*
%TO.P,X1,A2,TX1+*%
%TO.N,TX1+*%
X11750000Y-20250000D03*
%TO.P,X1,A3,TX1-*%
%TO.N,TX1-*%
X11750000Y-19750000D03*
%TO.P,X1,A4,VBUS*%
%TO.N,VBUS*%
X11750001Y-19250000D03*
%TO.P,X1,A5,CC1*%
%TO.N,unconnected-(X1-CC1-PadA5)*%
X11750000Y-18750000D03*
%TO.P,X1,A6,D+*%
%TO.N,D+*%
X11750000Y-18250000D03*
%TO.P,X1,A7,D-*%
%TO.N,D-*%
X11750000Y-17750000D03*
%TO.P,X1,A8,SBU1*%
%TO.N,unconnected-(X1-SBU1-PadA8)*%
X11750000Y-17250000D03*
%TO.P,X1,A9,VBUS*%
%TO.N,VBUS*%
X11750001Y-16750000D03*
%TO.P,X1,A10,RX2-*%
%TO.N,RX2-*%
X11750000Y-16250000D03*
%TO.P,X1,A11,RX2+*%
%TO.N,RX2+*%
X11750000Y-15750000D03*
%TO.P,X1,A12,GND*%
%TO.N,GND*%
X11750000Y-15250000D03*
%TO.P,X1,B1,GND*%
X15250000Y-15250000D03*
%TO.P,X1,B2,TX2+*%
%TO.N,TX2+*%
X15250000Y-15750000D03*
%TO.P,X1,B3,TX2-*%
%TO.N,TX2-*%
X15250000Y-16250000D03*
%TO.P,X1,B4,VBUS*%
%TO.N,VBUS*%
X15249999Y-16750000D03*
%TO.P,X1,B5,CC2*%
%TO.N,unconnected-(X1-CC2-PadB5)*%
X15250000Y-17250000D03*
%TO.P,X1,B6,D+*%
%TO.N,D+*%
X15250000Y-17750000D03*
%TO.P,X1,B7,D-*%
%TO.N,D-*%
X15250000Y-18250000D03*
%TO.P,X1,B8,SBU2*%
%TO.N,unconnected-(X1-SBU2-PadB8)*%
X15250000Y-18750000D03*
%TO.P,X1,B9,VBUS*%
%TO.N,VBUS*%
X15249999Y-19250000D03*
%TO.P,X1,B10,RX1-*%
%TO.N,RX1-*%
X15250000Y-19750000D03*
%TO.P,X1,B11,RX1+*%
%TO.N,RX1+*%
X15250000Y-20250000D03*
%TO.P,X1,B12,GND*%
%TO.N,GND*%
X15250000Y-20750000D03*
D16*
%TO.P,X1,S1,SHIELD*%
%TO.N,Shield*%
X12030000Y-22100000D03*
X14970000Y-22100000D03*
X12030000Y-13900000D03*
X14970000Y-13900000D03*
%TD*%
D17*
%TO.P,U2,1,IN*%
%TO.N,VBUS*%
X14800000Y-32540000D03*
%TO.P,U2,2,GND*%
%TO.N,GND*%
X14800000Y-33490000D03*
%TO.P,U2,3,EN*%
%TO.N,EN2*%
X14800000Y-34440000D03*
%TO.P,U2,4,nFAULT*%
%TO.N,nFLT2*%
X17500000Y-34440000D03*
%TO.P,U2,5,ILIM*%
%TO.N,Net-(U2-ILIM)*%
X17500000Y-33490000D03*
%TO.P,U2,6,OUT*%
%TO.N,VOUT2*%
X17500000Y-32540000D03*
%TD*%
D18*
%TO.P,D1,1,A1*%
%TO.N,VOUT1*%
X17822500Y-2820000D03*
%TO.P,D1,2,A2*%
%TO.N,GND*%
X19222500Y-2820000D03*
%TD*%
D19*
%TO.P,R10,1*%
%TO.N,Net-(J1-PadS2)*%
X5260000Y-7637500D03*
%TO.P,R10,2*%
%TO.N,GND*%
X5260000Y-6822500D03*
%TD*%
D20*
%TO.P,R8,1*%
%TO.N,Net-(U2-ILIM)*%
X17082500Y-31170000D03*
%TO.P,R8,2*%
%TO.N,GND*%
X18277500Y-31170000D03*
%TD*%
D21*
%TO.P,U4,1,1*%
%TO.N,RX2+*%
X18857500Y-22907500D03*
%TO.P,U4,2,2*%
%TO.N,RX2-*%
X18857500Y-22407500D03*
%TO.P,U4,3,3*%
%TO.N,TX2-*%
X18857500Y-21907500D03*
%TO.P,U4,4,4*%
%TO.N,TX2+*%
X18857500Y-21407500D03*
%TO.P,U4,5,5*%
%TO.N,GND*%
X18857500Y-20907500D03*
%TO.P,U4,6,6*%
%TO.N,2_D+*%
X18857500Y-20407500D03*
%TO.P,U4,7,7*%
%TO.N,2_D-*%
X18857500Y-19907500D03*
%TO.P,U4,8,8*%
X17607500Y-19907500D03*
%TO.P,U4,9,9*%
%TO.N,2_D+*%
X17607500Y-20407500D03*
%TO.P,U4,10,10*%
%TO.N,GND*%
X17607500Y-20907500D03*
%TO.P,U4,11,11*%
%TO.N,TX2+*%
X17607500Y-21407500D03*
%TO.P,U4,12,12*%
%TO.N,TX2-*%
X17607500Y-21907500D03*
%TO.P,U4,13,13*%
%TO.N,RX2-*%
X17607500Y-22407500D03*
%TO.P,U4,14,14*%
%TO.N,RX2+*%
X17607500Y-22907500D03*
%TD*%
D22*
%TO.P,J8,1,Pin_1*%
%TO.N,K2*%
X13950000Y-25880000D03*
%TO.P,J8,2,Pin_2*%
%TO.N,K1*%
X12950000Y-27880000D03*
%TO.P,J8,3,Pin_3*%
%TO.N,K4*%
X11949999Y-25880000D03*
%TO.P,J8,4,Pin_4*%
%TO.N,K3*%
X10950000Y-27880000D03*
%TO.P,J8,5,Pin_5*%
%TO.N,K6*%
X9950000Y-25880000D03*
%TO.P,J8,6,Pin_6*%
%TO.N,K5*%
X8950001Y-27880000D03*
%TO.P,J8,7,Pin_7*%
%TO.N,K8*%
X7950000Y-25880000D03*
%TO.P,J8,8,Pin_8*%
%TO.N,K7*%
X6950000Y-27880000D03*
%TO.P,J8,9,Pin_9*%
%TO.N,GND*%
X5950000Y-25880000D03*
%TO.P,J8,10,Pin_10*%
%TO.N,K9*%
X4950000Y-27880001D03*
%TD*%
D23*
%TO.P,J2,1,Pin_1*%
%TO.N,GND*%
X1830000Y-25190000D03*
D24*
%TO.P,J2,2,Pin_2*%
%TO.N,D+*%
X1830000Y-22650000D03*
%TO.P,J2,3,Pin_3*%
%TO.N,D-*%
X1830000Y-20110001D03*
%TO.P,J2,4,Pin_4*%
%TO.N,VBUS*%
X1830000Y-17570000D03*
%TD*%
D10*
%TO.P,J6,1,Pin_1*%
%TO.N,EN2*%
X12400000Y-34380000D03*
D11*
%TO.P,J6,2,Pin_2*%
%TO.N,nFLT2*%
X11129999Y-34380000D03*
%TD*%
D19*
%TO.P,R9,1*%
%TO.N,Net-(J1-PadS1)*%
X20880000Y-7727500D03*
%TO.P,R9,2*%
%TO.N,GND*%
X20880000Y-6912500D03*
%TD*%
D25*
%TO.P,C4,1*%
%TO.N,VOUT2*%
X20640000Y-32500000D03*
D26*
%TO.P,C4,2*%
%TO.N,GND*%
X22054214Y-33914214D03*
%TD*%
D10*
%TO.P,J5,1,Pin_1*%
%TO.N,EN1*%
X2530000Y-14200000D03*
D11*
%TO.P,J5,2,Pin_2*%
%TO.N,nFLT1*%
X1259999Y-14200000D03*
%TD*%
D27*
%TO.P,J3,1,1*%
%TO.N,GND*%
X21103805Y-24150000D03*
%TO.P,J3,2,2*%
%TO.N,RX2+*%
X21103805Y-23650000D03*
%TO.P,J3,3,3*%
%TO.N,GND*%
X21103805Y-23150000D03*
%TO.P,J3,4,4*%
%TO.N,RX2-*%
X21103805Y-22650000D03*
%TO.P,J3,5,5*%
%TO.N,GND*%
X21103805Y-22150000D03*
%TO.P,J3,6,6*%
%TO.N,TX2-*%
X21103805Y-21650000D03*
%TO.P,J3,7,7*%
%TO.N,GND*%
X21103805Y-21150000D03*
%TO.P,J3,8,8*%
%TO.N,TX2+*%
X21103805Y-20650000D03*
%TO.P,J3,9,9*%
%TO.N,GND*%
X21103805Y-20150000D03*
%TO.P,J3,10,10*%
%TO.N,unconnected-(J3-Pad10)*%
X21103805Y-19650000D03*
%TO.P,J3,11,11*%
%TO.N,GND*%
X21103805Y-19150000D03*
%TO.P,J3,12,12*%
%TO.N,2_D+*%
X21103805Y-18650000D03*
%TO.P,J3,13,13*%
%TO.N,GND*%
X21103805Y-18150000D03*
%TO.P,J3,14,14*%
%TO.N,2_D-*%
X21103805Y-17650000D03*
%TO.P,J3,15,15*%
%TO.N,GND*%
X21103805Y-17150000D03*
%TO.P,J3,16,16*%
X21103805Y-16650000D03*
%TO.P,J3,17,17*%
%TO.N,VOUT2*%
X21103805Y-16150000D03*
%TO.P,J3,18,18*%
X21103805Y-15650000D03*
D28*
%TO.P,J3,S1,S1*%
%TO.N,Net-(J3-PadS1)*%
X24353805Y-13700000D03*
%TO.P,J3,S2,S2*%
%TO.N,Net-(J3-PadS2)*%
X24353805Y-26100000D03*
%TD*%
D29*
%TO.P,R12,1*%
%TO.N,Net-(J3-PadS2)*%
X22847500Y-27750000D03*
%TO.P,R12,2*%
%TO.N,GND*%
X22032500Y-27750000D03*
%TD*%
D30*
%TO.P,C3,1*%
%TO.N,VBUS*%
X14562500Y-31070000D03*
%TO.P,C3,2*%
%TO.N,GND*%
X15697500Y-31070000D03*
%TD*%
D31*
%TO.P,J1,1,1*%
%TO.N,GND*%
X8770000Y-4465000D03*
%TO.P,J1,2,2*%
%TO.N,RX1-*%
X9270000Y-4465000D03*
%TO.P,J1,3,3*%
%TO.N,GND*%
X9770000Y-4465000D03*
%TO.P,J1,4,4*%
%TO.N,RX1+*%
X10270000Y-4465000D03*
%TO.P,J1,5,5*%
%TO.N,GND*%
X10770000Y-4465000D03*
%TO.P,J1,6,6*%
%TO.N,TX1+*%
X11270000Y-4465000D03*
%TO.P,J1,7,7*%
%TO.N,GND*%
X11770000Y-4465000D03*
%TO.P,J1,8,8*%
%TO.N,TX1-*%
X12270000Y-4465000D03*
%TO.P,J1,9,9*%
%TO.N,GND*%
X12770000Y-4465000D03*
%TO.P,J1,10,10*%
%TO.N,unconnected-(J1-Pad10)*%
X13270000Y-4465000D03*
%TO.P,J1,11,11*%
%TO.N,GND*%
X13770000Y-4465000D03*
%TO.P,J1,12,12*%
%TO.N,1_D+*%
X14270000Y-4465000D03*
%TO.P,J1,13,13*%
%TO.N,GND*%
X14770000Y-4465000D03*
%TO.P,J1,14,14*%
%TO.N,1_D-*%
X15270000Y-4465000D03*
%TO.P,J1,15,15*%
%TO.N,GND*%
X15770000Y-4465000D03*
%TO.P,J1,16,16*%
X16270000Y-4465000D03*
%TO.P,J1,17,17*%
%TO.N,VOUT1*%
X16770000Y-4465000D03*
%TO.P,J1,18,18*%
X17270000Y-4465000D03*
D32*
%TO.P,J1,S1,S1*%
%TO.N,Net-(J1-PadS1)*%
X19220000Y-7715000D03*
%TO.P,J1,S2,S2*%
%TO.N,Net-(J1-PadS2)*%
X6820000Y-7715000D03*
%TD*%
D33*
%TO.P,R7,1*%
%TO.N,nFLT2*%
X12437500Y-32060000D03*
%TO.P,R7,2*%
%TO.N,VBUS*%
X11242500Y-32060000D03*
%TD*%
D17*
%TO.P,U1,1,IN*%
%TO.N,VBUS*%
X6090000Y-13270000D03*
%TO.P,U1,2,GND*%
%TO.N,GND*%
X6090000Y-14220000D03*
%TO.P,U1,3,EN*%
%TO.N,EN1*%
X6090000Y-15170000D03*
%TO.P,U1,4,nFAULT*%
%TO.N,nFLT1*%
X8790000Y-15170000D03*
%TO.P,U1,5,ILIM*%
%TO.N,Net-(U1-ILIM)*%
X8790000Y-14220000D03*
%TO.P,U1,6,OUT*%
%TO.N,VOUT1*%
X8790000Y-13270000D03*
%TD*%
D10*
%TO.P,J7,1,Pin_1*%
%TO.N,K2*%
X5510000Y-17355000D03*
D11*
%TO.P,J7,2,Pin_2*%
%TO.N,K4*%
X5510000Y-18625001D03*
%TO.P,J7,3,Pin_3*%
%TO.N,K6*%
X5510000Y-19895000D03*
%TO.P,J7,4,Pin_4*%
%TO.N,K8*%
X5510000Y-21165000D03*
%TO.P,J7,5,Pin_5*%
%TO.N,GND*%
X5510000Y-22434999D03*
%TD*%
D29*
%TO.P,R11,1*%
%TO.N,Net-(J3-PadS1)*%
X22417500Y-12040000D03*
%TO.P,R11,2*%
%TO.N,GND*%
X21602500Y-12040000D03*
%TD*%
D34*
%TO.P,C1,1*%
%TO.N,VOUT1*%
X3805113Y-4550000D03*
D26*
%TO.P,C1,2*%
%TO.N,GND*%
X1805113Y-4550000D03*
%TD*%
D35*
%TO.P,C2,1*%
%TO.N,VBUS*%
X4510000Y-13207500D03*
%TO.P,C2,2*%
%TO.N,GND*%
X4510000Y-12072500D03*
%TD*%
D33*
%TO.P,R4,1*%
%TO.N,Net-(U1-ILIM)*%
X7987500Y-11880000D03*
%TO.P,R4,2*%
%TO.N,GND*%
X6792500Y-11880000D03*
%TD*%
D36*
%TO.P,D2,1,A1*%
%TO.N,VOUT2*%
X19640000Y-15040000D03*
%TO.P,D2,2,A2*%
%TO.N,GND*%
X18240000Y-15040000D03*
%TD*%
D37*
%TO.N,VOUT1*%
X18120000Y-3420000D03*
X18120000Y-4030000D03*
X18120000Y-4670000D03*
%TO.N,GND*%
X20730000Y-14910000D03*
X20170000Y-5990000D03*
X13770000Y-23330000D03*
X22600000Y-19200000D03*
X7180000Y-24820000D03*
X17830000Y-13770000D03*
X16690000Y-8490000D03*
X4600000Y-5800000D03*
X4620000Y-7220000D03*
X20009988Y-19833079D03*
X23510000Y-1250000D03*
X9750000Y-5870000D03*
X8000000Y-4490000D03*
X24240000Y-22480000D03*
X12920000Y-3100000D03*
X1930000Y-35140000D03*
X22400000Y-16400000D03*
X20000000Y-10360000D03*
X25830000Y-34270000D03*
X10870000Y-33100000D03*
X3050000Y-23890000D03*
X25930000Y-3640000D03*
X4340000Y-33570000D03*
X4380000Y-11180000D03*
X8960000Y-8580000D03*
X8190000Y-3240000D03*
X21730000Y-9330000D03*
X20000000Y-22150000D03*
X10750000Y-5860000D03*
X22030000Y-6640000D03*
X670000Y-23750000D03*
X26030000Y-24750000D03*
X21510000Y-27000000D03*
X15900000Y-31900000D03*
X910000Y-21340000D03*
X3830000Y-9640000D03*
X2200000Y-5800000D03*
X3890000Y-23260000D03*
X10770000Y-3310000D03*
X22760000Y-34690000D03*
X2310000Y-11940000D03*
X15950000Y-3140000D03*
X18650000Y-16170000D03*
X16110000Y-34600000D03*
X19850000Y-20480000D03*
X17100000Y-14000000D03*
X25070000Y-6160000D03*
X1320000Y-6070000D03*
X19340000Y-31200000D03*
X13140000Y-23030000D03*
X4450000Y-22050000D03*
X13820000Y-3190000D03*
X12750000Y-5810000D03*
X3610000Y-17980000D03*
X17770000Y-12080000D03*
X15190000Y-10680000D03*
X13800000Y-20800000D03*
X930000Y-980000D03*
X19080000Y-4140000D03*
X21610000Y-28470000D03*
X25910000Y-15680000D03*
X9510000Y-31030000D03*
X21300000Y-12830000D03*
X13360000Y-33100000D03*
X22400000Y-20200000D03*
X4170000Y-29900000D03*
X1220000Y-2580000D03*
X24290000Y-18800000D03*
X12200000Y-11400000D03*
X22550000Y-28650000D03*
X8500000Y-31000000D03*
X14690000Y-29970000D03*
X8430000Y-1120000D03*
X20010000Y-2770000D03*
X6950000Y-26630000D03*
X20310000Y-35150000D03*
X12390000Y-1480000D03*
X10400000Y-11400000D03*
X5670000Y-11950000D03*
X22400000Y-23200000D03*
X4720000Y-26490000D03*
X23220000Y-33000000D03*
X25450000Y-8050000D03*
X18980000Y-30240000D03*
X22450000Y-29930000D03*
X18480000Y-24080000D03*
X6060000Y-6020000D03*
X25980000Y-6630000D03*
X720000Y-6820000D03*
X12370000Y-30300000D03*
X16110000Y-33840000D03*
X16590000Y-15370000D03*
X13000000Y-20800000D03*
X10390000Y-12350000D03*
X10000000Y-35000000D03*
X11310000Y-11970000D03*
X10340000Y-20810000D03*
X10200000Y-15200000D03*
X890000Y-18820000D03*
X10500000Y-21410000D03*
X22400000Y-18200000D03*
X22600000Y-22200000D03*
X14800000Y-3120000D03*
X3610000Y-19660000D03*
X13860000Y-12060000D03*
X7510000Y-14560000D03*
X17710000Y-10360000D03*
X4730000Y-14260000D03*
X5520000Y-1720000D03*
X17850000Y-17890000D03*
X15960000Y-32990000D03*
X7420000Y-15350000D03*
X4940000Y-25000000D03*
X13460000Y-6050000D03*
X19750000Y-24750000D03*
X22050000Y-11250000D03*
X8530000Y-5810000D03*
X23050000Y-7930000D03*
X14430000Y-23690000D03*
X22400000Y-17200000D03*
X3370000Y-22220000D03*
X7270000Y-12720000D03*
X5300000Y-30000000D03*
X11030000Y-23140000D03*
X7250000Y-13750000D03*
X10400000Y-14400000D03*
X18730000Y-19160000D03*
X26360000Y-20030000D03*
X15460000Y-30220000D03*
X22210000Y-13100000D03*
X18740000Y-35350000D03*
X16950000Y-27810000D03*
X14900000Y-5920000D03*
X21670000Y-7220000D03*
X19500000Y-16760000D03*
X3560000Y-2790000D03*
X16030000Y-5640000D03*
X21030000Y-2580000D03*
X18130000Y-26220000D03*
X740000Y-26770000D03*
X17070000Y-23920000D03*
X14890000Y-28190000D03*
X19050000Y-28590000D03*
X2190000Y-26860000D03*
X2120000Y-2870000D03*
X26190000Y-750000D03*
X20670000Y-34510000D03*
X22050000Y-3450000D03*
X20610000Y-8480000D03*
X22500000Y-26750000D03*
X10000000Y-33000000D03*
X11780000Y-5770000D03*
X17400000Y-15400000D03*
X11480000Y-8670000D03*
X13480000Y-8710000D03*
X1000000Y-33500000D03*
X19820000Y-18150000D03*
X7540000Y-21390000D03*
X19820000Y-25660000D03*
X22400000Y-21200000D03*
%TO.N,VBUS*%
X16313481Y-18991601D03*
X6800000Y-17446926D03*
X7415000Y-19035000D03*
X10150000Y-19948632D03*
X10600000Y-16800000D03*
X16550000Y-16700000D03*
X7210554Y-18270000D03*
%TO.N,D+*%
X10189000Y-18363500D03*
X16313477Y-17527000D03*
%TO.N,D-*%
X10189000Y-17636500D03*
X10124302Y-19087618D03*
X16314920Y-18254003D03*
%TO.N,nFLT1*%
X8740000Y-16060000D03*
%TO.N,EN1*%
X4800000Y-15170000D03*
%TD*%
D38*
%TO.N,VOUT1*%
X3773000Y-8023000D02*
X3773000Y-4582113D01*
D39*
X17830000Y-2820000D02*
X18070000Y-3060000D01*
D38*
X3773000Y-4582113D02*
X3805113Y-4550000D01*
D39*
X18120000Y-4670000D02*
X18120000Y-4680000D01*
D38*
X9190000Y-12870000D02*
X9190000Y-10460000D01*
D40*
X16770000Y-4465000D02*
X16770000Y-2930000D01*
D38*
X17830000Y-2820000D02*
X18120000Y-3110000D01*
X9190000Y-10460000D02*
X6210000Y-10460000D01*
D39*
X18120000Y-3420000D02*
X18120000Y-4030000D01*
D40*
X17270000Y-4465000D02*
X17270000Y-2980000D01*
D39*
X18120000Y-4030000D02*
X18120000Y-4670000D01*
D38*
X17450000Y-2800000D02*
X16900000Y-2800000D01*
D39*
X18120000Y-3110000D02*
X18120000Y-3420000D01*
D38*
X6210000Y-10460000D02*
X3773000Y-8023000D01*
D40*
X17270000Y-2980000D02*
X17450000Y-2800000D01*
D39*
X17822500Y-2820000D02*
X17830000Y-2820000D01*
D38*
X8790000Y-13270000D02*
X9190000Y-12870000D01*
D40*
X16770000Y-2930000D02*
X16900000Y-2800000D01*
D41*
%TO.N,GND*%
X15250000Y-20750000D02*
X15710000Y-20750000D01*
X15822500Y-20862500D02*
X15822500Y-21160000D01*
X15710000Y-20750000D02*
X15822500Y-20862500D01*
X15710000Y-20750000D02*
X15790000Y-20830000D01*
D38*
%TO.N,VBUS*%
X10100000Y-31900000D02*
X10852500Y-31147500D01*
D39*
X4387500Y-13200000D02*
X5640000Y-13200000D01*
D38*
X4310000Y-31900000D02*
X10100000Y-31900000D01*
X10852500Y-31147500D02*
X13407500Y-31147500D01*
D40*
X10848632Y-19250000D02*
X11750001Y-19250000D01*
D38*
X14035000Y-31775000D02*
X14800000Y-32540000D01*
X6800000Y-16591000D02*
X6409000Y-16200000D01*
D42*
X5730000Y-13290000D02*
X5760000Y-13320000D01*
D38*
X3840000Y-15799604D02*
X2352604Y-17287000D01*
D43*
X1800001Y-17870001D02*
X1800000Y-17870001D01*
D38*
X3080000Y-26710000D02*
X3080000Y-30670000D01*
X3840000Y-13747500D02*
X3840000Y-15799604D01*
D39*
X4297500Y-13290000D02*
X4387500Y-13200000D01*
D38*
X3750000Y-26040000D02*
X3080000Y-26710000D01*
D44*
X7663054Y-17817500D02*
X8020000Y-17817500D01*
D40*
X16313481Y-18991601D02*
X16055082Y-19250000D01*
X11750001Y-16750000D02*
X10650000Y-16750000D01*
D38*
X3750000Y-24950000D02*
X3750000Y-26040000D01*
X5780000Y-24010000D02*
X4690000Y-24010000D01*
D39*
X11110000Y-32060000D02*
X10700000Y-31650000D01*
D38*
X7210554Y-18270000D02*
X6950000Y-18530554D01*
D40*
X16313481Y-18991601D02*
X16258399Y-18991601D01*
D38*
X4690000Y-24010000D02*
X3750000Y-24950000D01*
X6800000Y-17446926D02*
X6800000Y-16591000D01*
X7210554Y-18270000D02*
X7210554Y-18830554D01*
X2352604Y-17287000D02*
X1830000Y-17287000D01*
D40*
X16500000Y-16750000D02*
X15249999Y-16750000D01*
D38*
X7210554Y-18270000D02*
X7210554Y-17857480D01*
X13407500Y-31147500D02*
X14035000Y-31775000D01*
X6537000Y-19913000D02*
X6537000Y-23253000D01*
X3540000Y-16200000D02*
X3489802Y-16149802D01*
X7210554Y-18830554D02*
X7415000Y-19035000D01*
X6800000Y-17446926D02*
X6950000Y-17596926D01*
D39*
X11242500Y-32060000D02*
X11110000Y-32060000D01*
D40*
X14562500Y-31247500D02*
X14035000Y-31775000D01*
D38*
X6950000Y-19500000D02*
X6950000Y-18950000D01*
X7415000Y-19035000D02*
X6950000Y-19500000D01*
X6950000Y-17596926D02*
X6950000Y-18950000D01*
D40*
X14562500Y-31070000D02*
X14562500Y-31247500D01*
D38*
X7210554Y-17857480D02*
X6800000Y-17446926D01*
X3080000Y-30670000D02*
X4310000Y-31900000D01*
X6537000Y-23253000D02*
X5780000Y-24010000D01*
D39*
X5640000Y-13200000D02*
X5730000Y-13290000D01*
D40*
X10150000Y-19948632D02*
X10848632Y-19250000D01*
D38*
X6409000Y-16200000D02*
X3540000Y-16200000D01*
D40*
X16055082Y-19250000D02*
X15249999Y-19250000D01*
D44*
X7210554Y-18270000D02*
X7663054Y-17817500D01*
D40*
X16550000Y-16700000D02*
X16500000Y-16750000D01*
D38*
X4297500Y-13290000D02*
X3840000Y-13747500D01*
X6950000Y-19500000D02*
X6537000Y-19913000D01*
D40*
X10650000Y-16750000D02*
X10600000Y-16800000D01*
D38*
X6950000Y-18530554D02*
X6950000Y-18950000D01*
%TO.N,VOUT2*%
X23470000Y-16000000D02*
X21370000Y-13900000D01*
D40*
X21103805Y-16150000D02*
X20300000Y-16150000D01*
D38*
X21600000Y-25200000D02*
X22100000Y-25200000D01*
X21370000Y-13900000D02*
X20250000Y-13900000D01*
D40*
X19800000Y-15650000D02*
X21103805Y-15650000D01*
D38*
X22100000Y-25200000D02*
X23300000Y-24000000D01*
X24650000Y-24000000D02*
X25400000Y-23250000D01*
X23300000Y-24000000D02*
X24650000Y-24000000D01*
X25400000Y-23250000D02*
X25400000Y-17500000D01*
X20640000Y-32500000D02*
X20640000Y-26160000D01*
X20600000Y-32540000D02*
X20640000Y-32500000D01*
D40*
X20300000Y-16150000D02*
X19800000Y-15650000D01*
D38*
X17500000Y-32540000D02*
X20600000Y-32540000D01*
X19650000Y-14500000D02*
X19650000Y-15500000D01*
X20640000Y-26160000D02*
X21600000Y-25200000D01*
X23900000Y-16000000D02*
X23470000Y-16000000D01*
X20250000Y-13900000D02*
X19650000Y-14500000D01*
X25400000Y-17500000D02*
X23900000Y-16000000D01*
D43*
%TO.N,RX1-*%
X23919500Y-5514500D02*
X24050000Y-5645000D01*
X15369500Y-11799500D02*
X15504203Y-11799500D01*
X11390500Y-740500D02*
X21599500Y-740500D01*
X23919500Y-4525500D02*
X23919500Y-5514500D01*
X21079500Y-11089500D02*
X23919500Y-8249500D01*
X15857817Y-11614299D02*
X15773609Y-11530091D01*
X14735000Y-19750000D02*
X14604500Y-19880500D01*
X16079500Y-11089500D02*
X17001194Y-11089500D01*
X14019500Y-13149500D02*
X15369500Y-11799500D01*
X23919500Y-8249500D02*
X23919500Y-6413001D01*
X15857817Y-11749003D02*
X15857817Y-11614299D01*
X15723114Y-11883707D02*
X15857817Y-11749003D01*
X23919500Y-6413001D02*
X24050000Y-6282501D01*
X15504203Y-11799500D02*
X15588410Y-11883707D01*
X14019500Y-19630019D02*
X14019500Y-13149500D01*
X15588410Y-11883707D02*
X15723114Y-11883707D01*
X24050000Y-6282501D02*
X24050000Y-5645000D01*
X9650500Y-2480500D02*
X11390500Y-740500D01*
X15773609Y-11530091D02*
X15773609Y-11395387D01*
X23919500Y-3626999D02*
X24050000Y-3757499D01*
X14604500Y-19880500D02*
X14269981Y-19880500D01*
X24050000Y-3757499D02*
X24050000Y-4395000D01*
X15908315Y-11260684D02*
X16079500Y-11089500D01*
X17001194Y-11089500D02*
X21079500Y-11089500D01*
X15250000Y-19750000D02*
X14735000Y-19750000D01*
X9270000Y-4465000D02*
X9270000Y-3489999D01*
X21599500Y-740500D02*
X23919500Y-3060500D01*
X9650500Y-3109499D02*
X9650500Y-2480500D01*
X23919500Y-3060500D02*
X23919500Y-3626999D01*
X15773609Y-11395387D02*
X15908315Y-11260684D01*
X24050000Y-4395000D02*
X23919500Y-4525500D01*
X9270000Y-3489999D02*
X9650500Y-3109499D01*
X14269981Y-19880500D02*
X14019500Y-19630019D01*
%TO.N,RX1+*%
X23550000Y-6282501D02*
X23550000Y-5645000D01*
X13780500Y-13050500D02*
X15980500Y-10850500D01*
X10270000Y-3489999D02*
X10270000Y-4465000D01*
X11343707Y-1708411D02*
X11343707Y-1843115D01*
X14735000Y-20250000D02*
X14604500Y-20119500D01*
X20980500Y-10850500D02*
X23680500Y-8150500D01*
X11489500Y-979500D02*
X11119500Y-1349500D01*
X10209500Y-2259500D02*
X9889500Y-2579500D01*
X23680500Y-5514500D02*
X23550000Y-5645000D01*
X10850092Y-1753615D02*
X10715388Y-1753615D01*
X21500500Y-979500D02*
X11489500Y-979500D01*
X11119500Y-1349500D02*
X11119500Y-1484204D01*
X9889500Y-2579500D02*
X9889500Y-3109499D01*
X9889500Y-3109499D02*
X10270000Y-3489999D01*
X23680500Y-6413001D02*
X23550000Y-6282501D01*
X10275920Y-2193080D02*
X10209500Y-2259500D01*
X15980500Y-10850500D02*
X20980500Y-10850500D01*
X23550000Y-4395000D02*
X23550000Y-3757499D01*
X13780500Y-19729019D02*
X13780500Y-13050500D01*
X11343707Y-1843115D02*
X11209002Y-1977821D01*
X23680500Y-3159500D02*
X21500500Y-979500D01*
X23680500Y-4525500D02*
X23680500Y-5514500D01*
X23680500Y-3626999D02*
X23680500Y-3159500D01*
X11119500Y-1484204D02*
X11343707Y-1708411D01*
X23550000Y-3757499D02*
X23680500Y-3626999D01*
X11074298Y-1977821D02*
X10850092Y-1753615D01*
X10580684Y-1888317D02*
X10275920Y-2193080D01*
X14604500Y-20119500D02*
X14170981Y-20119500D01*
X10715388Y-1753615D02*
X10580684Y-1888317D01*
X15250000Y-20250000D02*
X14735000Y-20250000D01*
X14170981Y-20119500D02*
X13780500Y-19729019D01*
X23680500Y-8150500D02*
X23680500Y-6413001D01*
X23550000Y-4395000D02*
X23680500Y-4525500D01*
X11209002Y-1977821D02*
X11074298Y-1977821D01*
%TO.N,TX1+*%
X23050000Y-4395000D02*
X22919500Y-4525500D01*
X13070500Y-1500500D02*
X11650500Y-2920500D01*
X13219500Y-19699656D02*
X12799656Y-20119500D01*
X13219500Y-11539500D02*
X13219500Y-19699656D01*
X11270000Y-3489999D02*
X11270000Y-4465000D01*
X23050000Y-6282501D02*
X22919500Y-6413001D01*
X11650500Y-3109499D02*
X11270000Y-3489999D01*
X22919500Y-7219500D02*
X20409500Y-9729500D01*
X21179500Y-1500500D02*
X13070500Y-1500500D01*
X22919500Y-3626999D02*
X22919500Y-3240500D01*
X12395500Y-20119500D02*
X12265000Y-20250000D01*
X23050000Y-3757499D02*
X22919500Y-3626999D01*
X22919500Y-4525500D02*
X22919500Y-5514500D01*
X23050000Y-5645000D02*
X23050000Y-6282501D01*
X22919500Y-5514500D02*
X23050000Y-5645000D01*
X23050000Y-4395000D02*
X23050000Y-3757499D01*
X12265000Y-20250000D02*
X11750000Y-20250000D01*
X15029500Y-9729500D02*
X13219500Y-11539500D01*
X12799656Y-20119500D02*
X12395500Y-20119500D01*
X20409500Y-9729500D02*
X15029500Y-9729500D01*
X22919500Y-6413001D02*
X22919500Y-7219500D01*
X11650500Y-2920500D02*
X11650500Y-3109499D01*
X22919500Y-3240500D02*
X21179500Y-1500500D01*
%TO.N,D+*%
X15895500Y-17880500D02*
X15765000Y-17750000D01*
X11235000Y-18250000D02*
X11104500Y-18119500D01*
X11104500Y-18119500D02*
X10433000Y-18119500D01*
X16313477Y-17527000D02*
X15959977Y-17880500D01*
X10433000Y-18119500D02*
X10189000Y-18363500D01*
X15765000Y-17750000D02*
X15250000Y-17750000D01*
X11750000Y-18250000D02*
X11235000Y-18250000D01*
X15959977Y-17880500D02*
X15895500Y-17880500D01*
%TO.N,TX1-*%
X22550000Y-6282501D02*
X22550000Y-5645000D01*
X12395500Y-19880500D02*
X12700656Y-19880500D01*
X12980500Y-11440500D02*
X13187221Y-11233779D01*
X13187221Y-11233779D02*
X13187222Y-11099075D01*
X20185250Y-1834750D02*
X20185250Y-2151826D01*
X12700656Y-19880500D02*
X12980500Y-19600656D01*
X14030801Y-10390199D02*
X14114624Y-10306376D01*
X13169500Y-1739500D02*
X20090000Y-1739500D01*
X22680500Y-7120500D02*
X22680500Y-6413001D01*
X20185250Y-2151826D02*
X20280500Y-2247076D01*
X14930500Y-9490500D02*
X20310500Y-9490500D01*
X13103015Y-11014868D02*
X13103015Y-10880164D01*
X20471000Y-2247076D02*
X20566250Y-2151826D01*
X13372423Y-10745461D02*
X13456631Y-10829669D01*
X13726038Y-10694963D02*
X14030801Y-10390199D01*
X22189205Y-2848205D02*
X22680500Y-3339500D01*
X11889500Y-3019500D02*
X13169500Y-1739500D01*
X22550000Y-4395000D02*
X22680500Y-4525500D01*
X22680500Y-5514500D02*
X22550000Y-5645000D01*
X20310500Y-9490500D02*
X22680500Y-7120500D01*
X22680500Y-4525500D02*
X22680500Y-5514500D01*
X22680500Y-6413001D02*
X22550000Y-6282501D01*
X22680500Y-3339500D02*
X22680500Y-3626999D01*
X20566250Y-2151826D02*
X20566250Y-1834750D01*
X12980500Y-19600656D02*
X12980500Y-11440500D01*
X13456631Y-10829669D02*
X13591335Y-10829669D01*
X13187222Y-11099075D02*
X13103015Y-11014868D01*
X22550000Y-3757499D02*
X22550000Y-4395000D01*
X14114624Y-10306376D02*
X14930500Y-9490500D01*
X12270000Y-4465000D02*
X12270000Y-3489999D01*
X13237719Y-10745461D02*
X13372423Y-10745461D01*
X13591335Y-10829669D02*
X13726038Y-10694963D01*
X20280500Y-2247076D02*
X20471000Y-2247076D01*
X12270000Y-3489999D02*
X11889500Y-3109499D01*
X11750000Y-19750000D02*
X12265000Y-19750000D01*
X21080500Y-1739500D02*
X22189205Y-2848205D01*
X12265000Y-19750000D02*
X12395500Y-19880500D01*
X13103015Y-10880164D02*
X13237719Y-10745461D01*
X11889500Y-3109499D02*
X11889500Y-3019500D01*
X20566250Y-1834750D02*
X20661500Y-1739500D01*
X20090000Y-1739500D02*
X20185250Y-1834750D01*
X22680500Y-3626999D02*
X22550000Y-3757499D01*
X20661500Y-1739500D02*
X21080500Y-1739500D01*
%TO.N,D-*%
X11750000Y-17750000D02*
X11235000Y-17750000D01*
X15895500Y-18119500D02*
X15765000Y-18250000D01*
X16314920Y-18254003D02*
X16180417Y-18119500D01*
X10433000Y-17880500D02*
X10189000Y-17636500D01*
X10124302Y-19087618D02*
X9706000Y-18669316D01*
X9706000Y-18119500D02*
X10189000Y-17636500D01*
X11235000Y-17750000D02*
X11104500Y-17880500D01*
X16180417Y-18119500D02*
X15895500Y-18119500D01*
X11104500Y-17880500D02*
X10433000Y-17880500D01*
X15765000Y-18250000D02*
X15250000Y-18250000D01*
X9706000Y-18669316D02*
X9706000Y-18119500D01*
D44*
%TO.N,nFLT1*%
X8470000Y-15790000D02*
X8740000Y-16060000D01*
X8020000Y-15790000D02*
X8470000Y-15790000D01*
X8020000Y-15790000D02*
X8020000Y-16622500D01*
X8110000Y-15220000D02*
X8020000Y-15310000D01*
X8460000Y-15220000D02*
X8110000Y-15220000D01*
X8020000Y-15310000D02*
X8020000Y-15790000D01*
%TO.N,EN1*%
X6090000Y-15170000D02*
X4800000Y-15170000D01*
%TO.N,EN2*%
X14800000Y-34440000D02*
X12460000Y-34440000D01*
X12460000Y-34440000D02*
X12400000Y-34380000D01*
%TO.N,nFLT2*%
X12437500Y-32379999D02*
X11129999Y-33687500D01*
X12437500Y-32060000D02*
X12437500Y-32379999D01*
X17140000Y-35370000D02*
X11412893Y-35370000D01*
X11412893Y-35370000D02*
X11129999Y-35087106D01*
X11129999Y-33687500D02*
X11129999Y-34380000D01*
X17500000Y-34440000D02*
X17500000Y-35010000D01*
X11129999Y-35087106D02*
X11129999Y-34380000D01*
X17500000Y-35010000D02*
X17140000Y-35370000D01*
D43*
%TO.N,2_D-*%
X19213000Y-19552000D02*
X18857500Y-19907500D01*
X19200000Y-18946934D02*
X19213000Y-18959934D01*
X18769502Y-19907500D02*
X18607500Y-19907500D01*
X18477000Y-20038000D02*
X18607500Y-19907500D01*
X17357500Y-19907500D02*
X17488000Y-20038000D01*
X19213000Y-18959934D02*
X19213000Y-19552000D01*
X19470000Y-17650000D02*
X19200000Y-17920000D01*
X21103805Y-17650000D02*
X19470000Y-17650000D01*
X19200000Y-17920000D02*
X19200000Y-18946934D01*
X17488000Y-20038000D02*
X18477000Y-20038000D01*
%TO.N,TX2+*%
X18629500Y-18499500D02*
X18038204Y-19090796D01*
X17738000Y-21538000D02*
X18639002Y-21538000D01*
X19331502Y-21530500D02*
X19831502Y-21030500D01*
X15250000Y-15750000D02*
X15380500Y-15880500D01*
X17099500Y-15880500D02*
X18629500Y-17410500D01*
X16599500Y-19839849D02*
X16599500Y-21146937D01*
X18038204Y-19090796D02*
X17348553Y-19090796D01*
X15380500Y-15880500D02*
X17099500Y-15880500D01*
X20436805Y-20817000D02*
X20603805Y-20650000D01*
X20603805Y-20650000D02*
X21103805Y-20650000D01*
X18769502Y-21407500D02*
X18857500Y-21407500D01*
X16599500Y-21146937D02*
X16990563Y-21538000D01*
X20119500Y-21030500D02*
X20333000Y-20817000D01*
X18857500Y-21407500D02*
X18980500Y-21530500D01*
X16990563Y-21538000D02*
X17477000Y-21538000D01*
X18980500Y-21530500D02*
X19331502Y-21530500D01*
X20333000Y-20817000D02*
X20436805Y-20817000D01*
X18639002Y-21538000D02*
X18769502Y-21407500D01*
X18629500Y-17410500D02*
X18629500Y-18499500D01*
X19831502Y-21030500D02*
X20119500Y-21030500D01*
X17348553Y-19090796D02*
X16599500Y-19839849D01*
X17607500Y-21407500D02*
X17738000Y-21538000D01*
X17477000Y-21538000D02*
X17607500Y-21407500D01*
%TO.N,2_D+*%
X21103805Y-18650000D02*
X19768998Y-18650000D01*
X18477000Y-20277000D02*
X18607500Y-20407500D01*
X19768998Y-18650000D02*
X19675840Y-18743158D01*
X17357500Y-20407500D02*
X17488000Y-20277000D01*
X19149446Y-20407500D02*
X18857500Y-20407500D01*
X19465500Y-19694500D02*
X19465500Y-20091446D01*
X17488000Y-20277000D02*
X18477000Y-20277000D01*
X19675840Y-18743158D02*
X19675840Y-19484160D01*
X19465500Y-20091446D02*
X19149446Y-20407500D01*
X19675840Y-19484160D02*
X19465500Y-19694500D01*
%TO.N,RX2+*%
X20603805Y-23650000D02*
X21103805Y-23650000D01*
X19856296Y-23269500D02*
X20151303Y-23269500D01*
X20436805Y-23483000D02*
X20603805Y-23650000D01*
X20364803Y-23483000D02*
X20436805Y-23483000D01*
X10260500Y-24629500D02*
X15689500Y-24629500D01*
X16527457Y-22777000D02*
X17477000Y-22777000D01*
X18985000Y-22780000D02*
X19366796Y-22780000D01*
X11750000Y-15750000D02*
X11235000Y-15750000D01*
X8880500Y-23249500D02*
X10260500Y-24629500D01*
X11235000Y-15750000D02*
X11104500Y-15880500D01*
X11104500Y-15880500D02*
X10000500Y-15880500D01*
X16369500Y-22934957D02*
X16527457Y-22777000D01*
X15689500Y-24629500D02*
X16369500Y-23949500D01*
X10000500Y-15880500D02*
X8880500Y-17000500D01*
X8880500Y-17000500D02*
X8880500Y-23249500D01*
X18857500Y-22907500D02*
X18727000Y-22777000D01*
X17738000Y-22777000D02*
X17607500Y-22907500D01*
X20151303Y-23269500D02*
X20364803Y-23483000D01*
X18727000Y-22777000D02*
X17738000Y-22777000D01*
X19366796Y-22780000D02*
X19856296Y-23269500D01*
X18857500Y-22907500D02*
X18985000Y-22780000D01*
X17477000Y-22777000D02*
X17607500Y-22907500D01*
X16369500Y-23949500D02*
X16369500Y-22934957D01*
%TO.N,RX2-*%
X15590500Y-24390500D02*
X16130500Y-23850500D01*
X10099500Y-16119500D02*
X9119500Y-17099500D01*
X11104500Y-16119500D02*
X10099500Y-16119500D01*
X9531826Y-21553237D02*
X9214750Y-21553237D01*
X19464796Y-22540000D02*
X19955296Y-23030500D01*
X9627076Y-21457987D02*
X9531826Y-21553237D01*
X20436805Y-22817000D02*
X20603805Y-22650000D01*
X18990000Y-22540000D02*
X19464796Y-22540000D01*
X9119500Y-21648487D02*
X9119500Y-22399676D01*
X17738000Y-22538000D02*
X17607500Y-22407500D01*
X9119500Y-23150500D02*
X10359500Y-24390500D01*
X9119500Y-17099500D02*
X9119500Y-21076987D01*
X18639003Y-22538000D02*
X17738000Y-22538000D01*
X16428457Y-22538000D02*
X17477000Y-22538000D01*
X16130500Y-22835957D02*
X16428457Y-22538000D01*
X20151303Y-23030500D02*
X20364803Y-22817000D01*
X18769503Y-22407500D02*
X18639003Y-22538000D01*
X11235000Y-16250000D02*
X11104500Y-16119500D01*
X19955296Y-23030500D02*
X20151303Y-23030500D01*
X9214750Y-21553237D02*
X9119500Y-21648487D01*
X9119500Y-21076987D02*
X9214750Y-21172237D01*
X10359500Y-24390500D02*
X15590500Y-24390500D01*
X16130500Y-23850500D02*
X16130500Y-22835957D01*
X11750000Y-16250000D02*
X11235000Y-16250000D01*
X9627076Y-21267487D02*
X9627076Y-21457987D01*
X18857500Y-22407500D02*
X18769503Y-22407500D01*
X20364803Y-22817000D02*
X20436805Y-22817000D01*
X20603805Y-22650000D02*
X21103805Y-22650000D01*
X9119500Y-22399676D02*
X9119500Y-23150500D01*
X17477000Y-22538000D02*
X17607500Y-22407500D01*
X9531826Y-21172237D02*
X9627076Y-21267487D01*
X9214750Y-21172237D02*
X9531826Y-21172237D01*
X18857500Y-22407500D02*
X18990000Y-22540000D01*
%TO.N,TX2-*%
X18995500Y-21769500D02*
X19430500Y-21769500D01*
X20119500Y-21269500D02*
X20333000Y-21483000D01*
X17000500Y-16119500D02*
X18390500Y-17509500D01*
X16891563Y-21777000D02*
X17477000Y-21777000D01*
X19430500Y-21769500D02*
X19930500Y-21269500D01*
X17607500Y-21907500D02*
X17738000Y-21777000D01*
X16360500Y-21245937D02*
X16891563Y-21777000D01*
X20436805Y-21483000D02*
X20603805Y-21650000D01*
X19930500Y-21269500D02*
X20119500Y-21269500D01*
X18727000Y-21777000D02*
X18857500Y-21907500D01*
X20603805Y-21650000D02*
X21103805Y-21650000D01*
X17939204Y-18851796D02*
X17249553Y-18851796D01*
X18857500Y-21907500D02*
X18995500Y-21769500D01*
X18390500Y-17509500D02*
X18390500Y-18400500D01*
X20333000Y-21483000D02*
X20436805Y-21483000D01*
X15250000Y-16250000D02*
X15380500Y-16119500D01*
X16360500Y-19740849D02*
X16360500Y-21245937D01*
X17738000Y-21777000D02*
X18727000Y-21777000D01*
X17477000Y-21777000D02*
X17607500Y-21907500D01*
X15380500Y-16119500D02*
X17000500Y-16119500D01*
X18390500Y-18400500D02*
X17939204Y-18851796D01*
X17249553Y-18851796D02*
X16360500Y-19740849D01*
D38*
%TO.N,Shield*%
X14970000Y-22100000D02*
X12030000Y-22100000D01*
D44*
%TO.N,Net-(U1-ILIM)*%
X7987500Y-12737160D02*
X7987500Y-12190000D01*
X7783000Y-13992999D02*
X7783000Y-12941660D01*
X8790000Y-14220000D02*
X8010001Y-14220000D01*
X7783000Y-12941660D02*
X7987500Y-12737160D01*
X8010001Y-14220000D02*
X7783000Y-13992999D01*
%TO.N,Net-(U2-ILIM)*%
X16493000Y-33163000D02*
X16493000Y-31759500D01*
X16820000Y-33490000D02*
X16493000Y-33163000D01*
X16493000Y-31759500D02*
X17082500Y-31170000D01*
X17500000Y-33490000D02*
X16820000Y-33490000D01*
D43*
%TO.N,1_D+*%
X21050000Y-4120000D02*
X21050000Y-4395000D01*
X18087000Y-6432000D02*
X18777000Y-6432000D01*
X20039500Y-3909504D02*
X20499504Y-3449500D01*
X14540000Y-6440000D02*
X18079000Y-6440000D01*
X21180500Y-4525500D02*
X21180500Y-5514500D01*
X21180500Y-3587709D02*
X21180500Y-3989500D01*
X20499504Y-3449500D02*
X21042291Y-3449500D01*
X21180500Y-5514500D02*
X21050000Y-5645000D01*
X18777000Y-6432000D02*
X20039500Y-5169500D01*
X14270000Y-6170000D02*
X14540000Y-6440000D01*
X20039500Y-5169500D02*
X20039500Y-3909504D01*
X21050000Y-4395000D02*
X21180500Y-4525500D01*
X21042291Y-3449500D02*
X21180500Y-3587709D01*
X14270000Y-4465000D02*
X14270000Y-6170000D01*
X18079000Y-6440000D02*
X18087000Y-6432000D01*
X21180500Y-3989500D02*
X21050000Y-4120000D01*
%TO.N,1_D-*%
X21550000Y-4395000D02*
X21419500Y-4525500D01*
X21419500Y-3989500D02*
X21550000Y-4120000D01*
X15220000Y-5015000D02*
X15220000Y-5556934D01*
X15383000Y-5719934D02*
X15383000Y-5963000D01*
X19800500Y-5070500D02*
X19800500Y-3810504D01*
X15621000Y-6201000D02*
X17980002Y-6201000D01*
X21419500Y-4525500D02*
X21419500Y-5514500D01*
X15220000Y-5556934D02*
X15383000Y-5719934D01*
X15270000Y-4965000D02*
X15220000Y-5015000D01*
X21419500Y-5514500D02*
X21550000Y-5645000D01*
X21550000Y-4120000D02*
X21550000Y-4395000D01*
X21141291Y-3210500D02*
X21419500Y-3488709D01*
X18678000Y-6193000D02*
X19800500Y-5070500D01*
X21419500Y-3488709D02*
X21419500Y-3989500D01*
X19800500Y-3810504D02*
X20400504Y-3210500D01*
X20400504Y-3210500D02*
X21141291Y-3210500D01*
X17980002Y-6201000D02*
X17988002Y-6193000D01*
X15270000Y-4465000D02*
X15270000Y-4965000D01*
X17988002Y-6193000D02*
X18678000Y-6193000D01*
X15383000Y-5963000D02*
X15621000Y-6201000D01*
D39*
%TO.N,Net-(J1-PadS1)*%
X19232500Y-7727500D02*
X19220000Y-7715000D01*
X20880000Y-7727500D02*
X19232500Y-7727500D01*
%TO.N,Net-(J1-PadS2)*%
X5260000Y-7637500D02*
X6742500Y-7637500D01*
X6742500Y-7637500D02*
X6820000Y-7715000D01*
D42*
%TO.N,Net-(J3-PadS1)*%
X24353805Y-13700000D02*
X22693805Y-12040000D01*
X22693805Y-12040000D02*
X22417500Y-12040000D01*
%TO.N,Net-(J3-PadS2)*%
X22847500Y-27750000D02*
X22847500Y-27606305D01*
X22847500Y-27606305D02*
X24353805Y-26100000D01*
%TD*%
%TA.AperFunction,Conductor*%
%TO.N,GND*%
G36*
X23308651Y-6119895D02*
G01*
X23313334Y-6120827D01*
X23319954Y-6127447D01*
X23329006Y-6140994D01*
X23355834Y-6158920D01*
X23366039Y-6174193D01*
X23366500Y-6178875D01*
X23366500Y-6319002D01*
X23373564Y-6336055D01*
X23373564Y-6336056D01*
X23394435Y-6386444D01*
X23394436Y-6386446D01*
X23394437Y-6386446D01*
X23489971Y-6481980D01*
X23497000Y-6498951D01*
X23497000Y-8064550D01*
X23489971Y-8081521D01*
X20911521Y-10659971D01*
X20894550Y-10667000D01*
X15943998Y-10667000D01*
X15876557Y-10694934D01*
X15876555Y-10694935D01*
X15876555Y-10694936D01*
X13676556Y-12894936D01*
X13676555Y-12894935D01*
X13624934Y-12946557D01*
X13597000Y-13013999D01*
X13597000Y-19765520D01*
X13605691Y-19786501D01*
X13605691Y-19786502D01*
X13624935Y-19832962D01*
X13624936Y-19832964D01*
X13624937Y-19832964D01*
X14067037Y-20275064D01*
X14067038Y-20275064D01*
X14067039Y-20275065D01*
X14134478Y-20303000D01*
X14134480Y-20303000D01*
X14134481Y-20303000D01*
X14448500Y-20303000D01*
X14465471Y-20310029D01*
X14472500Y-20327000D01*
X14472500Y-20397562D01*
X14479897Y-20434746D01*
X14479897Y-20434747D01*
X14479898Y-20434748D01*
X14508078Y-20476922D01*
X14513201Y-20480345D01*
X14523406Y-20495618D01*
X14519822Y-20513634D01*
X14513202Y-20520255D01*
X14508439Y-20523437D01*
X14508436Y-20523440D01*
X14480368Y-20565446D01*
X14473000Y-20602487D01*
X14473000Y-20649999D01*
X14473001Y-20650000D01*
X16026999Y-20650000D01*
X16027000Y-20649999D01*
X16027000Y-20602495D01*
X16026999Y-20602487D01*
X16019631Y-20565446D01*
X15991563Y-20523440D01*
X15991560Y-20523437D01*
X15986799Y-20520256D01*
X15976593Y-20504983D01*
X15980176Y-20486967D01*
X15986798Y-20480345D01*
X15991922Y-20476922D01*
X16020102Y-20434748D01*
X16027500Y-20397558D01*
X16027500Y-20102442D01*
X16020102Y-20065252D01*
X15991922Y-20023078D01*
X15987247Y-20019954D01*
X15977043Y-20004682D01*
X15980627Y-19986666D01*
X15987248Y-19980045D01*
X15991922Y-19976922D01*
X16020102Y-19934748D01*
X16027500Y-19897558D01*
X16027500Y-19602442D01*
X16027500Y-19601500D01*
X16034529Y-19584529D01*
X16051500Y-19577500D01*
X16098197Y-19577500D01*
X16098198Y-19577500D01*
X16181492Y-19555181D01*
X16256172Y-19512065D01*
X16342107Y-19426130D01*
X16359078Y-19419101D01*
X16364797Y-19419101D01*
X16381768Y-19426130D01*
X16388797Y-19443101D01*
X16381768Y-19460072D01*
X16381766Y-19460072D01*
X16256556Y-19585284D01*
X16204935Y-19636905D01*
X16194063Y-19663155D01*
X16181901Y-19692517D01*
X16181901Y-19692518D01*
X16177000Y-19704348D01*
X16177000Y-21282437D01*
X16204935Y-21349880D01*
X16204936Y-21349882D01*
X16204937Y-21349882D01*
X16735999Y-21880944D01*
X16735998Y-21880944D01*
X16768837Y-21913782D01*
X16787619Y-21932564D01*
X16815231Y-21944001D01*
X16855061Y-21960500D01*
X16855062Y-21960500D01*
X16855063Y-21960500D01*
X17031000Y-21960500D01*
X17047971Y-21967529D01*
X17055000Y-21984500D01*
X17055000Y-22002448D01*
X17066748Y-22061510D01*
X17066748Y-22061511D01*
X17066749Y-22061512D01*
X17111506Y-22128494D01*
X17111509Y-22128496D01*
X17125051Y-22137545D01*
X17135256Y-22152818D01*
X17131672Y-22170834D01*
X17125051Y-22177455D01*
X17111509Y-22186503D01*
X17111504Y-22186508D01*
X17066748Y-22253489D01*
X17055000Y-22312551D01*
X17055000Y-22330500D01*
X17047971Y-22347471D01*
X17031000Y-22354500D01*
X16391955Y-22354500D01*
X16324514Y-22382434D01*
X16324512Y-22382435D01*
X16324512Y-22382436D01*
X16026556Y-22680393D01*
X16026555Y-22680392D01*
X15974935Y-22732013D01*
X15962744Y-22761448D01*
X15962744Y-22761449D01*
X15954853Y-22780499D01*
X15947000Y-22799456D01*
X15947000Y-23764550D01*
X15939971Y-23781521D01*
X15521521Y-24199971D01*
X15504550Y-24207000D01*
X10445451Y-24207000D01*
X10428480Y-24199971D01*
X9310029Y-23081520D01*
X9303000Y-23064549D01*
X9303000Y-21760737D01*
X9310029Y-21743766D01*
X9327000Y-21736737D01*
X9568328Y-21736737D01*
X9579129Y-21732262D01*
X9596263Y-21725165D01*
X9635770Y-21708801D01*
X9687390Y-21657181D01*
X9687389Y-21657181D01*
X9782640Y-21561932D01*
X9810576Y-21494488D01*
X9810576Y-21421486D01*
X9810576Y-21230987D01*
X9810575Y-21230984D01*
X9807921Y-21224574D01*
X9807921Y-21224575D01*
X9799103Y-21203288D01*
X9782640Y-21163542D01*
X9635771Y-21016674D01*
X9635770Y-21016673D01*
X9596263Y-21000308D01*
X9596262Y-21000307D01*
X9568328Y-20988737D01*
X9568327Y-20988737D01*
X9568326Y-20988737D01*
X9327000Y-20988737D01*
X9310029Y-20981708D01*
X9303000Y-20964737D01*
X9303000Y-20850001D01*
X10973000Y-20850001D01*
X10973000Y-20897512D01*
X10980368Y-20934553D01*
X11008436Y-20976559D01*
X11008440Y-20976563D01*
X11050446Y-21004631D01*
X11087487Y-21011999D01*
X11087496Y-21012000D01*
X11541928Y-21012000D01*
X11558899Y-21019029D01*
X11565928Y-21036000D01*
X11558899Y-21052970D01*
X11503754Y-21108115D01*
X11503749Y-21108121D01*
X11429604Y-21219086D01*
X11378537Y-21342378D01*
X11378534Y-21342385D01*
X11352500Y-21473267D01*
X11352500Y-22726732D01*
X11378534Y-22857614D01*
X11378537Y-22857621D01*
X11429604Y-22980913D01*
X11480752Y-23057461D01*
X11503751Y-23091881D01*
X11598119Y-23186249D01*
X11631967Y-23208865D01*
X11663270Y-23229782D01*
X11673475Y-23245055D01*
X11670722Y-23261735D01*
X11661855Y-23277095D01*
X11648366Y-23327437D01*
X11622500Y-23423971D01*
X11622500Y-23576029D01*
X11636292Y-23627500D01*
X11648355Y-23672523D01*
X11661856Y-23722907D01*
X11737885Y-23854593D01*
X11845407Y-23962115D01*
X11977093Y-24038144D01*
X12123971Y-24077500D01*
X12123972Y-24077500D01*
X12276028Y-24077500D01*
X12276029Y-24077500D01*
X12422907Y-24038144D01*
X12554593Y-23962115D01*
X12662115Y-23854593D01*
X12738144Y-23722907D01*
X12777500Y-23576029D01*
X12777500Y-23423971D01*
X12738144Y-23277093D01*
X12662115Y-23145407D01*
X12629724Y-23113016D01*
X12591140Y-23074431D01*
X12584111Y-23057461D01*
X12588155Y-23044128D01*
X12630393Y-22980917D01*
X12635939Y-22967529D01*
X12649362Y-22935121D01*
X12681464Y-22857619D01*
X12707500Y-22726728D01*
X12707500Y-22651500D01*
X12714529Y-22634529D01*
X12731500Y-22627500D01*
X14268500Y-22627500D01*
X14285471Y-22634529D01*
X14292500Y-22651500D01*
X14292500Y-22726732D01*
X14318534Y-22857614D01*
X14318537Y-22857621D01*
X14369604Y-22980913D01*
X14420752Y-23057461D01*
X14443751Y-23091881D01*
X14538119Y-23186249D01*
X14603271Y-23229782D01*
X14649086Y-23260395D01*
X14710732Y-23285928D01*
X14772381Y-23311464D01*
X14772384Y-23311464D01*
X14772385Y-23311465D01*
X14852677Y-23327436D01*
X14903272Y-23337500D01*
X14903276Y-23337500D01*
X15036724Y-23337500D01*
X15036728Y-23337500D01*
X15167619Y-23311464D01*
X15262981Y-23271964D01*
X15290913Y-23260395D01*
X15290914Y-23260394D01*
X15290917Y-23260393D01*
X15401881Y-23186249D01*
X15496249Y-23091881D01*
X15570393Y-22980917D01*
X15575939Y-22967529D01*
X15589362Y-22935121D01*
X15621464Y-22857619D01*
X15647500Y-22726728D01*
X15647500Y-21473272D01*
X15642921Y-21450252D01*
X15621465Y-21342385D01*
X15621464Y-21342384D01*
X15621464Y-21342381D01*
X15584645Y-21253490D01*
X15570395Y-21219086D01*
X15533282Y-21163543D01*
X15496249Y-21108119D01*
X15475630Y-21087500D01*
X15441101Y-21052970D01*
X15434072Y-21036000D01*
X15441102Y-21019029D01*
X15458072Y-21012000D01*
X15912504Y-21012000D01*
X15912512Y-21011999D01*
X15949553Y-21004631D01*
X15991559Y-20976563D01*
X15991563Y-20976559D01*
X16019631Y-20934553D01*
X16026999Y-20897512D01*
X16027000Y-20897504D01*
X16027000Y-20850001D01*
X16026999Y-20850000D01*
X14473001Y-20850000D01*
X14473000Y-20850001D01*
X14473000Y-20897512D01*
X14480368Y-20934553D01*
X14508436Y-20976559D01*
X14508440Y-20976563D01*
X14524208Y-20987099D01*
X14534413Y-21002372D01*
X14530829Y-21020388D01*
X14527845Y-21024024D01*
X14443754Y-21108115D01*
X14443749Y-21108121D01*
X14369604Y-21219086D01*
X14318537Y-21342378D01*
X14318534Y-21342385D01*
X14292500Y-21473267D01*
X14292500Y-21548500D01*
X14285471Y-21565471D01*
X14268500Y-21572500D01*
X12731500Y-21572500D01*
X12714529Y-21565471D01*
X12707500Y-21548500D01*
X12707500Y-21473275D01*
X12707499Y-21473267D01*
X12681465Y-21342385D01*
X12681464Y-21342384D01*
X12681464Y-21342381D01*
X12644645Y-21253490D01*
X12630395Y-21219086D01*
X12593282Y-21163543D01*
X12556249Y-21108119D01*
X12472153Y-21024023D01*
X12465125Y-21007054D01*
X12472154Y-20990083D01*
X12475792Y-20987098D01*
X12491560Y-20976562D01*
X12491563Y-20976559D01*
X12519631Y-20934553D01*
X12526999Y-20897512D01*
X12527000Y-20897504D01*
X12527000Y-20850001D01*
X12526999Y-20850000D01*
X10973001Y-20850000D01*
X10973000Y-20850001D01*
X9303000Y-20850001D01*
X9303000Y-17185450D01*
X9310029Y-17168479D01*
X10168479Y-16310029D01*
X10185450Y-16303000D01*
X10948500Y-16303000D01*
X10965471Y-16310029D01*
X10972500Y-16327000D01*
X10972500Y-16398500D01*
X10965471Y-16415471D01*
X10948500Y-16422500D01*
X10807582Y-16422500D01*
X10795583Y-16419285D01*
X10765009Y-16401633D01*
X10765006Y-16401632D01*
X10656281Y-16372500D01*
X10543719Y-16372500D01*
X10434993Y-16401632D01*
X10434991Y-16401632D01*
X10434991Y-16401633D01*
X10337509Y-16457915D01*
X10257915Y-16537509D01*
X10220426Y-16602442D01*
X10201632Y-16634993D01*
X10172500Y-16743719D01*
X10172500Y-16856281D01*
X10183559Y-16897554D01*
X10201362Y-16964000D01*
X10201633Y-16965009D01*
X10257915Y-17062491D01*
X10337509Y-17142085D01*
X10434991Y-17198367D01*
X10543719Y-17227500D01*
X10656281Y-17227500D01*
X10765009Y-17198367D01*
X10862491Y-17142085D01*
X10920047Y-17084529D01*
X10937018Y-17077500D01*
X10948500Y-17077500D01*
X10965471Y-17084529D01*
X10972500Y-17101500D01*
X10972500Y-17397562D01*
X10979897Y-17434746D01*
X10979897Y-17434747D01*
X10979898Y-17434748D01*
X11008078Y-17476922D01*
X11008081Y-17476924D01*
X11008082Y-17476925D01*
X11012752Y-17480046D01*
X11022956Y-17495319D01*
X11019371Y-17513335D01*
X11012752Y-17519954D01*
X11008082Y-17523074D01*
X11008076Y-17523080D01*
X10979897Y-17565253D01*
X10972500Y-17602437D01*
X10972500Y-17673000D01*
X10965471Y-17689971D01*
X10948500Y-17697000D01*
X10640500Y-17697000D01*
X10623529Y-17689971D01*
X10616500Y-17673000D01*
X10616500Y-17580219D01*
X10601188Y-17523074D01*
X10587367Y-17471491D01*
X10531085Y-17374009D01*
X10451491Y-17294415D01*
X10354009Y-17238133D01*
X10354006Y-17238132D01*
X10245281Y-17209000D01*
X10132719Y-17209000D01*
X10023993Y-17238132D01*
X10023991Y-17238132D01*
X10023991Y-17238133D01*
X9926509Y-17294415D01*
X9846915Y-17374009D01*
X9833317Y-17397562D01*
X9790632Y-17471493D01*
X9761500Y-17580219D01*
X9761500Y-17692781D01*
X9781519Y-17767500D01*
X9779121Y-17785711D01*
X9775308Y-17790681D01*
X9602056Y-17963935D01*
X9550435Y-18015556D01*
X9538240Y-18045000D01*
X9522933Y-18081954D01*
X9522931Y-18081960D01*
X9522500Y-18082999D01*
X9522500Y-18705817D01*
X9532149Y-18729110D01*
X9532149Y-18729111D01*
X9550435Y-18773259D01*
X9550436Y-18773261D01*
X9550437Y-18773261D01*
X9710610Y-18933434D01*
X9717639Y-18950405D01*
X9716821Y-18956616D01*
X9699014Y-19023080D01*
X9696802Y-19031337D01*
X9696802Y-19143899D01*
X9725935Y-19252627D01*
X9782217Y-19350109D01*
X9861811Y-19429703D01*
X9959293Y-19485985D01*
X10005573Y-19498385D01*
X10020146Y-19509567D01*
X10022544Y-19527778D01*
X10011362Y-19542351D01*
X10005574Y-19544749D01*
X9984992Y-19550264D01*
X9887509Y-19606547D01*
X9807915Y-19686141D01*
X9751632Y-19783625D01*
X9738412Y-19832964D01*
X9722500Y-19892351D01*
X9722500Y-20004913D01*
X9751633Y-20113641D01*
X9807915Y-20211123D01*
X9887509Y-20290717D01*
X9984991Y-20346999D01*
X10093719Y-20376132D01*
X10206281Y-20376132D01*
X10315009Y-20346999D01*
X10412491Y-20290717D01*
X10492085Y-20211123D01*
X10548367Y-20113641D01*
X10577500Y-20004913D01*
X10577500Y-19994228D01*
X10584528Y-19977258D01*
X10931529Y-19630256D01*
X10948500Y-19623228D01*
X10965471Y-19630257D01*
X10972500Y-19647228D01*
X10972500Y-19897562D01*
X10979897Y-19934746D01*
X10979897Y-19934747D01*
X10979898Y-19934748D01*
X11008078Y-19976922D01*
X11008081Y-19976924D01*
X11008082Y-19976925D01*
X11012752Y-19980046D01*
X11022956Y-19995319D01*
X11019371Y-20013335D01*
X11012752Y-20019954D01*
X11008082Y-20023074D01*
X11008076Y-20023080D01*
X10979897Y-20065253D01*
X10972500Y-20102437D01*
X10972500Y-20397562D01*
X10979897Y-20434746D01*
X10979897Y-20434747D01*
X10979898Y-20434748D01*
X11008078Y-20476922D01*
X11013201Y-20480345D01*
X11023406Y-20495618D01*
X11019822Y-20513634D01*
X11013202Y-20520255D01*
X11008439Y-20523437D01*
X11008436Y-20523440D01*
X10980368Y-20565446D01*
X10973000Y-20602487D01*
X10973000Y-20649999D01*
X10973001Y-20650000D01*
X12526999Y-20650000D01*
X12527000Y-20649999D01*
X12527000Y-20602495D01*
X12526999Y-20602487D01*
X12519631Y-20565446D01*
X12491563Y-20523440D01*
X12491560Y-20523437D01*
X12486799Y-20520256D01*
X12476593Y-20504983D01*
X12480176Y-20486967D01*
X12486798Y-20480345D01*
X12491922Y-20476922D01*
X12520102Y-20434748D01*
X12527500Y-20397558D01*
X12527500Y-20327000D01*
X12534529Y-20310029D01*
X12551500Y-20303000D01*
X12836158Y-20303000D01*
X12855458Y-20295005D01*
X12875988Y-20286501D01*
X12903600Y-20275064D01*
X12955220Y-20223444D01*
X13375063Y-19803601D01*
X13375064Y-19803600D01*
X13395821Y-19753488D01*
X13403000Y-19736157D01*
X13403000Y-19663155D01*
X13403000Y-11625450D01*
X13410029Y-11608479D01*
X15098479Y-9920029D01*
X15115450Y-9913000D01*
X20446002Y-9913000D01*
X20468488Y-9903685D01*
X20494842Y-9892769D01*
X20513444Y-9885064D01*
X20565064Y-9833444D01*
X23075063Y-7323445D01*
X23075064Y-7323444D01*
X23103000Y-7256000D01*
X23103000Y-6498950D01*
X23110028Y-6481980D01*
X23205564Y-6386446D01*
X23209063Y-6378000D01*
X23233500Y-6319002D01*
X23233500Y-6178875D01*
X23240529Y-6161904D01*
X23244166Y-6158920D01*
X23270994Y-6140994D01*
X23280045Y-6127447D01*
X23284014Y-6124796D01*
X23286666Y-6120827D01*
X23291348Y-6119895D01*
X23295318Y-6117243D01*
X23300000Y-6118174D01*
X23304682Y-6117243D01*
X23308651Y-6119895D01*
G37*
%TD.AperFunction*%
%TA.AperFunction,Conductor*%
G36*
X16931521Y-16310029D02*
G01*
X18199971Y-17578479D01*
X18207000Y-17595450D01*
X18207000Y-18314549D01*
X18199971Y-18331520D01*
X17870225Y-18661267D01*
X17853254Y-18668296D01*
X17213051Y-18668296D01*
X17145610Y-18696230D01*
X16781952Y-19059888D01*
X16764981Y-19066917D01*
X16748010Y-19059888D01*
X16740981Y-19042917D01*
X16740981Y-18935320D01*
X16736903Y-18920102D01*
X16711848Y-18826592D01*
X16655566Y-18729110D01*
X16575972Y-18649516D01*
X16566420Y-18644001D01*
X16555239Y-18629428D01*
X16557637Y-18611216D01*
X16566420Y-18602433D01*
X16577411Y-18596088D01*
X16657005Y-18516494D01*
X16713287Y-18419012D01*
X16742420Y-18310284D01*
X16742420Y-18197722D01*
X16713287Y-18088994D01*
X16657005Y-17991512D01*
X16577411Y-17911918D01*
X16577408Y-17911916D01*
X16577406Y-17911914D01*
X16575592Y-17910867D01*
X16564412Y-17896292D01*
X16566812Y-17878081D01*
X16574779Y-17870117D01*
X16574721Y-17870042D01*
X16575296Y-17869600D01*
X16575598Y-17869298D01*
X16575968Y-17869085D01*
X16655562Y-17789491D01*
X16711844Y-17692009D01*
X16740977Y-17583281D01*
X16740977Y-17470719D01*
X16711844Y-17361991D01*
X16655562Y-17264509D01*
X16575968Y-17184915D01*
X16554089Y-17172283D01*
X16542909Y-17157712D01*
X16545306Y-17139500D01*
X16559879Y-17128318D01*
X16566091Y-17127500D01*
X16606281Y-17127500D01*
X16715009Y-17098367D01*
X16812491Y-17042085D01*
X16892085Y-16962491D01*
X16948367Y-16865009D01*
X16977500Y-16756281D01*
X16977500Y-16643719D01*
X16948367Y-16534991D01*
X16892085Y-16437509D01*
X16812491Y-16357915D01*
X16812488Y-16357913D01*
X16812487Y-16357912D01*
X16794945Y-16347784D01*
X16783763Y-16333211D01*
X16786161Y-16315000D01*
X16800734Y-16303818D01*
X16806945Y-16303000D01*
X16914550Y-16303000D01*
X16931521Y-16310029D01*
G37*
%TD.AperFunction*%
%TA.AperFunction,Conductor*%
G36*
X26742471Y-257529D02*
G01*
X26749500Y-274500D01*
X26749500Y-28871443D01*
X26742471Y-28888414D01*
X26725500Y-28895443D01*
X26708529Y-28888414D01*
X26706084Y-28885550D01*
X26689261Y-28862396D01*
X26689259Y-28862394D01*
X26689257Y-28862391D01*
X26537609Y-28710743D01*
X26537605Y-28710740D01*
X26537604Y-28710739D01*
X26364112Y-28584689D01*
X26364105Y-28584685D01*
X26173020Y-28487323D01*
X26173014Y-28487320D01*
X25969058Y-28421050D01*
X25969054Y-28421049D01*
X25969053Y-28421049D01*
X25757231Y-28387500D01*
X25542769Y-28387500D01*
X25330947Y-28421049D01*
X25330945Y-28421049D01*
X25330942Y-28421050D01*
X25330940Y-28421050D01*
X25126985Y-28487320D01*
X25126979Y-28487323D01*
X24935894Y-28584685D01*
X24935887Y-28584689D01*
X24762395Y-28710739D01*
X24610739Y-28862395D01*
X24484689Y-29035887D01*
X24484685Y-29035894D01*
X24387323Y-29226979D01*
X24387320Y-29226985D01*
X24321050Y-29430940D01*
X24321050Y-29430942D01*
X24287500Y-29642771D01*
X24287500Y-29857228D01*
X24321050Y-30069057D01*
X24321050Y-30069059D01*
X24387320Y-30273014D01*
X24387323Y-30273020D01*
X24484685Y-30464105D01*
X24484689Y-30464112D01*
X24609381Y-30635735D01*
X24610743Y-30637609D01*
X24762391Y-30789257D01*
X24762394Y-30789259D01*
X24762395Y-30789260D01*
X24935887Y-30915310D01*
X24935894Y-30915314D01*
X25126982Y-31012678D01*
X25330947Y-31078951D01*
X25542769Y-31112500D01*
X25542772Y-31112500D01*
X25757228Y-31112500D01*
X25757231Y-31112500D01*
X25969053Y-31078951D01*
X26173018Y-31012678D01*
X26364106Y-30915314D01*
X26411395Y-30880957D01*
X26455104Y-30849200D01*
X26537609Y-30789257D01*
X26689257Y-30637609D01*
X26706084Y-30614448D01*
X26721745Y-30604851D01*
X26739606Y-30609138D01*
X26749204Y-30624800D01*
X26749500Y-30628555D01*
X26749500Y-35725500D01*
X26742471Y-35742471D01*
X26725500Y-35749500D01*
X274500Y-35749500D01*
X257529Y-35742471D01*
X250500Y-35725500D01*
X250500Y-34288192D01*
X3042501Y-34288192D01*
X3042501Y-34411807D01*
X3066614Y-34533030D01*
X3066617Y-34533037D01*
X3113915Y-34647229D01*
X3133963Y-34677233D01*
X3182590Y-34750008D01*
X3269993Y-34837411D01*
X3352526Y-34892558D01*
X3372771Y-34906085D01*
X3429867Y-34929734D01*
X3486966Y-34953385D01*
X3486969Y-34953385D01*
X3486970Y-34953386D01*
X3571006Y-34970102D01*
X3608198Y-34977500D01*
X3608202Y-34977500D01*
X3731800Y-34977500D01*
X3731804Y-34977500D01*
X3853036Y-34953385D01*
X3943857Y-34915766D01*
X3967230Y-34906085D01*
X3967231Y-34906084D01*
X3967234Y-34906083D01*
X4070009Y-34837411D01*
X4157412Y-34750008D01*
X4226084Y-34647233D01*
X4226679Y-34645798D01*
X4236801Y-34621359D01*
X4273386Y-34533035D01*
X4281461Y-34492437D01*
X4291666Y-34477165D01*
X4309682Y-34473581D01*
X4324955Y-34483786D01*
X4328539Y-34492437D01*
X4336614Y-34533032D01*
X4336616Y-34533037D01*
X4383914Y-34647229D01*
X4403962Y-34677233D01*
X4452589Y-34750008D01*
X4539992Y-34837411D01*
X4622525Y-34892558D01*
X4642770Y-34906085D01*
X4699866Y-34929734D01*
X4756965Y-34953385D01*
X4756968Y-34953385D01*
X4756969Y-34953386D01*
X4841005Y-34970102D01*
X4878197Y-34977500D01*
X4878201Y-34977500D01*
X5001799Y-34977500D01*
X5001803Y-34977500D01*
X5123035Y-34953385D01*
X5213856Y-34915766D01*
X5237229Y-34906085D01*
X5237230Y-34906084D01*
X5237233Y-34906083D01*
X5340008Y-34837411D01*
X5427411Y-34750008D01*
X5496083Y-34647233D01*
X5496678Y-34645798D01*
X5506800Y-34621359D01*
X5543385Y-34533035D01*
X5551461Y-34492435D01*
X5561666Y-34477162D01*
X5579682Y-34473578D01*
X5594955Y-34483783D01*
X5598539Y-34492435D01*
X5606613Y-34533030D01*
X5606616Y-34533037D01*
X5653914Y-34647229D01*
X5673962Y-34677233D01*
X5722589Y-34750008D01*
X5809992Y-34837411D01*
X5892525Y-34892558D01*
X5912770Y-34906085D01*
X5969866Y-34929734D01*
X6026965Y-34953385D01*
X6026968Y-34953385D01*
X6026969Y-34953386D01*
X6111005Y-34970102D01*
X6148197Y-34977500D01*
X6148201Y-34977500D01*
X6271799Y-34977500D01*
X6271803Y-34977500D01*
X6393035Y-34953385D01*
X6483856Y-34915766D01*
X6507229Y-34906085D01*
X6507230Y-34906084D01*
X6507233Y-34906083D01*
X6610008Y-34837411D01*
X6697411Y-34750008D01*
X6766083Y-34647233D01*
X6766678Y-34645798D01*
X6776800Y-34621359D01*
X6813385Y-34533035D01*
X6821460Y-34492437D01*
X6831665Y-34477165D01*
X6849681Y-34473581D01*
X6864954Y-34483786D01*
X6868538Y-34492437D01*
X6876613Y-34533032D01*
X6876615Y-34533037D01*
X6923913Y-34647229D01*
X6943961Y-34677233D01*
X6992588Y-34750008D01*
X7079991Y-34837411D01*
X7162524Y-34892558D01*
X7182769Y-34906085D01*
X7239865Y-34929734D01*
X7296964Y-34953385D01*
X7296967Y-34953385D01*
X7296968Y-34953386D01*
X7381004Y-34970102D01*
X7418196Y-34977500D01*
X7418200Y-34977500D01*
X7541798Y-34977500D01*
X7541802Y-34977500D01*
X7663034Y-34953385D01*
X7753855Y-34915766D01*
X7777228Y-34906085D01*
X7777229Y-34906084D01*
X7777232Y-34906083D01*
X7880007Y-34837411D01*
X7967410Y-34750008D01*
X8036082Y-34647233D01*
X8036677Y-34645798D01*
X8076327Y-34550072D01*
X8089315Y-34537083D01*
X8107684Y-34537083D01*
X8120673Y-34550071D01*
X8122500Y-34559256D01*
X8122500Y-34862562D01*
X8129897Y-34899746D01*
X8129897Y-34899747D01*
X8129898Y-34899748D01*
X8158078Y-34941922D01*
X8200252Y-34970102D01*
X8237442Y-34977500D01*
X8237446Y-34977500D01*
X9262554Y-34977500D01*
X9262558Y-34977500D01*
X9299748Y-34970102D01*
X9341922Y-34941922D01*
X9370102Y-34899748D01*
X9377500Y-34862558D01*
X9377500Y-33837442D01*
X9370102Y-33800252D01*
X9341922Y-33758078D01*
X9299748Y-33729898D01*
X9299747Y-33729897D01*
X9299746Y-33729897D01*
X9262562Y-33722500D01*
X9262558Y-33722500D01*
X8237442Y-33722500D01*
X8237437Y-33722500D01*
X8200253Y-33729897D01*
X8158080Y-33758076D01*
X8158076Y-33758080D01*
X8129897Y-33800253D01*
X8122500Y-33837437D01*
X8122500Y-34140743D01*
X8115471Y-34157714D01*
X8098500Y-34164743D01*
X8081529Y-34157714D01*
X8076327Y-34149927D01*
X8036084Y-34052770D01*
X8010322Y-34014214D01*
X7967410Y-33949992D01*
X7880007Y-33862589D01*
X7842372Y-33837442D01*
X7777228Y-33793914D01*
X7663036Y-33746616D01*
X7663029Y-33746613D01*
X7541806Y-33722500D01*
X7541802Y-33722500D01*
X7418196Y-33722500D01*
X7418191Y-33722500D01*
X7296968Y-33746613D01*
X7296961Y-33746616D01*
X7182769Y-33793914D01*
X7079993Y-33862587D01*
X6992586Y-33949994D01*
X6923913Y-34052770D01*
X6876615Y-34166962D01*
X6876613Y-34166967D01*
X6868538Y-34207562D01*
X6858332Y-34222835D01*
X6840316Y-34226418D01*
X6825043Y-34216212D01*
X6821460Y-34207561D01*
X6813386Y-34166969D01*
X6813385Y-34166967D01*
X6813385Y-34166965D01*
X6778511Y-34082770D01*
X6766085Y-34052770D01*
X6740323Y-34014214D01*
X6697411Y-33949992D01*
X6610008Y-33862589D01*
X6572373Y-33837442D01*
X6507229Y-33793914D01*
X6393037Y-33746616D01*
X6393030Y-33746613D01*
X6271807Y-33722500D01*
X6271803Y-33722500D01*
X6148197Y-33722500D01*
X6148192Y-33722500D01*
X6026969Y-33746613D01*
X6026962Y-33746616D01*
X5912770Y-33793914D01*
X5809994Y-33862587D01*
X5722587Y-33949994D01*
X5653914Y-34052770D01*
X5606616Y-34166962D01*
X5606613Y-34166969D01*
X5598539Y-34207564D01*
X5588334Y-34222837D01*
X5570318Y-34226421D01*
X5555045Y-34216216D01*
X5551461Y-34207564D01*
X5543386Y-34166969D01*
X5543385Y-34166967D01*
X5543385Y-34166965D01*
X5508511Y-34082770D01*
X5496085Y-34052770D01*
X5470323Y-34014214D01*
X5427411Y-33949992D01*
X5340008Y-33862589D01*
X5302373Y-33837442D01*
X5237229Y-33793914D01*
X5123037Y-33746616D01*
X5123030Y-33746613D01*
X5001807Y-33722500D01*
X5001803Y-33722500D01*
X4878197Y-33722500D01*
X4878192Y-33722500D01*
X4756969Y-33746613D01*
X4756962Y-33746616D01*
X4642770Y-33793914D01*
X4539994Y-33862587D01*
X4452587Y-33949994D01*
X4383914Y-34052770D01*
X4336616Y-34166962D01*
X4336614Y-34166967D01*
X4328539Y-34207562D01*
X4318333Y-34222835D01*
X4300317Y-34226418D01*
X4285044Y-34216212D01*
X4281461Y-34207561D01*
X4273387Y-34166969D01*
X4273386Y-34166967D01*
X4273386Y-34166965D01*
X4238512Y-34082770D01*
X4226086Y-34052770D01*
X4200324Y-34014214D01*
X4157412Y-33949992D01*
X4070009Y-33862589D01*
X4032374Y-33837442D01*
X3967230Y-33793914D01*
X3853038Y-33746616D01*
X3853031Y-33746613D01*
X3731808Y-33722500D01*
X3731804Y-33722500D01*
X3608198Y-33722500D01*
X3608193Y-33722500D01*
X3486970Y-33746613D01*
X3486963Y-33746616D01*
X3372771Y-33793914D01*
X3269995Y-33862587D01*
X3182588Y-33949994D01*
X3113915Y-34052770D01*
X3066617Y-34166962D01*
X3066614Y-34166969D01*
X3042501Y-34288192D01*
X250500Y-34288192D01*
X250500Y-30900373D01*
X257529Y-30883402D01*
X274500Y-30876373D01*
X288605Y-30880956D01*
X335894Y-30915314D01*
X526982Y-31012678D01*
X730947Y-31078951D01*
X942769Y-31112500D01*
X942772Y-31112500D01*
X1157228Y-31112500D01*
X1157231Y-31112500D01*
X1369053Y-31078951D01*
X1573018Y-31012678D01*
X1764106Y-30915314D01*
X1811395Y-30880957D01*
X1855104Y-30849200D01*
X1937609Y-30789257D01*
X2089257Y-30637609D01*
X2215314Y-30464106D01*
X2312678Y-30273018D01*
X2378951Y-30069053D01*
X2412500Y-29857231D01*
X2412500Y-29642769D01*
X2378951Y-29430947D01*
X2312678Y-29226982D01*
X2215314Y-29035894D01*
X2215310Y-29035887D01*
X2089260Y-28862395D01*
X2089259Y-28862394D01*
X2089257Y-28862391D01*
X1937609Y-28710743D01*
X1937605Y-28710740D01*
X1937604Y-28710739D01*
X1764112Y-28584689D01*
X1764105Y-28584685D01*
X1573020Y-28487323D01*
X1573014Y-28487320D01*
X1369058Y-28421050D01*
X1369054Y-28421049D01*
X1369053Y-28421049D01*
X1157231Y-28387500D01*
X942769Y-28387500D01*
X730947Y-28421049D01*
X730945Y-28421049D01*
X730942Y-28421050D01*
X730940Y-28421050D01*
X526985Y-28487320D01*
X526979Y-28487323D01*
X335894Y-28584685D01*
X335887Y-28584689D01*
X288607Y-28619041D01*
X270745Y-28623330D01*
X255084Y-28613732D01*
X250500Y-28599625D01*
X250500Y-24327487D01*
X853000Y-24327487D01*
X853000Y-25089999D01*
X853001Y-25090000D01*
X1339157Y-25090000D01*
X1330000Y-25124174D01*
X1330000Y-25255826D01*
X1339157Y-25290000D01*
X853001Y-25290000D01*
X853000Y-25290001D01*
X853000Y-26052512D01*
X860368Y-26089553D01*
X888436Y-26131559D01*
X888440Y-26131563D01*
X930446Y-26159631D01*
X967487Y-26166999D01*
X967496Y-26167000D01*
X1729999Y-26167000D01*
X1730000Y-26166999D01*
X1730000Y-25680842D01*
X1764174Y-25690000D01*
X1895826Y-25690000D01*
X1930000Y-25680842D01*
X1930000Y-26166999D01*
X1930001Y-26167000D01*
X2692504Y-26167000D01*
X2692512Y-26166999D01*
X2729553Y-26159631D01*
X2771559Y-26131563D01*
X2771563Y-26131559D01*
X2799631Y-26089553D01*
X2806999Y-26052512D01*
X2807000Y-26052504D01*
X2807000Y-25290001D01*
X2806999Y-25290000D01*
X2320843Y-25290000D01*
X2330000Y-25255826D01*
X2330000Y-25124174D01*
X2320843Y-25090000D01*
X2806999Y-25090000D01*
X2807000Y-25089999D01*
X2807000Y-24327495D01*
X2806999Y-24327487D01*
X2799631Y-24290446D01*
X2771563Y-24248440D01*
X2771559Y-24248436D01*
X2729553Y-24220368D01*
X2692512Y-24213000D01*
X1930001Y-24213000D01*
X1930000Y-24213001D01*
X1930000Y-24699157D01*
X1895826Y-24690000D01*
X1764174Y-24690000D01*
X1730000Y-24699157D01*
X1730000Y-24213001D01*
X1729999Y-24213000D01*
X967487Y-24213000D01*
X930446Y-24220368D01*
X888440Y-24248436D01*
X888436Y-24248440D01*
X860368Y-24290446D01*
X853000Y-24327487D01*
X250500Y-24327487D01*
X250500Y-22553720D01*
X852500Y-22553720D01*
X852500Y-22746279D01*
X890063Y-22935121D01*
X890065Y-22935130D01*
X963747Y-23113016D01*
X963750Y-23113020D01*
X1070726Y-23273120D01*
X1206880Y-23409274D01*
X1301504Y-23472500D01*
X1366983Y-23516252D01*
X1539949Y-23587896D01*
X1544874Y-23589936D01*
X1733725Y-23627500D01*
X1733729Y-23627500D01*
X1926271Y-23627500D01*
X1926275Y-23627500D01*
X2115126Y-23589936D01*
X2221062Y-23546056D01*
X2293016Y-23516252D01*
X2293017Y-23516251D01*
X2293020Y-23516250D01*
X2453120Y-23409274D01*
X2589274Y-23273120D01*
X2696250Y-23113020D01*
X2705008Y-23091878D01*
X2734405Y-23020906D01*
X2769936Y-22935126D01*
X2807500Y-22746275D01*
X2807500Y-22553725D01*
X2769936Y-22364874D01*
X2769233Y-22363176D01*
X2696252Y-22186983D01*
X2688202Y-22174935D01*
X2589274Y-22026880D01*
X2453120Y-21890726D01*
X2427256Y-21873444D01*
X2293016Y-21783747D01*
X2115130Y-21710065D01*
X2115121Y-21710063D01*
X1926279Y-21672500D01*
X1926275Y-21672500D01*
X1733725Y-21672500D01*
X1733720Y-21672500D01*
X1544878Y-21710063D01*
X1544869Y-21710065D01*
X1366983Y-21783747D01*
X1206882Y-21890724D01*
X1070724Y-22026882D01*
X963747Y-22186983D01*
X890065Y-22364869D01*
X890063Y-22364878D01*
X852500Y-22553720D01*
X250500Y-22553720D01*
X250500Y-20013721D01*
X852500Y-20013721D01*
X852500Y-20206280D01*
X890063Y-20395122D01*
X890065Y-20395131D01*
X963747Y-20573017D01*
X1039817Y-20686863D01*
X1070726Y-20733121D01*
X1206880Y-20869275D01*
X1304575Y-20934553D01*
X1366983Y-20976253D01*
X1511227Y-21036000D01*
X1544874Y-21049937D01*
X1733725Y-21087501D01*
X1733729Y-21087501D01*
X1926271Y-21087501D01*
X1926275Y-21087501D01*
X2115126Y-21049937D01*
X2259627Y-20990083D01*
X2293016Y-20976253D01*
X2293017Y-20976252D01*
X2293020Y-20976251D01*
X2453120Y-20869275D01*
X2589274Y-20733121D01*
X2696250Y-20573021D01*
X2700976Y-20561613D01*
X2747102Y-20450253D01*
X2769936Y-20395127D01*
X2807500Y-20206276D01*
X2807500Y-20013726D01*
X2769936Y-19824875D01*
X2764833Y-19812556D01*
X2696252Y-19646984D01*
X2663366Y-19597767D01*
X2589274Y-19486881D01*
X2453120Y-19350727D01*
X2338734Y-19274296D01*
X2293016Y-19243748D01*
X2115130Y-19170066D01*
X2115121Y-19170064D01*
X1926279Y-19132501D01*
X1926275Y-19132501D01*
X1733725Y-19132501D01*
X1733720Y-19132501D01*
X1544878Y-19170064D01*
X1544869Y-19170066D01*
X1366983Y-19243748D01*
X1206882Y-19350725D01*
X1070724Y-19486883D01*
X963747Y-19646984D01*
X890065Y-19824870D01*
X890063Y-19824879D01*
X852500Y-20013721D01*
X250500Y-20013721D01*
X250500Y-17473720D01*
X852500Y-17473720D01*
X852500Y-17666279D01*
X890063Y-17855121D01*
X890065Y-17855130D01*
X963747Y-18033016D01*
X1033620Y-18137588D01*
X1070726Y-18193120D01*
X1206880Y-18329274D01*
X1271572Y-18372500D01*
X1366983Y-18436252D01*
X1544869Y-18509934D01*
X1544874Y-18509936D01*
X1733725Y-18547500D01*
X1733729Y-18547500D01*
X1926271Y-18547500D01*
X1926275Y-18547500D01*
X2115126Y-18509936D01*
X2219990Y-18466500D01*
X2293016Y-18436252D01*
X2293017Y-18436251D01*
X2293020Y-18436250D01*
X2453120Y-18329274D01*
X2589274Y-18193120D01*
X2696250Y-18033020D01*
X2700206Y-18023471D01*
X2733093Y-17944073D01*
X2769936Y-17855126D01*
X2807500Y-17666275D01*
X2807500Y-17588043D01*
X2814529Y-17571072D01*
X3651073Y-16734529D01*
X3668044Y-16727500D01*
X4896950Y-16727500D01*
X4913921Y-16734529D01*
X4920950Y-16751500D01*
X4916905Y-16764834D01*
X4889897Y-16805253D01*
X4882500Y-16842437D01*
X4882500Y-17867562D01*
X4889897Y-17904746D01*
X4889897Y-17904747D01*
X4889898Y-17904748D01*
X4918078Y-17946922D01*
X4960252Y-17975102D01*
X4997442Y-17982500D01*
X4997446Y-17982500D01*
X5300744Y-17982500D01*
X5317715Y-17989529D01*
X5324744Y-18006500D01*
X5317715Y-18023471D01*
X5309928Y-18028673D01*
X5212770Y-18068915D01*
X5109994Y-18137588D01*
X5022587Y-18224995D01*
X4953914Y-18327771D01*
X4906616Y-18441963D01*
X4906613Y-18441970D01*
X4882500Y-18563193D01*
X4882500Y-18686808D01*
X4906613Y-18808031D01*
X4906614Y-18808035D01*
X4906615Y-18808036D01*
X4908488Y-18812558D01*
X4953914Y-18922230D01*
X4976305Y-18955740D01*
X5022589Y-19025009D01*
X5109992Y-19112412D01*
X5157114Y-19143898D01*
X5212770Y-19181086D01*
X5269866Y-19204735D01*
X5326965Y-19228386D01*
X5326968Y-19228386D01*
X5326969Y-19228387D01*
X5347527Y-19232476D01*
X5367561Y-19236461D01*
X5382834Y-19246666D01*
X5386418Y-19264682D01*
X5376213Y-19279955D01*
X5367562Y-19283539D01*
X5326967Y-19291614D01*
X5326962Y-19291616D01*
X5212770Y-19338914D01*
X5109994Y-19407587D01*
X5022587Y-19494994D01*
X4953914Y-19597770D01*
X4906616Y-19711962D01*
X4906613Y-19711969D01*
X4882500Y-19833192D01*
X4882500Y-19956807D01*
X4906613Y-20078030D01*
X4906616Y-20078037D01*
X4953914Y-20192229D01*
X5010500Y-20276915D01*
X5022589Y-20295008D01*
X5109992Y-20382411D01*
X5155597Y-20412883D01*
X5212770Y-20451085D01*
X5252471Y-20467529D01*
X5326965Y-20498385D01*
X5326968Y-20498385D01*
X5326969Y-20498386D01*
X5367564Y-20506461D01*
X5382837Y-20516666D01*
X5386421Y-20534682D01*
X5376216Y-20549955D01*
X5367564Y-20553539D01*
X5326969Y-20561613D01*
X5326962Y-20561616D01*
X5212770Y-20608914D01*
X5109994Y-20677587D01*
X5022587Y-20764994D01*
X4953914Y-20867770D01*
X4906616Y-20981962D01*
X4906613Y-20981969D01*
X4882500Y-21103192D01*
X4882500Y-21226807D01*
X4906613Y-21348030D01*
X4906616Y-21348037D01*
X4953914Y-21462229D01*
X4961293Y-21473272D01*
X5022589Y-21565008D01*
X5109992Y-21652411D01*
X5166996Y-21690500D01*
X5212770Y-21721085D01*
X5250559Y-21736737D01*
X5326965Y-21768385D01*
X5326968Y-21768385D01*
X5326969Y-21768386D01*
X5368842Y-21776715D01*
X5384115Y-21786920D01*
X5387699Y-21804936D01*
X5377494Y-21820209D01*
X5368842Y-21823793D01*
X5327115Y-21832092D01*
X5327108Y-21832094D01*
X5213007Y-21879356D01*
X5110313Y-21947974D01*
X5022975Y-22035312D01*
X4954357Y-22138006D01*
X4907096Y-22252105D01*
X4907094Y-22252114D01*
X4890608Y-22334999D01*
X5200331Y-22334999D01*
X5185000Y-22392212D01*
X5185000Y-22477786D01*
X5200331Y-22534999D01*
X4890608Y-22534999D01*
X4907094Y-22617883D01*
X4907096Y-22617892D01*
X4954357Y-22731991D01*
X5022975Y-22834685D01*
X5110313Y-22922023D01*
X5213007Y-22990641D01*
X5327106Y-23037902D01*
X5327115Y-23037904D01*
X5410000Y-23054390D01*
X5410000Y-22744668D01*
X5467213Y-22759999D01*
X5552787Y-22759999D01*
X5610000Y-22744668D01*
X5610000Y-23054390D01*
X5692884Y-23037904D01*
X5692893Y-23037902D01*
X5806992Y-22990641D01*
X5909686Y-22922023D01*
X5968529Y-22863181D01*
X5985500Y-22856152D01*
X6002471Y-22863181D01*
X6009500Y-22880152D01*
X6009500Y-23024560D01*
X6002471Y-23041531D01*
X5568532Y-23475471D01*
X5551561Y-23482500D01*
X4620553Y-23482500D01*
X4576006Y-23494435D01*
X4576007Y-23494436D01*
X4486393Y-23518447D01*
X4438574Y-23546056D01*
X4366105Y-23587896D01*
X4267894Y-23686106D01*
X4267895Y-23686107D01*
X4267893Y-23686109D01*
X3426109Y-24527893D01*
X3426107Y-24527895D01*
X3426106Y-24527894D01*
X3327896Y-24626105D01*
X3327895Y-24626107D01*
X3304863Y-24666000D01*
X3258448Y-24746392D01*
X3258448Y-24746393D01*
X3223692Y-24876107D01*
X3222500Y-24880554D01*
X3222500Y-25811560D01*
X3215471Y-25828531D01*
X2756107Y-26287895D01*
X2756106Y-26287894D01*
X2657894Y-26386107D01*
X2623170Y-26446249D01*
X2623171Y-26446250D01*
X2588448Y-26506392D01*
X2588448Y-26506393D01*
X2552500Y-26640553D01*
X2552500Y-30739447D01*
X2556020Y-30752584D01*
X2560340Y-30768705D01*
X2588256Y-30872895D01*
X2588448Y-30873608D01*
X2592691Y-30880957D01*
X2612527Y-30915314D01*
X2612526Y-30915314D01*
X2657894Y-30993892D01*
X2757466Y-31093465D01*
X2757478Y-31093475D01*
X3887893Y-32223890D01*
X3887895Y-32223893D01*
X3986107Y-32322105D01*
X3986109Y-32322106D01*
X3986110Y-32322107D01*
X4010852Y-32336392D01*
X4010853Y-32336392D01*
X4106392Y-32391552D01*
X4173473Y-32409526D01*
X4240553Y-32427500D01*
X4240554Y-32427500D01*
X10169446Y-32427500D01*
X10169447Y-32427500D01*
X10236527Y-32409526D01*
X10303608Y-32391552D01*
X10399147Y-32336392D01*
X10423893Y-32322105D01*
X10522105Y-32223893D01*
X10522105Y-32223892D01*
X10524077Y-32221921D01*
X10524085Y-32221911D01*
X10578740Y-32167257D01*
X10595710Y-32160228D01*
X10612681Y-32167257D01*
X10779177Y-32333753D01*
X10784161Y-32341030D01*
X10803703Y-32385288D01*
X10803704Y-32385289D01*
X10803705Y-32385291D01*
X10879709Y-32461295D01*
X10978037Y-32504711D01*
X11002076Y-32507500D01*
X11482924Y-32507500D01*
X11506963Y-32504711D01*
X11605291Y-32461295D01*
X11681295Y-32385291D01*
X11724711Y-32286963D01*
X11727500Y-32262924D01*
X11727500Y-31857076D01*
X11724711Y-31833037D01*
X11681295Y-31734709D01*
X11662555Y-31715969D01*
X11655527Y-31699000D01*
X11662556Y-31682029D01*
X11679527Y-31675000D01*
X12000473Y-31675000D01*
X12017444Y-31682029D01*
X12024473Y-31699000D01*
X12017444Y-31715969D01*
X11998705Y-31734709D01*
X11998703Y-31734711D01*
X11955289Y-31833036D01*
X11955288Y-31833037D01*
X11952500Y-31857074D01*
X11952500Y-32262925D01*
X11955288Y-32286962D01*
X11955289Y-32286963D01*
X11998703Y-32385288D01*
X11998704Y-32385289D01*
X11998705Y-32385291D01*
X12037618Y-32424204D01*
X12044647Y-32441174D01*
X12037618Y-32458145D01*
X11001131Y-33494635D01*
X11001130Y-33494634D01*
X10937137Y-33558628D01*
X10937135Y-33558630D01*
X10937134Y-33558632D01*
X10937134Y-33558633D01*
X10902499Y-33642246D01*
X10902499Y-33778995D01*
X10895470Y-33795966D01*
X10887684Y-33801168D01*
X10832768Y-33823915D01*
X10729993Y-33892587D01*
X10642586Y-33979994D01*
X10573913Y-34082770D01*
X10526615Y-34196962D01*
X10526612Y-34196969D01*
X10502499Y-34318192D01*
X10502499Y-34441807D01*
X10526612Y-34563030D01*
X10526615Y-34563037D01*
X10573913Y-34677229D01*
X10583449Y-34691500D01*
X10642588Y-34780008D01*
X10729991Y-34867411D01*
X10803458Y-34916500D01*
X10832769Y-34936085D01*
X10887683Y-34958830D01*
X10900672Y-34971818D01*
X10902499Y-34981003D01*
X10902499Y-35041853D01*
X10902499Y-35132359D01*
X10937134Y-35215974D01*
X11284025Y-35562866D01*
X11343150Y-35587355D01*
X11367639Y-35597500D01*
X11367640Y-35597500D01*
X17185254Y-35597500D01*
X17200697Y-35591102D01*
X17268868Y-35562865D01*
X17692866Y-35138868D01*
X17727500Y-35055253D01*
X17727500Y-34964747D01*
X17727500Y-34916500D01*
X17734529Y-34899529D01*
X17751500Y-34892500D01*
X18160798Y-34892500D01*
X18185046Y-34889687D01*
X18284228Y-34845893D01*
X18360893Y-34769228D01*
X18404687Y-34670046D01*
X18407500Y-34645798D01*
X18407500Y-34234202D01*
X18404687Y-34209954D01*
X18360893Y-34110772D01*
X18284228Y-34034107D01*
X18284226Y-34034106D01*
X18284225Y-34034105D01*
X18274289Y-34029718D01*
X18185046Y-33990313D01*
X18185045Y-33990312D01*
X18172349Y-33988840D01*
X18156302Y-33979902D01*
X18151275Y-33962234D01*
X18160213Y-33946187D01*
X18172349Y-33941160D01*
X18174711Y-33940885D01*
X18185046Y-33939687D01*
X18284228Y-33895893D01*
X18360893Y-33819228D01*
X18363107Y-33814214D01*
X21128944Y-33814214D01*
X21666898Y-33814214D01*
X21654214Y-33861553D01*
X21654214Y-33966875D01*
X21666898Y-34014214D01*
X21128944Y-34014214D01*
X21162836Y-34184605D01*
X21162838Y-34184612D01*
X21232715Y-34353309D01*
X21334164Y-34505139D01*
X21463288Y-34634263D01*
X21615118Y-34735712D01*
X21783813Y-34805588D01*
X21783822Y-34805590D01*
X21954214Y-34839482D01*
X21954214Y-34301529D01*
X22001553Y-34314214D01*
X22106875Y-34314214D01*
X22154214Y-34301529D01*
X22154214Y-34839482D01*
X22324605Y-34805590D01*
X22324614Y-34805588D01*
X22493309Y-34735712D01*
X22645139Y-34634263D01*
X22774263Y-34505139D01*
X22875712Y-34353309D01*
X22945589Y-34184612D01*
X22945591Y-34184605D01*
X22979484Y-34014214D01*
X22441530Y-34014214D01*
X22454214Y-33966875D01*
X22454214Y-33861553D01*
X22441530Y-33814214D01*
X22979483Y-33814214D01*
X22945591Y-33643822D01*
X22945589Y-33643815D01*
X22875712Y-33475118D01*
X22774263Y-33323288D01*
X22645139Y-33194164D01*
X22493309Y-33092715D01*
X22324612Y-33022838D01*
X22324605Y-33022836D01*
X22154214Y-32988944D01*
X22154214Y-33526898D01*
X22106875Y-33514214D01*
X22001553Y-33514214D01*
X21954214Y-33526898D01*
X21954214Y-32988944D01*
X21783822Y-33022836D01*
X21783815Y-33022838D01*
X21615118Y-33092715D01*
X21463288Y-33194164D01*
X21334164Y-33323288D01*
X21232715Y-33475118D01*
X21162838Y-33643815D01*
X21162836Y-33643822D01*
X21128944Y-33814214D01*
X18363107Y-33814214D01*
X18364539Y-33810972D01*
X18364539Y-33810971D01*
X18381074Y-33773524D01*
X18404687Y-33720046D01*
X18407500Y-33695798D01*
X18407500Y-33284202D01*
X18404687Y-33259954D01*
X18360893Y-33160772D01*
X18308590Y-33108469D01*
X18301562Y-33091500D01*
X18308591Y-33074529D01*
X18325562Y-33067500D01*
X19885875Y-33067500D01*
X19902846Y-33074529D01*
X20558724Y-33730407D01*
X20574488Y-33740940D01*
X20590250Y-33751472D01*
X20590252Y-33751473D01*
X20640000Y-33761368D01*
X20689748Y-33751473D01*
X20721276Y-33730407D01*
X21870407Y-32581276D01*
X21891473Y-32549748D01*
X21901368Y-32500000D01*
X21891473Y-32450252D01*
X21885407Y-32441174D01*
X21870408Y-32418726D01*
X21870407Y-32418724D01*
X21174529Y-31722846D01*
X21167500Y-31705875D01*
X21167500Y-27850001D01*
X21588000Y-27850001D01*
X21588000Y-27872360D01*
X21601170Y-27938571D01*
X21651340Y-28013655D01*
X21651344Y-28013659D01*
X21726428Y-28063829D01*
X21792639Y-28076999D01*
X21792648Y-28077000D01*
X21932499Y-28077000D01*
X21932500Y-28076999D01*
X21932500Y-27850001D01*
X21932499Y-27850000D01*
X21588001Y-27850000D01*
X21588000Y-27850001D01*
X21167500Y-27850001D01*
X21167500Y-27627639D01*
X21588000Y-27627639D01*
X21588000Y-27649999D01*
X21588001Y-27650000D01*
X21932499Y-27650000D01*
X21932500Y-27649999D01*
X21932500Y-27423001D01*
X22132500Y-27423001D01*
X22132500Y-28076999D01*
X22132501Y-28077000D01*
X22272352Y-28077000D01*
X22272360Y-28076999D01*
X22338571Y-28063829D01*
X22413655Y-28013659D01*
X22413660Y-28013654D01*
X22419743Y-28004550D01*
X22435015Y-27994343D01*
X22453031Y-27997926D01*
X22459654Y-28004548D01*
X22465738Y-28013654D01*
X22465982Y-28014018D01*
X22541234Y-28064300D01*
X22607594Y-28077500D01*
X22653316Y-28077500D01*
X22665315Y-28080714D01*
X22701791Y-28101774D01*
X22797801Y-28127500D01*
X22797802Y-28127500D01*
X22897198Y-28127500D01*
X22897199Y-28127500D01*
X22993209Y-28101774D01*
X23029684Y-28080714D01*
X23041684Y-28077500D01*
X23087402Y-28077500D01*
X23087406Y-28077500D01*
X23153766Y-28064300D01*
X23229018Y-28014018D01*
X23279300Y-27938766D01*
X23292500Y-27872406D01*
X23292500Y-27705112D01*
X23299529Y-27688141D01*
X23803141Y-27184529D01*
X23820112Y-27177500D01*
X25466359Y-27177500D01*
X25466363Y-27177500D01*
X25503553Y-27170102D01*
X25545727Y-27141922D01*
X25573907Y-27099748D01*
X25581305Y-27062558D01*
X25581305Y-25137442D01*
X25573907Y-25100252D01*
X25545727Y-25058078D01*
X25503553Y-25029898D01*
X25503552Y-25029897D01*
X25503551Y-25029897D01*
X25466367Y-25022500D01*
X25466363Y-25022500D01*
X23241247Y-25022500D01*
X23241242Y-25022500D01*
X23204058Y-25029897D01*
X23161885Y-25058076D01*
X23161881Y-25058080D01*
X23133702Y-25100253D01*
X23126305Y-25137437D01*
X23126305Y-26783693D01*
X23119276Y-26800664D01*
X22545422Y-27374518D01*
X22495728Y-27460589D01*
X22495355Y-27461490D01*
X22489141Y-27470230D01*
X22487896Y-27471338D01*
X22465982Y-27485982D01*
X22457952Y-27497999D01*
X22455658Y-27500042D01*
X22449659Y-27502128D01*
X22444380Y-27505656D01*
X22441288Y-27505040D01*
X22438309Y-27506077D01*
X22432590Y-27503310D01*
X22426364Y-27502071D01*
X22422926Y-27498633D01*
X22421774Y-27498076D01*
X22421456Y-27497163D01*
X22419743Y-27495450D01*
X22413658Y-27486343D01*
X22413655Y-27486340D01*
X22338571Y-27436170D01*
X22272360Y-27423000D01*
X22132501Y-27423000D01*
X22132500Y-27423001D01*
X21932500Y-27423001D01*
X21932499Y-27423000D01*
X21792639Y-27423000D01*
X21726428Y-27436170D01*
X21651344Y-27486340D01*
X21651340Y-27486344D01*
X21601170Y-27561428D01*
X21588000Y-27627639D01*
X21167500Y-27627639D01*
X21167500Y-26388439D01*
X21174529Y-26371468D01*
X21811468Y-25734529D01*
X21828439Y-25727500D01*
X22169446Y-25727500D01*
X22169447Y-25727500D01*
X22236527Y-25709526D01*
X22303608Y-25691552D01*
X22405888Y-25632500D01*
X22423893Y-25622105D01*
X22522105Y-25523893D01*
X22522105Y-25523892D01*
X22524073Y-25521925D01*
X22524080Y-25521915D01*
X23511469Y-24534529D01*
X23528440Y-24527500D01*
X24719446Y-24527500D01*
X24719447Y-24527500D01*
X24786527Y-24509526D01*
X24853608Y-24491552D01*
X24913750Y-24456828D01*
X24973893Y-24422105D01*
X25072105Y-24323893D01*
X25072105Y-24323892D01*
X25074073Y-24321925D01*
X25074080Y-24321915D01*
X25822105Y-23573893D01*
X25891552Y-23453608D01*
X25913032Y-23373444D01*
X25927500Y-23319447D01*
X25927500Y-17430553D01*
X25891552Y-17296393D01*
X25822105Y-17176107D01*
X25773498Y-17127500D01*
X25723893Y-17077894D01*
X25723893Y-17077895D01*
X25723892Y-17077894D01*
X24323475Y-15677478D01*
X24323465Y-15677466D01*
X24223894Y-15577896D01*
X24223893Y-15577895D01*
X24129834Y-15523590D01*
X24129834Y-15523589D01*
X24129833Y-15523589D01*
X24103609Y-15508448D01*
X24025211Y-15487442D01*
X23996474Y-15479742D01*
X23969447Y-15472500D01*
X23969446Y-15472500D01*
X23698440Y-15472500D01*
X23681469Y-15465471D01*
X21793475Y-13577478D01*
X21793465Y-13577466D01*
X21693894Y-13477896D01*
X21693893Y-13477895D01*
X21620826Y-13435710D01*
X21620826Y-13435709D01*
X21620825Y-13435709D01*
X21573609Y-13408448D01*
X21484167Y-13384482D01*
X21439447Y-13372500D01*
X20180553Y-13372500D01*
X20152202Y-13380096D01*
X20046393Y-13408447D01*
X19999174Y-13435710D01*
X19926105Y-13477896D01*
X19827894Y-13576106D01*
X19827895Y-13576107D01*
X19827893Y-13576109D01*
X19326109Y-14077893D01*
X19326107Y-14077895D01*
X19326106Y-14077894D01*
X19227895Y-14176106D01*
X19222261Y-14185863D01*
X19222262Y-14185864D01*
X19158447Y-14296393D01*
X19152122Y-14320000D01*
X19144387Y-14348868D01*
X19122500Y-14430553D01*
X19122500Y-15569447D01*
X19136935Y-15623318D01*
X19156677Y-15697000D01*
X19158448Y-15703607D01*
X19227895Y-15823893D01*
X19326107Y-15922105D01*
X19446393Y-15991552D01*
X19580553Y-16027500D01*
X19704403Y-16027500D01*
X19721374Y-16034529D01*
X20098910Y-16412065D01*
X20173590Y-16455181D01*
X20256884Y-16477500D01*
X20256885Y-16477500D01*
X20302805Y-16477500D01*
X20319776Y-16484529D01*
X20326805Y-16501500D01*
X20326805Y-16549999D01*
X20326806Y-16550000D01*
X21880804Y-16550000D01*
X21880805Y-16549999D01*
X21880805Y-16487495D01*
X21880804Y-16487487D01*
X21873436Y-16450446D01*
X21848938Y-16413783D01*
X21845354Y-16395767D01*
X21848936Y-16387118D01*
X21873907Y-16349748D01*
X21881305Y-16312558D01*
X21881305Y-15987442D01*
X21873907Y-15950252D01*
X21849237Y-15913331D01*
X21845654Y-15895318D01*
X21849236Y-15886669D01*
X21873907Y-15849748D01*
X21881305Y-15812558D01*
X21881305Y-15487442D01*
X21873907Y-15450252D01*
X21845727Y-15408078D01*
X21803553Y-15379898D01*
X21803552Y-15379897D01*
X21803551Y-15379897D01*
X21766367Y-15372500D01*
X21766363Y-15372500D01*
X21284591Y-15372500D01*
X21272591Y-15369285D01*
X21239190Y-15350001D01*
X21230215Y-15344819D01*
X21230214Y-15344818D01*
X21230213Y-15344818D01*
X21177408Y-15330669D01*
X21146921Y-15322500D01*
X21146920Y-15322500D01*
X20201500Y-15322500D01*
X20184529Y-15315471D01*
X20177500Y-15298500D01*
X20177500Y-14728439D01*
X20184529Y-14711468D01*
X20461468Y-14434529D01*
X20478439Y-14427500D01*
X21141561Y-14427500D01*
X21158531Y-14434528D01*
X22103899Y-15379897D01*
X23047894Y-16323892D01*
X23047895Y-16323893D01*
X23047894Y-16323893D01*
X23106076Y-16382074D01*
X23146107Y-16422105D01*
X23266393Y-16491552D01*
X23400553Y-16527500D01*
X23671561Y-16527500D01*
X23688532Y-16534529D01*
X24865471Y-17711468D01*
X24872500Y-17728439D01*
X24872500Y-23021560D01*
X24865471Y-23038531D01*
X24438532Y-23465471D01*
X24421561Y-23472500D01*
X23230553Y-23472500D01*
X23194606Y-23482131D01*
X23096394Y-23508447D01*
X23077249Y-23519501D01*
X22976107Y-23577895D01*
X21888532Y-24665471D01*
X21871561Y-24672500D01*
X21530553Y-24672500D01*
X21502202Y-24680096D01*
X21396393Y-24708447D01*
X21353097Y-24733445D01*
X21276105Y-24777896D01*
X21177894Y-24876106D01*
X21177895Y-24876107D01*
X21177893Y-24876109D01*
X20316109Y-25737893D01*
X20316107Y-25737895D01*
X20316106Y-25737894D01*
X20217894Y-25836107D01*
X20183170Y-25896249D01*
X20183171Y-25896250D01*
X20148447Y-25956393D01*
X20112500Y-26090554D01*
X20112500Y-31705875D01*
X20105471Y-31722846D01*
X19822846Y-32005471D01*
X19805875Y-32012500D01*
X17430553Y-32012500D01*
X17394606Y-32022131D01*
X17296394Y-32048447D01*
X17234322Y-32084285D01*
X17222322Y-32087500D01*
X16839200Y-32087500D01*
X16814954Y-32090312D01*
X16814953Y-32090313D01*
X16754194Y-32117141D01*
X16735830Y-32117565D01*
X16722545Y-32104880D01*
X16720500Y-32095186D01*
X16720500Y-31863675D01*
X16727529Y-31846704D01*
X16949705Y-31624529D01*
X16966676Y-31617500D01*
X17322924Y-31617500D01*
X17346963Y-31614711D01*
X17445291Y-31571295D01*
X17521295Y-31495291D01*
X17564711Y-31396963D01*
X17567500Y-31372924D01*
X17567500Y-31270001D01*
X17793001Y-31270001D01*
X17793001Y-31372851D01*
X17795784Y-31396847D01*
X17839123Y-31495000D01*
X17914999Y-31570876D01*
X18013152Y-31614215D01*
X18013153Y-31614216D01*
X18037150Y-31616999D01*
X18177498Y-31616999D01*
X18177500Y-31616998D01*
X18177500Y-31270001D01*
X18377500Y-31270001D01*
X18377500Y-31616998D01*
X18377501Y-31616999D01*
X18517847Y-31616999D01*
X18517851Y-31616998D01*
X18541847Y-31614215D01*
X18640000Y-31570876D01*
X18715876Y-31495000D01*
X18759215Y-31396847D01*
X18759216Y-31396846D01*
X18761999Y-31372850D01*
X18762000Y-31372849D01*
X18762000Y-31270001D01*
X18761999Y-31270000D01*
X18377501Y-31270000D01*
X18377500Y-31270001D01*
X18177500Y-31270001D01*
X18177499Y-31270000D01*
X17793002Y-31270000D01*
X17793001Y-31270001D01*
X17567500Y-31270001D01*
X17567500Y-30967149D01*
X17793000Y-30967149D01*
X17793000Y-31069999D01*
X17793001Y-31070000D01*
X18177499Y-31070000D01*
X18177500Y-31069999D01*
X18177500Y-30723001D01*
X18377500Y-30723001D01*
X18377500Y-31069999D01*
X18377501Y-31070000D01*
X18761998Y-31070000D01*
X18761999Y-31069999D01*
X18761999Y-30967153D01*
X18761998Y-30967148D01*
X18759215Y-30943152D01*
X18715876Y-30844999D01*
X18640000Y-30769123D01*
X18541847Y-30725784D01*
X18541846Y-30725783D01*
X18517850Y-30723000D01*
X18377501Y-30723000D01*
X18377500Y-30723001D01*
X18177500Y-30723001D01*
X18177499Y-30723000D01*
X18037153Y-30723000D01*
X18037148Y-30723001D01*
X18013152Y-30725784D01*
X17914999Y-30769123D01*
X17839123Y-30844999D01*
X17795784Y-30943152D01*
X17795783Y-30943153D01*
X17793000Y-30967149D01*
X17567500Y-30967149D01*
X17567500Y-30967076D01*
X17564711Y-30943037D01*
X17528811Y-30861732D01*
X17521296Y-30844711D01*
X17521295Y-30844710D01*
X17521295Y-30844709D01*
X17445291Y-30768705D01*
X17445289Y-30768704D01*
X17445288Y-30768703D01*
X17346963Y-30725289D01*
X17346962Y-30725288D01*
X17322925Y-30722500D01*
X17322924Y-30722500D01*
X16842076Y-30722500D01*
X16842074Y-30722500D01*
X16818037Y-30725288D01*
X16818036Y-30725289D01*
X16719711Y-30768703D01*
X16643703Y-30844711D01*
X16600289Y-30943036D01*
X16600288Y-30943037D01*
X16597500Y-30967074D01*
X16597500Y-31323324D01*
X16590471Y-31340295D01*
X16364132Y-31566635D01*
X16364131Y-31566634D01*
X16300138Y-31630628D01*
X16300136Y-31630630D01*
X16300135Y-31630632D01*
X16282817Y-31672439D01*
X16271816Y-31699000D01*
X16265500Y-31714247D01*
X16265500Y-33117747D01*
X16265500Y-33208253D01*
X16300135Y-33291868D01*
X16585471Y-33577204D01*
X16592500Y-33594174D01*
X16592500Y-33695799D01*
X16595312Y-33720045D01*
X16595313Y-33720046D01*
X16639105Y-33819225D01*
X16639106Y-33819226D01*
X16639107Y-33819228D01*
X16715772Y-33895893D01*
X16814954Y-33939687D01*
X16827650Y-33941160D01*
X16843697Y-33950098D01*
X16848724Y-33967766D01*
X16839786Y-33983813D01*
X16827650Y-33988840D01*
X16814954Y-33990312D01*
X16814953Y-33990313D01*
X16715774Y-34034105D01*
X16639105Y-34110774D01*
X16595313Y-34209953D01*
X16595312Y-34209954D01*
X16592500Y-34234200D01*
X16592500Y-34645799D01*
X16595312Y-34670045D01*
X16595313Y-34670046D01*
X16639105Y-34769225D01*
X16639106Y-34769226D01*
X16639107Y-34769228D01*
X16715772Y-34845893D01*
X16814954Y-34889687D01*
X16839202Y-34892500D01*
X17237824Y-34892500D01*
X17254795Y-34899529D01*
X17261824Y-34916500D01*
X17254795Y-34933471D01*
X17052796Y-35135471D01*
X17035825Y-35142500D01*
X11517069Y-35142500D01*
X11500098Y-35135471D01*
X11364528Y-34999901D01*
X11357499Y-34982930D01*
X11357499Y-34981003D01*
X11364528Y-34964032D01*
X11372315Y-34958830D01*
X11427228Y-34936085D01*
X11427229Y-34936084D01*
X11427232Y-34936083D01*
X11530007Y-34867411D01*
X11617410Y-34780008D01*
X11686082Y-34677233D01*
X11689060Y-34670045D01*
X11726327Y-34580072D01*
X11739315Y-34567083D01*
X11757684Y-34567083D01*
X11770673Y-34580071D01*
X11772500Y-34589256D01*
X11772500Y-34892562D01*
X11779897Y-34929746D01*
X11779897Y-34929747D01*
X11779898Y-34929748D01*
X11808078Y-34971922D01*
X11850252Y-35000102D01*
X11887442Y-35007500D01*
X11887446Y-35007500D01*
X12912554Y-35007500D01*
X12912558Y-35007500D01*
X12949748Y-35000102D01*
X12991922Y-34971922D01*
X13020102Y-34929748D01*
X13027500Y-34892558D01*
X13027500Y-34691500D01*
X13034529Y-34674529D01*
X13051500Y-34667500D01*
X13878550Y-34667500D01*
X13895521Y-34674529D01*
X13900505Y-34681806D01*
X13939105Y-34769225D01*
X13939106Y-34769226D01*
X13939107Y-34769228D01*
X14015772Y-34845893D01*
X14114954Y-34889687D01*
X14139202Y-34892500D01*
X15460798Y-34892500D01*
X15485046Y-34889687D01*
X15584228Y-34845893D01*
X15660893Y-34769228D01*
X15704687Y-34670046D01*
X15707500Y-34645798D01*
X15707500Y-34234202D01*
X15704687Y-34209954D01*
X15660893Y-34110772D01*
X15584228Y-34034107D01*
X15584226Y-34034106D01*
X15584225Y-34034105D01*
X15485046Y-33990313D01*
X15470156Y-33988585D01*
X15454109Y-33979646D01*
X15449083Y-33961978D01*
X15458022Y-33945931D01*
X15470158Y-33940905D01*
X15484928Y-33939192D01*
X15484929Y-33939191D01*
X15583938Y-33895475D01*
X15660475Y-33818938D01*
X15704191Y-33719929D01*
X15704192Y-33719928D01*
X15706999Y-33695727D01*
X15707000Y-33695726D01*
X15707000Y-33590001D01*
X15706999Y-33590000D01*
X13893001Y-33590000D01*
X13893000Y-33590001D01*
X13893000Y-33695727D01*
X13895807Y-33719928D01*
X13895808Y-33719929D01*
X13939524Y-33818938D01*
X14016061Y-33895475D01*
X14115070Y-33939191D01*
X14115071Y-33939192D01*
X14129841Y-33940905D01*
X14145889Y-33949842D01*
X14150916Y-33967510D01*
X14141979Y-33983558D01*
X14129843Y-33988585D01*
X14114953Y-33990313D01*
X14015774Y-34034105D01*
X13939105Y-34110774D01*
X13900505Y-34198194D01*
X13887220Y-34210879D01*
X13878550Y-34212500D01*
X13051500Y-34212500D01*
X13034529Y-34205471D01*
X13027500Y-34188500D01*
X13027500Y-33867445D01*
X13027499Y-33867437D01*
X13026534Y-33862587D01*
X13020102Y-33830252D01*
X12991922Y-33788078D01*
X12949748Y-33759898D01*
X12949747Y-33759897D01*
X12949746Y-33759897D01*
X12912562Y-33752500D01*
X12912558Y-33752500D01*
X11887442Y-33752500D01*
X11887437Y-33752500D01*
X11850253Y-33759897D01*
X11808080Y-33788076D01*
X11808076Y-33788080D01*
X11779897Y-33830253D01*
X11772500Y-33867437D01*
X11772500Y-34170743D01*
X11765471Y-34187714D01*
X11748500Y-34194743D01*
X11731529Y-34187714D01*
X11726327Y-34179927D01*
X11686084Y-34082770D01*
X11624306Y-33990313D01*
X11617410Y-33979992D01*
X11530007Y-33892589D01*
X11427232Y-33823917D01*
X11427231Y-33823916D01*
X11427229Y-33823915D01*
X11381279Y-33804882D01*
X11368291Y-33791893D01*
X11368291Y-33773524D01*
X11373490Y-33765741D01*
X12624704Y-32514528D01*
X12641674Y-32507500D01*
X12677924Y-32507500D01*
X12701963Y-32504711D01*
X12800291Y-32461295D01*
X12876295Y-32385291D01*
X12919711Y-32286963D01*
X12922500Y-32262924D01*
X12922500Y-31857076D01*
X12919711Y-31833037D01*
X12876295Y-31734709D01*
X12857555Y-31715969D01*
X12850527Y-31699000D01*
X12857556Y-31682029D01*
X12874527Y-31675000D01*
X13179061Y-31675000D01*
X13196032Y-31682029D01*
X13885471Y-32371468D01*
X13892500Y-32388439D01*
X13892500Y-32745799D01*
X13895312Y-32770045D01*
X13895313Y-32770046D01*
X13939105Y-32869225D01*
X13939106Y-32869226D01*
X13939107Y-32869228D01*
X14015772Y-32945893D01*
X14015773Y-32945893D01*
X14015774Y-32945894D01*
X14032941Y-32953474D01*
X14114954Y-32989687D01*
X14129841Y-32991414D01*
X14145889Y-33000352D01*
X14150916Y-33018019D01*
X14141978Y-33034067D01*
X14129842Y-33039094D01*
X14115071Y-33040807D01*
X14115070Y-33040808D01*
X14016061Y-33084524D01*
X13939524Y-33161061D01*
X13895808Y-33260070D01*
X13895807Y-33260071D01*
X13893000Y-33284272D01*
X13893000Y-33389999D01*
X13893001Y-33390000D01*
X15706999Y-33390000D01*
X15707000Y-33389999D01*
X15707000Y-33284274D01*
X15706999Y-33284272D01*
X15704192Y-33260071D01*
X15704191Y-33260070D01*
X15660475Y-33161061D01*
X15583938Y-33084524D01*
X15484929Y-33040808D01*
X15484928Y-33040807D01*
X15470157Y-33039094D01*
X15454110Y-33030156D01*
X15449083Y-33012488D01*
X15458021Y-32996441D01*
X15470157Y-32991414D01*
X15485046Y-32989687D01*
X15584228Y-32945893D01*
X15660893Y-32869228D01*
X15704687Y-32770046D01*
X15707500Y-32745798D01*
X15707500Y-32334202D01*
X15704687Y-32309954D01*
X15660893Y-32210772D01*
X15584228Y-32134107D01*
X15584226Y-32134106D01*
X15584225Y-32134105D01*
X15485046Y-32090313D01*
X15485045Y-32090312D01*
X15460799Y-32087500D01*
X15460798Y-32087500D01*
X15103440Y-32087500D01*
X15086469Y-32080471D01*
X14656546Y-31650548D01*
X14649517Y-31633577D01*
X14656544Y-31616609D01*
X14758626Y-31514529D01*
X14775596Y-31507500D01*
X14817174Y-31507500D01*
X14840799Y-31504759D01*
X14937416Y-31462098D01*
X15012098Y-31387416D01*
X15054759Y-31290799D01*
X15057500Y-31267174D01*
X15057500Y-31170001D01*
X15203001Y-31170001D01*
X15203001Y-31267109D01*
X15205735Y-31290682D01*
X15248319Y-31387126D01*
X15322873Y-31461680D01*
X15419317Y-31504264D01*
X15419318Y-31504265D01*
X15442892Y-31506999D01*
X15597498Y-31506999D01*
X15597500Y-31506998D01*
X15597500Y-31170001D01*
X15797500Y-31170001D01*
X15797500Y-31506998D01*
X15797501Y-31506999D01*
X15952105Y-31506999D01*
X15952109Y-31506998D01*
X15975682Y-31504264D01*
X16072126Y-31461680D01*
X16146680Y-31387126D01*
X16189264Y-31290682D01*
X16189265Y-31290681D01*
X16191999Y-31267108D01*
X16192000Y-31267107D01*
X16192000Y-31170001D01*
X16191999Y-31170000D01*
X15797501Y-31170000D01*
X15797500Y-31170001D01*
X15597500Y-31170001D01*
X15597499Y-31170000D01*
X15203002Y-31170000D01*
X15203001Y-31170001D01*
X15057500Y-31170001D01*
X15057500Y-30872891D01*
X15203000Y-30872891D01*
X15203000Y-30969999D01*
X15203001Y-30970000D01*
X15597499Y-30970000D01*
X15597500Y-30969999D01*
X15597500Y-30633001D01*
X15797500Y-30633001D01*
X15797500Y-30969999D01*
X15797501Y-30970000D01*
X16191998Y-30970000D01*
X16191999Y-30969999D01*
X16191999Y-30872895D01*
X16191998Y-30872890D01*
X16189264Y-30849317D01*
X16146680Y-30752873D01*
X16072126Y-30678319D01*
X15975682Y-30635735D01*
X15975681Y-30635734D01*
X15952108Y-30633000D01*
X15797501Y-30633000D01*
X15797500Y-30633001D01*
X15597500Y-30633001D01*
X15597499Y-30633000D01*
X15442895Y-30633000D01*
X15442890Y-30633001D01*
X15419317Y-30635735D01*
X15322873Y-30678319D01*
X15248319Y-30752873D01*
X15205735Y-30849317D01*
X15205734Y-30849318D01*
X15203000Y-30872891D01*
X15057500Y-30872891D01*
X15057500Y-30872826D01*
X15054759Y-30849201D01*
X15012098Y-30752584D01*
X14937416Y-30677902D01*
X14937414Y-30677901D01*
X14937413Y-30677900D01*
X14840799Y-30635241D01*
X14840798Y-30635240D01*
X14817175Y-30632500D01*
X14817174Y-30632500D01*
X14307826Y-30632500D01*
X14307824Y-30632500D01*
X14284201Y-30635240D01*
X14284200Y-30635241D01*
X14187586Y-30677900D01*
X14112900Y-30752586D01*
X14070241Y-30849200D01*
X14070240Y-30849201D01*
X14067500Y-30872824D01*
X14067500Y-31003561D01*
X14060471Y-31020532D01*
X14043500Y-31027561D01*
X14026529Y-31020532D01*
X13830975Y-30824978D01*
X13830965Y-30824966D01*
X13731394Y-30725396D01*
X13731393Y-30725395D01*
X13649133Y-30677902D01*
X13611108Y-30655948D01*
X13611107Y-30655947D01*
X13611106Y-30655947D01*
X13533827Y-30635241D01*
X13525467Y-30633001D01*
X13476947Y-30620000D01*
X10783053Y-30620000D01*
X10734533Y-30633001D01*
X10726173Y-30635241D01*
X10648893Y-30655947D01*
X10610867Y-30677902D01*
X10528605Y-30725396D01*
X10430394Y-30823606D01*
X10430395Y-30823607D01*
X10430393Y-30823609D01*
X9888532Y-31365471D01*
X9871561Y-31372500D01*
X4538439Y-31372500D01*
X4521468Y-31365471D01*
X3614529Y-30458532D01*
X3607500Y-30441561D01*
X3607500Y-27792388D01*
X4060500Y-27792388D01*
X4060500Y-27967613D01*
X4094681Y-28139454D01*
X4094682Y-28139458D01*
X4094683Y-28139459D01*
X4094683Y-28139460D01*
X4094684Y-28139461D01*
X4161732Y-28301333D01*
X4161735Y-28301337D01*
X4259080Y-28447024D01*
X4382977Y-28570921D01*
X4425936Y-28599625D01*
X4528667Y-28668268D01*
X4609603Y-28701792D01*
X4690542Y-28735318D01*
X4690545Y-28735318D01*
X4690546Y-28735319D01*
X4857930Y-28768613D01*
X4862392Y-28769501D01*
X4862396Y-28769501D01*
X5037604Y-28769501D01*
X5037608Y-28769501D01*
X5209458Y-28735318D01*
X5334661Y-28683457D01*
X5371332Y-28668268D01*
X5371333Y-28668267D01*
X5371336Y-28668266D01*
X5517023Y-28570921D01*
X5640920Y-28447024D01*
X5738265Y-28301337D01*
X5805317Y-28139459D01*
X5839500Y-27967609D01*
X5839500Y-27792393D01*
X5839499Y-27792387D01*
X6060500Y-27792387D01*
X6060500Y-27967612D01*
X6094681Y-28139453D01*
X6094682Y-28139457D01*
X6094683Y-28139458D01*
X6094683Y-28139459D01*
X6094684Y-28139460D01*
X6161732Y-28301332D01*
X6219308Y-28387500D01*
X6259080Y-28447023D01*
X6382977Y-28570920D01*
X6403584Y-28584689D01*
X6528667Y-28668267D01*
X6609603Y-28701791D01*
X6690542Y-28735317D01*
X6690545Y-28735317D01*
X6690546Y-28735318D01*
X6857930Y-28768612D01*
X6862392Y-28769500D01*
X6862396Y-28769500D01*
X7037604Y-28769500D01*
X7037608Y-28769500D01*
X7209458Y-28735317D01*
X7334661Y-28683456D01*
X7371332Y-28668267D01*
X7371333Y-28668266D01*
X7371336Y-28668265D01*
X7517023Y-28570920D01*
X7640920Y-28447023D01*
X7738265Y-28301336D01*
X7805317Y-28139458D01*
X7839500Y-27967608D01*
X7839500Y-27792392D01*
X7839499Y-27792387D01*
X8060501Y-27792387D01*
X8060501Y-27967612D01*
X8094682Y-28139453D01*
X8094683Y-28139457D01*
X8094684Y-28139458D01*
X8094684Y-28139459D01*
X8094685Y-28139460D01*
X8161733Y-28301332D01*
X8219309Y-28387500D01*
X8259081Y-28447023D01*
X8382978Y-28570920D01*
X8403585Y-28584689D01*
X8528668Y-28668267D01*
X8609604Y-28701791D01*
X8690543Y-28735317D01*
X8690546Y-28735317D01*
X8690547Y-28735318D01*
X8857931Y-28768612D01*
X8862393Y-28769500D01*
X8862397Y-28769500D01*
X9037605Y-28769500D01*
X9037609Y-28769500D01*
X9209459Y-28735317D01*
X9334662Y-28683456D01*
X9371333Y-28668267D01*
X9371334Y-28668266D01*
X9371337Y-28668265D01*
X9517024Y-28570920D01*
X9640921Y-28447023D01*
X9738266Y-28301336D01*
X9805318Y-28139458D01*
X9839501Y-27967608D01*
X9839501Y-27792392D01*
X9839500Y-27792387D01*
X10060500Y-27792387D01*
X10060500Y-27967612D01*
X10094681Y-28139453D01*
X10094682Y-28139457D01*
X10094683Y-28139458D01*
X10094683Y-28139459D01*
X10094684Y-28139460D01*
X10161732Y-28301332D01*
X10219308Y-28387500D01*
X10259080Y-28447023D01*
X10382977Y-28570920D01*
X10403584Y-28584689D01*
X10528667Y-28668267D01*
X10609603Y-28701791D01*
X10690542Y-28735317D01*
X10690545Y-28735317D01*
X10690546Y-28735318D01*
X10857930Y-28768612D01*
X10862392Y-28769500D01*
X10862396Y-28769500D01*
X11037604Y-28769500D01*
X11037608Y-28769500D01*
X11209458Y-28735317D01*
X11334661Y-28683456D01*
X11371332Y-28668267D01*
X11371333Y-28668266D01*
X11371336Y-28668265D01*
X11517023Y-28570920D01*
X11640920Y-28447023D01*
X11738265Y-28301336D01*
X11805317Y-28139458D01*
X11839500Y-27967608D01*
X11839500Y-27792392D01*
X11839499Y-27792387D01*
X12060500Y-27792387D01*
X12060500Y-27967612D01*
X12094681Y-28139453D01*
X12094682Y-28139457D01*
X12094683Y-28139458D01*
X12094683Y-28139459D01*
X12094684Y-28139460D01*
X12161732Y-28301332D01*
X12219308Y-28387500D01*
X12259080Y-28447023D01*
X12382977Y-28570920D01*
X12403584Y-28584689D01*
X12528667Y-28668267D01*
X12609603Y-28701791D01*
X12690542Y-28735317D01*
X12690545Y-28735317D01*
X12690546Y-28735318D01*
X12857930Y-28768612D01*
X12862392Y-28769500D01*
X12862396Y-28769500D01*
X13037604Y-28769500D01*
X13037608Y-28769500D01*
X13209458Y-28735317D01*
X13334661Y-28683456D01*
X13371332Y-28668267D01*
X13371333Y-28668266D01*
X13371336Y-28668265D01*
X13517023Y-28570920D01*
X13640920Y-28447023D01*
X13738265Y-28301336D01*
X13805317Y-28139458D01*
X13839500Y-27967608D01*
X13839500Y-27792392D01*
X13822139Y-27705112D01*
X13805318Y-27620546D01*
X13805317Y-27620543D01*
X13805317Y-27620542D01*
X13756758Y-27503310D01*
X13738267Y-27458667D01*
X13640921Y-27312979D01*
X13640920Y-27312977D01*
X13517023Y-27189080D01*
X13499691Y-27177499D01*
X13371332Y-27091732D01*
X13227795Y-27032278D01*
X13209458Y-27024683D01*
X13209457Y-27024682D01*
X13209453Y-27024681D01*
X13037612Y-26990500D01*
X13037608Y-26990500D01*
X12862392Y-26990500D01*
X12862387Y-26990500D01*
X12690546Y-27024681D01*
X12690539Y-27024684D01*
X12528667Y-27091732D01*
X12382979Y-27189078D01*
X12259078Y-27312979D01*
X12161732Y-27458667D01*
X12094684Y-27620539D01*
X12094681Y-27620546D01*
X12060500Y-27792387D01*
X11839499Y-27792387D01*
X11822139Y-27705112D01*
X11805318Y-27620546D01*
X11805317Y-27620543D01*
X11805317Y-27620542D01*
X11756758Y-27503310D01*
X11738267Y-27458667D01*
X11640921Y-27312979D01*
X11640920Y-27312977D01*
X11517023Y-27189080D01*
X11499691Y-27177499D01*
X11371332Y-27091732D01*
X11227795Y-27032278D01*
X11209458Y-27024683D01*
X11209457Y-27024682D01*
X11209453Y-27024681D01*
X11037612Y-26990500D01*
X11037608Y-26990500D01*
X10862392Y-26990500D01*
X10862387Y-26990500D01*
X10690546Y-27024681D01*
X10690539Y-27024684D01*
X10528667Y-27091732D01*
X10382979Y-27189078D01*
X10259078Y-27312979D01*
X10161732Y-27458667D01*
X10094684Y-27620539D01*
X10094681Y-27620546D01*
X10060500Y-27792387D01*
X9839500Y-27792387D01*
X9822140Y-27705112D01*
X9805319Y-27620546D01*
X9805318Y-27620543D01*
X9805318Y-27620542D01*
X9756759Y-27503310D01*
X9738268Y-27458667D01*
X9640922Y-27312979D01*
X9640921Y-27312977D01*
X9517024Y-27189080D01*
X9499692Y-27177499D01*
X9371333Y-27091732D01*
X9227796Y-27032278D01*
X9209459Y-27024683D01*
X9209458Y-27024682D01*
X9209454Y-27024681D01*
X9037613Y-26990500D01*
X9037609Y-26990500D01*
X8862393Y-26990500D01*
X8862388Y-26990500D01*
X8690547Y-27024681D01*
X8690540Y-27024684D01*
X8528668Y-27091732D01*
X8382980Y-27189078D01*
X8259079Y-27312979D01*
X8161733Y-27458667D01*
X8094685Y-27620539D01*
X8094682Y-27620546D01*
X8060501Y-27792387D01*
X7839499Y-27792387D01*
X7822139Y-27705112D01*
X7805318Y-27620546D01*
X7805317Y-27620543D01*
X7805317Y-27620542D01*
X7756758Y-27503310D01*
X7738267Y-27458667D01*
X7640921Y-27312979D01*
X7640920Y-27312977D01*
X7517023Y-27189080D01*
X7499691Y-27177499D01*
X7371332Y-27091732D01*
X7227795Y-27032278D01*
X7209458Y-27024683D01*
X7209457Y-27024682D01*
X7209453Y-27024681D01*
X7037612Y-26990500D01*
X7037608Y-26990500D01*
X6862392Y-26990500D01*
X6862387Y-26990500D01*
X6690546Y-27024681D01*
X6690539Y-27024684D01*
X6528667Y-27091732D01*
X6382979Y-27189078D01*
X6259078Y-27312979D01*
X6161732Y-27458667D01*
X6094684Y-27620539D01*
X6094681Y-27620546D01*
X6060500Y-27792387D01*
X5839499Y-27792387D01*
X5818763Y-27688141D01*
X5805318Y-27620547D01*
X5805317Y-27620546D01*
X5805317Y-27620543D01*
X5757904Y-27506077D01*
X5738267Y-27458668D01*
X5640921Y-27312980D01*
X5640920Y-27312978D01*
X5517023Y-27189081D01*
X5371336Y-27091736D01*
X5371337Y-27091736D01*
X5371332Y-27091733D01*
X5209460Y-27024685D01*
X5209453Y-27024682D01*
X5037612Y-26990501D01*
X5037608Y-26990501D01*
X4862392Y-26990501D01*
X4862387Y-26990501D01*
X4690546Y-27024682D01*
X4690539Y-27024685D01*
X4528667Y-27091733D01*
X4382979Y-27189079D01*
X4259078Y-27312980D01*
X4161732Y-27458668D01*
X4094684Y-27620540D01*
X4094681Y-27620547D01*
X4060500Y-27792388D01*
X3607500Y-27792388D01*
X3607500Y-26938438D01*
X3614528Y-26921468D01*
X4071915Y-26464080D01*
X4071925Y-26464073D01*
X4099843Y-26436155D01*
X4172105Y-26363893D01*
X4208222Y-26301336D01*
X4241552Y-26243608D01*
X4259526Y-26176527D01*
X4277500Y-26109447D01*
X4277500Y-25792436D01*
X5061000Y-25792436D01*
X5061000Y-25967563D01*
X5095162Y-26139307D01*
X5095164Y-26139314D01*
X5162176Y-26301095D01*
X5252420Y-26436155D01*
X5619323Y-26069251D01*
X5645124Y-26113940D01*
X5716060Y-26184876D01*
X5760745Y-26210675D01*
X5393843Y-26577578D01*
X5528904Y-26667823D01*
X5690685Y-26734835D01*
X5690692Y-26734837D01*
X5862436Y-26768999D01*
X5862445Y-26769000D01*
X6037555Y-26769000D01*
X6037563Y-26768999D01*
X6209307Y-26734837D01*
X6209314Y-26734835D01*
X6371095Y-26667823D01*
X6506155Y-26577578D01*
X6139253Y-26210676D01*
X6183940Y-26184876D01*
X6254876Y-26113940D01*
X6280676Y-26069253D01*
X6647578Y-26436155D01*
X6737823Y-26301095D01*
X6804835Y-26139314D01*
X6804837Y-26139307D01*
X6838999Y-25967563D01*
X6839000Y-25967555D01*
X6839000Y-25792443D01*
X6838999Y-25792437D01*
X6838989Y-25792387D01*
X7060500Y-25792387D01*
X7060500Y-25967612D01*
X7094681Y-26139453D01*
X7094684Y-26139460D01*
X7161732Y-26301332D01*
X7203534Y-26363893D01*
X7259080Y-26447023D01*
X7382977Y-26570920D01*
X7487190Y-26640553D01*
X7528667Y-26668267D01*
X7609603Y-26701791D01*
X7690542Y-26735317D01*
X7690545Y-26735317D01*
X7690546Y-26735318D01*
X7857930Y-26768612D01*
X7862392Y-26769500D01*
X7862396Y-26769500D01*
X8037604Y-26769500D01*
X8037608Y-26769500D01*
X8209458Y-26735317D01*
X8334661Y-26683456D01*
X8371332Y-26668267D01*
X8371333Y-26668266D01*
X8371336Y-26668265D01*
X8517023Y-26570920D01*
X8640920Y-26447023D01*
X8738265Y-26301336D01*
X8743833Y-26287895D01*
X8786504Y-26184876D01*
X8805317Y-26139458D01*
X8839500Y-25967608D01*
X8839500Y-25792392D01*
X8839499Y-25792387D01*
X9060500Y-25792387D01*
X9060500Y-25967612D01*
X9094681Y-26139453D01*
X9094684Y-26139460D01*
X9161732Y-26301332D01*
X9203534Y-26363893D01*
X9259080Y-26447023D01*
X9382977Y-26570920D01*
X9487190Y-26640553D01*
X9528667Y-26668267D01*
X9609603Y-26701791D01*
X9690542Y-26735317D01*
X9690545Y-26735317D01*
X9690546Y-26735318D01*
X9857930Y-26768612D01*
X9862392Y-26769500D01*
X9862396Y-26769500D01*
X10037604Y-26769500D01*
X10037608Y-26769500D01*
X10209458Y-26735317D01*
X10334661Y-26683456D01*
X10371332Y-26668267D01*
X10371333Y-26668266D01*
X10371336Y-26668265D01*
X10517023Y-26570920D01*
X10640920Y-26447023D01*
X10738265Y-26301336D01*
X10743833Y-26287895D01*
X10786504Y-26184876D01*
X10805317Y-26139458D01*
X10839500Y-25967608D01*
X10839500Y-25792392D01*
X10839499Y-25792387D01*
X11060499Y-25792387D01*
X11060499Y-25967612D01*
X11094680Y-26139453D01*
X11094683Y-26139460D01*
X11161731Y-26301332D01*
X11203533Y-26363893D01*
X11259079Y-26447023D01*
X11382976Y-26570920D01*
X11487189Y-26640553D01*
X11528666Y-26668267D01*
X11609602Y-26701791D01*
X11690541Y-26735317D01*
X11690544Y-26735317D01*
X11690545Y-26735318D01*
X11857929Y-26768612D01*
X11862391Y-26769500D01*
X11862395Y-26769500D01*
X12037603Y-26769500D01*
X12037607Y-26769500D01*
X12209457Y-26735317D01*
X12334660Y-26683456D01*
X12371331Y-26668267D01*
X12371332Y-26668266D01*
X12371335Y-26668265D01*
X12517022Y-26570920D01*
X12640919Y-26447023D01*
X12738264Y-26301336D01*
X12743832Y-26287895D01*
X12786503Y-26184876D01*
X12805316Y-26139458D01*
X12839499Y-25967608D01*
X12839499Y-25792392D01*
X12839498Y-25792387D01*
X13060500Y-25792387D01*
X13060500Y-25967612D01*
X13094681Y-26139453D01*
X13094684Y-26139460D01*
X13161732Y-26301332D01*
X13203534Y-26363893D01*
X13259080Y-26447023D01*
X13382977Y-26570920D01*
X13487190Y-26640553D01*
X13528667Y-26668267D01*
X13609603Y-26701791D01*
X13690542Y-26735317D01*
X13690545Y-26735317D01*
X13690546Y-26735318D01*
X13857930Y-26768612D01*
X13862392Y-26769500D01*
X13862396Y-26769500D01*
X14037604Y-26769500D01*
X14037608Y-26769500D01*
X14209458Y-26735317D01*
X14334661Y-26683456D01*
X14371332Y-26668267D01*
X14371333Y-26668266D01*
X14371336Y-26668265D01*
X14517023Y-26570920D01*
X14640920Y-26447023D01*
X14738265Y-26301336D01*
X14743833Y-26287895D01*
X14786504Y-26184876D01*
X14805317Y-26139458D01*
X14839500Y-25967608D01*
X14839500Y-25792392D01*
X14805347Y-25620692D01*
X14805318Y-25620546D01*
X14805317Y-25620545D01*
X14805317Y-25620542D01*
X14765284Y-25523893D01*
X14738267Y-25458667D01*
X14640921Y-25312979D01*
X14640920Y-25312977D01*
X14517023Y-25189080D01*
X14439746Y-25137445D01*
X14371332Y-25091732D01*
X14209460Y-25024684D01*
X14209453Y-25024681D01*
X14037612Y-24990500D01*
X14037608Y-24990500D01*
X13862392Y-24990500D01*
X13862387Y-24990500D01*
X13690546Y-25024681D01*
X13690539Y-25024684D01*
X13528667Y-25091732D01*
X13382979Y-25189078D01*
X13259078Y-25312979D01*
X13161732Y-25458667D01*
X13094684Y-25620539D01*
X13094681Y-25620546D01*
X13060500Y-25792387D01*
X12839498Y-25792387D01*
X12805346Y-25620692D01*
X12805317Y-25620546D01*
X12805316Y-25620545D01*
X12805316Y-25620542D01*
X12765283Y-25523893D01*
X12738266Y-25458667D01*
X12640920Y-25312979D01*
X12640919Y-25312977D01*
X12517022Y-25189080D01*
X12439745Y-25137445D01*
X12371331Y-25091732D01*
X12209459Y-25024684D01*
X12209452Y-25024681D01*
X12037611Y-24990500D01*
X12037607Y-24990500D01*
X11862391Y-24990500D01*
X11862386Y-24990500D01*
X11690545Y-25024681D01*
X11690538Y-25024684D01*
X11528666Y-25091732D01*
X11382978Y-25189078D01*
X11259077Y-25312979D01*
X11161731Y-25458667D01*
X11094683Y-25620539D01*
X11094680Y-25620546D01*
X11060499Y-25792387D01*
X10839499Y-25792387D01*
X10805347Y-25620692D01*
X10805318Y-25620546D01*
X10805317Y-25620545D01*
X10805317Y-25620542D01*
X10765284Y-25523893D01*
X10738267Y-25458667D01*
X10640921Y-25312979D01*
X10640920Y-25312977D01*
X10517023Y-25189080D01*
X10439746Y-25137445D01*
X10371332Y-25091732D01*
X10209460Y-25024684D01*
X10209453Y-25024681D01*
X10037612Y-24990500D01*
X10037608Y-24990500D01*
X9862392Y-24990500D01*
X9862387Y-24990500D01*
X9690546Y-25024681D01*
X9690539Y-25024684D01*
X9528667Y-25091732D01*
X9382979Y-25189078D01*
X9259078Y-25312979D01*
X9161732Y-25458667D01*
X9094684Y-25620539D01*
X9094681Y-25620546D01*
X9060500Y-25792387D01*
X8839499Y-25792387D01*
X8805347Y-25620692D01*
X8805318Y-25620546D01*
X8805317Y-25620545D01*
X8805317Y-25620542D01*
X8765284Y-25523893D01*
X8738267Y-25458667D01*
X8640921Y-25312979D01*
X8640920Y-25312977D01*
X8517023Y-25189080D01*
X8439746Y-25137445D01*
X8371332Y-25091732D01*
X8209460Y-25024684D01*
X8209453Y-25024681D01*
X8037612Y-24990500D01*
X8037608Y-24990500D01*
X7862392Y-24990500D01*
X7862387Y-24990500D01*
X7690546Y-25024681D01*
X7690539Y-25024684D01*
X7528667Y-25091732D01*
X7382979Y-25189078D01*
X7259078Y-25312979D01*
X7161732Y-25458667D01*
X7094684Y-25620539D01*
X7094681Y-25620546D01*
X7060500Y-25792387D01*
X6838989Y-25792387D01*
X6804837Y-25620692D01*
X6804835Y-25620685D01*
X6737823Y-25458904D01*
X6647578Y-25323843D01*
X6280675Y-25690745D01*
X6254876Y-25646060D01*
X6183940Y-25575124D01*
X6139251Y-25549323D01*
X6506155Y-25182420D01*
X6371095Y-25092176D01*
X6209314Y-25025164D01*
X6209307Y-25025162D01*
X6037563Y-24991000D01*
X5862436Y-24991000D01*
X5690692Y-25025162D01*
X5690685Y-25025164D01*
X5528904Y-25092176D01*
X5393843Y-25182420D01*
X5760746Y-25549323D01*
X5716060Y-25575124D01*
X5645124Y-25646060D01*
X5619323Y-25690746D01*
X5252420Y-25323843D01*
X5162176Y-25458904D01*
X5095164Y-25620685D01*
X5095162Y-25620692D01*
X5061000Y-25792436D01*
X4277500Y-25792436D01*
X4277500Y-25178439D01*
X4284529Y-25161468D01*
X4901468Y-24544529D01*
X4918439Y-24537500D01*
X5849446Y-24537500D01*
X5849447Y-24537500D01*
X5916527Y-24519526D01*
X5983608Y-24501552D01*
X6079826Y-24446000D01*
X6103893Y-24432105D01*
X6202105Y-24333893D01*
X6202105Y-24333892D01*
X6204073Y-24331925D01*
X6204080Y-24331915D01*
X6959106Y-23576892D01*
X7028552Y-23456608D01*
X7056194Y-23353444D01*
X7064500Y-23322447D01*
X7064500Y-20141439D01*
X7071529Y-20124468D01*
X7215952Y-19980045D01*
X7372105Y-19823893D01*
X7372106Y-19823891D01*
X7837105Y-19358893D01*
X7906551Y-19238608D01*
X7942500Y-19104447D01*
X7942500Y-18965554D01*
X7939870Y-18955740D01*
X7906551Y-18831392D01*
X7837105Y-18711107D01*
X7794294Y-18668296D01*
X7745083Y-18619084D01*
X7738054Y-18602114D01*
X7738054Y-18312265D01*
X7745083Y-18295294D01*
X7762054Y-18288265D01*
X7771743Y-18290308D01*
X7793037Y-18299711D01*
X7817076Y-18302500D01*
X8222924Y-18302500D01*
X8246963Y-18299711D01*
X8345291Y-18256295D01*
X8421295Y-18180291D01*
X8464711Y-18081963D01*
X8467500Y-18057924D01*
X8467500Y-17577076D01*
X8464711Y-17553037D01*
X8421295Y-17454709D01*
X8345291Y-17378705D01*
X8345289Y-17378704D01*
X8345288Y-17378703D01*
X8246963Y-17335289D01*
X8246962Y-17335288D01*
X8222925Y-17332500D01*
X8222924Y-17332500D01*
X7817076Y-17332500D01*
X7817074Y-17332500D01*
X7793037Y-17335288D01*
X7793036Y-17335289D01*
X7694711Y-17378703D01*
X7618703Y-17454711D01*
X7612970Y-17467696D01*
X7599684Y-17480381D01*
X7581320Y-17479956D01*
X7574045Y-17474972D01*
X7533609Y-17434537D01*
X7533608Y-17434537D01*
X7373475Y-17274404D01*
X7373473Y-17274401D01*
X7334529Y-17235457D01*
X7327500Y-17218486D01*
X7327500Y-16662388D01*
X7327501Y-16662375D01*
X7327501Y-16521555D01*
X7322980Y-16504680D01*
X7291552Y-16387392D01*
X7222106Y-16267108D01*
X6831106Y-15876108D01*
X6831105Y-15876107D01*
X6831105Y-15876106D01*
X6732892Y-15777894D01*
X6672750Y-15743170D01*
X6672750Y-15743171D01*
X6612608Y-15708448D01*
X6612607Y-15708447D01*
X6612606Y-15708447D01*
X6496980Y-15677466D01*
X6478447Y-15672500D01*
X6478446Y-15672500D01*
X4391500Y-15672500D01*
X4374529Y-15665471D01*
X4367500Y-15648500D01*
X4367500Y-15365457D01*
X4374529Y-15348486D01*
X4391500Y-15341457D01*
X4408471Y-15348486D01*
X4412281Y-15353452D01*
X4457915Y-15432491D01*
X4537509Y-15512085D01*
X4634991Y-15568367D01*
X4743719Y-15597500D01*
X4856281Y-15597500D01*
X4965009Y-15568367D01*
X5062491Y-15512085D01*
X5142085Y-15432491D01*
X5151056Y-15416951D01*
X5165628Y-15405770D01*
X5183839Y-15408167D01*
X5193795Y-15419258D01*
X5229105Y-15499225D01*
X5229106Y-15499226D01*
X5229107Y-15499228D01*
X5305772Y-15575893D01*
X5404954Y-15619687D01*
X5429202Y-15622500D01*
X6750798Y-15622500D01*
X6775046Y-15619687D01*
X6874228Y-15575893D01*
X6950893Y-15499228D01*
X6994687Y-15400046D01*
X6997500Y-15375798D01*
X6997500Y-14964202D01*
X6994687Y-14939954D01*
X6950893Y-14840772D01*
X6874228Y-14764107D01*
X6874226Y-14764106D01*
X6874225Y-14764105D01*
X6775046Y-14720313D01*
X6760156Y-14718585D01*
X6744109Y-14709646D01*
X6739083Y-14691978D01*
X6748022Y-14675931D01*
X6760158Y-14670905D01*
X6774928Y-14669192D01*
X6774929Y-14669191D01*
X6873938Y-14625475D01*
X6950475Y-14548938D01*
X6994191Y-14449929D01*
X6994192Y-14449928D01*
X6996999Y-14425727D01*
X6997000Y-14425726D01*
X6997000Y-14320001D01*
X6996999Y-14320000D01*
X5183001Y-14320000D01*
X5183000Y-14320001D01*
X5183000Y-14425727D01*
X5185807Y-14449928D01*
X5185808Y-14449929D01*
X5229524Y-14548938D01*
X5306061Y-14625475D01*
X5405070Y-14669191D01*
X5405071Y-14669192D01*
X5419841Y-14670905D01*
X5435889Y-14679842D01*
X5440916Y-14697510D01*
X5431979Y-14713558D01*
X5419843Y-14718585D01*
X5404953Y-14720313D01*
X5305774Y-14764105D01*
X5229105Y-14840774D01*
X5193795Y-14920741D01*
X5180509Y-14933426D01*
X5162146Y-14933002D01*
X5151056Y-14923048D01*
X5142085Y-14907509D01*
X5062491Y-14827915D01*
X4965009Y-14771633D01*
X4965006Y-14771632D01*
X4856281Y-14742500D01*
X4743719Y-14742500D01*
X4634993Y-14771632D01*
X4634991Y-14771632D01*
X4634991Y-14771633D01*
X4537509Y-14827915D01*
X4457915Y-14907509D01*
X4416287Y-14979611D01*
X4412285Y-14986542D01*
X4397711Y-14997724D01*
X4379500Y-14995327D01*
X4368318Y-14980753D01*
X4367500Y-14974542D01*
X4367500Y-13975939D01*
X4374529Y-13958968D01*
X4623968Y-13709529D01*
X4640939Y-13702500D01*
X4707174Y-13702500D01*
X4730799Y-13699759D01*
X4827416Y-13657098D01*
X4840600Y-13643914D01*
X4849986Y-13634529D01*
X4866956Y-13627500D01*
X5247437Y-13627500D01*
X5264407Y-13634529D01*
X5305772Y-13675893D01*
X5305773Y-13675894D01*
X5344191Y-13692857D01*
X5404954Y-13719687D01*
X5419841Y-13721414D01*
X5435889Y-13730352D01*
X5440916Y-13748019D01*
X5431978Y-13764067D01*
X5419842Y-13769094D01*
X5405071Y-13770807D01*
X5405070Y-13770808D01*
X5306061Y-13814524D01*
X5229524Y-13891061D01*
X5185808Y-13990070D01*
X5185807Y-13990071D01*
X5183000Y-14014272D01*
X5183000Y-14119999D01*
X5183001Y-14120000D01*
X6996999Y-14120000D01*
X6997000Y-14119999D01*
X6997000Y-14014274D01*
X6996999Y-14014272D01*
X6994192Y-13990071D01*
X6994191Y-13990070D01*
X6950475Y-13891061D01*
X6873938Y-13814524D01*
X6774929Y-13770808D01*
X6774928Y-13770807D01*
X6760157Y-13769094D01*
X6744110Y-13760156D01*
X6739083Y-13742488D01*
X6748021Y-13726441D01*
X6760157Y-13721414D01*
X6775046Y-13719687D01*
X6874228Y-13675893D01*
X6950893Y-13599228D01*
X6994687Y-13500046D01*
X6997500Y-13475798D01*
X6997500Y-13064202D01*
X6994687Y-13039954D01*
X6950893Y-12940772D01*
X6874228Y-12864107D01*
X6874226Y-12864106D01*
X6874225Y-12864105D01*
X6775046Y-12820313D01*
X6775045Y-12820312D01*
X6750799Y-12817500D01*
X6750798Y-12817500D01*
X5838922Y-12817500D01*
X5826923Y-12814285D01*
X5805009Y-12801633D01*
X5805006Y-12801632D01*
X5696281Y-12772500D01*
X4851956Y-12772500D01*
X4834986Y-12765471D01*
X4827415Y-12757901D01*
X4730799Y-12715241D01*
X4730798Y-12715240D01*
X4707175Y-12712500D01*
X4707174Y-12712500D01*
X4312826Y-12712500D01*
X4312824Y-12712500D01*
X4289201Y-12715240D01*
X4289200Y-12715241D01*
X4192585Y-12757901D01*
X4177866Y-12772619D01*
X4167108Y-12778829D01*
X4093893Y-12798447D01*
X3973608Y-12867895D01*
X3516109Y-13325393D01*
X3516107Y-13325395D01*
X3516106Y-13325394D01*
X3417896Y-13423605D01*
X3417895Y-13423607D01*
X3395445Y-13462492D01*
X3373764Y-13500045D01*
X3348447Y-13543894D01*
X3338126Y-13582415D01*
X3338126Y-13582416D01*
X3312500Y-13678054D01*
X3312500Y-15571164D01*
X3305471Y-15588135D01*
X2231410Y-16662195D01*
X2214439Y-16669224D01*
X2205256Y-16667397D01*
X2171444Y-16653391D01*
X2115130Y-16630065D01*
X2115121Y-16630063D01*
X1926279Y-16592500D01*
X1926275Y-16592500D01*
X1733725Y-16592500D01*
X1733720Y-16592500D01*
X1544878Y-16630063D01*
X1544869Y-16630065D01*
X1366983Y-16703747D01*
X1206882Y-16810724D01*
X1070724Y-16946882D01*
X963747Y-17106983D01*
X890065Y-17284869D01*
X890063Y-17284878D01*
X852500Y-17473720D01*
X250500Y-17473720D01*
X250500Y-14138192D01*
X632499Y-14138192D01*
X632499Y-14261807D01*
X656612Y-14383030D01*
X656615Y-14383037D01*
X703913Y-14497229D01*
X738464Y-14548938D01*
X772588Y-14600008D01*
X859991Y-14687411D01*
X921394Y-14728439D01*
X962769Y-14756085D01*
X1019865Y-14779734D01*
X1076964Y-14803385D01*
X1076967Y-14803385D01*
X1076968Y-14803386D01*
X1161004Y-14820102D01*
X1198196Y-14827500D01*
X1198200Y-14827500D01*
X1321798Y-14827500D01*
X1321802Y-14827500D01*
X1443034Y-14803385D01*
X1537865Y-14764105D01*
X1557228Y-14756085D01*
X1557229Y-14756084D01*
X1557232Y-14756083D01*
X1660007Y-14687411D01*
X1747410Y-14600008D01*
X1816082Y-14497233D01*
X1856327Y-14400071D01*
X1869315Y-14387083D01*
X1887684Y-14387083D01*
X1900673Y-14400071D01*
X1902500Y-14409256D01*
X1902500Y-14712562D01*
X1909897Y-14749746D01*
X1909897Y-14749747D01*
X1909898Y-14749748D01*
X1938078Y-14791922D01*
X1980252Y-14820102D01*
X2017442Y-14827500D01*
X2017446Y-14827500D01*
X3042554Y-14827500D01*
X3042558Y-14827500D01*
X3079748Y-14820102D01*
X3121922Y-14791922D01*
X3150102Y-14749748D01*
X3157500Y-14712558D01*
X3157500Y-13687442D01*
X3150102Y-13650252D01*
X3121922Y-13608078D01*
X3079748Y-13579898D01*
X3079747Y-13579897D01*
X3079746Y-13579897D01*
X3042562Y-13572500D01*
X3042558Y-13572500D01*
X2017442Y-13572500D01*
X2017437Y-13572500D01*
X1980253Y-13579897D01*
X1938080Y-13608076D01*
X1938076Y-13608080D01*
X1909897Y-13650253D01*
X1902500Y-13687437D01*
X1902500Y-13990743D01*
X1895471Y-14007714D01*
X1878500Y-14014743D01*
X1861529Y-14007714D01*
X1856327Y-13999927D01*
X1816084Y-13902770D01*
X1808260Y-13891061D01*
X1747410Y-13799992D01*
X1660007Y-13712589D01*
X1630476Y-13692857D01*
X1557228Y-13643914D01*
X1443036Y-13596616D01*
X1443029Y-13596613D01*
X1321806Y-13572500D01*
X1321802Y-13572500D01*
X1198196Y-13572500D01*
X1198191Y-13572500D01*
X1076968Y-13596613D01*
X1076961Y-13596616D01*
X962769Y-13643914D01*
X859993Y-13712587D01*
X772586Y-13799994D01*
X703913Y-13902770D01*
X656615Y-14016962D01*
X656612Y-14016969D01*
X632499Y-14138192D01*
X250500Y-14138192D01*
X250500Y-12172501D01*
X4073001Y-12172501D01*
X4073001Y-12327109D01*
X4075735Y-12350682D01*
X4118319Y-12447126D01*
X4192873Y-12521680D01*
X4289317Y-12564264D01*
X4289318Y-12564265D01*
X4312892Y-12566999D01*
X4409998Y-12566999D01*
X4410000Y-12566998D01*
X4410000Y-12172501D01*
X4610000Y-12172501D01*
X4610000Y-12566998D01*
X4610001Y-12566999D01*
X4707105Y-12566999D01*
X4707109Y-12566998D01*
X4730682Y-12564264D01*
X4827126Y-12521680D01*
X4901680Y-12447126D01*
X4944264Y-12350682D01*
X4944265Y-12350681D01*
X4946999Y-12327108D01*
X4947000Y-12327107D01*
X4947000Y-12172501D01*
X4946999Y-12172500D01*
X4610001Y-12172500D01*
X4610000Y-12172501D01*
X4410000Y-12172501D01*
X4409999Y-12172500D01*
X4073002Y-12172500D01*
X4073001Y-12172501D01*
X250500Y-12172501D01*
X250500Y-11980001D01*
X6308001Y-11980001D01*
X6308001Y-12082851D01*
X6310784Y-12106847D01*
X6354123Y-12205000D01*
X6429999Y-12280876D01*
X6528152Y-12324215D01*
X6528153Y-12324216D01*
X6552150Y-12326999D01*
X6692498Y-12326999D01*
X6692500Y-12326998D01*
X6692500Y-11980001D01*
X6892500Y-11980001D01*
X6892500Y-12326998D01*
X6892501Y-12326999D01*
X7032847Y-12326999D01*
X7032851Y-12326998D01*
X7056847Y-12324215D01*
X7155000Y-12280876D01*
X7230876Y-12205000D01*
X7274215Y-12106847D01*
X7274216Y-12106846D01*
X7276999Y-12082850D01*
X7277000Y-12082849D01*
X7277000Y-11980001D01*
X7276999Y-11980000D01*
X6892501Y-11980000D01*
X6892500Y-11980001D01*
X6692500Y-11980001D01*
X6692499Y-11980000D01*
X6308002Y-11980000D01*
X6308001Y-11980001D01*
X250500Y-11980001D01*
X250500Y-11817891D01*
X4073000Y-11817891D01*
X4073000Y-11972499D01*
X4073001Y-11972500D01*
X4409999Y-11972500D01*
X4410000Y-11972499D01*
X4410000Y-11578001D01*
X4610000Y-11578001D01*
X4610000Y-11972499D01*
X4610001Y-11972500D01*
X4946998Y-11972500D01*
X4946999Y-11972499D01*
X4946999Y-11817895D01*
X4946998Y-11817890D01*
X4944264Y-11794317D01*
X4901680Y-11697873D01*
X4880956Y-11677149D01*
X6308000Y-11677149D01*
X6308000Y-11779999D01*
X6308001Y-11780000D01*
X6692499Y-11780000D01*
X6692500Y-11779999D01*
X6692500Y-11433001D01*
X6892500Y-11433001D01*
X6892500Y-11779999D01*
X6892501Y-11780000D01*
X7276998Y-11780000D01*
X7276999Y-11779999D01*
X7276999Y-11677153D01*
X7276998Y-11677148D01*
X7274215Y-11653152D01*
X7230876Y-11554999D01*
X7155000Y-11479123D01*
X7056847Y-11435784D01*
X7056846Y-11435783D01*
X7032850Y-11433000D01*
X6892501Y-11433000D01*
X6892500Y-11433001D01*
X6692500Y-11433001D01*
X6692499Y-11433000D01*
X6552153Y-11433000D01*
X6552148Y-11433001D01*
X6528152Y-11435784D01*
X6429999Y-11479123D01*
X6354123Y-11554999D01*
X6310784Y-11653152D01*
X6310783Y-11653153D01*
X6308000Y-11677149D01*
X4880956Y-11677149D01*
X4827126Y-11623319D01*
X4730682Y-11580735D01*
X4730681Y-11580734D01*
X4707108Y-11578000D01*
X4610001Y-11578000D01*
X4610000Y-11578001D01*
X4410000Y-11578001D01*
X4409999Y-11578000D01*
X4312895Y-11578000D01*
X4312890Y-11578001D01*
X4289317Y-11580735D01*
X4192873Y-11623319D01*
X4118319Y-11697873D01*
X4075735Y-11794317D01*
X4075734Y-11794318D01*
X4073000Y-11817891D01*
X250500Y-11817891D01*
X250500Y-10550717D01*
X257529Y-10533746D01*
X274500Y-10526717D01*
X291471Y-10533746D01*
X295882Y-10539818D01*
X321399Y-10589898D01*
X384685Y-10714105D01*
X384689Y-10714112D01*
X506744Y-10882105D01*
X510743Y-10887609D01*
X662391Y-11039257D01*
X662394Y-11039259D01*
X662395Y-11039260D01*
X835887Y-11165310D01*
X835894Y-11165314D01*
X1026982Y-11262678D01*
X1230947Y-11328951D01*
X1442769Y-11362500D01*
X1442772Y-11362500D01*
X1657228Y-11362500D01*
X1657231Y-11362500D01*
X1869053Y-11328951D01*
X2073018Y-11262678D01*
X2264106Y-11165314D01*
X2437609Y-11039257D01*
X2589257Y-10887609D01*
X2707690Y-10724600D01*
X2715310Y-10714112D01*
X2715311Y-10714109D01*
X2715314Y-10714106D01*
X2812678Y-10523018D01*
X2878951Y-10319053D01*
X2912500Y-10107231D01*
X2912500Y-9892769D01*
X2878951Y-9680947D01*
X2812678Y-9476982D01*
X2715314Y-9285894D01*
X2715310Y-9285887D01*
X2589260Y-9112395D01*
X2589259Y-9112394D01*
X2589257Y-9112391D01*
X2437609Y-8960743D01*
X2437605Y-8960740D01*
X2437604Y-8960739D01*
X2264112Y-8834689D01*
X2264105Y-8834685D01*
X2073020Y-8737323D01*
X2073014Y-8737320D01*
X1869058Y-8671050D01*
X1869054Y-8671049D01*
X1869053Y-8671049D01*
X1657231Y-8637500D01*
X1442769Y-8637500D01*
X1230947Y-8671049D01*
X1230945Y-8671049D01*
X1230942Y-8671050D01*
X1230940Y-8671050D01*
X1026985Y-8737320D01*
X1026979Y-8737323D01*
X835894Y-8834685D01*
X835887Y-8834689D01*
X662395Y-8960739D01*
X510739Y-9112395D01*
X384689Y-9285887D01*
X384685Y-9285894D01*
X295884Y-9460178D01*
X281916Y-9472107D01*
X263604Y-9470666D01*
X251675Y-9456698D01*
X250500Y-9449282D01*
X250500Y-4458694D01*
X878113Y-4458694D01*
X878113Y-4641305D01*
X913735Y-4820391D01*
X913737Y-4820398D01*
X983615Y-4989095D01*
X983617Y-4989100D01*
X1080136Y-5133553D01*
X1460527Y-4753161D01*
X1485033Y-4795606D01*
X1559507Y-4870080D01*
X1601949Y-4894583D01*
X1221558Y-5274975D01*
X1366012Y-5371495D01*
X1366017Y-5371497D01*
X1534714Y-5441375D01*
X1534721Y-5441377D01*
X1713807Y-5476999D01*
X1713816Y-5477000D01*
X1896410Y-5477000D01*
X1896418Y-5476999D01*
X2075504Y-5441377D01*
X2075511Y-5441375D01*
X2244208Y-5371498D01*
X2388666Y-5274975D01*
X2008275Y-4894584D01*
X2050719Y-4870080D01*
X2125193Y-4795606D01*
X2149697Y-4753162D01*
X2530088Y-5133553D01*
X2626611Y-4989095D01*
X2696488Y-4820398D01*
X2696490Y-4820391D01*
X2732112Y-4641305D01*
X2732113Y-4641297D01*
X2732113Y-4458702D01*
X2732112Y-4458694D01*
X2696490Y-4279608D01*
X2696488Y-4279601D01*
X2626610Y-4110904D01*
X2626608Y-4110899D01*
X2530088Y-3966445D01*
X2149696Y-4346836D01*
X2125193Y-4304394D01*
X2050719Y-4229920D01*
X2008274Y-4205414D01*
X2388666Y-3825023D01*
X2285690Y-3756218D01*
X2285689Y-3756218D01*
X2257582Y-3737437D01*
X2877613Y-3737437D01*
X2877613Y-5362562D01*
X2885010Y-5399746D01*
X2885010Y-5399747D01*
X2885011Y-5399748D01*
X2913191Y-5441922D01*
X2955365Y-5470102D01*
X2992555Y-5477500D01*
X3221500Y-5477500D01*
X3238471Y-5484529D01*
X3245500Y-5501500D01*
X3245500Y-8092447D01*
X3249940Y-8109015D01*
X3251275Y-8113999D01*
X3281447Y-8226606D01*
X3315738Y-8286000D01*
X3315737Y-8286000D01*
X3350894Y-8346892D01*
X3450466Y-8446465D01*
X3450478Y-8446475D01*
X5787894Y-10783892D01*
X5787895Y-10783893D01*
X5787894Y-10783893D01*
X5847663Y-10843661D01*
X5886107Y-10882105D01*
X6006393Y-10951552D01*
X6140553Y-10987500D01*
X6279446Y-10987500D01*
X8638500Y-10987500D01*
X8655471Y-10994529D01*
X8662500Y-11011500D01*
X8662500Y-12641560D01*
X8655471Y-12658531D01*
X8503532Y-12810471D01*
X8486561Y-12817500D01*
X8236385Y-12817500D01*
X8219414Y-12810471D01*
X8212385Y-12793500D01*
X8214212Y-12784315D01*
X8215000Y-12782412D01*
X8215000Y-12350375D01*
X8222029Y-12333404D01*
X8236232Y-12326535D01*
X8251963Y-12324711D01*
X8350291Y-12281295D01*
X8426295Y-12205291D01*
X8469711Y-12106963D01*
X8472500Y-12082924D01*
X8472500Y-11677076D01*
X8469711Y-11653037D01*
X8426295Y-11554709D01*
X8350291Y-11478705D01*
X8350289Y-11478704D01*
X8350288Y-11478703D01*
X8251963Y-11435289D01*
X8251962Y-11435288D01*
X8227925Y-11432500D01*
X8227924Y-11432500D01*
X7747076Y-11432500D01*
X7747074Y-11432500D01*
X7723037Y-11435288D01*
X7723036Y-11435289D01*
X7624711Y-11478703D01*
X7548703Y-11554711D01*
X7505289Y-11653036D01*
X7505288Y-11653037D01*
X7502500Y-11677074D01*
X7502500Y-12082925D01*
X7505288Y-12106962D01*
X7505289Y-12106963D01*
X7548703Y-12205288D01*
X7548704Y-12205289D01*
X7548705Y-12205291D01*
X7624709Y-12281295D01*
X7723037Y-12324711D01*
X7738766Y-12326535D01*
X7754813Y-12335472D01*
X7760000Y-12350375D01*
X7760000Y-12632985D01*
X7752971Y-12649954D01*
X7654132Y-12748795D01*
X7654131Y-12748794D01*
X7590138Y-12812788D01*
X7590136Y-12812790D01*
X7590135Y-12812792D01*
X7590135Y-12812793D01*
X7556110Y-12894935D01*
X7555500Y-12896407D01*
X7555500Y-13947746D01*
X7555500Y-14038252D01*
X7590135Y-14121867D01*
X7875471Y-14407204D01*
X7882500Y-14424174D01*
X7882500Y-14425799D01*
X7885312Y-14450045D01*
X7885313Y-14450046D01*
X7929105Y-14549225D01*
X7929106Y-14549226D01*
X7929107Y-14549228D01*
X8005772Y-14625893D01*
X8104954Y-14669687D01*
X8117650Y-14671160D01*
X8133697Y-14680098D01*
X8138724Y-14697766D01*
X8129786Y-14713813D01*
X8117650Y-14718840D01*
X8104954Y-14720312D01*
X8104953Y-14720313D01*
X8005774Y-14764105D01*
X7929105Y-14840774D01*
X7885313Y-14939953D01*
X7885312Y-14939954D01*
X7882500Y-14964200D01*
X7882500Y-15115825D01*
X7875471Y-15132795D01*
X7827138Y-15181128D01*
X7827136Y-15181130D01*
X7827135Y-15181132D01*
X7827135Y-15181133D01*
X7792500Y-15264746D01*
X7792500Y-16124887D01*
X7785471Y-16141858D01*
X7778194Y-16146842D01*
X7694711Y-16183703D01*
X7618703Y-16259711D01*
X7575289Y-16358036D01*
X7575288Y-16358037D01*
X7572500Y-16382074D01*
X7572500Y-16862925D01*
X7575288Y-16886962D01*
X7575289Y-16886963D01*
X7618703Y-16985288D01*
X7618704Y-16985289D01*
X7618705Y-16985291D01*
X7694709Y-17061295D01*
X7694710Y-17061295D01*
X7694711Y-17061296D01*
X7703671Y-17065252D01*
X7793037Y-17104711D01*
X7817076Y-17107500D01*
X8222924Y-17107500D01*
X8246963Y-17104711D01*
X8345291Y-17061295D01*
X8421295Y-16985291D01*
X8430696Y-16964000D01*
X8697000Y-16964000D01*
X8697000Y-16964988D01*
X8697000Y-23286000D01*
X8724935Y-23353443D01*
X8724936Y-23353445D01*
X8724937Y-23353445D01*
X10156556Y-24785064D01*
X10156557Y-24785064D01*
X10156558Y-24785065D01*
X10223997Y-24813000D01*
X10223999Y-24813000D01*
X15726002Y-24813000D01*
X15736803Y-24808525D01*
X15753937Y-24801428D01*
X15793444Y-24785064D01*
X15845064Y-24733444D01*
X16328507Y-24250001D01*
X20326805Y-24250001D01*
X20326805Y-24312512D01*
X20334173Y-24349553D01*
X20362241Y-24391559D01*
X20362245Y-24391563D01*
X20404251Y-24419631D01*
X20441292Y-24426999D01*
X20441301Y-24427000D01*
X21003804Y-24427000D01*
X21003805Y-24426999D01*
X21003805Y-24250001D01*
X21203805Y-24250001D01*
X21203805Y-24426999D01*
X21203806Y-24427000D01*
X21766309Y-24427000D01*
X21766317Y-24426999D01*
X21803358Y-24419631D01*
X21845364Y-24391563D01*
X21845368Y-24391559D01*
X21873436Y-24349553D01*
X21880804Y-24312512D01*
X21880805Y-24312504D01*
X21880805Y-24250001D01*
X21880804Y-24250000D01*
X21203806Y-24250000D01*
X21203805Y-24250001D01*
X21003805Y-24250001D01*
X21003804Y-24250000D01*
X20326806Y-24250000D01*
X20326805Y-24250001D01*
X16328507Y-24250001D01*
X16525063Y-24053445D01*
X16525064Y-24053444D01*
X16553000Y-23986000D01*
X16553000Y-23020906D01*
X16560028Y-23003936D01*
X16596437Y-22967529D01*
X16613407Y-22960500D01*
X17031000Y-22960500D01*
X17047971Y-22967529D01*
X17055000Y-22984500D01*
X17055000Y-23002448D01*
X17066748Y-23061510D01*
X17066748Y-23061511D01*
X17066749Y-23061512D01*
X17111506Y-23128494D01*
X17178488Y-23173251D01*
X17237556Y-23185000D01*
X17237560Y-23185000D01*
X17977440Y-23185000D01*
X17977444Y-23185000D01*
X18036512Y-23173251D01*
X18103494Y-23128494D01*
X18148251Y-23061512D01*
X18160000Y-23002444D01*
X18160000Y-22984500D01*
X18167029Y-22967529D01*
X18184000Y-22960500D01*
X18281000Y-22960500D01*
X18297971Y-22967529D01*
X18305000Y-22984500D01*
X18305000Y-23002448D01*
X18316748Y-23061510D01*
X18316748Y-23061511D01*
X18316749Y-23061512D01*
X18361506Y-23128494D01*
X18428488Y-23173251D01*
X18487556Y-23185000D01*
X18487560Y-23185000D01*
X19227440Y-23185000D01*
X19227444Y-23185000D01*
X19286512Y-23173251D01*
X19353494Y-23128494D01*
X19378217Y-23091492D01*
X19393489Y-23081287D01*
X19411505Y-23084871D01*
X19415143Y-23087855D01*
X19752352Y-23425064D01*
X19752353Y-23425064D01*
X19752354Y-23425065D01*
X19819793Y-23453000D01*
X19819795Y-23453000D01*
X19819796Y-23453000D01*
X20065353Y-23453000D01*
X20082324Y-23460029D01*
X20260859Y-23638564D01*
X20260860Y-23638564D01*
X20260861Y-23638565D01*
X20311489Y-23659535D01*
X20324478Y-23672523D01*
X20326305Y-23681708D01*
X20326305Y-23812562D01*
X20333702Y-23849746D01*
X20333702Y-23849747D01*
X20333703Y-23849748D01*
X20356100Y-23883267D01*
X20358671Y-23887115D01*
X20362255Y-23905131D01*
X20358671Y-23913782D01*
X20334174Y-23950443D01*
X20334173Y-23950446D01*
X20326805Y-23987487D01*
X20326805Y-24049999D01*
X20326806Y-24050000D01*
X21880804Y-24050000D01*
X21880805Y-24049999D01*
X21880805Y-23987495D01*
X21880804Y-23987487D01*
X21873436Y-23950446D01*
X21848938Y-23913783D01*
X21845354Y-23895767D01*
X21848936Y-23887118D01*
X21873907Y-23849748D01*
X21881305Y-23812558D01*
X21881305Y-23487442D01*
X21873907Y-23450252D01*
X21848937Y-23412883D01*
X21845354Y-23394868D01*
X21848938Y-23386216D01*
X21873436Y-23349553D01*
X21880804Y-23312512D01*
X21880805Y-23312504D01*
X21880805Y-23250001D01*
X21880804Y-23250000D01*
X21127805Y-23250000D01*
X21110834Y-23242971D01*
X21103805Y-23226000D01*
X21103805Y-23074000D01*
X21110834Y-23057029D01*
X21127805Y-23050000D01*
X21880804Y-23050000D01*
X21880805Y-23049999D01*
X21880805Y-22987495D01*
X21880804Y-22987487D01*
X21873436Y-22950446D01*
X21848938Y-22913783D01*
X21845354Y-22895767D01*
X21848936Y-22887118D01*
X21873907Y-22849748D01*
X21881305Y-22812558D01*
X21881305Y-22487442D01*
X21873907Y-22450252D01*
X21848937Y-22412883D01*
X21845354Y-22394868D01*
X21848938Y-22386216D01*
X21873436Y-22349553D01*
X21880804Y-22312512D01*
X21880805Y-22312504D01*
X21880805Y-22250001D01*
X21880804Y-22250000D01*
X20326806Y-22250000D01*
X20326805Y-22250001D01*
X20326805Y-22312512D01*
X20334173Y-22349553D01*
X20358671Y-22386216D01*
X20362255Y-22404232D01*
X20358672Y-22412883D01*
X20345509Y-22432582D01*
X20343896Y-22434998D01*
X20333702Y-22450254D01*
X20326305Y-22487437D01*
X20326305Y-22618290D01*
X20319276Y-22635261D01*
X20311490Y-22640463D01*
X20284846Y-22651500D01*
X20260859Y-22661436D01*
X20260858Y-22661437D01*
X20082324Y-22839971D01*
X20065353Y-22847000D01*
X20041247Y-22847000D01*
X20024276Y-22839971D01*
X19568741Y-22384437D01*
X19568741Y-22384436D01*
X19568739Y-22384435D01*
X19521513Y-22364874D01*
X19501298Y-22356500D01*
X19501297Y-22356500D01*
X19501296Y-22356500D01*
X19434000Y-22356500D01*
X19417029Y-22349471D01*
X19410000Y-22332500D01*
X19410000Y-22312559D01*
X19409999Y-22312551D01*
X19398251Y-22253489D01*
X19398251Y-22253488D01*
X19353494Y-22186506D01*
X19339947Y-22177454D01*
X19329743Y-22162182D01*
X19333327Y-22144166D01*
X19339948Y-22137545D01*
X19353494Y-22128494D01*
X19398251Y-22061512D01*
X19410000Y-22002444D01*
X19410000Y-21977000D01*
X19417029Y-21960029D01*
X19434000Y-21953000D01*
X19467002Y-21953000D01*
X19479134Y-21947974D01*
X19494937Y-21941428D01*
X19534444Y-21925064D01*
X19586064Y-21873444D01*
X19586063Y-21873444D01*
X19682792Y-21776715D01*
X19999480Y-21460029D01*
X20016451Y-21453000D01*
X20033550Y-21453000D01*
X20050521Y-21460029D01*
X20229056Y-21638564D01*
X20229057Y-21638564D01*
X20229058Y-21638565D01*
X20296497Y-21666500D01*
X20296499Y-21666500D01*
X20296500Y-21666500D01*
X20302305Y-21666500D01*
X20319276Y-21673529D01*
X20326305Y-21690500D01*
X20326305Y-21812562D01*
X20333702Y-21849746D01*
X20358671Y-21887115D01*
X20362255Y-21905131D01*
X20358671Y-21913782D01*
X20334174Y-21950443D01*
X20334173Y-21950446D01*
X20326805Y-21987487D01*
X20326805Y-22049999D01*
X20326806Y-22050000D01*
X21880804Y-22050000D01*
X21880805Y-22049999D01*
X21880805Y-21987495D01*
X21880804Y-21987487D01*
X21873436Y-21950446D01*
X21848938Y-21913783D01*
X21845354Y-21895767D01*
X21848936Y-21887118D01*
X21873907Y-21849748D01*
X21881305Y-21812558D01*
X21881305Y-21487442D01*
X21873907Y-21450252D01*
X21848937Y-21412883D01*
X21845354Y-21394868D01*
X21848938Y-21386216D01*
X21873436Y-21349553D01*
X21880804Y-21312512D01*
X21880805Y-21312504D01*
X21880805Y-21250001D01*
X21880804Y-21250000D01*
X20369450Y-21250000D01*
X20352479Y-21242971D01*
X20276479Y-21166971D01*
X20269450Y-21150000D01*
X20276479Y-21133029D01*
X20352479Y-21057029D01*
X20369450Y-21050000D01*
X21880804Y-21050000D01*
X21880805Y-21049999D01*
X21880805Y-20987495D01*
X21880804Y-20987487D01*
X21873436Y-20950446D01*
X21848938Y-20913783D01*
X21845354Y-20895767D01*
X21848936Y-20887118D01*
X21873907Y-20849748D01*
X21881305Y-20812558D01*
X21881305Y-20487442D01*
X21873907Y-20450252D01*
X21848937Y-20412883D01*
X21845354Y-20394868D01*
X21848938Y-20386216D01*
X21873436Y-20349553D01*
X21880804Y-20312512D01*
X21880805Y-20312504D01*
X21880805Y-20250001D01*
X21880804Y-20250000D01*
X20326806Y-20250000D01*
X20326805Y-20250001D01*
X20326805Y-20312512D01*
X20334173Y-20349553D01*
X20358671Y-20386216D01*
X20362255Y-20404232D01*
X20358672Y-20412883D01*
X20333702Y-20450254D01*
X20326305Y-20487437D01*
X20326305Y-20609500D01*
X20319276Y-20626471D01*
X20302305Y-20633500D01*
X20296497Y-20633500D01*
X20229058Y-20661434D01*
X20050521Y-20839971D01*
X20033550Y-20847000D01*
X19795000Y-20847000D01*
X19727558Y-20874934D01*
X19399202Y-21203288D01*
X19382232Y-21210317D01*
X19365343Y-21203369D01*
X19363624Y-21201666D01*
X19353494Y-21186506D01*
X19337580Y-21175872D01*
X19335943Y-21174251D01*
X19333211Y-21167745D01*
X19329293Y-21161881D01*
X19329761Y-21159527D01*
X19328832Y-21157315D01*
X19331500Y-21150783D01*
X19332877Y-21143865D01*
X19335329Y-21141412D01*
X19335780Y-21140310D01*
X19336903Y-21139838D01*
X19339499Y-21137243D01*
X19353132Y-21128134D01*
X19353137Y-21128129D01*
X19397778Y-21061319D01*
X19397779Y-21061316D01*
X19408484Y-21007500D01*
X18306517Y-21007500D01*
X18317220Y-21061315D01*
X18317222Y-21061320D01*
X18361862Y-21128129D01*
X18361867Y-21128134D01*
X18375500Y-21137243D01*
X18385706Y-21152516D01*
X18382123Y-21170532D01*
X18375501Y-21177154D01*
X18361509Y-21186503D01*
X18361504Y-21186508D01*
X18316748Y-21253489D01*
X18305000Y-21312551D01*
X18305000Y-21330500D01*
X18297971Y-21347471D01*
X18281000Y-21354500D01*
X18184000Y-21354500D01*
X18167029Y-21347471D01*
X18160000Y-21330500D01*
X18160000Y-21312559D01*
X18159999Y-21312551D01*
X18148251Y-21253489D01*
X18148251Y-21253488D01*
X18103494Y-21186506D01*
X18089497Y-21177153D01*
X18079293Y-21161881D01*
X18082877Y-21143865D01*
X18089499Y-21137243D01*
X18103132Y-21128134D01*
X18103137Y-21128129D01*
X18147778Y-21061319D01*
X18147779Y-21061316D01*
X18158484Y-21007500D01*
X17056517Y-21007500D01*
X17067220Y-21061315D01*
X17067222Y-21061320D01*
X17111862Y-21128129D01*
X17111867Y-21128134D01*
X17125500Y-21137243D01*
X17135706Y-21152516D01*
X17132123Y-21170532D01*
X17125501Y-21177154D01*
X17111509Y-21186503D01*
X17111504Y-21186508D01*
X17084580Y-21226803D01*
X17073777Y-21242971D01*
X17066748Y-21253490D01*
X17058720Y-21293850D01*
X17048515Y-21309123D01*
X17030499Y-21312707D01*
X17018210Y-21306139D01*
X16790029Y-21077958D01*
X16783000Y-21060987D01*
X16783000Y-19925799D01*
X16790029Y-19908828D01*
X16886306Y-19812551D01*
X17055000Y-19812551D01*
X17055000Y-20002448D01*
X17066748Y-20061510D01*
X17066748Y-20061511D01*
X17066749Y-20061512D01*
X17111506Y-20128494D01*
X17111509Y-20128496D01*
X17125051Y-20137545D01*
X17135256Y-20152818D01*
X17131672Y-20170834D01*
X17125051Y-20177455D01*
X17111509Y-20186503D01*
X17111504Y-20186508D01*
X17066748Y-20253489D01*
X17055000Y-20312551D01*
X17055000Y-20502448D01*
X17066748Y-20561510D01*
X17066748Y-20561511D01*
X17066749Y-20561512D01*
X17111506Y-20628494D01*
X17125501Y-20637845D01*
X17135706Y-20653118D01*
X17132122Y-20671134D01*
X17125501Y-20677755D01*
X17111869Y-20686863D01*
X17111862Y-20686870D01*
X17067221Y-20753680D01*
X17067220Y-20753683D01*
X17056516Y-20807500D01*
X18158482Y-20807500D01*
X18147779Y-20753684D01*
X18147777Y-20753679D01*
X18103137Y-20686870D01*
X18103129Y-20686862D01*
X18089499Y-20677755D01*
X18079293Y-20662482D01*
X18082877Y-20644467D01*
X18089494Y-20637848D01*
X18103494Y-20628494D01*
X18148251Y-20561512D01*
X18160000Y-20502444D01*
X18160000Y-20484500D01*
X18167029Y-20467529D01*
X18184000Y-20460500D01*
X18281000Y-20460500D01*
X18297971Y-20467529D01*
X18305000Y-20484500D01*
X18305000Y-20502448D01*
X18316748Y-20561510D01*
X18316748Y-20561511D01*
X18316749Y-20561512D01*
X18361506Y-20628494D01*
X18375501Y-20637845D01*
X18385706Y-20653118D01*
X18382122Y-20671134D01*
X18375501Y-20677755D01*
X18361869Y-20686863D01*
X18361862Y-20686870D01*
X18317221Y-20753680D01*
X18317220Y-20753683D01*
X18306516Y-20807500D01*
X19408482Y-20807500D01*
X19397779Y-20753684D01*
X19397777Y-20753679D01*
X19353137Y-20686870D01*
X19353129Y-20686862D01*
X19339499Y-20677755D01*
X19329293Y-20662482D01*
X19332877Y-20644467D01*
X19339494Y-20637848D01*
X19353494Y-20628494D01*
X19398251Y-20561512D01*
X19410000Y-20502444D01*
X19410000Y-20416396D01*
X19417029Y-20399425D01*
X19513454Y-20303000D01*
X19621064Y-20195391D01*
X19649000Y-20127947D01*
X19649000Y-20054945D01*
X19649000Y-19780449D01*
X19656028Y-19763479D01*
X19831404Y-19588104D01*
X19847078Y-19550264D01*
X19859340Y-19520662D01*
X19859340Y-19487437D01*
X20326305Y-19487437D01*
X20326305Y-19812562D01*
X20333702Y-19849746D01*
X20358671Y-19887115D01*
X20362255Y-19905131D01*
X20358671Y-19913782D01*
X20334174Y-19950443D01*
X20334173Y-19950446D01*
X20326805Y-19987487D01*
X20326805Y-20049999D01*
X20326806Y-20050000D01*
X21880804Y-20050000D01*
X21880805Y-20049999D01*
X21880805Y-19987495D01*
X21880804Y-19987487D01*
X21873436Y-19950446D01*
X21848938Y-19913783D01*
X21845354Y-19895767D01*
X21848936Y-19887118D01*
X21873907Y-19849748D01*
X21881305Y-19812558D01*
X21881305Y-19487442D01*
X21873907Y-19450252D01*
X21848937Y-19412883D01*
X21845354Y-19394868D01*
X21848938Y-19386216D01*
X21873436Y-19349553D01*
X21880804Y-19312512D01*
X21880805Y-19312504D01*
X21880805Y-19250001D01*
X21880804Y-19250000D01*
X20326806Y-19250000D01*
X20326805Y-19250001D01*
X20326805Y-19312512D01*
X20334173Y-19349553D01*
X20358671Y-19386216D01*
X20362255Y-19404232D01*
X20358672Y-19412883D01*
X20333702Y-19450254D01*
X20326305Y-19487437D01*
X19859340Y-19487437D01*
X19859340Y-18857500D01*
X19866369Y-18840529D01*
X19883340Y-18833500D01*
X20310936Y-18833500D01*
X20327907Y-18840529D01*
X20333106Y-18848309D01*
X20333700Y-18849743D01*
X20358671Y-18887115D01*
X20362255Y-18905131D01*
X20358671Y-18913782D01*
X20334174Y-18950443D01*
X20334173Y-18950446D01*
X20326805Y-18987487D01*
X20326805Y-19049999D01*
X20326806Y-19050000D01*
X21880804Y-19050000D01*
X21880805Y-19049999D01*
X21880805Y-18987495D01*
X21880804Y-18987487D01*
X21873436Y-18950446D01*
X21848938Y-18913783D01*
X21845354Y-18895767D01*
X21848936Y-18887118D01*
X21873907Y-18849748D01*
X21881305Y-18812558D01*
X21881305Y-18487442D01*
X21873907Y-18450252D01*
X21848937Y-18412883D01*
X21845354Y-18394868D01*
X21848938Y-18386216D01*
X21873436Y-18349553D01*
X21880804Y-18312512D01*
X21880805Y-18312504D01*
X21880805Y-18250001D01*
X21880804Y-18250000D01*
X20326806Y-18250000D01*
X20326805Y-18250001D01*
X20326805Y-18312512D01*
X20334173Y-18349553D01*
X20358671Y-18386216D01*
X20362255Y-18404232D01*
X20358672Y-18412883D01*
X20333700Y-18450257D01*
X20333106Y-18451691D01*
X20320114Y-18464676D01*
X20310936Y-18466500D01*
X19732496Y-18466500D01*
X19709420Y-18476059D01*
X19709419Y-18476059D01*
X19665054Y-18494435D01*
X19665052Y-18494436D01*
X19665053Y-18494437D01*
X19571896Y-18587594D01*
X19571895Y-18587593D01*
X19520275Y-18639214D01*
X19511142Y-18661267D01*
X19509968Y-18664101D01*
X19496660Y-18696230D01*
X19492691Y-18705811D01*
X19492688Y-18705818D01*
X19492340Y-18706657D01*
X19492340Y-19398210D01*
X19485311Y-19415181D01*
X19437471Y-19463021D01*
X19420500Y-19470050D01*
X19403529Y-19463021D01*
X19396500Y-19446050D01*
X19396500Y-18923433D01*
X19396163Y-18922618D01*
X19385327Y-18896458D01*
X19383500Y-18887273D01*
X19383500Y-18005950D01*
X19390529Y-17988979D01*
X19538979Y-17840529D01*
X19555950Y-17833500D01*
X20310936Y-17833500D01*
X20327907Y-17840529D01*
X20333106Y-17848309D01*
X20333700Y-17849743D01*
X20333702Y-17849747D01*
X20333703Y-17849748D01*
X20350193Y-17874427D01*
X20358671Y-17887115D01*
X20362255Y-17905131D01*
X20358671Y-17913782D01*
X20334174Y-17950443D01*
X20334173Y-17950446D01*
X20326805Y-17987487D01*
X20326805Y-18049999D01*
X20326806Y-18050000D01*
X21880804Y-18050000D01*
X21880805Y-18049999D01*
X21880805Y-17987495D01*
X21880804Y-17987487D01*
X21873436Y-17950446D01*
X21848938Y-17913783D01*
X21845354Y-17895767D01*
X21848936Y-17887118D01*
X21873907Y-17849748D01*
X21881305Y-17812558D01*
X21881305Y-17487442D01*
X21873907Y-17450252D01*
X21848937Y-17412883D01*
X21845354Y-17394868D01*
X21848938Y-17386216D01*
X21873436Y-17349553D01*
X21880804Y-17312512D01*
X21880805Y-17312504D01*
X21880805Y-17250001D01*
X21880804Y-17250000D01*
X20326806Y-17250000D01*
X20326805Y-17250001D01*
X20326805Y-17312512D01*
X20334173Y-17349553D01*
X20358671Y-17386216D01*
X20362255Y-17404232D01*
X20358672Y-17412883D01*
X20333700Y-17450257D01*
X20333106Y-17451691D01*
X20320114Y-17464676D01*
X20310936Y-17466500D01*
X19433497Y-17466500D01*
X19366058Y-17494434D01*
X19096056Y-17764436D01*
X19096055Y-17764435D01*
X19044439Y-17816052D01*
X19044437Y-17816054D01*
X19044436Y-17816056D01*
X19028742Y-17853944D01*
X19028251Y-17855130D01*
X19020259Y-17874425D01*
X19020259Y-17874427D01*
X19016500Y-17883500D01*
X19016500Y-18983435D01*
X19021885Y-18996435D01*
X19027673Y-19010408D01*
X19029500Y-19019593D01*
X19029500Y-19466049D01*
X19022471Y-19483020D01*
X18882521Y-19622971D01*
X18865550Y-19630000D01*
X18487551Y-19630000D01*
X18428489Y-19641748D01*
X18361508Y-19686504D01*
X18361504Y-19686508D01*
X18316748Y-19753489D01*
X18305000Y-19812551D01*
X18305000Y-19830500D01*
X18297971Y-19847471D01*
X18281000Y-19854500D01*
X18184000Y-19854500D01*
X18167029Y-19847471D01*
X18160000Y-19830500D01*
X18160000Y-19812559D01*
X18159999Y-19812554D01*
X18148251Y-19753488D01*
X18103494Y-19686506D01*
X18036512Y-19641749D01*
X18036511Y-19641748D01*
X18036510Y-19641748D01*
X17977448Y-19630000D01*
X17977444Y-19630000D01*
X17237556Y-19630000D01*
X17237551Y-19630000D01*
X17178489Y-19641748D01*
X17111508Y-19686504D01*
X17111504Y-19686508D01*
X17066748Y-19753489D01*
X17055000Y-19812551D01*
X16886306Y-19812551D01*
X17417533Y-19281325D01*
X17434504Y-19274296D01*
X18074706Y-19274296D01*
X18093867Y-19266358D01*
X18116325Y-19257056D01*
X18142148Y-19246360D01*
X18193768Y-19194740D01*
X18193767Y-19194740D01*
X18785064Y-18603445D01*
X18813000Y-18536001D01*
X18813000Y-18462999D01*
X18813000Y-17374000D01*
X18811939Y-17371437D01*
X18808027Y-17361993D01*
X18785065Y-17306557D01*
X18785064Y-17306556D01*
X18785064Y-17306555D01*
X18228510Y-16750001D01*
X20326805Y-16750001D01*
X20326805Y-16812512D01*
X20334173Y-16849553D01*
X20334174Y-16849556D01*
X20358971Y-16886667D01*
X20362555Y-16904682D01*
X20358971Y-16913333D01*
X20334174Y-16950443D01*
X20334173Y-16950446D01*
X20326805Y-16987487D01*
X20326805Y-17049999D01*
X20326806Y-17050000D01*
X21003804Y-17050000D01*
X21003805Y-17049999D01*
X21003805Y-16750001D01*
X21203805Y-16750001D01*
X21203805Y-17049999D01*
X21203806Y-17050000D01*
X21880804Y-17050000D01*
X21880805Y-17049999D01*
X21880805Y-16987495D01*
X21880804Y-16987487D01*
X21873436Y-16950446D01*
X21848638Y-16913334D01*
X21845054Y-16895318D01*
X21848638Y-16886666D01*
X21873436Y-16849553D01*
X21880804Y-16812512D01*
X21880805Y-16812504D01*
X21880805Y-16750001D01*
X21880804Y-16750000D01*
X21203806Y-16750000D01*
X21203805Y-16750001D01*
X21003805Y-16750001D01*
X21003804Y-16750000D01*
X20326806Y-16750000D01*
X20326805Y-16750001D01*
X18228510Y-16750001D01*
X17203445Y-15724937D01*
X17203445Y-15724936D01*
X17203443Y-15724935D01*
X17151951Y-15703607D01*
X17136002Y-15697000D01*
X17136001Y-15697000D01*
X17136000Y-15697000D01*
X16051500Y-15697000D01*
X16034529Y-15689971D01*
X16027500Y-15673000D01*
X16027500Y-15602445D01*
X16027499Y-15602437D01*
X16020936Y-15569445D01*
X16020102Y-15565252D01*
X15991922Y-15523078D01*
X15986798Y-15519654D01*
X15976593Y-15504381D01*
X15980177Y-15486365D01*
X15986801Y-15479742D01*
X15991560Y-15476562D01*
X15991563Y-15476559D01*
X16019631Y-15434553D01*
X16026999Y-15397512D01*
X16027000Y-15397504D01*
X16027000Y-15350001D01*
X16026999Y-15350000D01*
X14473001Y-15350000D01*
X14473000Y-15350001D01*
X14473000Y-15397512D01*
X14480368Y-15434553D01*
X14508436Y-15476559D01*
X14508439Y-15476562D01*
X14513200Y-15479743D01*
X14523406Y-15495016D01*
X14519823Y-15513032D01*
X14513203Y-15519653D01*
X14508080Y-15523076D01*
X14508076Y-15523080D01*
X14479897Y-15565253D01*
X14472500Y-15602437D01*
X14472500Y-15897562D01*
X14479897Y-15934746D01*
X14479897Y-15934747D01*
X14479898Y-15934748D01*
X14508078Y-15976922D01*
X14508081Y-15976924D01*
X14508082Y-15976925D01*
X14512752Y-15980046D01*
X14522956Y-15995319D01*
X14519371Y-16013335D01*
X14512752Y-16019954D01*
X14508082Y-16023074D01*
X14508076Y-16023080D01*
X14479897Y-16065253D01*
X14472500Y-16102437D01*
X14472500Y-16397562D01*
X14479897Y-16434746D01*
X14479897Y-16434747D01*
X14479898Y-16434748D01*
X14508078Y-16476922D01*
X14512750Y-16480044D01*
X14522956Y-16495316D01*
X14519373Y-16513332D01*
X14512753Y-16519953D01*
X14508079Y-16523076D01*
X14508075Y-16523080D01*
X14479896Y-16565253D01*
X14472499Y-16602437D01*
X14472499Y-16897562D01*
X14479896Y-16934746D01*
X14479896Y-16934747D01*
X14479897Y-16934748D01*
X14508077Y-16976922D01*
X14512751Y-16980045D01*
X14522956Y-16995318D01*
X14519372Y-17013334D01*
X14512752Y-17019954D01*
X14508082Y-17023074D01*
X14508076Y-17023080D01*
X14479897Y-17065253D01*
X14472500Y-17102437D01*
X14472500Y-17397562D01*
X14479897Y-17434746D01*
X14479897Y-17434747D01*
X14479898Y-17434748D01*
X14508078Y-17476922D01*
X14508081Y-17476924D01*
X14508082Y-17476925D01*
X14512752Y-17480046D01*
X14522956Y-17495319D01*
X14519371Y-17513335D01*
X14512752Y-17519954D01*
X14508082Y-17523074D01*
X14508076Y-17523080D01*
X14479897Y-17565253D01*
X14472500Y-17602437D01*
X14472500Y-17897562D01*
X14479897Y-17934746D01*
X14479897Y-17934747D01*
X14479898Y-17934748D01*
X14508078Y-17976922D01*
X14508081Y-17976924D01*
X14508082Y-17976925D01*
X14512752Y-17980046D01*
X14522956Y-17995319D01*
X14519371Y-18013335D01*
X14512752Y-18019954D01*
X14508082Y-18023074D01*
X14508076Y-18023080D01*
X14479897Y-18065253D01*
X14472500Y-18102437D01*
X14472500Y-18397562D01*
X14479897Y-18434746D01*
X14479897Y-18434747D01*
X14479898Y-18434748D01*
X14508078Y-18476922D01*
X14508081Y-18476924D01*
X14508082Y-18476925D01*
X14512752Y-18480046D01*
X14522956Y-18495319D01*
X14519371Y-18513335D01*
X14512752Y-18519954D01*
X14508082Y-18523074D01*
X14508076Y-18523080D01*
X14479897Y-18565253D01*
X14472500Y-18602437D01*
X14472500Y-18897562D01*
X14479897Y-18934746D01*
X14479897Y-18934747D01*
X14479898Y-18934748D01*
X14508078Y-18976922D01*
X14512750Y-18980044D01*
X14522956Y-18995316D01*
X14519373Y-19013332D01*
X14512753Y-19019953D01*
X14508079Y-19023076D01*
X14508075Y-19023080D01*
X14479896Y-19065253D01*
X14472499Y-19102437D01*
X14472499Y-19397562D01*
X14479896Y-19434746D01*
X14479896Y-19434747D01*
X14479897Y-19434748D01*
X14508077Y-19476922D01*
X14512751Y-19480045D01*
X14522956Y-19495318D01*
X14519372Y-19513334D01*
X14512752Y-19519954D01*
X14508082Y-19523074D01*
X14508076Y-19523080D01*
X14479897Y-19565253D01*
X14472500Y-19602437D01*
X14472500Y-19673000D01*
X14465471Y-19689971D01*
X14448500Y-19697000D01*
X14355931Y-19697000D01*
X14338960Y-19689971D01*
X14210029Y-19561040D01*
X14203000Y-19544069D01*
X14203000Y-13235449D01*
X14210029Y-13218479D01*
X14215501Y-13213006D01*
X14270637Y-13157869D01*
X14287608Y-13150840D01*
X14304578Y-13157869D01*
X14311608Y-13174840D01*
X14311147Y-13179522D01*
X14292500Y-13273267D01*
X14292500Y-14526732D01*
X14318534Y-14657614D01*
X14318535Y-14657618D01*
X14318536Y-14657619D01*
X14323329Y-14669191D01*
X14369604Y-14780913D01*
X14400732Y-14827499D01*
X14443751Y-14891881D01*
X14527845Y-14975975D01*
X14534874Y-14992945D01*
X14527845Y-15009916D01*
X14524208Y-15012900D01*
X14508441Y-15023435D01*
X14508436Y-15023440D01*
X14480368Y-15065446D01*
X14473000Y-15102487D01*
X14473000Y-15149999D01*
X14473001Y-15150000D01*
X16026999Y-15150000D01*
X16027000Y-15149999D01*
X16027000Y-15140001D01*
X17813001Y-15140001D01*
X17813001Y-15281359D01*
X17815686Y-15304516D01*
X17815687Y-15304517D01*
X17857515Y-15399251D01*
X17930748Y-15472484D01*
X18025481Y-15514312D01*
X18025482Y-15514313D01*
X18048642Y-15516999D01*
X18139998Y-15516999D01*
X18140000Y-15516998D01*
X18140000Y-15140001D01*
X18340000Y-15140001D01*
X18340000Y-15516998D01*
X18340001Y-15516999D01*
X18431355Y-15516999D01*
X18431359Y-15516998D01*
X18454516Y-15514313D01*
X18454517Y-15514312D01*
X18549251Y-15472484D01*
X18622484Y-15399251D01*
X18664312Y-15304518D01*
X18664313Y-15304517D01*
X18666999Y-15281358D01*
X18667000Y-15281357D01*
X18667000Y-15140001D01*
X18666999Y-15140000D01*
X18340001Y-15140000D01*
X18340000Y-15140001D01*
X18140000Y-15140001D01*
X18139999Y-15140000D01*
X17813002Y-15140000D01*
X17813001Y-15140001D01*
X16027000Y-15140001D01*
X16027000Y-15102495D01*
X16026999Y-15102487D01*
X16019631Y-15065446D01*
X15991563Y-15023440D01*
X15991559Y-15023436D01*
X15949553Y-14995368D01*
X15912512Y-14988000D01*
X15458072Y-14988000D01*
X15441101Y-14980971D01*
X15434072Y-14964000D01*
X15441101Y-14947030D01*
X15480621Y-14907509D01*
X15496249Y-14891881D01*
X15558550Y-14798641D01*
X17813000Y-14798641D01*
X17813000Y-14939999D01*
X17813001Y-14940000D01*
X18139999Y-14940000D01*
X18140000Y-14939999D01*
X18140000Y-14563001D01*
X18340000Y-14563001D01*
X18340000Y-14939999D01*
X18340001Y-14940000D01*
X18666998Y-14940000D01*
X18666999Y-14939999D01*
X18666999Y-14798645D01*
X18666998Y-14798640D01*
X18664313Y-14775483D01*
X18664312Y-14775482D01*
X18622484Y-14680748D01*
X18549251Y-14607515D01*
X18454518Y-14565687D01*
X18454517Y-14565686D01*
X18431358Y-14563000D01*
X18340001Y-14563000D01*
X18340000Y-14563001D01*
X18140000Y-14563001D01*
X18139999Y-14563000D01*
X18048645Y-14563000D01*
X18048640Y-14563001D01*
X18025483Y-14565686D01*
X18025482Y-14565687D01*
X17930748Y-14607515D01*
X17857515Y-14680748D01*
X17815687Y-14775481D01*
X17815686Y-14775482D01*
X17813000Y-14798641D01*
X15558550Y-14798641D01*
X15570393Y-14780917D01*
X15621464Y-14657619D01*
X15647500Y-14526728D01*
X15647500Y-13273272D01*
X15646824Y-13269877D01*
X15621465Y-13142385D01*
X15621464Y-13142384D01*
X15621464Y-13142381D01*
X15579038Y-13039953D01*
X15570395Y-13019086D01*
X15528156Y-12955871D01*
X15496249Y-12908119D01*
X15401881Y-12813751D01*
X15349617Y-12778829D01*
X15290913Y-12739604D01*
X15167621Y-12688537D01*
X15167614Y-12688534D01*
X15036732Y-12662500D01*
X15036728Y-12662500D01*
X14903272Y-12662500D01*
X14903267Y-12662500D01*
X14809521Y-12681148D01*
X14791505Y-12677564D01*
X14781300Y-12662291D01*
X14784884Y-12644275D01*
X14787863Y-12640643D01*
X15288505Y-12140001D01*
X21158000Y-12140001D01*
X21158000Y-12162360D01*
X21171170Y-12228571D01*
X21221340Y-12303655D01*
X21221344Y-12303659D01*
X21296428Y-12353829D01*
X21362639Y-12366999D01*
X21362648Y-12367000D01*
X21502499Y-12367000D01*
X21502500Y-12366999D01*
X21502500Y-12140001D01*
X21502499Y-12140000D01*
X21158001Y-12140000D01*
X21158000Y-12140001D01*
X15288505Y-12140001D01*
X15419881Y-12008625D01*
X15436851Y-12001597D01*
X15453820Y-12008625D01*
X15484466Y-12039271D01*
X15484467Y-12039271D01*
X15484468Y-12039272D01*
X15551907Y-12067207D01*
X15551909Y-12067207D01*
X15759614Y-12067207D01*
X15759616Y-12067207D01*
X15799122Y-12050841D01*
X15827058Y-12039271D01*
X15878678Y-11987651D01*
X15878678Y-11987650D01*
X15948689Y-11917639D01*
X21158000Y-11917639D01*
X21158000Y-11939999D01*
X21158001Y-11940000D01*
X21502499Y-11940000D01*
X21502500Y-11939999D01*
X21502500Y-11713001D01*
X21702500Y-11713001D01*
X21702500Y-12366999D01*
X21702501Y-12367000D01*
X21842352Y-12367000D01*
X21842360Y-12366999D01*
X21908571Y-12353829D01*
X21983655Y-12303659D01*
X21983660Y-12303654D01*
X21989743Y-12294550D01*
X22005015Y-12284343D01*
X22023031Y-12287926D01*
X22029654Y-12294548D01*
X22035738Y-12303654D01*
X22035982Y-12304018D01*
X22111234Y-12354300D01*
X22177594Y-12367500D01*
X22223316Y-12367500D01*
X22235315Y-12370714D01*
X22271791Y-12391774D01*
X22367801Y-12417500D01*
X22527498Y-12417500D01*
X22544469Y-12424529D01*
X23119276Y-12999336D01*
X23126305Y-13016307D01*
X23126305Y-14662562D01*
X23133702Y-14699746D01*
X23133702Y-14699747D01*
X23133703Y-14699748D01*
X23161883Y-14741922D01*
X23204057Y-14770102D01*
X23241247Y-14777500D01*
X23241251Y-14777500D01*
X25466359Y-14777500D01*
X25466363Y-14777500D01*
X25503553Y-14770102D01*
X25545727Y-14741922D01*
X25573907Y-14699748D01*
X25581305Y-14662558D01*
X25581305Y-12737442D01*
X25573907Y-12700252D01*
X25545727Y-12658078D01*
X25503553Y-12629898D01*
X25503552Y-12629897D01*
X25503551Y-12629897D01*
X25466367Y-12622500D01*
X25466363Y-12622500D01*
X23820113Y-12622500D01*
X23803142Y-12615471D01*
X23605171Y-12417500D01*
X22925595Y-11737925D01*
X22839515Y-11688226D01*
X22839514Y-11688225D01*
X22839513Y-11688225D01*
X22778644Y-11671915D01*
X22743504Y-11662500D01*
X22367801Y-11662500D01*
X22342076Y-11669393D01*
X22271792Y-11688225D01*
X22235316Y-11709285D01*
X22223316Y-11712500D01*
X22177589Y-11712500D01*
X22111235Y-11725699D01*
X22035984Y-11775980D01*
X22035978Y-11775986D01*
X22029653Y-11785452D01*
X22014380Y-11795656D01*
X21996364Y-11792071D01*
X21989743Y-11785450D01*
X21983658Y-11776343D01*
X21983655Y-11776340D01*
X21908571Y-11726170D01*
X21842360Y-11713000D01*
X21702501Y-11713000D01*
X21702500Y-11713001D01*
X21502500Y-11713001D01*
X21502499Y-11713000D01*
X21362639Y-11713000D01*
X21296428Y-11726170D01*
X21221344Y-11776340D01*
X21221340Y-11776344D01*
X21171170Y-11851428D01*
X21158000Y-11917639D01*
X15948689Y-11917639D01*
X16013381Y-11852947D01*
X16041317Y-11785503D01*
X16041317Y-11712501D01*
X16041317Y-11712500D01*
X16041317Y-11577799D01*
X16040572Y-11576001D01*
X16027501Y-11544445D01*
X16013381Y-11510355D01*
X16003425Y-11500399D01*
X15982735Y-11479708D01*
X15975706Y-11462738D01*
X15982735Y-11445769D01*
X16008882Y-11419623D01*
X16008886Y-11419620D01*
X16012258Y-11416248D01*
X16012259Y-11416248D01*
X16099559Y-11328949D01*
X16148480Y-11280029D01*
X16165450Y-11273000D01*
X21116002Y-11273000D01*
X21126803Y-11268525D01*
X21143937Y-11261428D01*
X21183444Y-11245064D01*
X21235064Y-11193444D01*
X22535739Y-9892769D01*
X23787500Y-9892769D01*
X23787500Y-10107231D01*
X23807679Y-10234635D01*
X23821050Y-10319057D01*
X23821050Y-10319059D01*
X23887320Y-10523014D01*
X23887323Y-10523020D01*
X23984685Y-10714105D01*
X23984689Y-10714112D01*
X24106744Y-10882105D01*
X24110743Y-10887609D01*
X24262391Y-11039257D01*
X24262394Y-11039259D01*
X24262395Y-11039260D01*
X24435887Y-11165310D01*
X24435894Y-11165314D01*
X24626982Y-11262678D01*
X24830947Y-11328951D01*
X25042769Y-11362500D01*
X25042772Y-11362500D01*
X25257228Y-11362500D01*
X25257231Y-11362500D01*
X25469053Y-11328951D01*
X25673018Y-11262678D01*
X25864106Y-11165314D01*
X26037609Y-11039257D01*
X26189257Y-10887609D01*
X26307690Y-10724600D01*
X26315310Y-10714112D01*
X26315311Y-10714109D01*
X26315314Y-10714106D01*
X26412678Y-10523018D01*
X26478951Y-10319053D01*
X26512500Y-10107231D01*
X26512500Y-9892769D01*
X26478951Y-9680947D01*
X26412678Y-9476982D01*
X26315314Y-9285894D01*
X26315310Y-9285887D01*
X26189260Y-9112395D01*
X26189259Y-9112394D01*
X26189257Y-9112391D01*
X26037609Y-8960743D01*
X26037605Y-8960740D01*
X26037604Y-8960739D01*
X25864112Y-8834689D01*
X25864105Y-8834685D01*
X25673020Y-8737323D01*
X25673014Y-8737320D01*
X25469058Y-8671050D01*
X25469054Y-8671049D01*
X25469053Y-8671049D01*
X25257231Y-8637500D01*
X25042769Y-8637500D01*
X24830947Y-8671049D01*
X24830945Y-8671049D01*
X24830942Y-8671050D01*
X24830940Y-8671050D01*
X24626985Y-8737320D01*
X24626979Y-8737323D01*
X24435894Y-8834685D01*
X24435887Y-8834689D01*
X24262395Y-8960739D01*
X24110739Y-9112395D01*
X23984689Y-9285887D01*
X23984685Y-9285894D01*
X23887323Y-9476979D01*
X23887320Y-9476985D01*
X23821050Y-9680940D01*
X23821050Y-9680942D01*
X23821049Y-9680945D01*
X23821049Y-9680947D01*
X23787500Y-9892769D01*
X22535739Y-9892769D01*
X24075064Y-8353444D01*
X24103000Y-8286001D01*
X24103000Y-8212999D01*
X24103000Y-6498950D01*
X24110028Y-6481980D01*
X24205564Y-6386446D01*
X24209063Y-6378000D01*
X24233500Y-6319002D01*
X24233500Y-6178875D01*
X24240529Y-6161904D01*
X24244166Y-6158920D01*
X24270994Y-6140994D01*
X24315751Y-6074012D01*
X24327500Y-6014944D01*
X24327500Y-5275056D01*
X24315751Y-5215988D01*
X24270994Y-5149006D01*
X24204012Y-5104249D01*
X24204011Y-5104248D01*
X24204010Y-5104248D01*
X24144948Y-5092500D01*
X24144944Y-5092500D01*
X24127000Y-5092500D01*
X24110029Y-5085471D01*
X24103000Y-5068500D01*
X24103000Y-4971500D01*
X24110029Y-4954529D01*
X24127000Y-4947500D01*
X24144940Y-4947500D01*
X24144944Y-4947500D01*
X24204012Y-4935751D01*
X24270994Y-4890994D01*
X24315751Y-4824012D01*
X24327500Y-4764944D01*
X24327500Y-4025056D01*
X24315751Y-3965988D01*
X24270994Y-3899006D01*
X24244166Y-3881079D01*
X24233961Y-3865806D01*
X24233500Y-3861124D01*
X24233500Y-3720997D01*
X24227520Y-3706561D01*
X24227520Y-3706560D01*
X24205564Y-3653554D01*
X24174510Y-3622500D01*
X24110029Y-3558018D01*
X24103000Y-3541048D01*
X24103000Y-3023999D01*
X24095359Y-3005554D01*
X24089952Y-2992500D01*
X24075064Y-2956556D01*
X24070658Y-2952150D01*
X24023444Y-2904935D01*
X24023444Y-2904936D01*
X21703445Y-584937D01*
X21703444Y-584936D01*
X21663937Y-568571D01*
X21663936Y-568570D01*
X21636002Y-557000D01*
X21636001Y-557000D01*
X21636000Y-557000D01*
X11427001Y-557000D01*
X11353999Y-557000D01*
X11353997Y-557000D01*
X11286558Y-584934D01*
X9546556Y-2324936D01*
X9546555Y-2324935D01*
X9494934Y-2376557D01*
X9467000Y-2443999D01*
X9467000Y-3023549D01*
X9459971Y-3040520D01*
X9166056Y-3334435D01*
X9166055Y-3334434D01*
X9114435Y-3386055D01*
X9105148Y-3408479D01*
X9103276Y-3412999D01*
X9095829Y-3430978D01*
X9087036Y-3452205D01*
X9086500Y-3453498D01*
X9086500Y-3672131D01*
X9079471Y-3689102D01*
X9071689Y-3694302D01*
X9070253Y-3694896D01*
X9032884Y-3719866D01*
X9014868Y-3723450D01*
X9006216Y-3719866D01*
X8969553Y-3695368D01*
X8932512Y-3688000D01*
X8870001Y-3688000D01*
X8870000Y-3688001D01*
X8870000Y-5241999D01*
X8870001Y-5242000D01*
X8932504Y-5242000D01*
X8932512Y-5241999D01*
X8969553Y-5234631D01*
X9006216Y-5210133D01*
X9024232Y-5206549D01*
X9032882Y-5210132D01*
X9070252Y-5235102D01*
X9107442Y-5242500D01*
X9107446Y-5242500D01*
X9432554Y-5242500D01*
X9432558Y-5242500D01*
X9469748Y-5235102D01*
X9507117Y-5210132D01*
X9525131Y-5206549D01*
X9533783Y-5210133D01*
X9570446Y-5234631D01*
X9607487Y-5241999D01*
X9607496Y-5242000D01*
X9669999Y-5242000D01*
X9670000Y-5241999D01*
X9670000Y-3688001D01*
X9669999Y-3688000D01*
X9607487Y-3688000D01*
X9570446Y-3695368D01*
X9570443Y-3695369D01*
X9533782Y-3719866D01*
X9515767Y-3723450D01*
X9507115Y-3719866D01*
X9469746Y-3694896D01*
X9468311Y-3694302D01*
X9455325Y-3681311D01*
X9453500Y-3672131D01*
X9453500Y-3575949D01*
X9460529Y-3558978D01*
X9753029Y-3266478D01*
X9770000Y-3259449D01*
X9786971Y-3266478D01*
X10079471Y-3558978D01*
X10086500Y-3575949D01*
X10086500Y-3672131D01*
X10079471Y-3689102D01*
X10071689Y-3694302D01*
X10070253Y-3694896D01*
X10032884Y-3719866D01*
X10014868Y-3723450D01*
X10006216Y-3719866D01*
X9969553Y-3695368D01*
X9932512Y-3688000D01*
X9870001Y-3688000D01*
X9870000Y-3688001D01*
X9870000Y-5241999D01*
X9870001Y-5242000D01*
X9932504Y-5242000D01*
X9932512Y-5241999D01*
X9969553Y-5234631D01*
X10006216Y-5210133D01*
X10024232Y-5206549D01*
X10032882Y-5210132D01*
X10070252Y-5235102D01*
X10107442Y-5242500D01*
X10107446Y-5242500D01*
X10432554Y-5242500D01*
X10432558Y-5242500D01*
X10469748Y-5235102D01*
X10507117Y-5210132D01*
X10525131Y-5206549D01*
X10533783Y-5210133D01*
X10570446Y-5234631D01*
X10607487Y-5241999D01*
X10607496Y-5242000D01*
X10669999Y-5242000D01*
X10670000Y-5241999D01*
X10670000Y-3688001D01*
X10669999Y-3688000D01*
X10607487Y-3688000D01*
X10570446Y-3695368D01*
X10570443Y-3695369D01*
X10533782Y-3719866D01*
X10515767Y-3723450D01*
X10507115Y-3719866D01*
X10469746Y-3694896D01*
X10468311Y-3694302D01*
X10455325Y-3681311D01*
X10453500Y-3672131D01*
X10453500Y-3453498D01*
X10452964Y-3452205D01*
X10452963Y-3452204D01*
X10449357Y-3443499D01*
X10436724Y-3412999D01*
X10425564Y-3386055D01*
X10406948Y-3367439D01*
X10373944Y-3334434D01*
X10373944Y-3334435D01*
X10080029Y-3040520D01*
X10073000Y-3023549D01*
X10073000Y-2665450D01*
X10080029Y-2648479D01*
X10365063Y-2363445D01*
X10403573Y-2324935D01*
X10431483Y-2297025D01*
X10431482Y-2297025D01*
X10736248Y-1992262D01*
X10736248Y-1992261D01*
X10765768Y-1962741D01*
X10782739Y-1955712D01*
X10799710Y-1962741D01*
X10918734Y-2081765D01*
X10918733Y-2081765D01*
X10952294Y-2115325D01*
X10970354Y-2133385D01*
X10993886Y-2143132D01*
X11037796Y-2161321D01*
X11037797Y-2161321D01*
X11245505Y-2161321D01*
X11265721Y-2152946D01*
X11289417Y-2143131D01*
X11312946Y-2133385D01*
X11364566Y-2081765D01*
X11364566Y-2081764D01*
X11499271Y-1947059D01*
X11527207Y-1879615D01*
X11527207Y-1843444D01*
X11527207Y-1671911D01*
X11525464Y-1667704D01*
X11499271Y-1604467D01*
X11328625Y-1433821D01*
X11321597Y-1416852D01*
X11328625Y-1399882D01*
X11558479Y-1170029D01*
X11575450Y-1163000D01*
X21414550Y-1163000D01*
X21431521Y-1170029D01*
X23489971Y-3228479D01*
X23497000Y-3245450D01*
X23497000Y-3541049D01*
X23489971Y-3558018D01*
X23446056Y-3601935D01*
X23446055Y-3601934D01*
X23394435Y-3653555D01*
X23386109Y-3673659D01*
X23380376Y-3687500D01*
X23378651Y-3691665D01*
X23376234Y-3697500D01*
X23366500Y-3720998D01*
X23366500Y-3861124D01*
X23359471Y-3878095D01*
X23355834Y-3881079D01*
X23329009Y-3899003D01*
X23329003Y-3899009D01*
X23319955Y-3912551D01*
X23304682Y-3922756D01*
X23286666Y-3919172D01*
X23280045Y-3912551D01*
X23270996Y-3899009D01*
X23270995Y-3899008D01*
X23270994Y-3899006D01*
X23244166Y-3881079D01*
X23233961Y-3865806D01*
X23233500Y-3861124D01*
X23233500Y-3720997D01*
X23227520Y-3706561D01*
X23227520Y-3706560D01*
X23205564Y-3653554D01*
X23174510Y-3622500D01*
X23110029Y-3558018D01*
X23103000Y-3541048D01*
X23103000Y-3203999D01*
X23098056Y-3192065D01*
X23098056Y-3192064D01*
X23075065Y-3136558D01*
X23075064Y-3136557D01*
X23075064Y-3136556D01*
X21283445Y-1344937D01*
X21283444Y-1344936D01*
X21243937Y-1328571D01*
X21243936Y-1328570D01*
X21216002Y-1317000D01*
X21216001Y-1317000D01*
X21216000Y-1317000D01*
X13107001Y-1317000D01*
X13033999Y-1317000D01*
X13033998Y-1317000D01*
X13006063Y-1328570D01*
X13006063Y-1328571D01*
X12966556Y-1344936D01*
X12966554Y-1344937D01*
X12966552Y-1344939D01*
X11546556Y-2764936D01*
X11546555Y-2764935D01*
X11494934Y-2816557D01*
X11467000Y-2883999D01*
X11467000Y-3023549D01*
X11459971Y-3040520D01*
X11166056Y-3334435D01*
X11166055Y-3334434D01*
X11114435Y-3386055D01*
X11105148Y-3408479D01*
X11103276Y-3412999D01*
X11095829Y-3430978D01*
X11087036Y-3452205D01*
X11086500Y-3453498D01*
X11086500Y-3672131D01*
X11079471Y-3689102D01*
X11071689Y-3694302D01*
X11070253Y-3694896D01*
X11032884Y-3719866D01*
X11014868Y-3723450D01*
X11006216Y-3719866D01*
X10969553Y-3695368D01*
X10932512Y-3688000D01*
X10870001Y-3688000D01*
X10870000Y-3688001D01*
X10870000Y-5241999D01*
X10870001Y-5242000D01*
X10932504Y-5242000D01*
X10932512Y-5241999D01*
X10969553Y-5234631D01*
X11006216Y-5210133D01*
X11024232Y-5206549D01*
X11032882Y-5210132D01*
X11070252Y-5235102D01*
X11107442Y-5242500D01*
X11107446Y-5242500D01*
X11432554Y-5242500D01*
X11432558Y-5242500D01*
X11469748Y-5235102D01*
X11507117Y-5210132D01*
X11525131Y-5206549D01*
X11533783Y-5210133D01*
X11570446Y-5234631D01*
X11607487Y-5241999D01*
X11607496Y-5242000D01*
X11669999Y-5242000D01*
X11670000Y-5241999D01*
X11670000Y-3688001D01*
X11669999Y-3688000D01*
X11607487Y-3688000D01*
X11570446Y-3695368D01*
X11570443Y-3695369D01*
X11533782Y-3719866D01*
X11515767Y-3723450D01*
X11507115Y-3719866D01*
X11469746Y-3694896D01*
X11468311Y-3694302D01*
X11455325Y-3681311D01*
X11453500Y-3672131D01*
X11453500Y-3575949D01*
X11460529Y-3558978D01*
X11753029Y-3266478D01*
X11770000Y-3259449D01*
X11786971Y-3266478D01*
X12079471Y-3558978D01*
X12086500Y-3575949D01*
X12086500Y-3672131D01*
X12079471Y-3689102D01*
X12071689Y-3694302D01*
X12070253Y-3694896D01*
X12032884Y-3719866D01*
X12014868Y-3723450D01*
X12006216Y-3719866D01*
X11969553Y-3695368D01*
X11932512Y-3688000D01*
X11870001Y-3688000D01*
X11870000Y-3688001D01*
X11870000Y-5241999D01*
X11870001Y-5242000D01*
X11932504Y-5242000D01*
X11932512Y-5241999D01*
X11969553Y-5234631D01*
X12006216Y-5210133D01*
X12024232Y-5206549D01*
X12032882Y-5210132D01*
X12070252Y-5235102D01*
X12107442Y-5242500D01*
X12107446Y-5242500D01*
X12432554Y-5242500D01*
X12432558Y-5242500D01*
X12469748Y-5235102D01*
X12507117Y-5210132D01*
X12525131Y-5206549D01*
X12533783Y-5210133D01*
X12570446Y-5234631D01*
X12607487Y-5241999D01*
X12607496Y-5242000D01*
X12669999Y-5242000D01*
X12670000Y-5241999D01*
X12670000Y-3688001D01*
X12870000Y-3688001D01*
X12870000Y-5241999D01*
X12870001Y-5242000D01*
X12932504Y-5242000D01*
X12932512Y-5241999D01*
X12969553Y-5234631D01*
X13006216Y-5210133D01*
X13024232Y-5206549D01*
X13032882Y-5210132D01*
X13070252Y-5235102D01*
X13107442Y-5242500D01*
X13107446Y-5242500D01*
X13432554Y-5242500D01*
X13432558Y-5242500D01*
X13469748Y-5235102D01*
X13507117Y-5210132D01*
X13525131Y-5206549D01*
X13533783Y-5210133D01*
X13570446Y-5234631D01*
X13607487Y-5241999D01*
X13607496Y-5242000D01*
X13669999Y-5242000D01*
X13670000Y-5241999D01*
X13670000Y-3688001D01*
X13870000Y-3688001D01*
X13870000Y-5241999D01*
X13870001Y-5242000D01*
X13932504Y-5242000D01*
X13932512Y-5241999D01*
X13969553Y-5234631D01*
X14006216Y-5210133D01*
X14024232Y-5206549D01*
X14032882Y-5210132D01*
X14070252Y-5235102D01*
X14070254Y-5235102D01*
X14071685Y-5235695D01*
X14084674Y-5248685D01*
X14086500Y-5257868D01*
X14086500Y-6206500D01*
X14114435Y-6273943D01*
X14114436Y-6273945D01*
X14114437Y-6273945D01*
X14436056Y-6595564D01*
X14436057Y-6595564D01*
X14436058Y-6595565D01*
X14503497Y-6623500D01*
X18117865Y-6623500D01*
X18117865Y-6624644D01*
X18131813Y-6627404D01*
X18142034Y-6642666D01*
X18142500Y-6647373D01*
X18142500Y-8827562D01*
X18149897Y-8864746D01*
X18149897Y-8864747D01*
X18149898Y-8864748D01*
X18178078Y-8906922D01*
X18220252Y-8935102D01*
X18257442Y-8942500D01*
X18257446Y-8942500D01*
X20182554Y-8942500D01*
X20182558Y-8942500D01*
X20219748Y-8935102D01*
X20261922Y-8906922D01*
X20290102Y-8864748D01*
X20297500Y-8827558D01*
X20297500Y-8179000D01*
X20304529Y-8162029D01*
X20321500Y-8155000D01*
X20677518Y-8155000D01*
X20689015Y-8158487D01*
X20689053Y-8158396D01*
X20689979Y-8158780D01*
X20690850Y-8159044D01*
X20691230Y-8159298D01*
X20691232Y-8159298D01*
X20691234Y-8159300D01*
X20757594Y-8172500D01*
X20757598Y-8172500D01*
X21002402Y-8172500D01*
X21002406Y-8172500D01*
X21068766Y-8159300D01*
X21144018Y-8109018D01*
X21194300Y-8033766D01*
X21196849Y-8020945D01*
X21203417Y-8008657D01*
X21222085Y-7989991D01*
X21278367Y-7892509D01*
X21307500Y-7783781D01*
X21307500Y-7671219D01*
X21278367Y-7562491D01*
X21222085Y-7465009D01*
X21222083Y-7465007D01*
X21203417Y-7446340D01*
X21196849Y-7434051D01*
X21194300Y-7421235D01*
X21194299Y-7421232D01*
X21163412Y-7375007D01*
X21144018Y-7345982D01*
X21134548Y-7339654D01*
X21124343Y-7324381D01*
X21127927Y-7306365D01*
X21134550Y-7299743D01*
X21143654Y-7293660D01*
X21143659Y-7293655D01*
X21193829Y-7218571D01*
X21206999Y-7152360D01*
X21207000Y-7152352D01*
X21207000Y-7012501D01*
X21206999Y-7012500D01*
X20553001Y-7012500D01*
X20553000Y-7012501D01*
X20553000Y-7152360D01*
X20566170Y-7218571D01*
X20595634Y-7262666D01*
X20599218Y-7280682D01*
X20589013Y-7295955D01*
X20575679Y-7300000D01*
X20321500Y-7300000D01*
X20304529Y-7292971D01*
X20297500Y-7276000D01*
X20297500Y-6672639D01*
X20553000Y-6672639D01*
X20553000Y-6812499D01*
X20553001Y-6812500D01*
X20779999Y-6812500D01*
X20780000Y-6812499D01*
X20780000Y-6468001D01*
X20980000Y-6468001D01*
X20980000Y-6812499D01*
X20980001Y-6812500D01*
X21206999Y-6812500D01*
X21207000Y-6812499D01*
X21207000Y-6672647D01*
X21206999Y-6672639D01*
X21193829Y-6606428D01*
X21143659Y-6531344D01*
X21143655Y-6531340D01*
X21068571Y-6481170D01*
X21002360Y-6468000D01*
X20980001Y-6468000D01*
X20980000Y-6468001D01*
X20780000Y-6468001D01*
X20779999Y-6468000D01*
X20757639Y-6468000D01*
X20691428Y-6481170D01*
X20616344Y-6531340D01*
X20616340Y-6531344D01*
X20566170Y-6606428D01*
X20553000Y-6672639D01*
X20297500Y-6672639D01*
X20297500Y-6602445D01*
X20297499Y-6602437D01*
X20290102Y-6565253D01*
X20290102Y-6565252D01*
X20261922Y-6523078D01*
X20219748Y-6494898D01*
X20219747Y-6494897D01*
X20219746Y-6494897D01*
X20182562Y-6487500D01*
X20182558Y-6487500D01*
X19038950Y-6487500D01*
X19021979Y-6480471D01*
X19014950Y-6463500D01*
X19021979Y-6446529D01*
X19309588Y-6158920D01*
X20195064Y-5273444D01*
X20210946Y-5235101D01*
X20223000Y-5206002D01*
X20223000Y-3995454D01*
X20230029Y-3978483D01*
X20568484Y-3640029D01*
X20585455Y-3633000D01*
X20956341Y-3633000D01*
X20973312Y-3640029D01*
X20989971Y-3656688D01*
X20997000Y-3673659D01*
X20997000Y-3818500D01*
X20989971Y-3835471D01*
X20973000Y-3842500D01*
X20955051Y-3842500D01*
X20895989Y-3854248D01*
X20829008Y-3899004D01*
X20829004Y-3899008D01*
X20784248Y-3965989D01*
X20772500Y-4025051D01*
X20772500Y-4764948D01*
X20784248Y-4824010D01*
X20784248Y-4824011D01*
X20784249Y-4824012D01*
X20829006Y-4890994D01*
X20895988Y-4935751D01*
X20955056Y-4947500D01*
X20973000Y-4947500D01*
X20989971Y-4954529D01*
X20997000Y-4971500D01*
X20997000Y-5068500D01*
X20989971Y-5085471D01*
X20973000Y-5092500D01*
X20955051Y-5092500D01*
X20895989Y-5104248D01*
X20829008Y-5149004D01*
X20829004Y-5149008D01*
X20784248Y-5215989D01*
X20772500Y-5275051D01*
X20772500Y-6014948D01*
X20784248Y-6074010D01*
X20784248Y-6074011D01*
X20784249Y-6074012D01*
X20829006Y-6140994D01*
X20895988Y-6185751D01*
X20955056Y-6197500D01*
X20955060Y-6197500D01*
X21144940Y-6197500D01*
X21144944Y-6197500D01*
X21204012Y-6185751D01*
X21270994Y-6140994D01*
X21280045Y-6127447D01*
X21295318Y-6117243D01*
X21313334Y-6120827D01*
X21319954Y-6127447D01*
X21329006Y-6140994D01*
X21395988Y-6185751D01*
X21455056Y-6197500D01*
X21455060Y-6197500D01*
X21644940Y-6197500D01*
X21644944Y-6197500D01*
X21704012Y-6185751D01*
X21770994Y-6140994D01*
X21780346Y-6126997D01*
X21795617Y-6116793D01*
X21813633Y-6120376D01*
X21820255Y-6126999D01*
X21829362Y-6140629D01*
X21829370Y-6140637D01*
X21896180Y-6185278D01*
X21896183Y-6185279D01*
X21950000Y-6195983D01*
X21950000Y-5094016D01*
X21896183Y-5104720D01*
X21896180Y-5104721D01*
X21829370Y-5149362D01*
X21829363Y-5149369D01*
X21820255Y-5163001D01*
X21804982Y-5173206D01*
X21786966Y-5169622D01*
X21780345Y-5163001D01*
X21780344Y-5163000D01*
X21770994Y-5149006D01*
X21704012Y-5104249D01*
X21704011Y-5104248D01*
X21704010Y-5104248D01*
X21644948Y-5092500D01*
X21644944Y-5092500D01*
X21627000Y-5092500D01*
X21610029Y-5085471D01*
X21603000Y-5068500D01*
X21603000Y-4971500D01*
X21610029Y-4954529D01*
X21627000Y-4947500D01*
X21644940Y-4947500D01*
X21644944Y-4947500D01*
X21704012Y-4935751D01*
X21770994Y-4890994D01*
X21780346Y-4876997D01*
X21795617Y-4866793D01*
X21813633Y-4870376D01*
X21820255Y-4876999D01*
X21829362Y-4890629D01*
X21829370Y-4890637D01*
X21896180Y-4935278D01*
X21896183Y-4935279D01*
X21950000Y-4945983D01*
X21950000Y-3844016D01*
X21896183Y-3854720D01*
X21896180Y-3854721D01*
X21829370Y-3899362D01*
X21829363Y-3899369D01*
X21820255Y-3913001D01*
X21804982Y-3923206D01*
X21786966Y-3919622D01*
X21780345Y-3913001D01*
X21780344Y-3913000D01*
X21770994Y-3899006D01*
X21704012Y-3854249D01*
X21704011Y-3854248D01*
X21704010Y-3854248D01*
X21644948Y-3842500D01*
X21644944Y-3842500D01*
X21627000Y-3842500D01*
X21610029Y-3835471D01*
X21603000Y-3818500D01*
X21603000Y-3452210D01*
X21603000Y-3452209D01*
X21599393Y-3443499D01*
X21575064Y-3384764D01*
X21245236Y-3054937D01*
X21245235Y-3054936D01*
X21205728Y-3038571D01*
X21205727Y-3038570D01*
X21177793Y-3027000D01*
X21177792Y-3027000D01*
X21177791Y-3027000D01*
X20437005Y-3027000D01*
X20364003Y-3027000D01*
X20364002Y-3027000D01*
X20296561Y-3054934D01*
X20296559Y-3054935D01*
X20296559Y-3054936D01*
X19696556Y-3654940D01*
X19696555Y-3654939D01*
X19644936Y-3706560D01*
X19644935Y-3706560D01*
X19638955Y-3720999D01*
X19634836Y-3730944D01*
X19619899Y-3767007D01*
X19618159Y-3771207D01*
X19618158Y-3771210D01*
X19617000Y-3774004D01*
X19617000Y-4984549D01*
X19609971Y-5001520D01*
X18609021Y-6002471D01*
X18592050Y-6009500D01*
X18024503Y-6009500D01*
X17951501Y-6009500D01*
X17936596Y-6015673D01*
X17927414Y-6017500D01*
X15706951Y-6017500D01*
X15689980Y-6010471D01*
X15573529Y-5894020D01*
X15566500Y-5877049D01*
X15566500Y-5683434D01*
X15565701Y-5681504D01*
X15538565Y-5615990D01*
X15410529Y-5487953D01*
X15403500Y-5470983D01*
X15403500Y-5266500D01*
X15410529Y-5249529D01*
X15427500Y-5242500D01*
X15432554Y-5242500D01*
X15432558Y-5242500D01*
X15469748Y-5235102D01*
X15507117Y-5210132D01*
X15525131Y-5206549D01*
X15533783Y-5210133D01*
X15570446Y-5234631D01*
X15607487Y-5241999D01*
X15607496Y-5242000D01*
X15669999Y-5242000D01*
X15670000Y-5241999D01*
X15670000Y-4565001D01*
X15870000Y-4565001D01*
X15870000Y-5241999D01*
X15870001Y-5242000D01*
X15932504Y-5242000D01*
X15932512Y-5241999D01*
X15969553Y-5234631D01*
X16006666Y-5209833D01*
X16024682Y-5206249D01*
X16033334Y-5209833D01*
X16070446Y-5234631D01*
X16107487Y-5241999D01*
X16107496Y-5242000D01*
X16169999Y-5242000D01*
X16170000Y-5241999D01*
X16170000Y-4565001D01*
X16169999Y-4565000D01*
X15870001Y-4565000D01*
X15870000Y-4565001D01*
X15670000Y-4565001D01*
X15670000Y-3688001D01*
X15870000Y-3688001D01*
X15870000Y-4364999D01*
X15870001Y-4365000D01*
X16169999Y-4365000D01*
X16170000Y-4364999D01*
X16170000Y-3688001D01*
X16370000Y-3688001D01*
X16370000Y-5241999D01*
X16370001Y-5242000D01*
X16432504Y-5242000D01*
X16432512Y-5241999D01*
X16469553Y-5234631D01*
X16506216Y-5210133D01*
X16524232Y-5206549D01*
X16532882Y-5210132D01*
X16570252Y-5235102D01*
X16607442Y-5242500D01*
X16607446Y-5242500D01*
X16932554Y-5242500D01*
X16932558Y-5242500D01*
X16969748Y-5235102D01*
X17006668Y-5210432D01*
X17024682Y-5206849D01*
X17033330Y-5210431D01*
X17070252Y-5235102D01*
X17107442Y-5242500D01*
X17107446Y-5242500D01*
X17432554Y-5242500D01*
X17432558Y-5242500D01*
X17469748Y-5235102D01*
X17511922Y-5206922D01*
X17540102Y-5164748D01*
X17547500Y-5127558D01*
X17547500Y-4645786D01*
X17550715Y-4633786D01*
X17575181Y-4591410D01*
X17597500Y-4508116D01*
X17597500Y-3391439D01*
X17604529Y-3374468D01*
X17621500Y-3367439D01*
X17638471Y-3374468D01*
X17685471Y-3421468D01*
X17692500Y-3438439D01*
X17692500Y-3973719D01*
X17692500Y-4613719D01*
X17692500Y-4736281D01*
X17721633Y-4845009D01*
X17777915Y-4942491D01*
X17857509Y-5022085D01*
X17954991Y-5078367D01*
X18063719Y-5107500D01*
X18176281Y-5107500D01*
X18285009Y-5078367D01*
X18382491Y-5022085D01*
X18462085Y-4942491D01*
X18518367Y-4845009D01*
X18547500Y-4736281D01*
X18547500Y-4613719D01*
X18547500Y-3973719D01*
X18547500Y-3430978D01*
X18550715Y-3418978D01*
X18611552Y-3313608D01*
X18647500Y-3179446D01*
X18647500Y-3040554D01*
X18615198Y-2920001D01*
X18795501Y-2920001D01*
X18795501Y-3061359D01*
X18798186Y-3084516D01*
X18798187Y-3084517D01*
X18840015Y-3179251D01*
X18913248Y-3252484D01*
X19007981Y-3294312D01*
X19007982Y-3294313D01*
X19031142Y-3296999D01*
X19122498Y-3296999D01*
X19122500Y-3296998D01*
X19122500Y-2920001D01*
X19322500Y-2920001D01*
X19322500Y-3296998D01*
X19322501Y-3296999D01*
X19413855Y-3296999D01*
X19413859Y-3296998D01*
X19437016Y-3294313D01*
X19437017Y-3294312D01*
X19531751Y-3252484D01*
X19604984Y-3179251D01*
X19646812Y-3084518D01*
X19646813Y-3084517D01*
X19649499Y-3061358D01*
X19649500Y-3061357D01*
X19649500Y-2920001D01*
X19649499Y-2920000D01*
X19322501Y-2920000D01*
X19322500Y-2920001D01*
X19122500Y-2920001D01*
X19122499Y-2920000D01*
X18795502Y-2920000D01*
X18795501Y-2920001D01*
X18615198Y-2920001D01*
X18611552Y-2906392D01*
X18542105Y-2786108D01*
X18334638Y-2578641D01*
X18795500Y-2578641D01*
X18795500Y-2719999D01*
X18795501Y-2720000D01*
X19122499Y-2720000D01*
X19122500Y-2719999D01*
X19122500Y-2343001D01*
X19322500Y-2343001D01*
X19322500Y-2719999D01*
X19322501Y-2720000D01*
X19649498Y-2720000D01*
X19649499Y-2719999D01*
X19649499Y-2578645D01*
X19649498Y-2578640D01*
X19646813Y-2555483D01*
X19646812Y-2555482D01*
X19604984Y-2460748D01*
X19531751Y-2387515D01*
X19437018Y-2345687D01*
X19437017Y-2345686D01*
X19413858Y-2343000D01*
X19322501Y-2343000D01*
X19322500Y-2343001D01*
X19122500Y-2343001D01*
X19122499Y-2343000D01*
X19031145Y-2343000D01*
X19031140Y-2343001D01*
X19007983Y-2345686D01*
X19007982Y-2345687D01*
X18913248Y-2387515D01*
X18840015Y-2460748D01*
X18798187Y-2555481D01*
X18798186Y-2555482D01*
X18795500Y-2578641D01*
X18334638Y-2578641D01*
X18153892Y-2397895D01*
X18033608Y-2328448D01*
X18033607Y-2328447D01*
X18033606Y-2328447D01*
X17948550Y-2305657D01*
X17899446Y-2292500D01*
X17760554Y-2292500D01*
X17678242Y-2314554D01*
X17660033Y-2312158D01*
X17653607Y-2308448D01*
X17653604Y-2308447D01*
X17568650Y-2285684D01*
X17519447Y-2272500D01*
X16830553Y-2272500D01*
X16794606Y-2282131D01*
X16696394Y-2308447D01*
X16576107Y-2377895D01*
X16477895Y-2476107D01*
X16408447Y-2596394D01*
X16392608Y-2655508D01*
X16372500Y-2730553D01*
X16372500Y-2869447D01*
X16408448Y-3003607D01*
X16438083Y-3054936D01*
X16439285Y-3057017D01*
X16442500Y-3069017D01*
X16442500Y-3664000D01*
X16435471Y-3680971D01*
X16418500Y-3688000D01*
X16370001Y-3688000D01*
X16370000Y-3688001D01*
X16170000Y-3688001D01*
X16169999Y-3688000D01*
X16107487Y-3688000D01*
X16070446Y-3695368D01*
X16070443Y-3695369D01*
X16033333Y-3720166D01*
X16015318Y-3723750D01*
X16006667Y-3720166D01*
X15969556Y-3695369D01*
X15969553Y-3695368D01*
X15932512Y-3688000D01*
X15870001Y-3688000D01*
X15870000Y-3688001D01*
X15670000Y-3688001D01*
X15669999Y-3688000D01*
X15607487Y-3688000D01*
X15570446Y-3695368D01*
X15570443Y-3695369D01*
X15533782Y-3719866D01*
X15515767Y-3723450D01*
X15507115Y-3719866D01*
X15477762Y-3700253D01*
X15469748Y-3694898D01*
X15469747Y-3694897D01*
X15469746Y-3694897D01*
X15432562Y-3687500D01*
X15432558Y-3687500D01*
X15107442Y-3687500D01*
X15107437Y-3687500D01*
X15070254Y-3694897D01*
X15070252Y-3694897D01*
X15070252Y-3694898D01*
X15062238Y-3700253D01*
X15032883Y-3719867D01*
X15014867Y-3723450D01*
X15006216Y-3719866D01*
X14969553Y-3695368D01*
X14932512Y-3688000D01*
X14870001Y-3688000D01*
X14870000Y-3688001D01*
X14870000Y-5241999D01*
X14870001Y-5242000D01*
X14932504Y-5242000D01*
X14932512Y-5241999D01*
X14969553Y-5234631D01*
X14999166Y-5214844D01*
X15017182Y-5211260D01*
X15032455Y-5221465D01*
X15036500Y-5234799D01*
X15036500Y-5593435D01*
X15045843Y-5615990D01*
X15045843Y-5615991D01*
X15064435Y-5660877D01*
X15064436Y-5660879D01*
X15064437Y-5660879D01*
X15192471Y-5788913D01*
X15199500Y-5805884D01*
X15199500Y-5999500D01*
X15227435Y-6066943D01*
X15227436Y-6066945D01*
X15227437Y-6066945D01*
X15376020Y-6215529D01*
X15383049Y-6232500D01*
X15376020Y-6249471D01*
X15359049Y-6256500D01*
X14625950Y-6256500D01*
X14608979Y-6249471D01*
X14460529Y-6101021D01*
X14453500Y-6084050D01*
X14453500Y-5257868D01*
X14460529Y-5240897D01*
X14468315Y-5235695D01*
X14469741Y-5235103D01*
X14469748Y-5235102D01*
X14507117Y-5210132D01*
X14525131Y-5206549D01*
X14533783Y-5210133D01*
X14570446Y-5234631D01*
X14607487Y-5241999D01*
X14607496Y-5242000D01*
X14669999Y-5242000D01*
X14670000Y-5241999D01*
X14670000Y-3688001D01*
X14669999Y-3688000D01*
X14607487Y-3688000D01*
X14570446Y-3695368D01*
X14570443Y-3695369D01*
X14533782Y-3719866D01*
X14515767Y-3723450D01*
X14507115Y-3719866D01*
X14477762Y-3700253D01*
X14469748Y-3694898D01*
X14469747Y-3694897D01*
X14469746Y-3694897D01*
X14432562Y-3687500D01*
X14432558Y-3687500D01*
X14107442Y-3687500D01*
X14107437Y-3687500D01*
X14070254Y-3694897D01*
X14070252Y-3694897D01*
X14070252Y-3694898D01*
X14062238Y-3700253D01*
X14032883Y-3719867D01*
X14014867Y-3723450D01*
X14006216Y-3719866D01*
X13969553Y-3695368D01*
X13932512Y-3688000D01*
X13870001Y-3688000D01*
X13870000Y-3688001D01*
X13670000Y-3688001D01*
X13669999Y-3688000D01*
X13607487Y-3688000D01*
X13570446Y-3695368D01*
X13570443Y-3695369D01*
X13533782Y-3719866D01*
X13515767Y-3723450D01*
X13507115Y-3719866D01*
X13477762Y-3700253D01*
X13469748Y-3694898D01*
X13469747Y-3694897D01*
X13469746Y-3694897D01*
X13432562Y-3687500D01*
X13432558Y-3687500D01*
X13107442Y-3687500D01*
X13107437Y-3687500D01*
X13070254Y-3694897D01*
X13070252Y-3694897D01*
X13070252Y-3694898D01*
X13062238Y-3700253D01*
X13032883Y-3719867D01*
X13014867Y-3723450D01*
X13006216Y-3719866D01*
X12969553Y-3695368D01*
X12932512Y-3688000D01*
X12870001Y-3688000D01*
X12870000Y-3688001D01*
X12670000Y-3688001D01*
X12669999Y-3688000D01*
X12607487Y-3688000D01*
X12570446Y-3695368D01*
X12570443Y-3695369D01*
X12533782Y-3719866D01*
X12515767Y-3723450D01*
X12507115Y-3719866D01*
X12469746Y-3694896D01*
X12468311Y-3694302D01*
X12455325Y-3681311D01*
X12453500Y-3672131D01*
X12453500Y-3453498D01*
X12452964Y-3452205D01*
X12452963Y-3452204D01*
X12449357Y-3443499D01*
X12436724Y-3412999D01*
X12425564Y-3386055D01*
X12406948Y-3367439D01*
X12373944Y-3334434D01*
X12373944Y-3334435D01*
X12120979Y-3081470D01*
X12113950Y-3064499D01*
X12120979Y-3047528D01*
X13238479Y-1930029D01*
X13255450Y-1923000D01*
X19977750Y-1923000D01*
X19994721Y-1930029D01*
X20001750Y-1947000D01*
X20001750Y-2188326D01*
X20029685Y-2255769D01*
X20029686Y-2255771D01*
X20029687Y-2255771D01*
X20176555Y-2402640D01*
X20176556Y-2402640D01*
X20176557Y-2402641D01*
X20243998Y-2430576D01*
X20243999Y-2430576D01*
X20507502Y-2430576D01*
X20524744Y-2423433D01*
X20544952Y-2415063D01*
X20574944Y-2402640D01*
X20626564Y-2351020D01*
X20626563Y-2351020D01*
X20721814Y-2255771D01*
X20749750Y-2188327D01*
X20749750Y-2115325D01*
X20749750Y-1947000D01*
X20756779Y-1930029D01*
X20773750Y-1923000D01*
X20994550Y-1923000D01*
X21011521Y-1930029D01*
X22489971Y-3408479D01*
X22497000Y-3425450D01*
X22497000Y-3541049D01*
X22489971Y-3558018D01*
X22446056Y-3601935D01*
X22446055Y-3601934D01*
X22394435Y-3653555D01*
X22386109Y-3673659D01*
X22380376Y-3687500D01*
X22378651Y-3691665D01*
X22376234Y-3697500D01*
X22366500Y-3720998D01*
X22366500Y-3861124D01*
X22359471Y-3878095D01*
X22355834Y-3881079D01*
X22329009Y-3899003D01*
X22329003Y-3899009D01*
X22319654Y-3913001D01*
X22304380Y-3923206D01*
X22286365Y-3919622D01*
X22279743Y-3913000D01*
X22270634Y-3899367D01*
X22270629Y-3899362D01*
X22203817Y-3854721D01*
X22150000Y-3844014D01*
X22150000Y-4945982D01*
X22203815Y-4935279D01*
X22203820Y-4935277D01*
X22270629Y-4890637D01*
X22270634Y-4890632D01*
X22279743Y-4876999D01*
X22295016Y-4866793D01*
X22313032Y-4870376D01*
X22319653Y-4876997D01*
X22329006Y-4890994D01*
X22395988Y-4935751D01*
X22455056Y-4947500D01*
X22473000Y-4947500D01*
X22489971Y-4954529D01*
X22497000Y-4971500D01*
X22497000Y-5068500D01*
X22489971Y-5085471D01*
X22473000Y-5092500D01*
X22455051Y-5092500D01*
X22395989Y-5104248D01*
X22329008Y-5149004D01*
X22329003Y-5149009D01*
X22319654Y-5163001D01*
X22304380Y-5173206D01*
X22286365Y-5169622D01*
X22279743Y-5163000D01*
X22270634Y-5149367D01*
X22270629Y-5149362D01*
X22203817Y-5104721D01*
X22150000Y-5094014D01*
X22150000Y-6195982D01*
X22203815Y-6185279D01*
X22203820Y-6185277D01*
X22270629Y-6140637D01*
X22270634Y-6140632D01*
X22279743Y-6126999D01*
X22295016Y-6116793D01*
X22313032Y-6120376D01*
X22319653Y-6126997D01*
X22329006Y-6140994D01*
X22355834Y-6158920D01*
X22366039Y-6174193D01*
X22366500Y-6178875D01*
X22366500Y-6319002D01*
X22373564Y-6336055D01*
X22373564Y-6336056D01*
X22394435Y-6386444D01*
X22394436Y-6386446D01*
X22394437Y-6386446D01*
X22489971Y-6481980D01*
X22497000Y-6498951D01*
X22497000Y-7034550D01*
X22489971Y-7051521D01*
X20241521Y-9299971D01*
X20224550Y-9307000D01*
X14893998Y-9307000D01*
X14826557Y-9334934D01*
X14010680Y-10150812D01*
X14010679Y-10150812D01*
X13926856Y-10234633D01*
X13926857Y-10234634D01*
X13926856Y-10234635D01*
X13570474Y-10591019D01*
X13570473Y-10591020D01*
X13540953Y-10620541D01*
X13523982Y-10627570D01*
X13507011Y-10620541D01*
X13476370Y-10589900D01*
X13476368Y-10589898D01*
X13476367Y-10589897D01*
X13436860Y-10573532D01*
X13436859Y-10573531D01*
X13408925Y-10561961D01*
X13408924Y-10561961D01*
X13408923Y-10561961D01*
X13274221Y-10561961D01*
X13201219Y-10561961D01*
X13201218Y-10561961D01*
X13133776Y-10589895D01*
X12999070Y-10724600D01*
X12947449Y-10776221D01*
X12935880Y-10804154D01*
X12935880Y-10804155D01*
X12919515Y-10843662D01*
X12919515Y-10843664D01*
X12919515Y-10978367D01*
X12919515Y-11051369D01*
X12924157Y-11062576D01*
X12947451Y-11118812D01*
X12947452Y-11118813D01*
X12947454Y-11118815D01*
X12978094Y-11149455D01*
X12985123Y-11166426D01*
X12978094Y-11183396D01*
X12876556Y-11284935D01*
X12824935Y-11336556D01*
X12809208Y-11374528D01*
X12809208Y-11374529D01*
X12803071Y-11389344D01*
X12797000Y-11403999D01*
X12797000Y-12314449D01*
X12789971Y-12331420D01*
X12773000Y-12338449D01*
X12756029Y-12331420D01*
X12749818Y-12320661D01*
X12738144Y-12277093D01*
X12662115Y-12145407D01*
X12554593Y-12037885D01*
X12422907Y-11961856D01*
X12422906Y-11961855D01*
X12422905Y-11961855D01*
X12329789Y-11936905D01*
X12276029Y-11922500D01*
X12123971Y-11922500D01*
X12084616Y-11933045D01*
X11977094Y-11961855D01*
X11845407Y-12037885D01*
X11737885Y-12145407D01*
X11661855Y-12277094D01*
X11641168Y-12354300D01*
X11622500Y-12423971D01*
X11622500Y-12576029D01*
X11645614Y-12662291D01*
X11661856Y-12722907D01*
X11670721Y-12738263D01*
X11673118Y-12756474D01*
X11663270Y-12770217D01*
X11598121Y-12813749D01*
X11503749Y-12908121D01*
X11429604Y-13019086D01*
X11378537Y-13142378D01*
X11378534Y-13142385D01*
X11352500Y-13273267D01*
X11352500Y-14526732D01*
X11378534Y-14657614D01*
X11378535Y-14657618D01*
X11378536Y-14657619D01*
X11383329Y-14669191D01*
X11429604Y-14780913D01*
X11460732Y-14827499D01*
X11503751Y-14891881D01*
X11503754Y-14891884D01*
X11558899Y-14947030D01*
X11565928Y-14964000D01*
X11558898Y-14980971D01*
X11541928Y-14988000D01*
X11087487Y-14988000D01*
X11050446Y-14995368D01*
X11008440Y-15023436D01*
X11008436Y-15023440D01*
X10980368Y-15065446D01*
X10973000Y-15102487D01*
X10973000Y-15149999D01*
X10973001Y-15150000D01*
X12526999Y-15150000D01*
X12527000Y-15149999D01*
X12527000Y-15102495D01*
X12526999Y-15102487D01*
X12519631Y-15065446D01*
X12491563Y-15023440D01*
X12491559Y-15023436D01*
X12475791Y-15012900D01*
X12465586Y-14997627D01*
X12469170Y-14979611D01*
X12472150Y-14975979D01*
X12556249Y-14891881D01*
X12630393Y-14780917D01*
X12631809Y-14777500D01*
X12643304Y-14749746D01*
X12681464Y-14657619D01*
X12707500Y-14526728D01*
X12707500Y-13273272D01*
X12706824Y-13269877D01*
X12681465Y-13142385D01*
X12681464Y-13142384D01*
X12681464Y-13142381D01*
X12639038Y-13039953D01*
X12630395Y-13019086D01*
X12617198Y-12999336D01*
X12588154Y-12955869D01*
X12584571Y-12937855D01*
X12591138Y-12925568D01*
X12662115Y-12854593D01*
X12738144Y-12722907D01*
X12749818Y-12679337D01*
X12761000Y-12664765D01*
X12779212Y-12662368D01*
X12793785Y-12673550D01*
X12797000Y-12685550D01*
X12797000Y-19514706D01*
X12789971Y-19531677D01*
X12631677Y-19689971D01*
X12614706Y-19697000D01*
X12551500Y-19697000D01*
X12534529Y-19689971D01*
X12527500Y-19673000D01*
X12527500Y-19602445D01*
X12527499Y-19602437D01*
X12520102Y-19565253D01*
X12520102Y-19565252D01*
X12491922Y-19523078D01*
X12487247Y-19519954D01*
X12477043Y-19504682D01*
X12480627Y-19486666D01*
X12487248Y-19480045D01*
X12491923Y-19476922D01*
X12520103Y-19434748D01*
X12527501Y-19397558D01*
X12527501Y-19102442D01*
X12520103Y-19065252D01*
X12491923Y-19023078D01*
X12487248Y-19019954D01*
X12477043Y-19004680D01*
X12480627Y-18986665D01*
X12487245Y-18980046D01*
X12491922Y-18976922D01*
X12520102Y-18934748D01*
X12527500Y-18897558D01*
X12527500Y-18602442D01*
X12520102Y-18565252D01*
X12491922Y-18523078D01*
X12487247Y-18519954D01*
X12477043Y-18504682D01*
X12480627Y-18486666D01*
X12487248Y-18480045D01*
X12491922Y-18476922D01*
X12520102Y-18434748D01*
X12527500Y-18397558D01*
X12527500Y-18102442D01*
X12520102Y-18065252D01*
X12491922Y-18023078D01*
X12487247Y-18019954D01*
X12477043Y-18004682D01*
X12480627Y-17986666D01*
X12487248Y-17980045D01*
X12491922Y-17976922D01*
X12520102Y-17934748D01*
X12527500Y-17897558D01*
X12527500Y-17602442D01*
X12520102Y-17565252D01*
X12491922Y-17523078D01*
X12487247Y-17519954D01*
X12477043Y-17504682D01*
X12480627Y-17486666D01*
X12487248Y-17480045D01*
X12487381Y-17479956D01*
X12491922Y-17476922D01*
X12520102Y-17434748D01*
X12527500Y-17397558D01*
X12527500Y-17102442D01*
X12520102Y-17065252D01*
X12491922Y-17023078D01*
X12487247Y-17019954D01*
X12477043Y-17004682D01*
X12480627Y-16986666D01*
X12487248Y-16980045D01*
X12491923Y-16976922D01*
X12520103Y-16934748D01*
X12527501Y-16897558D01*
X12527501Y-16602442D01*
X12520103Y-16565252D01*
X12491923Y-16523078D01*
X12489642Y-16521554D01*
X12487248Y-16519954D01*
X12477043Y-16504680D01*
X12480627Y-16486665D01*
X12487245Y-16480046D01*
X12491922Y-16476922D01*
X12520102Y-16434748D01*
X12527500Y-16397558D01*
X12527500Y-16102442D01*
X12520102Y-16065252D01*
X12491922Y-16023078D01*
X12487247Y-16019954D01*
X12477043Y-16004682D01*
X12480627Y-15986666D01*
X12487248Y-15980045D01*
X12491922Y-15976922D01*
X12520102Y-15934748D01*
X12527500Y-15897558D01*
X12527500Y-15602442D01*
X12520102Y-15565252D01*
X12491922Y-15523078D01*
X12486798Y-15519654D01*
X12476593Y-15504381D01*
X12480177Y-15486365D01*
X12486801Y-15479742D01*
X12491560Y-15476562D01*
X12491563Y-15476559D01*
X12519631Y-15434553D01*
X12526999Y-15397512D01*
X12527000Y-15397504D01*
X12527000Y-15350001D01*
X12526999Y-15350000D01*
X10973001Y-15350000D01*
X10973000Y-15350001D01*
X10973000Y-15397512D01*
X10980368Y-15434553D01*
X11008436Y-15476559D01*
X11008439Y-15476562D01*
X11013200Y-15479743D01*
X11023406Y-15495016D01*
X11019823Y-15513032D01*
X11013203Y-15519653D01*
X11008080Y-15523076D01*
X11008076Y-15523080D01*
X10979897Y-15565253D01*
X10972500Y-15602437D01*
X10972500Y-15673000D01*
X10965471Y-15689971D01*
X10948500Y-15697000D01*
X9963998Y-15697000D01*
X9948049Y-15703607D01*
X9948048Y-15703607D01*
X9896556Y-15724935D01*
X9896554Y-15724936D01*
X9896555Y-15724937D01*
X8776556Y-16844936D01*
X8776555Y-16844935D01*
X8724935Y-16896556D01*
X8723059Y-16901088D01*
X8723058Y-16901090D01*
X8697901Y-16961822D01*
X8697898Y-16961831D01*
X8697370Y-16963107D01*
X8697000Y-16964000D01*
X8430696Y-16964000D01*
X8464711Y-16886963D01*
X8467500Y-16862924D01*
X8467500Y-16437875D01*
X8474529Y-16420904D01*
X8491500Y-16413875D01*
X8503500Y-16417091D01*
X8574988Y-16458366D01*
X8574991Y-16458367D01*
X8683719Y-16487500D01*
X8796281Y-16487500D01*
X8905009Y-16458367D01*
X9002491Y-16402085D01*
X9082085Y-16322491D01*
X9138367Y-16225009D01*
X9167500Y-16116281D01*
X9167500Y-16003719D01*
X9138367Y-15894991D01*
X9082085Y-15797509D01*
X9002491Y-15717915D01*
X8914797Y-15667284D01*
X8903616Y-15652711D01*
X8906013Y-15634500D01*
X8920587Y-15623318D01*
X8926798Y-15622500D01*
X9450798Y-15622500D01*
X9475046Y-15619687D01*
X9574228Y-15575893D01*
X9650893Y-15499228D01*
X9694687Y-15400046D01*
X9697500Y-15375798D01*
X9697500Y-14964202D01*
X9694687Y-14939954D01*
X9650893Y-14840772D01*
X9574228Y-14764107D01*
X9574226Y-14764106D01*
X9574225Y-14764105D01*
X9475046Y-14720313D01*
X9475045Y-14720312D01*
X9462349Y-14718840D01*
X9446302Y-14709902D01*
X9441275Y-14692234D01*
X9450213Y-14676187D01*
X9462349Y-14671160D01*
X9464711Y-14670885D01*
X9475046Y-14669687D01*
X9574228Y-14625893D01*
X9650893Y-14549228D01*
X9694687Y-14450046D01*
X9697500Y-14425798D01*
X9697500Y-14014202D01*
X9694687Y-13989954D01*
X9650893Y-13890772D01*
X9574228Y-13814107D01*
X9574226Y-13814106D01*
X9574225Y-13814105D01*
X9475046Y-13770313D01*
X9475045Y-13770312D01*
X9462349Y-13768840D01*
X9446302Y-13759902D01*
X9441275Y-13742234D01*
X9450213Y-13726187D01*
X9462349Y-13721160D01*
X9464711Y-13720885D01*
X9475046Y-13719687D01*
X9574228Y-13675893D01*
X9650893Y-13599228D01*
X9694687Y-13500046D01*
X9697500Y-13475798D01*
X9697500Y-13064202D01*
X9694687Y-13039954D01*
X9694687Y-13039953D01*
X9694314Y-13038584D01*
X9694289Y-13026070D01*
X9717500Y-12939447D01*
X9717500Y-10390553D01*
X9681552Y-10256393D01*
X9612105Y-10136107D01*
X9513893Y-10037895D01*
X9393607Y-9968448D01*
X9393606Y-9968447D01*
X9393605Y-9968447D01*
X9308551Y-9945657D01*
X9259447Y-9932500D01*
X9259446Y-9932500D01*
X6438440Y-9932500D01*
X6421469Y-9925471D01*
X4307529Y-7811531D01*
X4300500Y-7794560D01*
X4300500Y-7581219D01*
X4832500Y-7581219D01*
X4832500Y-7693781D01*
X4861633Y-7802509D01*
X4917915Y-7899991D01*
X4917916Y-7899992D01*
X4936581Y-7918658D01*
X4943149Y-7930945D01*
X4945699Y-7943764D01*
X4945699Y-7943765D01*
X4945700Y-7943766D01*
X4995982Y-8019018D01*
X5071234Y-8069300D01*
X5137594Y-8082500D01*
X5137598Y-8082500D01*
X5382402Y-8082500D01*
X5382406Y-8082500D01*
X5448766Y-8069300D01*
X5448769Y-8069298D01*
X5449150Y-8069044D01*
X5450020Y-8068780D01*
X5450947Y-8068396D01*
X5450984Y-8068487D01*
X5462482Y-8065000D01*
X5718500Y-8065000D01*
X5735471Y-8072029D01*
X5742500Y-8089000D01*
X5742500Y-8827562D01*
X5749897Y-8864746D01*
X5749897Y-8864747D01*
X5749898Y-8864748D01*
X5778078Y-8906922D01*
X5820252Y-8935102D01*
X5857442Y-8942500D01*
X5857446Y-8942500D01*
X7782554Y-8942500D01*
X7782558Y-8942500D01*
X7819748Y-8935102D01*
X7861922Y-8906922D01*
X7890102Y-8864748D01*
X7897500Y-8827558D01*
X7897500Y-6602442D01*
X7890102Y-6565252D01*
X7861922Y-6523078D01*
X7819748Y-6494898D01*
X7819747Y-6494897D01*
X7819746Y-6494897D01*
X7782562Y-6487500D01*
X7782558Y-6487500D01*
X5857442Y-6487500D01*
X5857437Y-6487500D01*
X5820253Y-6494897D01*
X5778080Y-6523076D01*
X5778076Y-6523080D01*
X5749897Y-6565253D01*
X5742500Y-6602437D01*
X5742500Y-7186000D01*
X5735471Y-7202971D01*
X5718500Y-7210000D01*
X5564321Y-7210000D01*
X5547350Y-7202971D01*
X5540321Y-7186000D01*
X5544366Y-7172666D01*
X5573829Y-7128571D01*
X5586999Y-7062360D01*
X5587000Y-7062352D01*
X5587000Y-6922501D01*
X5586999Y-6922500D01*
X4933001Y-6922500D01*
X4933000Y-6922501D01*
X4933000Y-7062360D01*
X4946170Y-7128571D01*
X4996340Y-7203655D01*
X4996343Y-7203658D01*
X5005450Y-7209743D01*
X5015656Y-7225016D01*
X5012073Y-7243032D01*
X5005452Y-7249653D01*
X4995986Y-7255978D01*
X4995980Y-7255984D01*
X4945700Y-7331233D01*
X4945699Y-7331237D01*
X4943148Y-7344056D01*
X4936581Y-7356341D01*
X4917916Y-7375007D01*
X4917915Y-7375009D01*
X4876732Y-7446340D01*
X4861632Y-7472493D01*
X4832500Y-7581219D01*
X4300500Y-7581219D01*
X4300500Y-6582639D01*
X4933000Y-6582639D01*
X4933000Y-6722499D01*
X4933001Y-6722500D01*
X5159999Y-6722500D01*
X5160000Y-6722499D01*
X5160000Y-6378001D01*
X5360000Y-6378001D01*
X5360000Y-6722499D01*
X5360001Y-6722500D01*
X5586999Y-6722500D01*
X5587000Y-6722499D01*
X5587000Y-6582647D01*
X5586999Y-6582639D01*
X5573829Y-6516428D01*
X5523659Y-6441344D01*
X5523655Y-6441340D01*
X5448571Y-6391170D01*
X5382360Y-6378000D01*
X5360001Y-6378000D01*
X5360000Y-6378001D01*
X5160000Y-6378001D01*
X5159999Y-6378000D01*
X5137639Y-6378000D01*
X5071428Y-6391170D01*
X4996344Y-6441340D01*
X4996340Y-6441344D01*
X4946170Y-6516428D01*
X4933000Y-6582639D01*
X4300500Y-6582639D01*
X4300500Y-5501500D01*
X4307529Y-5484529D01*
X4324500Y-5477500D01*
X4617667Y-5477500D01*
X4617671Y-5477500D01*
X4654861Y-5470102D01*
X4697035Y-5441922D01*
X4725215Y-5399748D01*
X4732613Y-5362558D01*
X4732613Y-4565001D01*
X8493000Y-4565001D01*
X8493000Y-5127512D01*
X8500368Y-5164553D01*
X8528436Y-5206559D01*
X8528440Y-5206563D01*
X8570446Y-5234631D01*
X8607487Y-5241999D01*
X8607496Y-5242000D01*
X8669999Y-5242000D01*
X8670000Y-5241999D01*
X8670000Y-4565001D01*
X8669999Y-4565000D01*
X8493001Y-4565000D01*
X8493000Y-4565001D01*
X4732613Y-4565001D01*
X4732613Y-3802487D01*
X8493000Y-3802487D01*
X8493000Y-4364999D01*
X8493001Y-4365000D01*
X8669999Y-4365000D01*
X8670000Y-4364999D01*
X8670000Y-3688001D01*
X8669999Y-3688000D01*
X8607487Y-3688000D01*
X8570446Y-3695368D01*
X8528440Y-3723436D01*
X8528436Y-3723440D01*
X8500368Y-3765446D01*
X8493000Y-3802487D01*
X4732613Y-3802487D01*
X4732613Y-3737442D01*
X4725215Y-3700252D01*
X4697035Y-3658078D01*
X4654861Y-3629898D01*
X4654860Y-3629897D01*
X4654859Y-3629897D01*
X4617675Y-3622500D01*
X4617671Y-3622500D01*
X2992555Y-3622500D01*
X2992550Y-3622500D01*
X2955366Y-3629897D01*
X2913193Y-3658076D01*
X2913189Y-3658080D01*
X2885010Y-3700253D01*
X2877613Y-3737437D01*
X2257582Y-3737437D01*
X2244208Y-3728501D01*
X2075511Y-3658624D01*
X2075504Y-3658622D01*
X1896418Y-3623000D01*
X1713807Y-3623000D01*
X1534721Y-3658622D01*
X1534714Y-3658624D01*
X1366017Y-3728502D01*
X1366012Y-3728504D01*
X1221558Y-3825023D01*
X1601950Y-4205415D01*
X1559507Y-4229920D01*
X1485033Y-4304394D01*
X1460528Y-4346837D01*
X1080136Y-3966445D01*
X983617Y-4110899D01*
X983615Y-4110904D01*
X913737Y-4279601D01*
X913735Y-4279608D01*
X878113Y-4458694D01*
X250500Y-4458694D01*
X250500Y-274500D01*
X257529Y-257529D01*
X274500Y-250500D01*
X26725500Y-250500D01*
X26742471Y-257529D01*
G37*
%TD.AperFunction*%
%TD*%
M02*
