%TF.GenerationSoftware,KiCad,Pcbnew,9.0.0*%
%TF.CreationDate,2025-03-11T18:34:40+03:00*%
%TF.ProjectId,Shield_Emergent_4,53686965-6c64-45f4-956d-657267656e74,rev?*%
%TF.SameCoordinates,Original*%
%TF.FileFunction,Legend,Top*%
%TF.FilePolarity,Positive*%
%FSLAX46Y46*%
G04 Gerber Fmt 4.6, Leading zero omitted, Abs format (unit mm)*
G04 Created by KiCad (PCBNEW 9.0.0) date 2025-03-11 18:34:40*
%MOMM*%
%LPD*%
G01*
G04 APERTURE LIST*
%ADD10C,0.150000*%
%ADD11C,0.100000*%
%ADD12C,0.120000*%
%ADD13C,0.127000*%
%ADD14C,0.200000*%
G04 APERTURE END LIST*
D10*
X1716666Y-33704819D02*
X1716666Y-34419104D01*
X1716666Y-34419104D02*
X1669047Y-34561961D01*
X1669047Y-34561961D02*
X1573809Y-34657200D01*
X1573809Y-34657200D02*
X1430952Y-34704819D01*
X1430952Y-34704819D02*
X1335714Y-34704819D01*
X2621428Y-34038152D02*
X2621428Y-34704819D01*
X2383333Y-33657200D02*
X2145238Y-34371485D01*
X2145238Y-34371485D02*
X2764285Y-34371485D01*
X24798095Y-4124819D02*
X24798095Y-4934342D01*
X24798095Y-4934342D02*
X24845714Y-5029580D01*
X24845714Y-5029580D02*
X24893333Y-5077200D01*
X24893333Y-5077200D02*
X24988571Y-5124819D01*
X24988571Y-5124819D02*
X25179047Y-5124819D01*
X25179047Y-5124819D02*
X25274285Y-5077200D01*
X25274285Y-5077200D02*
X25321904Y-5029580D01*
X25321904Y-5029580D02*
X25369523Y-4934342D01*
X25369523Y-4934342D02*
X25369523Y-4124819D01*
X25750476Y-4124819D02*
X26369523Y-4124819D01*
X26369523Y-4124819D02*
X26036190Y-4505771D01*
X26036190Y-4505771D02*
X26179047Y-4505771D01*
X26179047Y-4505771D02*
X26274285Y-4553390D01*
X26274285Y-4553390D02*
X26321904Y-4601009D01*
X26321904Y-4601009D02*
X26369523Y-4696247D01*
X26369523Y-4696247D02*
X26369523Y-4934342D01*
X26369523Y-4934342D02*
X26321904Y-5029580D01*
X26321904Y-5029580D02*
X26274285Y-5077200D01*
X26274285Y-5077200D02*
X26179047Y-5124819D01*
X26179047Y-5124819D02*
X25893333Y-5124819D01*
X25893333Y-5124819D02*
X25798095Y-5077200D01*
X25798095Y-5077200D02*
X25750476Y-5029580D01*
X8493333Y-19444819D02*
X8160000Y-18968628D01*
X7921905Y-19444819D02*
X7921905Y-18444819D01*
X7921905Y-18444819D02*
X8302857Y-18444819D01*
X8302857Y-18444819D02*
X8398095Y-18492438D01*
X8398095Y-18492438D02*
X8445714Y-18540057D01*
X8445714Y-18540057D02*
X8493333Y-18635295D01*
X8493333Y-18635295D02*
X8493333Y-18778152D01*
X8493333Y-18778152D02*
X8445714Y-18873390D01*
X8445714Y-18873390D02*
X8398095Y-18921009D01*
X8398095Y-18921009D02*
X8302857Y-18968628D01*
X8302857Y-18968628D02*
X7921905Y-18968628D01*
X9350476Y-18444819D02*
X9160000Y-18444819D01*
X9160000Y-18444819D02*
X9064762Y-18492438D01*
X9064762Y-18492438D02*
X9017143Y-18540057D01*
X9017143Y-18540057D02*
X8921905Y-18682914D01*
X8921905Y-18682914D02*
X8874286Y-18873390D01*
X8874286Y-18873390D02*
X8874286Y-19254342D01*
X8874286Y-19254342D02*
X8921905Y-19349580D01*
X8921905Y-19349580D02*
X8969524Y-19397200D01*
X8969524Y-19397200D02*
X9064762Y-19444819D01*
X9064762Y-19444819D02*
X9255238Y-19444819D01*
X9255238Y-19444819D02*
X9350476Y-19397200D01*
X9350476Y-19397200D02*
X9398095Y-19349580D01*
X9398095Y-19349580D02*
X9445714Y-19254342D01*
X9445714Y-19254342D02*
X9445714Y-19016247D01*
X9445714Y-19016247D02*
X9398095Y-18921009D01*
X9398095Y-18921009D02*
X9350476Y-18873390D01*
X9350476Y-18873390D02*
X9255238Y-18825771D01*
X9255238Y-18825771D02*
X9064762Y-18825771D01*
X9064762Y-18825771D02*
X8969524Y-18873390D01*
X8969524Y-18873390D02*
X8921905Y-18921009D01*
X8921905Y-18921009D02*
X8874286Y-19016247D01*
X12710476Y-10524819D02*
X13377142Y-11524819D01*
X13377142Y-10524819D02*
X12710476Y-11524819D01*
X14281904Y-11524819D02*
X13710476Y-11524819D01*
X13996190Y-11524819D02*
X13996190Y-10524819D01*
X13996190Y-10524819D02*
X13900952Y-10667676D01*
X13900952Y-10667676D02*
X13805714Y-10762914D01*
X13805714Y-10762914D02*
X13710476Y-10810533D01*
X12698095Y-29174819D02*
X12698095Y-29984342D01*
X12698095Y-29984342D02*
X12745714Y-30079580D01*
X12745714Y-30079580D02*
X12793333Y-30127200D01*
X12793333Y-30127200D02*
X12888571Y-30174819D01*
X12888571Y-30174819D02*
X13079047Y-30174819D01*
X13079047Y-30174819D02*
X13174285Y-30127200D01*
X13174285Y-30127200D02*
X13221904Y-30079580D01*
X13221904Y-30079580D02*
X13269523Y-29984342D01*
X13269523Y-29984342D02*
X13269523Y-29174819D01*
X13698095Y-29270057D02*
X13745714Y-29222438D01*
X13745714Y-29222438D02*
X13840952Y-29174819D01*
X13840952Y-29174819D02*
X14079047Y-29174819D01*
X14079047Y-29174819D02*
X14174285Y-29222438D01*
X14174285Y-29222438D02*
X14221904Y-29270057D01*
X14221904Y-29270057D02*
X14269523Y-29365295D01*
X14269523Y-29365295D02*
X14269523Y-29460533D01*
X14269523Y-29460533D02*
X14221904Y-29603390D01*
X14221904Y-29603390D02*
X13650476Y-30174819D01*
X13650476Y-30174819D02*
X14269523Y-30174819D01*
X17851905Y-1924819D02*
X17851905Y-924819D01*
X17851905Y-924819D02*
X18090000Y-924819D01*
X18090000Y-924819D02*
X18232857Y-972438D01*
X18232857Y-972438D02*
X18328095Y-1067676D01*
X18328095Y-1067676D02*
X18375714Y-1162914D01*
X18375714Y-1162914D02*
X18423333Y-1353390D01*
X18423333Y-1353390D02*
X18423333Y-1496247D01*
X18423333Y-1496247D02*
X18375714Y-1686723D01*
X18375714Y-1686723D02*
X18328095Y-1781961D01*
X18328095Y-1781961D02*
X18232857Y-1877200D01*
X18232857Y-1877200D02*
X18090000Y-1924819D01*
X18090000Y-1924819D02*
X17851905Y-1924819D01*
X19375714Y-1924819D02*
X18804286Y-1924819D01*
X19090000Y-1924819D02*
X19090000Y-924819D01*
X19090000Y-924819D02*
X18994762Y-1067676D01*
X18994762Y-1067676D02*
X18899524Y-1162914D01*
X18899524Y-1162914D02*
X18804286Y-1210533D01*
X3747142Y-9394819D02*
X3413809Y-8918628D01*
X3175714Y-9394819D02*
X3175714Y-8394819D01*
X3175714Y-8394819D02*
X3556666Y-8394819D01*
X3556666Y-8394819D02*
X3651904Y-8442438D01*
X3651904Y-8442438D02*
X3699523Y-8490057D01*
X3699523Y-8490057D02*
X3747142Y-8585295D01*
X3747142Y-8585295D02*
X3747142Y-8728152D01*
X3747142Y-8728152D02*
X3699523Y-8823390D01*
X3699523Y-8823390D02*
X3651904Y-8871009D01*
X3651904Y-8871009D02*
X3556666Y-8918628D01*
X3556666Y-8918628D02*
X3175714Y-8918628D01*
X4699523Y-9394819D02*
X4128095Y-9394819D01*
X4413809Y-9394819D02*
X4413809Y-8394819D01*
X4413809Y-8394819D02*
X4318571Y-8537676D01*
X4318571Y-8537676D02*
X4223333Y-8632914D01*
X4223333Y-8632914D02*
X4128095Y-8680533D01*
X5318571Y-8394819D02*
X5413809Y-8394819D01*
X5413809Y-8394819D02*
X5509047Y-8442438D01*
X5509047Y-8442438D02*
X5556666Y-8490057D01*
X5556666Y-8490057D02*
X5604285Y-8585295D01*
X5604285Y-8585295D02*
X5651904Y-8775771D01*
X5651904Y-8775771D02*
X5651904Y-9013866D01*
X5651904Y-9013866D02*
X5604285Y-9204342D01*
X5604285Y-9204342D02*
X5556666Y-9299580D01*
X5556666Y-9299580D02*
X5509047Y-9347200D01*
X5509047Y-9347200D02*
X5413809Y-9394819D01*
X5413809Y-9394819D02*
X5318571Y-9394819D01*
X5318571Y-9394819D02*
X5223333Y-9347200D01*
X5223333Y-9347200D02*
X5175714Y-9299580D01*
X5175714Y-9299580D02*
X5128095Y-9204342D01*
X5128095Y-9204342D02*
X5080476Y-9013866D01*
X5080476Y-9013866D02*
X5080476Y-8775771D01*
X5080476Y-8775771D02*
X5128095Y-8585295D01*
X5128095Y-8585295D02*
X5175714Y-8490057D01*
X5175714Y-8490057D02*
X5223333Y-8442438D01*
X5223333Y-8442438D02*
X5318571Y-8394819D01*
X17343333Y-30584819D02*
X17010000Y-30108628D01*
X16771905Y-30584819D02*
X16771905Y-29584819D01*
X16771905Y-29584819D02*
X17152857Y-29584819D01*
X17152857Y-29584819D02*
X17248095Y-29632438D01*
X17248095Y-29632438D02*
X17295714Y-29680057D01*
X17295714Y-29680057D02*
X17343333Y-29775295D01*
X17343333Y-29775295D02*
X17343333Y-29918152D01*
X17343333Y-29918152D02*
X17295714Y-30013390D01*
X17295714Y-30013390D02*
X17248095Y-30061009D01*
X17248095Y-30061009D02*
X17152857Y-30108628D01*
X17152857Y-30108628D02*
X16771905Y-30108628D01*
X17914762Y-30013390D02*
X17819524Y-29965771D01*
X17819524Y-29965771D02*
X17771905Y-29918152D01*
X17771905Y-29918152D02*
X17724286Y-29822914D01*
X17724286Y-29822914D02*
X17724286Y-29775295D01*
X17724286Y-29775295D02*
X17771905Y-29680057D01*
X17771905Y-29680057D02*
X17819524Y-29632438D01*
X17819524Y-29632438D02*
X17914762Y-29584819D01*
X17914762Y-29584819D02*
X18105238Y-29584819D01*
X18105238Y-29584819D02*
X18200476Y-29632438D01*
X18200476Y-29632438D02*
X18248095Y-29680057D01*
X18248095Y-29680057D02*
X18295714Y-29775295D01*
X18295714Y-29775295D02*
X18295714Y-29822914D01*
X18295714Y-29822914D02*
X18248095Y-29918152D01*
X18248095Y-29918152D02*
X18200476Y-29965771D01*
X18200476Y-29965771D02*
X18105238Y-30013390D01*
X18105238Y-30013390D02*
X17914762Y-30013390D01*
X17914762Y-30013390D02*
X17819524Y-30061009D01*
X17819524Y-30061009D02*
X17771905Y-30108628D01*
X17771905Y-30108628D02*
X17724286Y-30203866D01*
X17724286Y-30203866D02*
X17724286Y-30394342D01*
X17724286Y-30394342D02*
X17771905Y-30489580D01*
X17771905Y-30489580D02*
X17819524Y-30537200D01*
X17819524Y-30537200D02*
X17914762Y-30584819D01*
X17914762Y-30584819D02*
X18105238Y-30584819D01*
X18105238Y-30584819D02*
X18200476Y-30537200D01*
X18200476Y-30537200D02*
X18248095Y-30489580D01*
X18248095Y-30489580D02*
X18295714Y-30394342D01*
X18295714Y-30394342D02*
X18295714Y-30203866D01*
X18295714Y-30203866D02*
X18248095Y-30108628D01*
X18248095Y-30108628D02*
X18200476Y-30061009D01*
X18200476Y-30061009D02*
X18105238Y-30013390D01*
X17548095Y-24414819D02*
X17548095Y-25224342D01*
X17548095Y-25224342D02*
X17595714Y-25319580D01*
X17595714Y-25319580D02*
X17643333Y-25367200D01*
X17643333Y-25367200D02*
X17738571Y-25414819D01*
X17738571Y-25414819D02*
X17929047Y-25414819D01*
X17929047Y-25414819D02*
X18024285Y-25367200D01*
X18024285Y-25367200D02*
X18071904Y-25319580D01*
X18071904Y-25319580D02*
X18119523Y-25224342D01*
X18119523Y-25224342D02*
X18119523Y-24414819D01*
X19024285Y-24748152D02*
X19024285Y-25414819D01*
X18786190Y-24367200D02*
X18548095Y-25081485D01*
X18548095Y-25081485D02*
X19167142Y-25081485D01*
D11*
X16196666Y-25347419D02*
X16196666Y-26061704D01*
X16196666Y-26061704D02*
X16149047Y-26204561D01*
X16149047Y-26204561D02*
X16053809Y-26299800D01*
X16053809Y-26299800D02*
X15910952Y-26347419D01*
X15910952Y-26347419D02*
X15815714Y-26347419D01*
X16815714Y-25775990D02*
X16720476Y-25728371D01*
X16720476Y-25728371D02*
X16672857Y-25680752D01*
X16672857Y-25680752D02*
X16625238Y-25585514D01*
X16625238Y-25585514D02*
X16625238Y-25537895D01*
X16625238Y-25537895D02*
X16672857Y-25442657D01*
X16672857Y-25442657D02*
X16720476Y-25395038D01*
X16720476Y-25395038D02*
X16815714Y-25347419D01*
X16815714Y-25347419D02*
X17006190Y-25347419D01*
X17006190Y-25347419D02*
X17101428Y-25395038D01*
X17101428Y-25395038D02*
X17149047Y-25442657D01*
X17149047Y-25442657D02*
X17196666Y-25537895D01*
X17196666Y-25537895D02*
X17196666Y-25585514D01*
X17196666Y-25585514D02*
X17149047Y-25680752D01*
X17149047Y-25680752D02*
X17101428Y-25728371D01*
X17101428Y-25728371D02*
X17006190Y-25775990D01*
X17006190Y-25775990D02*
X16815714Y-25775990D01*
X16815714Y-25775990D02*
X16720476Y-25823609D01*
X16720476Y-25823609D02*
X16672857Y-25871228D01*
X16672857Y-25871228D02*
X16625238Y-25966466D01*
X16625238Y-25966466D02*
X16625238Y-26156942D01*
X16625238Y-26156942D02*
X16672857Y-26252180D01*
X16672857Y-26252180D02*
X16720476Y-26299800D01*
X16720476Y-26299800D02*
X16815714Y-26347419D01*
X16815714Y-26347419D02*
X17006190Y-26347419D01*
X17006190Y-26347419D02*
X17101428Y-26299800D01*
X17101428Y-26299800D02*
X17149047Y-26252180D01*
X17149047Y-26252180D02*
X17196666Y-26156942D01*
X17196666Y-26156942D02*
X17196666Y-25966466D01*
X17196666Y-25966466D02*
X17149047Y-25871228D01*
X17149047Y-25871228D02*
X17101428Y-25823609D01*
X17101428Y-25823609D02*
X17006190Y-25775990D01*
D10*
X896666Y-27134819D02*
X896666Y-27849104D01*
X896666Y-27849104D02*
X849047Y-27991961D01*
X849047Y-27991961D02*
X753809Y-28087200D01*
X753809Y-28087200D02*
X610952Y-28134819D01*
X610952Y-28134819D02*
X515714Y-28134819D01*
X1325238Y-27230057D02*
X1372857Y-27182438D01*
X1372857Y-27182438D02*
X1468095Y-27134819D01*
X1468095Y-27134819D02*
X1706190Y-27134819D01*
X1706190Y-27134819D02*
X1801428Y-27182438D01*
X1801428Y-27182438D02*
X1849047Y-27230057D01*
X1849047Y-27230057D02*
X1896666Y-27325295D01*
X1896666Y-27325295D02*
X1896666Y-27420533D01*
X1896666Y-27420533D02*
X1849047Y-27563390D01*
X1849047Y-27563390D02*
X1277619Y-28134819D01*
X1277619Y-28134819D02*
X1896666Y-28134819D01*
X12996666Y-34754819D02*
X12996666Y-35469104D01*
X12996666Y-35469104D02*
X12949047Y-35611961D01*
X12949047Y-35611961D02*
X12853809Y-35707200D01*
X12853809Y-35707200D02*
X12710952Y-35754819D01*
X12710952Y-35754819D02*
X12615714Y-35754819D01*
X13901428Y-34754819D02*
X13710952Y-34754819D01*
X13710952Y-34754819D02*
X13615714Y-34802438D01*
X13615714Y-34802438D02*
X13568095Y-34850057D01*
X13568095Y-34850057D02*
X13472857Y-34992914D01*
X13472857Y-34992914D02*
X13425238Y-35183390D01*
X13425238Y-35183390D02*
X13425238Y-35564342D01*
X13425238Y-35564342D02*
X13472857Y-35659580D01*
X13472857Y-35659580D02*
X13520476Y-35707200D01*
X13520476Y-35707200D02*
X13615714Y-35754819D01*
X13615714Y-35754819D02*
X13806190Y-35754819D01*
X13806190Y-35754819D02*
X13901428Y-35707200D01*
X13901428Y-35707200D02*
X13949047Y-35659580D01*
X13949047Y-35659580D02*
X13996666Y-35564342D01*
X13996666Y-35564342D02*
X13996666Y-35326247D01*
X13996666Y-35326247D02*
X13949047Y-35231009D01*
X13949047Y-35231009D02*
X13901428Y-35183390D01*
X13901428Y-35183390D02*
X13806190Y-35135771D01*
X13806190Y-35135771D02*
X13615714Y-35135771D01*
X13615714Y-35135771D02*
X13520476Y-35183390D01*
X13520476Y-35183390D02*
X13472857Y-35231009D01*
X13472857Y-35231009D02*
X13425238Y-35326247D01*
X23023333Y-7554819D02*
X22690000Y-7078628D01*
X22451905Y-7554819D02*
X22451905Y-6554819D01*
X22451905Y-6554819D02*
X22832857Y-6554819D01*
X22832857Y-6554819D02*
X22928095Y-6602438D01*
X22928095Y-6602438D02*
X22975714Y-6650057D01*
X22975714Y-6650057D02*
X23023333Y-6745295D01*
X23023333Y-6745295D02*
X23023333Y-6888152D01*
X23023333Y-6888152D02*
X22975714Y-6983390D01*
X22975714Y-6983390D02*
X22928095Y-7031009D01*
X22928095Y-7031009D02*
X22832857Y-7078628D01*
X22832857Y-7078628D02*
X22451905Y-7078628D01*
X23499524Y-7554819D02*
X23690000Y-7554819D01*
X23690000Y-7554819D02*
X23785238Y-7507200D01*
X23785238Y-7507200D02*
X23832857Y-7459580D01*
X23832857Y-7459580D02*
X23928095Y-7316723D01*
X23928095Y-7316723D02*
X23975714Y-7126247D01*
X23975714Y-7126247D02*
X23975714Y-6745295D01*
X23975714Y-6745295D02*
X23928095Y-6650057D01*
X23928095Y-6650057D02*
X23880476Y-6602438D01*
X23880476Y-6602438D02*
X23785238Y-6554819D01*
X23785238Y-6554819D02*
X23594762Y-6554819D01*
X23594762Y-6554819D02*
X23499524Y-6602438D01*
X23499524Y-6602438D02*
X23451905Y-6650057D01*
X23451905Y-6650057D02*
X23404286Y-6745295D01*
X23404286Y-6745295D02*
X23404286Y-6983390D01*
X23404286Y-6983390D02*
X23451905Y-7078628D01*
X23451905Y-7078628D02*
X23499524Y-7126247D01*
X23499524Y-7126247D02*
X23594762Y-7173866D01*
X23594762Y-7173866D02*
X23785238Y-7173866D01*
X23785238Y-7173866D02*
X23880476Y-7126247D01*
X23880476Y-7126247D02*
X23928095Y-7078628D01*
X23928095Y-7078628D02*
X23975714Y-6983390D01*
X24953333Y-33679580D02*
X24905714Y-33727200D01*
X24905714Y-33727200D02*
X24762857Y-33774819D01*
X24762857Y-33774819D02*
X24667619Y-33774819D01*
X24667619Y-33774819D02*
X24524762Y-33727200D01*
X24524762Y-33727200D02*
X24429524Y-33631961D01*
X24429524Y-33631961D02*
X24381905Y-33536723D01*
X24381905Y-33536723D02*
X24334286Y-33346247D01*
X24334286Y-33346247D02*
X24334286Y-33203390D01*
X24334286Y-33203390D02*
X24381905Y-33012914D01*
X24381905Y-33012914D02*
X24429524Y-32917676D01*
X24429524Y-32917676D02*
X24524762Y-32822438D01*
X24524762Y-32822438D02*
X24667619Y-32774819D01*
X24667619Y-32774819D02*
X24762857Y-32774819D01*
X24762857Y-32774819D02*
X24905714Y-32822438D01*
X24905714Y-32822438D02*
X24953333Y-32870057D01*
X25810476Y-33108152D02*
X25810476Y-33774819D01*
X25572381Y-32727200D02*
X25334286Y-33441485D01*
X25334286Y-33441485D02*
X25953333Y-33441485D01*
X856666Y-11504819D02*
X856666Y-12219104D01*
X856666Y-12219104D02*
X809047Y-12361961D01*
X809047Y-12361961D02*
X713809Y-12457200D01*
X713809Y-12457200D02*
X570952Y-12504819D01*
X570952Y-12504819D02*
X475714Y-12504819D01*
X1809047Y-11504819D02*
X1332857Y-11504819D01*
X1332857Y-11504819D02*
X1285238Y-11981009D01*
X1285238Y-11981009D02*
X1332857Y-11933390D01*
X1332857Y-11933390D02*
X1428095Y-11885771D01*
X1428095Y-11885771D02*
X1666190Y-11885771D01*
X1666190Y-11885771D02*
X1761428Y-11933390D01*
X1761428Y-11933390D02*
X1809047Y-11981009D01*
X1809047Y-11981009D02*
X1856666Y-12076247D01*
X1856666Y-12076247D02*
X1856666Y-12314342D01*
X1856666Y-12314342D02*
X1809047Y-12409580D01*
X1809047Y-12409580D02*
X1761428Y-12457200D01*
X1761428Y-12457200D02*
X1666190Y-12504819D01*
X1666190Y-12504819D02*
X1428095Y-12504819D01*
X1428095Y-12504819D02*
X1332857Y-12457200D01*
X1332857Y-12457200D02*
X1285238Y-12409580D01*
X22736666Y-10434819D02*
X22736666Y-11149104D01*
X22736666Y-11149104D02*
X22689047Y-11291961D01*
X22689047Y-11291961D02*
X22593809Y-11387200D01*
X22593809Y-11387200D02*
X22450952Y-11434819D01*
X22450952Y-11434819D02*
X22355714Y-11434819D01*
X23117619Y-10434819D02*
X23736666Y-10434819D01*
X23736666Y-10434819D02*
X23403333Y-10815771D01*
X23403333Y-10815771D02*
X23546190Y-10815771D01*
X23546190Y-10815771D02*
X23641428Y-10863390D01*
X23641428Y-10863390D02*
X23689047Y-10911009D01*
X23689047Y-10911009D02*
X23736666Y-11006247D01*
X23736666Y-11006247D02*
X23736666Y-11244342D01*
X23736666Y-11244342D02*
X23689047Y-11339580D01*
X23689047Y-11339580D02*
X23641428Y-11387200D01*
X23641428Y-11387200D02*
X23546190Y-11434819D01*
X23546190Y-11434819D02*
X23260476Y-11434819D01*
X23260476Y-11434819D02*
X23165238Y-11387200D01*
X23165238Y-11387200D02*
X23117619Y-11339580D01*
X20087142Y-29894819D02*
X19753809Y-29418628D01*
X19515714Y-29894819D02*
X19515714Y-28894819D01*
X19515714Y-28894819D02*
X19896666Y-28894819D01*
X19896666Y-28894819D02*
X19991904Y-28942438D01*
X19991904Y-28942438D02*
X20039523Y-28990057D01*
X20039523Y-28990057D02*
X20087142Y-29085295D01*
X20087142Y-29085295D02*
X20087142Y-29228152D01*
X20087142Y-29228152D02*
X20039523Y-29323390D01*
X20039523Y-29323390D02*
X19991904Y-29371009D01*
X19991904Y-29371009D02*
X19896666Y-29418628D01*
X19896666Y-29418628D02*
X19515714Y-29418628D01*
X21039523Y-29894819D02*
X20468095Y-29894819D01*
X20753809Y-29894819D02*
X20753809Y-28894819D01*
X20753809Y-28894819D02*
X20658571Y-29037676D01*
X20658571Y-29037676D02*
X20563333Y-29132914D01*
X20563333Y-29132914D02*
X20468095Y-29180533D01*
X21420476Y-28990057D02*
X21468095Y-28942438D01*
X21468095Y-28942438D02*
X21563333Y-28894819D01*
X21563333Y-28894819D02*
X21801428Y-28894819D01*
X21801428Y-28894819D02*
X21896666Y-28942438D01*
X21896666Y-28942438D02*
X21944285Y-28990057D01*
X21944285Y-28990057D02*
X21991904Y-29085295D01*
X21991904Y-29085295D02*
X21991904Y-29180533D01*
X21991904Y-29180533D02*
X21944285Y-29323390D01*
X21944285Y-29323390D02*
X21372857Y-29894819D01*
X21372857Y-29894819D02*
X21991904Y-29894819D01*
X15633333Y-29779580D02*
X15585714Y-29827200D01*
X15585714Y-29827200D02*
X15442857Y-29874819D01*
X15442857Y-29874819D02*
X15347619Y-29874819D01*
X15347619Y-29874819D02*
X15204762Y-29827200D01*
X15204762Y-29827200D02*
X15109524Y-29731961D01*
X15109524Y-29731961D02*
X15061905Y-29636723D01*
X15061905Y-29636723D02*
X15014286Y-29446247D01*
X15014286Y-29446247D02*
X15014286Y-29303390D01*
X15014286Y-29303390D02*
X15061905Y-29112914D01*
X15061905Y-29112914D02*
X15109524Y-29017676D01*
X15109524Y-29017676D02*
X15204762Y-28922438D01*
X15204762Y-28922438D02*
X15347619Y-28874819D01*
X15347619Y-28874819D02*
X15442857Y-28874819D01*
X15442857Y-28874819D02*
X15585714Y-28922438D01*
X15585714Y-28922438D02*
X15633333Y-28970057D01*
X15966667Y-28874819D02*
X16585714Y-28874819D01*
X16585714Y-28874819D02*
X16252381Y-29255771D01*
X16252381Y-29255771D02*
X16395238Y-29255771D01*
X16395238Y-29255771D02*
X16490476Y-29303390D01*
X16490476Y-29303390D02*
X16538095Y-29351009D01*
X16538095Y-29351009D02*
X16585714Y-29446247D01*
X16585714Y-29446247D02*
X16585714Y-29684342D01*
X16585714Y-29684342D02*
X16538095Y-29779580D01*
X16538095Y-29779580D02*
X16490476Y-29827200D01*
X16490476Y-29827200D02*
X16395238Y-29874819D01*
X16395238Y-29874819D02*
X16109524Y-29874819D01*
X16109524Y-29874819D02*
X16014286Y-29827200D01*
X16014286Y-29827200D02*
X15966667Y-29779580D01*
X14436666Y-1574819D02*
X14436666Y-2289104D01*
X14436666Y-2289104D02*
X14389047Y-2431961D01*
X14389047Y-2431961D02*
X14293809Y-2527200D01*
X14293809Y-2527200D02*
X14150952Y-2574819D01*
X14150952Y-2574819D02*
X14055714Y-2574819D01*
X15436666Y-2574819D02*
X14865238Y-2574819D01*
X15150952Y-2574819D02*
X15150952Y-1574819D01*
X15150952Y-1574819D02*
X15055714Y-1717676D01*
X15055714Y-1717676D02*
X14960476Y-1812914D01*
X14960476Y-1812914D02*
X14865238Y-1860533D01*
X10833333Y-31294819D02*
X10500000Y-30818628D01*
X10261905Y-31294819D02*
X10261905Y-30294819D01*
X10261905Y-30294819D02*
X10642857Y-30294819D01*
X10642857Y-30294819D02*
X10738095Y-30342438D01*
X10738095Y-30342438D02*
X10785714Y-30390057D01*
X10785714Y-30390057D02*
X10833333Y-30485295D01*
X10833333Y-30485295D02*
X10833333Y-30628152D01*
X10833333Y-30628152D02*
X10785714Y-30723390D01*
X10785714Y-30723390D02*
X10738095Y-30771009D01*
X10738095Y-30771009D02*
X10642857Y-30818628D01*
X10642857Y-30818628D02*
X10261905Y-30818628D01*
X11166667Y-30294819D02*
X11833333Y-30294819D01*
X11833333Y-30294819D02*
X11404762Y-31294819D01*
X8678095Y-10794819D02*
X8678095Y-11604342D01*
X8678095Y-11604342D02*
X8725714Y-11699580D01*
X8725714Y-11699580D02*
X8773333Y-11747200D01*
X8773333Y-11747200D02*
X8868571Y-11794819D01*
X8868571Y-11794819D02*
X9059047Y-11794819D01*
X9059047Y-11794819D02*
X9154285Y-11747200D01*
X9154285Y-11747200D02*
X9201904Y-11699580D01*
X9201904Y-11699580D02*
X9249523Y-11604342D01*
X9249523Y-11604342D02*
X9249523Y-10794819D01*
X10249523Y-11794819D02*
X9678095Y-11794819D01*
X9963809Y-11794819D02*
X9963809Y-10794819D01*
X9963809Y-10794819D02*
X9868571Y-10937676D01*
X9868571Y-10937676D02*
X9773333Y-11032914D01*
X9773333Y-11032914D02*
X9678095Y-11080533D01*
X7436666Y-21914819D02*
X7436666Y-22629104D01*
X7436666Y-22629104D02*
X7389047Y-22771961D01*
X7389047Y-22771961D02*
X7293809Y-22867200D01*
X7293809Y-22867200D02*
X7150952Y-22914819D01*
X7150952Y-22914819D02*
X7055714Y-22914819D01*
X7817619Y-21914819D02*
X8484285Y-21914819D01*
X8484285Y-21914819D02*
X8055714Y-22914819D01*
X19127142Y-12184819D02*
X18793809Y-11708628D01*
X18555714Y-12184819D02*
X18555714Y-11184819D01*
X18555714Y-11184819D02*
X18936666Y-11184819D01*
X18936666Y-11184819D02*
X19031904Y-11232438D01*
X19031904Y-11232438D02*
X19079523Y-11280057D01*
X19079523Y-11280057D02*
X19127142Y-11375295D01*
X19127142Y-11375295D02*
X19127142Y-11518152D01*
X19127142Y-11518152D02*
X19079523Y-11613390D01*
X19079523Y-11613390D02*
X19031904Y-11661009D01*
X19031904Y-11661009D02*
X18936666Y-11708628D01*
X18936666Y-11708628D02*
X18555714Y-11708628D01*
X20079523Y-12184819D02*
X19508095Y-12184819D01*
X19793809Y-12184819D02*
X19793809Y-11184819D01*
X19793809Y-11184819D02*
X19698571Y-11327676D01*
X19698571Y-11327676D02*
X19603333Y-11422914D01*
X19603333Y-11422914D02*
X19508095Y-11470533D01*
X21031904Y-12184819D02*
X20460476Y-12184819D01*
X20746190Y-12184819D02*
X20746190Y-11184819D01*
X20746190Y-11184819D02*
X20650952Y-11327676D01*
X20650952Y-11327676D02*
X20555714Y-11422914D01*
X20555714Y-11422914D02*
X20460476Y-11470533D01*
X3573333Y-1269580D02*
X3525714Y-1317200D01*
X3525714Y-1317200D02*
X3382857Y-1364819D01*
X3382857Y-1364819D02*
X3287619Y-1364819D01*
X3287619Y-1364819D02*
X3144762Y-1317200D01*
X3144762Y-1317200D02*
X3049524Y-1221961D01*
X3049524Y-1221961D02*
X3001905Y-1126723D01*
X3001905Y-1126723D02*
X2954286Y-936247D01*
X2954286Y-936247D02*
X2954286Y-793390D01*
X2954286Y-793390D02*
X3001905Y-602914D01*
X3001905Y-602914D02*
X3049524Y-507676D01*
X3049524Y-507676D02*
X3144762Y-412438D01*
X3144762Y-412438D02*
X3287619Y-364819D01*
X3287619Y-364819D02*
X3382857Y-364819D01*
X3382857Y-364819D02*
X3525714Y-412438D01*
X3525714Y-412438D02*
X3573333Y-460057D01*
X4525714Y-1364819D02*
X3954286Y-1364819D01*
X4240000Y-1364819D02*
X4240000Y-364819D01*
X4240000Y-364819D02*
X4144762Y-507676D01*
X4144762Y-507676D02*
X4049524Y-602914D01*
X4049524Y-602914D02*
X3954286Y-650533D01*
X3053333Y-11789580D02*
X3005714Y-11837200D01*
X3005714Y-11837200D02*
X2862857Y-11884819D01*
X2862857Y-11884819D02*
X2767619Y-11884819D01*
X2767619Y-11884819D02*
X2624762Y-11837200D01*
X2624762Y-11837200D02*
X2529524Y-11741961D01*
X2529524Y-11741961D02*
X2481905Y-11646723D01*
X2481905Y-11646723D02*
X2434286Y-11456247D01*
X2434286Y-11456247D02*
X2434286Y-11313390D01*
X2434286Y-11313390D02*
X2481905Y-11122914D01*
X2481905Y-11122914D02*
X2529524Y-11027676D01*
X2529524Y-11027676D02*
X2624762Y-10932438D01*
X2624762Y-10932438D02*
X2767619Y-10884819D01*
X2767619Y-10884819D02*
X2862857Y-10884819D01*
X2862857Y-10884819D02*
X3005714Y-10932438D01*
X3005714Y-10932438D02*
X3053333Y-10980057D01*
X3434286Y-10980057D02*
X3481905Y-10932438D01*
X3481905Y-10932438D02*
X3577143Y-10884819D01*
X3577143Y-10884819D02*
X3815238Y-10884819D01*
X3815238Y-10884819D02*
X3910476Y-10932438D01*
X3910476Y-10932438D02*
X3958095Y-10980057D01*
X3958095Y-10980057D02*
X4005714Y-11075295D01*
X4005714Y-11075295D02*
X4005714Y-11170533D01*
X4005714Y-11170533D02*
X3958095Y-11313390D01*
X3958095Y-11313390D02*
X3386667Y-11884819D01*
X3386667Y-11884819D02*
X4005714Y-11884819D01*
X5393333Y-11644819D02*
X5060000Y-11168628D01*
X4821905Y-11644819D02*
X4821905Y-10644819D01*
X4821905Y-10644819D02*
X5202857Y-10644819D01*
X5202857Y-10644819D02*
X5298095Y-10692438D01*
X5298095Y-10692438D02*
X5345714Y-10740057D01*
X5345714Y-10740057D02*
X5393333Y-10835295D01*
X5393333Y-10835295D02*
X5393333Y-10978152D01*
X5393333Y-10978152D02*
X5345714Y-11073390D01*
X5345714Y-11073390D02*
X5298095Y-11121009D01*
X5298095Y-11121009D02*
X5202857Y-11168628D01*
X5202857Y-11168628D02*
X4821905Y-11168628D01*
X6250476Y-10978152D02*
X6250476Y-11644819D01*
X6012381Y-10597200D02*
X5774286Y-11311485D01*
X5774286Y-11311485D02*
X6393333Y-11311485D01*
X18271905Y-14014819D02*
X18271905Y-13014819D01*
X18271905Y-13014819D02*
X18510000Y-13014819D01*
X18510000Y-13014819D02*
X18652857Y-13062438D01*
X18652857Y-13062438D02*
X18748095Y-13157676D01*
X18748095Y-13157676D02*
X18795714Y-13252914D01*
X18795714Y-13252914D02*
X18843333Y-13443390D01*
X18843333Y-13443390D02*
X18843333Y-13586247D01*
X18843333Y-13586247D02*
X18795714Y-13776723D01*
X18795714Y-13776723D02*
X18748095Y-13871961D01*
X18748095Y-13871961D02*
X18652857Y-13967200D01*
X18652857Y-13967200D02*
X18510000Y-14014819D01*
X18510000Y-14014819D02*
X18271905Y-14014819D01*
X19224286Y-13110057D02*
X19271905Y-13062438D01*
X19271905Y-13062438D02*
X19367143Y-13014819D01*
X19367143Y-13014819D02*
X19605238Y-13014819D01*
X19605238Y-13014819D02*
X19700476Y-13062438D01*
X19700476Y-13062438D02*
X19748095Y-13110057D01*
X19748095Y-13110057D02*
X19795714Y-13205295D01*
X19795714Y-13205295D02*
X19795714Y-13300533D01*
X19795714Y-13300533D02*
X19748095Y-13443390D01*
X19748095Y-13443390D02*
X19176667Y-14014819D01*
X19176667Y-14014819D02*
X19795714Y-14014819D01*
D12*
%TO.C,J4*%
X2975000Y-33240000D02*
X2975000Y-34042470D01*
X2975000Y-34657530D02*
X2975000Y-35460000D01*
X7990000Y-33240000D02*
X2975000Y-33240000D01*
X7990000Y-33240000D02*
X7990000Y-33786529D01*
X7990000Y-34913471D02*
X7990000Y-35460000D01*
X7990000Y-35460000D02*
X2975000Y-35460000D01*
X8750000Y-33239999D02*
X9510000Y-33240000D01*
X9510000Y-33240000D02*
X9510000Y-34350000D01*
%TO.C,U3*%
X20689999Y-4345000D02*
X20689999Y-5695000D01*
X24410001Y-4345000D02*
X24410001Y-5695000D01*
X24600000Y-3800000D02*
X24320000Y-3800000D01*
X24320000Y-3520000D01*
X24600000Y-3800000D01*
G36*
X24600000Y-3800000D02*
G01*
X24320000Y-3800000D01*
X24320000Y-3520000D01*
X24600000Y-3800000D01*
G37*
%TO.C,R6*%
X7639999Y-17052379D02*
X7639999Y-17387621D01*
X8400001Y-17052379D02*
X8400001Y-17387621D01*
%TO.C,X1*%
X10850000Y-12300000D02*
X11300000Y-11850000D01*
X10850000Y-24150000D02*
X10850001Y-22500000D01*
X10850000Y-24150000D02*
X16150000Y-24150000D01*
X10850001Y-13500000D02*
X10850000Y-12300000D01*
X11300000Y-11850000D02*
X15700000Y-11850000D01*
X16149999Y-13500000D02*
X16150000Y-12300000D01*
X16150000Y-12300000D02*
X15700000Y-11850000D01*
X16150000Y-24150000D02*
X16149999Y-22500000D01*
D10*
X11111803Y-21500000D02*
G75*
G02*
X10888197Y-21500000I-111803J0D01*
G01*
X10888197Y-21500000D02*
G75*
G02*
X11111803Y-21500000I111803J0D01*
G01*
D12*
%TO.C,U2*%
X15250000Y-35100000D02*
X17050000Y-35100000D01*
X16250000Y-31880000D02*
X15450000Y-31880000D01*
X16250000Y-31880000D02*
X17050000Y-31880000D01*
X14949999Y-31930000D02*
X14710000Y-31600000D01*
X15190000Y-31600000D01*
X14949999Y-31930000D01*
G36*
X14949999Y-31930000D02*
G01*
X14710000Y-31600000D01*
X15190000Y-31600000D01*
X14949999Y-31930000D01*
G37*
%TO.C,D1*%
X17262500Y-2219999D02*
X17262500Y-3420001D01*
X19222500Y-2220000D02*
X17262500Y-2219999D01*
X19222500Y-3420000D02*
X17262500Y-3420001D01*
%TO.C,R8*%
X17512379Y-30789999D02*
X17847621Y-30789999D01*
X17512379Y-31550001D02*
X17847621Y-31550001D01*
%TO.C,U4*%
X18907500Y-19547499D02*
X17557500Y-19547499D01*
X18907500Y-23267501D02*
X17557500Y-23267501D01*
X19452500Y-23457500D02*
X19452500Y-23177500D01*
X19732500Y-23177500D01*
X19452500Y-23457500D01*
G36*
X19452500Y-23457500D02*
G01*
X19452500Y-23177500D01*
X19732500Y-23177500D01*
X19452500Y-23457500D01*
G37*
D11*
%TO.C,J8*%
X15550000Y-28880000D02*
X3350000Y-28880000D01*
X3350000Y-24880000D01*
X15550000Y-24880000D01*
X15550000Y-28880000D01*
D12*
%TO.C,J2*%
X500000Y-23919999D02*
X500000Y-16240000D01*
X500000Y-26520000D02*
X500000Y-25190000D01*
X1830000Y-26520000D02*
X500000Y-26520000D01*
X3160000Y-16240000D02*
X500000Y-16240000D01*
X3160000Y-23919999D02*
X500000Y-23919999D01*
X3160000Y-23919999D02*
X3160000Y-16240000D01*
%TO.C,J6*%
X10435000Y-33270000D02*
X10435000Y-34072470D01*
X10435000Y-34687530D02*
X10435000Y-35490000D01*
X11640000Y-33270000D02*
X10435000Y-33270000D01*
X11640000Y-33270000D02*
X11640000Y-33816529D01*
X11640000Y-34943471D02*
X11640000Y-35490000D01*
X11640000Y-35490000D02*
X10435000Y-35490000D01*
X12400000Y-33269999D02*
X13160000Y-33270000D01*
X13160000Y-33270000D02*
X13160000Y-34380000D01*
%TO.C,C4*%
X20406814Y-30180849D02*
X20760367Y-30534402D01*
X20611716Y-33942498D02*
X19522771Y-35031442D01*
X20640000Y-33970782D02*
X19551056Y-35059727D01*
X20668284Y-33999066D02*
X19580047Y-35087304D01*
X20696569Y-34027351D02*
X19609038Y-35114881D01*
X20724853Y-34055635D02*
X19638737Y-35141751D01*
X20753137Y-34083919D02*
X19669142Y-35167914D01*
X20760367Y-30180849D02*
X20406814Y-30534402D01*
X20781421Y-34112203D02*
X19700255Y-35193370D01*
X20809706Y-34140488D02*
X19731368Y-35218826D01*
X20837990Y-34168772D02*
X19762480Y-35244281D01*
X20866274Y-34197056D02*
X19794300Y-35269030D01*
X20894558Y-34225341D02*
X19826827Y-35293072D01*
X20922843Y-34253625D02*
X19860061Y-35316406D01*
X20951127Y-34281909D02*
X19893295Y-35339741D01*
X20979411Y-34310193D02*
X19927236Y-35362368D01*
X21007696Y-34338478D02*
X19961177Y-35384996D01*
X21035980Y-34366762D02*
X19995826Y-35406916D01*
X21064264Y-34395046D02*
X20031181Y-35428129D01*
X21092548Y-34423330D02*
X20066536Y-35449342D01*
X21121540Y-34452322D02*
X20103306Y-35470556D01*
X21149824Y-34480606D02*
X20140076Y-35490355D01*
X21178108Y-34508890D02*
X20177552Y-35509446D01*
X21206393Y-34537175D02*
X20215029Y-35528538D01*
X21234677Y-34565459D02*
X20253213Y-35546923D01*
X21262961Y-34593743D02*
X20291396Y-35565308D01*
X21291245Y-34622027D02*
X20330994Y-35582278D01*
X21319530Y-34650312D02*
X20370592Y-35599249D01*
X21347814Y-34678596D02*
X20410897Y-35615512D01*
X21376098Y-34706880D02*
X20451202Y-35631776D01*
X21404382Y-34735165D02*
X20492922Y-35646625D01*
X21432667Y-34763449D02*
X20534641Y-35661474D01*
X21460951Y-34791733D02*
X20577067Y-35675617D01*
X21489235Y-34820017D02*
X20620908Y-35688344D01*
X21517520Y-34848302D02*
X20664042Y-35701780D01*
X21545804Y-34876586D02*
X20708589Y-35713800D01*
X21574088Y-34904870D02*
X20753844Y-35725114D01*
X21602372Y-34933154D02*
X20799806Y-35735721D01*
X21630657Y-34961439D02*
X20846475Y-35745620D01*
X21658941Y-34989723D02*
X20893851Y-35754813D01*
X21687225Y-35018007D02*
X20941227Y-35764005D01*
X21715509Y-35046292D02*
X20990725Y-35771076D01*
X21743794Y-35074576D02*
X21040222Y-35778147D01*
X21772078Y-35102860D02*
X21090427Y-35784511D01*
X21800362Y-35131144D02*
X21142046Y-35789461D01*
X21828646Y-35159429D02*
X21194372Y-35793703D01*
X21856931Y-35187713D02*
X21248112Y-35796532D01*
X21885215Y-35215997D02*
X21302559Y-35798653D01*
X21913499Y-35244281D02*
X21357713Y-35800067D01*
X21941784Y-35272566D02*
X21414989Y-35799360D01*
X21970068Y-35300850D02*
X21472972Y-35797946D01*
X21998352Y-35329134D02*
X21532369Y-35795118D01*
X22026636Y-35357419D02*
X21593180Y-35790875D01*
X23171442Y-31382771D02*
X22082498Y-32471716D01*
X23199727Y-31411056D02*
X22110782Y-32500000D01*
X23227304Y-31440047D02*
X22139066Y-32528284D01*
X23254881Y-31469038D02*
X22167351Y-32556569D01*
X23281751Y-31498737D02*
X22195635Y-32584853D01*
X23307914Y-31529142D02*
X22223919Y-32613137D01*
X23333370Y-31560255D02*
X22252203Y-32641421D01*
X23358826Y-31591368D02*
X22280488Y-32669706D01*
X23384281Y-31622480D02*
X22308772Y-32697990D01*
X23387110Y-34845473D02*
X22985473Y-35247110D01*
X23409030Y-31654300D02*
X22337056Y-32726274D01*
X23433072Y-31686827D02*
X22365341Y-32754558D01*
X23456406Y-31720061D02*
X22393625Y-32782843D01*
X23479741Y-31753295D02*
X22421909Y-32811127D01*
X23502368Y-31787236D02*
X22450193Y-32839411D01*
X23524289Y-34651726D02*
X22791726Y-35384289D01*
X23524996Y-31821177D02*
X22478478Y-32867696D01*
X23546916Y-31855826D02*
X22506762Y-32895980D01*
X23568129Y-31891181D02*
X22535046Y-32924264D01*
X23589342Y-31926536D02*
X22563330Y-32952548D01*
X23608434Y-34511012D02*
X22651012Y-35468434D01*
X23610556Y-31963306D02*
X22592322Y-32981540D01*
X23630355Y-32000076D02*
X22620606Y-33009824D01*
X23649446Y-32037552D02*
X22648890Y-33038108D01*
X23668538Y-32075029D02*
X22677175Y-33066393D01*
X23670660Y-34392218D02*
X22532218Y-35530660D01*
X23686923Y-32113213D02*
X22705459Y-33094677D01*
X23705308Y-32151396D02*
X22733743Y-33122961D01*
X23720157Y-34286152D02*
X22426152Y-35580157D01*
X23722278Y-32190994D02*
X22762027Y-33151245D01*
X23739249Y-32230592D02*
X22790312Y-33179530D01*
X23755512Y-32270897D02*
X22818596Y-33207814D01*
X23759755Y-34189985D02*
X22329985Y-35619755D01*
X23771776Y-32311202D02*
X22846880Y-33236098D01*
X23786625Y-32352922D02*
X22875165Y-33264382D01*
X23792989Y-34100183D02*
X22240183Y-35652989D01*
X23801474Y-32394641D02*
X22903449Y-33292667D01*
X23815617Y-32437067D02*
X22931733Y-33320951D01*
X23821273Y-34015330D02*
X22155330Y-35681273D01*
X23828344Y-32480908D02*
X22960017Y-33349235D01*
X23841780Y-32524042D02*
X22988302Y-33377520D01*
X23844608Y-33935427D02*
X22075427Y-35704608D01*
X23853800Y-32568589D02*
X23016586Y-33405804D01*
X23864407Y-33859059D02*
X21999059Y-35724407D01*
X23865114Y-32613844D02*
X23044870Y-33434088D01*
X23875721Y-32659806D02*
X23073154Y-33462372D01*
X23881377Y-33785520D02*
X21925520Y-35741377D01*
X23885620Y-32706475D02*
X23101439Y-33490657D01*
X23894813Y-32753851D02*
X23129723Y-33518941D01*
X23895520Y-33714809D02*
X21854809Y-35755520D01*
X23904005Y-32801227D02*
X23158007Y-33547225D01*
X23907540Y-33646220D02*
X21786220Y-35767540D01*
X23911076Y-32850725D02*
X23186292Y-33575509D01*
X23917440Y-33579752D02*
X21719752Y-35777440D01*
X23918147Y-32900222D02*
X23214576Y-33603794D01*
X23924511Y-32950427D02*
X23242860Y-33632078D01*
X23925218Y-33515405D02*
X21655405Y-35785218D01*
X23929461Y-33002046D02*
X23271144Y-33660362D01*
X23930875Y-33453180D02*
X23497419Y-33886636D01*
X23933703Y-33054372D02*
X23299429Y-33688646D01*
X23935118Y-33392369D02*
X23469134Y-33858352D01*
X23936532Y-33108112D02*
X23327713Y-33716931D01*
X23937946Y-33332972D02*
X23440850Y-33830068D01*
X23938653Y-33162559D02*
X23355997Y-33745215D01*
X23939360Y-33274989D02*
X23412566Y-33801784D01*
X23940067Y-33217713D02*
X23384281Y-33773499D01*
X23967107Y-33207107D02*
G75*
G02*
X18727107Y-33207107I-2620000J0D01*
G01*
X18727107Y-33207107D02*
G75*
G02*
X23967107Y-33207107I2620000J0D01*
G01*
%TO.C,J5*%
X565000Y-13090000D02*
X565000Y-13892470D01*
X565000Y-14507530D02*
X565000Y-15310000D01*
X1770000Y-13090000D02*
X565000Y-13090000D01*
X1770000Y-13090000D02*
X1770000Y-13636529D01*
X1770000Y-14763471D02*
X1770000Y-15310000D01*
X1770000Y-15310000D02*
X565000Y-15310000D01*
X2530000Y-13089999D02*
X3290000Y-13090000D01*
X3290000Y-13090000D02*
X3290000Y-14200000D01*
D13*
%TO.C,J3*%
X21803805Y-13250000D02*
X21803805Y-15150000D01*
X21803805Y-24650000D02*
X21803805Y-26550000D01*
X21803805Y-26550000D02*
X22903805Y-26550001D01*
X22903805Y-13249999D02*
X21803805Y-13250000D01*
X25803805Y-26550000D02*
X26803805Y-26550000D01*
X26803805Y-13250000D02*
X25803805Y-13250000D01*
X26803805Y-26550000D02*
X26803805Y-13250000D01*
D14*
X19838805Y-24150000D02*
G75*
G02*
X19638805Y-24150000I-100000J0D01*
G01*
X19638805Y-24150000D02*
G75*
G02*
X19838805Y-24150000I100000J0D01*
G01*
D12*
%TO.C,C3*%
X15014165Y-30710000D02*
X15245835Y-30710000D01*
X15014165Y-31430000D02*
X15245835Y-31430000D01*
D13*
%TO.C,J1*%
X6370000Y-5165000D02*
X6369999Y-6265000D01*
X6370000Y-9165000D02*
X6370000Y-10165000D01*
X6370000Y-10165000D02*
X19670000Y-10165000D01*
X8270000Y-5165000D02*
X6370000Y-5165000D01*
X19670000Y-5165000D02*
X17770000Y-5165000D01*
X19670000Y-10165000D02*
X19670000Y-9165000D01*
X19670001Y-6265000D02*
X19670000Y-5165000D01*
D14*
X8870000Y-3100000D02*
G75*
G02*
X8670000Y-3100000I-100000J0D01*
G01*
X8670000Y-3100000D02*
G75*
G02*
X8870000Y-3100000I100000J0D01*
G01*
D12*
%TO.C,R7*%
X12007621Y-31679999D02*
X11672379Y-31679999D01*
X12007621Y-32440001D02*
X11672379Y-32440001D01*
%TO.C,U1*%
X6540000Y-15830000D02*
X8340000Y-15830000D01*
X7540000Y-12610000D02*
X6740000Y-12610000D01*
X7540000Y-12610000D02*
X8340000Y-12610000D01*
X6239999Y-12660000D02*
X6000000Y-12330000D01*
X6480000Y-12330000D01*
X6239999Y-12660000D01*
G36*
X6239999Y-12660000D02*
G01*
X6000000Y-12330000D01*
X6480000Y-12330000D01*
X6239999Y-12660000D01*
G37*
%TO.C,J7*%
X4399999Y-17355000D02*
X4400000Y-16595000D01*
X4400000Y-16595000D02*
X5510000Y-16595000D01*
X4400000Y-18115000D02*
X4400000Y-23130000D01*
X4400000Y-18115000D02*
X4946529Y-18115000D01*
X4400000Y-23130000D02*
X5202470Y-23130000D01*
X5817530Y-23130000D02*
X6620000Y-23130000D01*
X6073471Y-18115000D02*
X6620000Y-18115000D01*
X6620000Y-18115000D02*
X6620000Y-23130000D01*
%TO.C,C1*%
X204113Y-4834000D02*
X204113Y-4266000D01*
X244113Y-5068000D02*
X244113Y-4032000D01*
X284113Y-5227000D02*
X284113Y-3873000D01*
X324113Y-5355000D02*
X324113Y-3745000D01*
X364113Y-5465000D02*
X364113Y-3635000D01*
X404113Y-5561000D02*
X404113Y-3539000D01*
X444113Y-5648000D02*
X444113Y-3452000D01*
X484113Y-5728000D02*
X484113Y-3372000D01*
X524113Y-5801000D02*
X524113Y-3299000D01*
X564113Y-5869000D02*
X564113Y-3231000D01*
X604113Y-5933000D02*
X604113Y-3167000D01*
X644113Y-5993000D02*
X644113Y-3107000D01*
X684113Y-6050000D02*
X684113Y-3050000D01*
X724113Y-6104000D02*
X724113Y-2996000D01*
X764113Y-6155000D02*
X764113Y-2945000D01*
X804113Y-3510000D02*
X804113Y-2897000D01*
X804113Y-6203000D02*
X804113Y-5590000D01*
X844113Y-3510000D02*
X844113Y-2851000D01*
X844113Y-6249000D02*
X844113Y-5590000D01*
X884113Y-3510000D02*
X884113Y-2807000D01*
X884113Y-6293000D02*
X884113Y-5590000D01*
X924113Y-3510000D02*
X924113Y-2765000D01*
X924113Y-6335000D02*
X924113Y-5590000D01*
X964113Y-3510000D02*
X964113Y-2724000D01*
X964113Y-6376000D02*
X964113Y-5590000D01*
X1004113Y-3510000D02*
X1004113Y-2686000D01*
X1004113Y-6414000D02*
X1004113Y-5590000D01*
X1044113Y-3510000D02*
X1044113Y-2649000D01*
X1044113Y-6451000D02*
X1044113Y-5590000D01*
X1084113Y-3510000D02*
X1084113Y-2613000D01*
X1084113Y-6487000D02*
X1084113Y-5590000D01*
X1124113Y-3510000D02*
X1124113Y-2579000D01*
X1124113Y-6521000D02*
X1124113Y-5590000D01*
X1164113Y-3510000D02*
X1164113Y-2546000D01*
X1164113Y-6554000D02*
X1164113Y-5590000D01*
X1204113Y-3510000D02*
X1204113Y-2515000D01*
X1204113Y-6585000D02*
X1204113Y-5590000D01*
X1244113Y-3510000D02*
X1244113Y-2485000D01*
X1244113Y-6615000D02*
X1244113Y-5590000D01*
X1284113Y-3510000D02*
X1284113Y-2455000D01*
X1284113Y-6645000D02*
X1284113Y-5590000D01*
X1324113Y-3510000D02*
X1324113Y-2428000D01*
X1324113Y-6672000D02*
X1324113Y-5590000D01*
X1364113Y-3510000D02*
X1364113Y-2401000D01*
X1364113Y-6699000D02*
X1364113Y-5590000D01*
X1404113Y-3510000D02*
X1404113Y-2375000D01*
X1404113Y-6725000D02*
X1404113Y-5590000D01*
X1444113Y-3510000D02*
X1444113Y-2350000D01*
X1444113Y-6750000D02*
X1444113Y-5590000D01*
X1484113Y-3510000D02*
X1484113Y-2326000D01*
X1484113Y-6774000D02*
X1484113Y-5590000D01*
X1524113Y-3510000D02*
X1524113Y-2303000D01*
X1524113Y-6797000D02*
X1524113Y-5590000D01*
X1564113Y-3510000D02*
X1564113Y-2282000D01*
X1564113Y-6818000D02*
X1564113Y-5590000D01*
X1604113Y-3510000D02*
X1604113Y-2260000D01*
X1604113Y-6840000D02*
X1604113Y-5590000D01*
X1644113Y-3510000D02*
X1644113Y-2240000D01*
X1644113Y-6860000D02*
X1644113Y-5590000D01*
X1684113Y-3510000D02*
X1684113Y-2221000D01*
X1684113Y-6879000D02*
X1684113Y-5590000D01*
X1724113Y-3510000D02*
X1724113Y-2202000D01*
X1724113Y-6898000D02*
X1724113Y-5590000D01*
X1764113Y-3510000D02*
X1764113Y-2185000D01*
X1764113Y-6915000D02*
X1764113Y-5590000D01*
X1804113Y-3510000D02*
X1804113Y-2168000D01*
X1804113Y-6932000D02*
X1804113Y-5590000D01*
X1844113Y-3510000D02*
X1844113Y-2152000D01*
X1844113Y-6948000D02*
X1844113Y-5590000D01*
X1884113Y-3510000D02*
X1884113Y-2136000D01*
X1884113Y-6964000D02*
X1884113Y-5590000D01*
X1924113Y-3510000D02*
X1924113Y-2122000D01*
X1924113Y-6978000D02*
X1924113Y-5590000D01*
X1964113Y-3510000D02*
X1964113Y-2108000D01*
X1964113Y-6992000D02*
X1964113Y-5590000D01*
X2004113Y-3510000D02*
X2004113Y-2095000D01*
X2004113Y-7005000D02*
X2004113Y-5590000D01*
X2044113Y-3510000D02*
X2044113Y-2082000D01*
X2044113Y-7018000D02*
X2044113Y-5590000D01*
X2084113Y-3510000D02*
X2084113Y-2070000D01*
X2084113Y-7030000D02*
X2084113Y-5590000D01*
X2125113Y-3510000D02*
X2125113Y-2059000D01*
X2125113Y-7041000D02*
X2125113Y-5590000D01*
X2165113Y-3510000D02*
X2165113Y-2049000D01*
X2165113Y-7051000D02*
X2165113Y-5590000D01*
X2205113Y-3510000D02*
X2205113Y-2039000D01*
X2205113Y-7061000D02*
X2205113Y-5590000D01*
X2245113Y-3510000D02*
X2245113Y-2030000D01*
X2245113Y-7070000D02*
X2245113Y-5590000D01*
X2285113Y-3510000D02*
X2285113Y-2022000D01*
X2285113Y-7078000D02*
X2285113Y-5590000D01*
X2325113Y-3510000D02*
X2325113Y-2014000D01*
X2325113Y-7086000D02*
X2325113Y-5590000D01*
X2365113Y-3510000D02*
X2365113Y-2007000D01*
X2365113Y-7093000D02*
X2365113Y-5590000D01*
X2405113Y-3510000D02*
X2405113Y-2000000D01*
X2405113Y-7100000D02*
X2405113Y-5590000D01*
X2445113Y-3510000D02*
X2445113Y-1994000D01*
X2445113Y-7106000D02*
X2445113Y-5590000D01*
X2485113Y-3510000D02*
X2485113Y-1989000D01*
X2485113Y-7111000D02*
X2485113Y-5590000D01*
X2525113Y-3510000D02*
X2525113Y-1985000D01*
X2525113Y-7115000D02*
X2525113Y-5590000D01*
X2565113Y-3510000D02*
X2565113Y-1981000D01*
X2565113Y-7119000D02*
X2565113Y-5590000D01*
X2605113Y-3510000D02*
X2605113Y-1977000D01*
X2605113Y-7123000D02*
X2605113Y-5590000D01*
X2645113Y-3510000D02*
X2645113Y-1974000D01*
X2645113Y-7126000D02*
X2645113Y-5590000D01*
X2685113Y-3510000D02*
X2685113Y-1972000D01*
X2685113Y-7128000D02*
X2685113Y-5590000D01*
X2725113Y-3510000D02*
X2725113Y-1971000D01*
X2725113Y-7129000D02*
X2725113Y-5590000D01*
X2765113Y-3510000D02*
X2765113Y-1970000D01*
X2765113Y-7130000D02*
X2765113Y-5590000D01*
X2805113Y-3510000D02*
X2805113Y-1970000D01*
X2805113Y-7130000D02*
X2805113Y-5590000D01*
X5359888Y-6275000D02*
X5359888Y-5775000D01*
X5609888Y-6025000D02*
X5109888Y-6025000D01*
X5425113Y-4550000D02*
G75*
G02*
X185113Y-4550000I-2620000J0D01*
G01*
X185113Y-4550000D02*
G75*
G02*
X5425113Y-4550000I2620000J0D01*
G01*
%TO.C,C2*%
X4150000Y-12755835D02*
X4150000Y-12524165D01*
X4870000Y-12755835D02*
X4870000Y-12524165D01*
%TO.C,R4*%
X7557621Y-11499999D02*
X7222379Y-11499999D01*
X7557621Y-12260001D02*
X7222379Y-12260001D01*
%TO.C,D2*%
X18240000Y-14440000D02*
X20200000Y-14439999D01*
X18240000Y-15640000D02*
X20200000Y-15640001D01*
X20200000Y-15640001D02*
X20200000Y-14439999D01*
%TD*%
M02*
